<svg width="20" height="20" viewBox="0 0 20 20" fill="none" xmlns="http://www.w3.org/2000/svg">
<path d="M3.6642 3.795L3.72503 3.725C3.83085 3.61915 3.97115 3.5548 4.12041 3.54363C4.26966 3.53247 4.41797 3.57524 4.53836 3.66417L4.60836 3.725L10 9.11583L15.3917 3.72417C15.4494 3.6645 15.5184 3.61692 15.5946 3.5842C15.6709 3.55148 15.7529 3.53428 15.8359 3.5336C15.9189 3.53292 16.0012 3.54877 16.078 3.58023C16.1548 3.61169 16.2245 3.65813 16.2832 3.71684C16.3418 3.77555 16.3882 3.84536 16.4196 3.92218C16.451 3.99901 16.4668 4.08131 16.466 4.1643C16.4653 4.24729 16.448 4.32929 16.4152 4.40553C16.3824 4.48176 16.3348 4.55071 16.275 4.60833L10.8842 10L16.2759 15.3917C16.3816 15.4976 16.4458 15.6379 16.4568 15.7872C16.4678 15.9365 16.4249 16.0847 16.3359 16.205L16.275 16.275C16.1692 16.3808 16.0289 16.4452 15.8797 16.4564C15.7304 16.4675 15.5821 16.4248 15.4617 16.3358L15.3917 16.275L10 10.8842L4.60836 16.2758C4.49043 16.3896 4.33253 16.4526 4.16865 16.4511C4.00478 16.4496 3.84805 16.3837 3.73223 16.2678C3.6164 16.1519 3.55074 15.9951 3.5494 15.8312C3.54805 15.6673 3.61112 15.5095 3.72503 15.3917L9.11586 10L3.7242 4.60833C3.61847 4.50241 3.55427 4.36206 3.54326 4.2128C3.53225 4.06355 3.57516 3.9153 3.6642 3.795Z" fill="black"/>
</svg>
