<svg width="20" height="20" viewBox="0 0 20 20" fill="none" xmlns="http://www.w3.org/2000/svg">
<path d="M5.83334 5.21082V5.83332H3.54167C3.04439 5.83332 2.56748 6.03086 2.21585 6.38249C1.86422 6.73412 1.66667 7.21103 1.66667 7.70832V14.7891C1.66667 15.2864 1.86422 15.7633 2.21585 16.115C2.56748 16.4666 3.04439 16.6641 3.54167 16.6641H16.4583C16.9556 16.6641 17.4325 16.4666 17.7842 16.115C18.1358 15.7633 18.3333 15.2864 18.3333 14.7891V7.70832C18.3333 7.21103 18.1358 6.73412 17.7842 6.38249C17.4325 6.03086 16.9556 5.83332 16.4583 5.83332H14.1667V5.21082C14.1667 4.71353 13.9691 4.23662 13.6175 3.88499C13.2659 3.53336 12.789 3.33582 12.2917 3.33582H7.70834C7.21106 3.33582 6.73414 3.53336 6.38251 3.88499C6.03088 4.23662 5.83334 4.71353 5.83334 5.21082ZM7.70834 4.58582H12.2917C12.4574 4.58582 12.6164 4.65166 12.7336 4.76887C12.8508 4.88608 12.9167 5.04506 12.9167 5.21082V5.83332H7.08334V5.21082C7.08334 5.04506 7.14919 4.88608 7.2664 4.76887C7.38361 4.65166 7.54258 4.58582 7.70834 4.58582ZM5.83334 7.08582H7.08334V7.08332H12.9167V7.08582H14.1667V7.08332H16.4583C16.6241 7.08332 16.7831 7.14916 16.9003 7.26637C17.0175 7.38358 17.0833 7.54256 17.0833 7.70832V9.58332H14.5833V8.95832C14.5833 8.79256 14.5175 8.63358 14.4003 8.51637C14.2831 8.39916 14.1241 8.33332 13.9583 8.33332C13.7926 8.33332 13.6336 8.39916 13.5164 8.51637C13.3992 8.63358 13.3333 8.79256 13.3333 8.95832V9.58332H6.66667V8.95832C6.66667 8.79256 6.60082 8.63358 6.48361 8.51637C6.3664 8.39916 6.20743 8.33332 6.04167 8.33332C5.87591 8.33332 5.71694 8.39916 5.59973 8.51637C5.48252 8.63358 5.41667 8.79256 5.41667 8.95832V9.58332H2.91667V7.70832C2.91667 7.54256 2.98252 7.38358 3.09973 7.26637C3.21694 7.14916 3.37591 7.08332 3.54167 7.08332H5.83334V7.08582ZM13.3333 10.8333V11.875C13.3333 12.0407 13.3992 12.1997 13.5164 12.3169C13.6336 12.4341 13.7926 12.5 13.9583 12.5C14.1241 12.5 14.2831 12.4341 14.4003 12.3169C14.5175 12.1997 14.5833 12.0407 14.5833 11.875V10.8333H17.0833V14.7891C17.0833 14.9549 17.0175 15.1139 16.9003 15.2311C16.7831 15.3483 16.6241 15.4141 16.4583 15.4141H3.54167C3.37591 15.4141 3.21694 15.3483 3.09973 15.2311C2.98252 15.1139 2.91667 14.9549 2.91667 14.7891V10.8333H5.41667V11.875C5.41667 12.0407 5.48252 12.1997 5.59973 12.3169C5.71694 12.4341 5.87591 12.5 6.04167 12.5C6.20743 12.5 6.3664 12.4341 6.48361 12.3169C6.60082 12.1997 6.66667 12.0407 6.66667 11.875V10.8333H13.3333Z" fill="white"/>
</svg>
