<svg width="16" height="16" viewBox="0 0 16 16" fill="none" xmlns="http://www.w3.org/2000/svg">
<path d="M2.93136 3.036L2.98002 2.98C3.06468 2.89532 3.17692 2.84383 3.29632 2.8349C3.41573 2.82597 3.53438 2.86019 3.63069 2.93133L3.68669 2.98L8.00002 7.29266L12.3134 2.97933C12.3595 2.9316 12.4147 2.89353 12.4757 2.86736C12.5367 2.84118 12.6023 2.82742 12.6687 2.82688C12.7351 2.82633 12.801 2.83901 12.8624 2.86418C12.9238 2.88935 12.9796 2.9265 13.0266 2.97347C13.0735 3.02044 13.1106 3.07628 13.1357 3.13774C13.1608 3.1992 13.1734 3.26505 13.1728 3.33144C13.1722 3.39783 13.1584 3.46343 13.1321 3.52442C13.1059 3.58541 13.0678 3.64056 13.02 3.68666L8.70736 8L13.0207 12.3133C13.1053 12.3981 13.1566 12.5104 13.1654 12.6298C13.1742 12.7492 13.1399 12.8678 13.0687 12.964L13.02 13.02C12.9354 13.1047 12.8231 13.1562 12.7037 13.1651C12.5843 13.174 12.4657 13.1398 12.3694 13.0687L12.3134 13.02L8.00002 8.70733L3.68669 13.0207C3.59235 13.1117 3.46602 13.162 3.33492 13.1608C3.20382 13.1596 3.07844 13.107 2.98578 13.0142C2.89312 12.9215 2.8406 12.7961 2.83952 12.665C2.83844 12.5339 2.8889 12.4076 2.98002 12.3133L7.29269 8L2.97936 3.68666C2.89478 3.60192 2.84342 3.48964 2.83461 3.37024C2.8258 3.25083 2.86013 3.13223 2.93136 3.036Z" fill="black"/>
</svg>
