<svg id="Layer_1" data-name="Layer 1" xmlns="http://www.w3.org/2000/svg" viewBox="0 0 310.32 87.39"><title>Propel Logo Black</title><path d="M81.34,4.37h24.12c10.84,0,20.19,7.08,20.19,19.58s-9.35,19.66-20.19,19.66H90.87V65.54H81.34Zm23.51,30.94c6.91,0,11.54-4.55,11.54-11.36s-4.63-11.28-11.54-11.28h-14V35.31Z"/><path d="M129.15,22.29h9.18v5.85c3.58-4.81,9.17-6.64,16.69-6.55v9.7a14.37,14.37,0,0,0-5.69-1c-5.67,0-11,4.64-11,13.29V65.54h-9.18Z"/><path d="M154.94,43.87a23,23,0,1,1,23,22.81A22.93,22.93,0,0,1,154.94,43.87Zm36.52.09c0-8-5.94-14.24-13.54-14.16-7.61-.08-13.46,6.12-13.46,14.16S170.31,58.11,177.92,58C185.52,58.11,191.46,51.91,191.46,44Z"/><path d="M205.45,22.29h9.18v6.2c3.58-4.11,8.3-6.82,15.9-6.82,11.8,0,20.62,9.7,20.62,22.29s-8.82,22.2-20.62,22.2c-7.6,0-12.32-2.8-15.9-6.73v28h-9.18ZM242,44c0-8.13-5.86-14.33-13.64-14.33S214.63,35.83,214.63,44s5.94,14.24,13.71,14.24S242,52,242,44Z"/><path d="M297.56,43.17c0,1,0,2-.09,3.15h-36c1,8,7,12.76,14.15,12.76a16.22,16.22,0,0,0,12.85-5.86l5.6,4.72c-4,5.59-11.19,8.65-18.45,8.65A22.36,22.36,0,0,1,253,44c0-12.94,9.7-22.9,22.63-22.9C288.12,21.06,297.3,29.54,297.56,43.17Zm-35.91-2.88h27.7c-1.49-7.61-6.56-12.06-13.73-12.06S263,33,261.65,40.29Z"/><rect x="301.61" width="8.71" height="65.54"/><polygon points="48.56 4.84 48.56 21.18 16.19 39.87 0 30.51 0 14.19 16.19 23.55 48.56 4.84"/><polygon points="64.76 30.52 64.76 46.86 32.39 65.54 16.2 56.18 16.2 39.86 32.39 49.22 64.76 30.52"/></svg>