<svg width="311" height="88" viewBox="0 0 311 88" fill="none" xmlns="http://www.w3.org/2000/svg">
<g clip-path="url(#clip0_24_22)">
<path d="M81.3398 4.37H105.46C116.3 4.37 125.65 11.45 125.65 23.95C125.65 36.45 116.3 43.61 105.46 43.61H90.8699V65.54H81.3398V4.37ZM104.85 35.31C111.76 35.31 116.39 30.76 116.39 23.95C116.39 17.14 111.76 12.67 104.85 12.67H90.8498V35.31H104.85Z" fill="black"/>
<path d="M129.15 22.29H138.33V28.14C141.91 23.33 147.5 21.5 155.02 21.59V31.29C153.21 30.5749 151.275 30.2347 149.33 30.29C143.66 30.29 138.33 34.93 138.33 43.58V65.54H129.15V22.29Z" fill="black"/>
<path d="M154.94 43.87C154.902 39.3131 156.219 34.8478 158.723 31.0405C161.228 27.2333 164.807 24.2558 169.006 22.4858C173.205 20.7158 177.835 20.2331 182.309 21.099C186.783 21.9649 190.899 24.1403 194.135 27.3492C197.371 30.5581 199.58 34.6559 200.483 39.1226C201.386 43.5893 200.942 48.2235 199.207 52.4373C197.472 56.6511 194.524 60.2544 190.738 62.7902C186.951 65.326 182.497 66.6798 177.94 66.68C171.867 66.6986 166.035 64.3075 161.723 60.0312C157.411 55.7549 154.972 49.9427 154.94 43.87ZM191.46 43.96C191.46 35.96 185.52 29.72 177.92 29.8C170.31 29.72 164.46 35.92 164.46 43.96C164.46 52 170.31 58.11 177.92 58C185.52 58.11 191.46 51.91 191.46 44V43.96Z" fill="black"/>
<path d="M205.45 22.29H214.63V28.49C218.21 24.38 222.93 21.67 230.53 21.67C242.33 21.67 251.15 31.37 251.15 43.96C251.15 56.55 242.33 66.16 230.53 66.16C222.93 66.16 218.21 63.36 214.63 59.43V87.43H205.45V22.29ZM242 44C242 35.87 236.14 29.67 228.36 29.67C220.58 29.67 214.63 35.83 214.63 44C214.63 52.17 220.57 58.24 228.34 58.24C236.11 58.24 242 52 242 44Z" fill="black"/>
<path d="M297.56 43.17C297.56 44.17 297.56 45.17 297.47 46.32H261.47C262.47 54.32 268.47 59.08 275.62 59.08C278.065 59.1352 280.491 58.6368 282.716 57.622C284.942 56.6072 286.908 55.1023 288.47 53.22L294.07 57.94C290.07 63.53 282.88 66.59 275.62 66.59C272.642 66.6248 269.688 66.0644 266.93 64.9419C264.172 63.8193 261.665 62.1572 259.558 60.0529C257.451 57.9487 255.786 55.4448 254.66 52.6881C253.533 49.9315 252.969 46.9777 253 44C253 31.06 262.7 21.1 275.63 21.1C288.12 21.06 297.3 29.54 297.56 43.17ZM261.65 40.29H289.35C287.86 32.68 282.79 28.23 275.62 28.23C268.45 28.23 263 33 261.65 40.29Z" fill="black"/>
<path d="M310.32 0H301.61V65.54H310.32V0Z" fill="black"/>
<path d="M48.56 4.84V21.18L16.19 39.87L0 30.51V14.19L16.19 23.55L48.56 4.84Z" fill="black"/>
<path d="M64.7602 30.52V46.86L32.3902 65.54L16.2002 56.18V39.86L32.3902 49.22L64.7602 30.52Z" fill="black"/>
</g>
<defs>
<clipPath id="clip0_24_22">
<rect width="310.32" height="87.39" fill="white"/>
</clipPath>
</defs>
</svg>
