<svg width="60" height="36" viewBox="0 0 60 36" fill="none" xmlns="http://www.w3.org/2000/svg">
<path d="M36.3367 25.3013L32.7735 21.3707L24.8623 23.0959L21.5794 23.8118L18.1082 24.5687L13.0762 25.666L6.91406 27.0098L10.4773 30.9403C12.4433 33.105 16.543 34.3252 19.6375 33.6504C22.7321 32.9756 23.6374 30.664 21.6714 28.4993L25.1426 27.7423C27.1086 29.907 31.2083 31.1272 34.3029 30.4524C37.3974 29.7776 38.3027 27.466 36.3367 25.3013Z" fill="#0045F6"/>
<path d="M14.2629 9.39657L6.90726 26.9838L10.4705 30.9144C11.1578 31.6102 13.229 33.611 16.4482 33.8956C17.9472 34.0479 19.0715 33.7746 19.6307 33.6244C22.5731 32.8982 28.3316 31.6425 34.2364 30.4112C35.7164 30.0885 37.099 29.4487 38.3036 28.5095C44.8272 23.3942 51.3508 18.2788 57.8744 13.1635L50.288 1.51254L14.257 9.36966L14.2629 9.39657Z" fill="#0045F6"/>
<path d="M57.8602 6.87894L52.5839 1.03864L40.8785 3.59117L36.008 4.65327L30.8684 5.77403L23.4146 7.39944L14.2656 9.39453L19.542 15.2348C22.4717 18.4579 28.5317 20.2654 33.1062 19.2678C37.4116 18.329 38.8758 15.219 36.5757 12.1687C36.3766 11.902 36.5215 11.5322 36.8444 11.4618L40.7731 10.6051C41.0691 10.5405 41.3675 10.6164 41.5817 10.8234C44.6049 13.8287 50.4086 15.4948 54.8217 14.5324C59.4231 13.529 60.763 10.1078 57.8602 6.87894Z" fill="#00CFFF"/>
<path d="M54.581 13.3163C50.4639 14.2141 44.8006 12.5456 42.2011 9.67339C41.9037 9.3436 41.4472 9.18943 41.0167 9.28332L35.8771 10.4041C34.9622 10.6036 34.5873 11.7283 35.2208 12.4359C36.2559 13.5632 36.6487 14.7179 36.3521 15.6846C35.9982 16.7766 34.7222 17.6468 32.8655 18.0517C28.7484 18.9495 23.0852 17.281 20.4856 14.4088L16.625 10.1484L52.1447 2.4028L56.9363 7.70048C57.9714 8.82783 58.3641 9.98251 58.0675 10.9492C57.6927 12.074 56.4377 12.9114 54.581 13.3163Z" fill="#D1F2FA"/>
<path d="M15.8508 16.6882L11.1666 27.2657L10.5459 26.3581L15.2359 15.8075L15.8508 16.6882Z" fill="#D1F2FA"/>
</svg>
