<svg width="432" height="379" viewBox="0 0 432 379" fill="none" xmlns="http://www.w3.org/2000/svg">
<g opacity="0.7">
<g clip-path="url(#clip0_6129_66795)">
<path d="M591.722 0V80.0367L442.834 171.593L368.333 125.731V45.766L442.834 91.6279L591.722 0Z" fill="#F9F7F5"/>
</g>
<g clip-path="url(#clip1_6129_66795)">
<path d="M442.777 250.906V330.943L293.888 422.499L219.388 376.637V296.672L293.888 342.534L442.777 250.906Z" fill="#F9F7F5"/>
<path d="M517.269 376.684V456.721L368.358 548.277L293.88 502.415V422.45L368.358 468.312L517.269 376.684Z" fill="#F9F7F5"/>
</g>
<g clip-path="url(#clip2_6129_66795)">
<path d="M368.324 125.778V205.815L219.414 297.371L144.936 251.509V171.544L219.414 217.406L368.324 125.778Z" fill="#F9F7F5"/>
</g>
<g clip-path="url(#clip3_6129_66795)">
<path d="M144.889 250.906V330.943L-3.99966 422.499L-78.5 376.637V296.672L-3.99966 342.534L144.889 250.906Z" fill="#F9F7F5"/>
<path d="M219.381 376.684V456.721L70.4698 548.277L-4.00806 502.415V422.45L70.4698 468.312L219.381 376.684Z" fill="#F9F7F5"/>
</g>
</g>
<defs>
<clipPath id="clip0_6129_66795">
<rect width="297.889" height="297.371" fill="white" transform="translate(368.333)"/>
</clipPath>
<clipPath id="clip1_6129_66795">
<rect width="297.889" height="297.371" fill="white" transform="translate(219.388 250.906)"/>
</clipPath>
<clipPath id="clip2_6129_66795">
<rect width="297.889" height="297.371" fill="white" transform="translate(70.444)"/>
</clipPath>
<clipPath id="clip3_6129_66795">
<rect width="297.889" height="297.371" fill="white" transform="translate(-78.5 250.906)"/>
</clipPath>
</defs>
</svg>
