<svg width="536" height="268" viewBox="0 0 536 268" fill="none" xmlns="http://www.w3.org/2000/svg">
<g clip-path="url(#clip0_4531_49870)">
<path d="M0 24C0 12.6863 0 7.02944 3.51472 3.51472C7.02944 0 12.6863 0 24 0H512C523.314 0 528.971 0 532.485 3.51472C536 7.02944 536 12.6863 536 24V268H0V24Z" fill="#F1EAE4"/>
<g clip-path="url(#clip1_4531_49870)">
<rect width="637.975" height="280" transform="translate(-31 -1)" fill="#FACC9E"/>
<path fill-rule="evenodd" clip-rule="evenodd" d="M459.653 -63.5976V-169.453L263.312 -48.2672L165.067 -108.924V-3.16302L263.301 57.4867V163.193L361.516 223.849L557.887 102.758V-3.09753L361.516 118.088L263.356 57.466L459.653 -63.5976ZM263.239 162.394V268.249L66.8968 389.34L-31.3482 328.684V223.829L-129.531 163.193V57.4321L-31.3159 118.088L165.055 -3.09753V102.758L-30.5821 223.396L66.8968 283.58L263.239 162.394Z" fill="black"/>
<path fill-rule="evenodd" clip-rule="evenodd" d="M950.539 103.082V-2.77344L754.198 118.412L655.953 57.7562V163.517L754.187 224.166V329.872L852.402 390.529L1048.77 269.438V163.582L852.402 284.768L754.242 224.146L950.539 103.082ZM754.124 329.073V434.929L557.783 556.02L459.537 495.364V390.509L361.354 329.872V224.112L459.57 284.768L655.941 163.582V269.438L460.304 390.076L557.783 450.259L754.124 329.073Z" fill="black"/>
</g>
<path d="M557.586 -3V102.856L361.215 223.946L263 163.29V57.5296L361.215 118.186L557.586 -3Z" fill="#9E5CD6" stroke="#9E5CD6"/>
</g>
<defs>
<clipPath id="clip0_4531_49870">
<path d="M0 24C0 12.6863 0 7.02944 3.51472 3.51472C7.02944 0 12.6863 0 24 0H512C523.314 0 528.971 0 532.485 3.51472C536 7.02944 536 12.6863 536 24V268H0V24Z" fill="white"/>
</clipPath>
<clipPath id="clip1_4531_49870">
<rect width="637.975" height="280" fill="white" transform="translate(-31 -1)"/>
</clipPath>
</defs>
</svg>
