<svg width="159" height="10" viewBox="0 0 159 10" fill="none" xmlns="http://www.w3.org/2000/svg">
<path id="Vector 11" d="M157.924 5.42426C158.159 5.18995 158.159 4.81005 157.924 4.57574L154.106 0.757359C153.872 0.523045 153.492 0.523045 153.257 0.757359C153.023 0.991674 153.023 1.37157 153.257 1.60589L156.651 5L153.257 8.39411C153.023 8.62843 153.023 9.00833 153.257 9.24264C153.492 9.47696 153.872 9.47696 154.106 9.24264L157.924 5.42426ZM0.8 5C0.8 6.76731 2.23269 8.2 4 8.2C5.76731 8.2 7.2 6.76731 7.2 5C7.2 3.23269 5.76731 1.8 4 1.8C2.23269 1.8 0.8 3.23269 0.8 5ZM157.5 4.4H4V5.6H157.5V4.4Z" fill="black"/>
</svg>
