<svg width="24" height="24" viewBox="0 0 24 24" fill="none" xmlns="http://www.w3.org/2000/svg">
<path d="M12.002 2C17.525 2 22.002 6.477 22.002 12C22.002 17.523 17.525 22 12.002 22C6.47895 22 2.00195 17.523 2.00195 12C2.00195 6.477 6.47895 2 12.002 2ZM12.002 3.5C9.74761 3.5 7.5856 4.39553 5.99155 5.98959C4.39749 7.58365 3.50195 9.74566 3.50195 12C3.50195 14.2543 4.39749 16.4163 5.99155 18.0104C7.5856 19.6045 9.74761 20.5 12.002 20.5C14.2563 20.5 16.4183 19.6045 18.0124 18.0104C19.6064 16.4163 20.502 14.2543 20.502 12C20.502 9.74566 19.6064 7.58365 18.0124 5.98959C16.4183 4.39553 14.2563 3.5 12.002 3.5ZM11.649 7.553L11.722 7.469C11.8489 7.34198 12.0173 7.26475 12.1964 7.25136C12.3755 7.23796 12.5535 7.28929 12.698 7.396L12.782 7.469L16.783 11.469C16.9102 11.596 16.9876 11.7646 17.001 11.9439C17.0144 12.1233 16.9629 12.3014 16.856 12.446L16.783 12.531L12.781 16.531C12.6471 16.6652 12.4675 16.7437 12.2781 16.7509C12.0887 16.758 11.9036 16.6932 11.7601 16.5694C11.6166 16.4456 11.5252 16.2721 11.5044 16.0837C11.4836 15.8954 11.5349 15.7061 11.648 15.554L11.721 15.47L14.443 12.749H7.75095C7.56972 12.749 7.39461 12.6834 7.25802 12.5642C7.12143 12.4451 7.0326 12.2806 7.00795 12.101L7.00095 12C7.00099 11.8186 7.06677 11.6434 7.1861 11.5068C7.30542 11.3702 7.47022 11.2814 7.64995 11.257L7.75095 11.25H14.441L11.721 8.53C11.5941 8.40289 11.517 8.23447 11.5038 8.05536C11.4906 7.87626 11.5421 7.69835 11.649 7.554L11.722 7.47L11.649 7.554V7.553Z" fill="white"/>
</svg>
