<svg width="16" height="17" viewBox="0 0 16 17" fill="none" xmlns="http://www.w3.org/2000/svg">
<path d="M8.84467 3.30504C8.74797 3.21753 8.62091 3.17128 8.49059 3.17613C8.36026 3.18098 8.237 3.23656 8.14707 3.331C8.05714 3.42545 8.00768 3.5513 8.00922 3.6817C8.01077 3.8121 8.0632 3.93674 8.15533 4.02904L12.3227 7.99904H2.5C2.36739 7.99904 2.24021 8.05171 2.14645 8.14548C2.05268 8.23925 2 8.36643 2 8.49904C2 8.63164 2.05268 8.75882 2.14645 8.85259C2.24021 8.94636 2.36739 8.99904 2.5 8.99904H12.3227L8.15533 12.9684C8.05924 13.0598 8.00339 13.1856 8.00008 13.3182C7.99676 13.4508 8.04626 13.5793 8.13767 13.6754C8.22908 13.7715 8.35492 13.8273 8.48751 13.8306C8.6201 13.8339 8.74857 13.7844 8.84467 13.693L13.7913 8.9817C13.8996 8.87895 13.97 8.74274 13.9913 8.59504C14.0036 8.53115 14.0033 8.4655 13.9907 8.4017C13.9691 8.25446 13.8987 8.11874 13.7907 8.01637L8.84467 3.30504Z" fill="black" stroke="black" stroke-width="0.6"/>
</svg>
