<svg width="20" height="20" viewBox="0 0 20 20" fill="none" xmlns="http://www.w3.org/2000/svg">
<g clip-path="url(#clip0_2068_5726)">
<path d="M6.16413 5.06436C6.00132 5.07249 5.84813 5.14391 5.73723 5.26338C5.62633 5.38286 5.56649 5.54094 5.57049 5.70391C5.57449 5.86687 5.642 6.02183 5.75862 6.13572C5.87525 6.24962 6.03176 6.31344 6.19477 6.31358L13.3872 6.13916L4.70514 14.8213C4.58793 14.9385 4.52208 15.0974 4.52208 15.2632C4.52208 15.429 4.58793 15.5879 4.70514 15.7051C4.82235 15.8223 4.98132 15.8882 5.14708 15.8882C5.31284 15.8882 5.47181 15.8223 5.58902 15.7051L14.2711 7.02304L14.0961 14.2149C14.092 14.3806 14.1538 14.5412 14.2681 14.6614C14.3824 14.7815 14.5397 14.8513 14.7054 14.8554C14.8711 14.8596 15.0317 14.7977 15.1518 14.6834C15.272 14.5692 15.3418 14.4119 15.3459 14.2461L15.5539 5.70959C15.5588 5.52311 15.5006 5.34045 15.3889 5.19105C15.3433 5.12378 15.285 5.06595 15.2175 5.02075C15.0683 4.90966 14.886 4.85197 14.7001 4.85694L6.16413 5.06436Z" fill="black" stroke="black" stroke-width="0.6"/>
</g>
<defs>
<clipPath id="clip0_2068_5726">
<rect width="20" height="20" fill="white"/>
</clipPath>
</defs>
</svg>
