<svg width="20" height="20" viewBox="0 0 20 20" fill="none" xmlns="http://www.w3.org/2000/svg">
<path d="M13.5418 4.31742C13.4413 4.44926 13.3974 4.61559 13.4196 4.77984C13.4418 4.94408 13.5283 5.09279 13.6601 5.19325C14.621 5.92506 15.3406 6.92805 15.7259 8.0728C16.1112 9.21754 16.1446 10.4515 15.8218 11.6154C15.499 12.7793 14.8347 13.8198 13.9148 14.6025C12.9949 15.3852 11.8615 15.8743 10.6609 16.0066L11.2251 15.4424C11.3369 15.3309 11.4024 15.1812 11.4083 15.0234C11.4143 14.8655 11.3602 14.7113 11.2571 14.5917C11.1539 14.4721 11.0094 14.396 10.8524 14.3786C10.6954 14.3613 10.5377 14.404 10.4109 14.4983L10.3409 14.5591L8.67426 16.2258C8.56841 16.3316 8.50405 16.4719 8.49289 16.6211C8.48173 16.7704 8.5245 16.9187 8.61343 17.0391L8.67426 17.1091L10.3409 18.7758C10.4526 18.8866 10.6019 18.9512 10.7591 18.9567C10.9164 18.9622 11.0699 18.9083 11.1891 18.8056C11.3082 18.7029 11.3843 18.5591 11.4021 18.4028C11.4199 18.2465 11.3781 18.0893 11.2851 17.9624L11.2251 17.8924L10.6001 17.2674C12.0693 17.1458 13.4672 16.5816 14.6092 15.6493C15.7513 14.7171 16.584 13.4605 16.9974 12.0454C17.4108 10.6303 17.3856 9.12316 16.925 7.72269C16.4645 6.32222 15.5902 5.09425 14.4176 4.20075C14.2859 4.10023 14.1196 4.05614 13.9553 4.07817C13.7911 4.1002 13.6423 4.18656 13.5418 4.31825V4.31742ZM8.77509 1.22575C8.65805 1.34294 8.59231 1.50179 8.59231 1.66742C8.59231 1.83304 8.65805 1.9919 8.77509 2.10909L9.40009 2.73409C7.9545 2.85316 6.57727 3.40067 5.44449 4.30661C4.31172 5.21255 3.47487 6.43575 3.04095 7.81982C2.60703 9.20388 2.59577 10.6859 3.00859 12.0764C3.42141 13.4669 4.23955 14.7027 5.35842 15.6258C5.42173 15.6781 5.49472 15.7174 5.57323 15.7415C5.65174 15.7656 5.73422 15.774 5.81598 15.7662C5.89773 15.7584 5.97715 15.7346 6.04971 15.6962C6.12226 15.6577 6.18653 15.6053 6.23884 15.542C6.29115 15.4787 6.33048 15.4057 6.35458 15.3272C6.37868 15.2487 6.38708 15.1662 6.37931 15.0844C6.37153 15.0027 6.34773 14.9233 6.30926 14.8507C6.27078 14.7782 6.2184 14.7139 6.15509 14.6616C5.23902 13.9057 4.56603 12.8965 4.22023 11.7603C3.87443 10.624 3.87115 9.41108 4.2108 8.27299C4.55045 7.1349 5.21797 6.12213 6.12994 5.36126C7.04191 4.60039 8.15789 4.12514 9.33843 3.99492L8.77509 4.55909C8.71543 4.61677 8.66784 4.68576 8.63513 4.76202C8.60241 4.83829 8.5852 4.92031 8.58452 5.0033C8.58384 5.08629 8.59969 5.16858 8.63115 5.24537C8.66262 5.32217 8.70906 5.39193 8.76777 5.45058C8.82648 5.50924 8.89628 5.55561 8.97311 5.587C9.04993 5.61839 9.13224 5.63417 9.21522 5.63341C9.29821 5.63265 9.38022 5.61537 9.45645 5.58258C9.53269 5.54979 9.60163 5.50214 9.65926 5.44242L11.3259 3.77575C11.443 3.65856 11.5087 3.49971 11.5087 3.33409C11.5087 3.16846 11.443 3.00961 11.3259 2.89242L9.65926 1.22575C9.54207 1.10871 9.38322 1.04297 9.21759 1.04297C9.05197 1.04297 8.89311 1.10871 8.77592 1.22575H8.77509Z" fill="#EBF2FA" stroke="#EBF2FA" stroke-width="0.4"/>
</svg>
