<svg width="960" height="1080" viewBox="0 0 960 1080" fill="none" xmlns="http://www.w3.org/2000/svg">
<g clip-path="url(#clip0_3525_41665)">
<rect width="960" height="1080" fill="#EBF2FA"/>
<path fill-rule="evenodd" clip-rule="evenodd" d="M794.015 -384.996V-599L396.781 -354.003L198.014 -476.629V-262.817L396.761 -140.203V73.4978L595.468 196.125L992.762 -48.6807V-262.685L595.468 -17.6878L396.872 -140.246L794.015 -384.996ZM396.624 71.8745V285.879L-0.609894 530.684L-199.377 408.057V196.073L-398 73.4978V-140.315L-199.293 -17.6878L198.001 -262.685V-48.6807L-197.811 195.211L-0.609894 316.872L396.624 71.8745Z" fill="#F4F8FC"/>
<path fill-rule="evenodd" clip-rule="evenodd" d="M1192.01 287.004V73L794.781 317.997L596.014 195.371V409.183L794.761 531.797V745.498L993.468 868.125L1390.76 623.319V409.315L993.468 654.312L794.872 531.754L1192.01 287.004ZM794.624 743.874V957.879L397.39 1202.68L198.623 1080.06V868.073L0 745.498V531.685L198.707 654.312L596.001 409.315V623.319L200.189 867.211L397.39 988.872L794.624 743.874Z" fill="#F4F8FC"/>
</g>
<defs>
<clipPath id="clip0_3525_41665">
<rect width="960" height="1080" fill="white"/>
</clipPath>
</defs>
</svg>
