<svg width="24" height="24" viewBox="0 0 24 24" fill="none" xmlns="http://www.w3.org/2000/svg">
<path d="M7 6.25293V6.99993H4.25C3.65326 6.99993 3.08097 7.23698 2.65901 7.65894C2.23705 8.0809 2 8.65319 2 9.24993V17.7469C2 18.3437 2.23705 18.916 2.65901 19.3379C3.08097 19.7599 3.65326 19.9969 4.25 19.9969H19.75C20.3467 19.9969 20.919 19.7599 21.341 19.3379C21.7629 18.916 22 18.3437 22 17.7469V9.24993C22 8.65319 21.7629 8.0809 21.341 7.65894C20.919 7.23698 20.3467 6.99993 19.75 6.99993H17V6.25293C17 5.65619 16.7629 5.0839 16.341 4.66194C15.919 4.23998 15.3467 4.00293 14.75 4.00293H9.25C8.65326 4.00293 8.08097 4.23998 7.65901 4.66194C7.23705 5.0839 7 5.65619 7 6.25293ZM9.25 5.50293H14.75C14.9489 5.50293 15.1397 5.58195 15.2803 5.7226C15.421 5.86325 15.5 6.05402 15.5 6.25293V6.99993H8.5V6.25293C8.5 6.05402 8.57902 5.86325 8.71967 5.7226C8.86032 5.58195 9.05109 5.50293 9.25 5.50293ZM7 8.50293H8.5V8.49993H15.5V8.50293H17V8.49993H19.75C19.9489 8.49993 20.1397 8.57895 20.2803 8.7196C20.421 8.86025 20.5 9.05102 20.5 9.24993V11.4999H17.5V10.7499C17.5 10.551 17.421 10.3603 17.2803 10.2196C17.1397 10.0789 16.9489 9.99993 16.75 9.99993C16.5511 9.99993 16.3603 10.0789 16.2197 10.2196C16.079 10.3603 16 10.551 16 10.7499V11.4999H8V10.7499C8 10.551 7.92098 10.3603 7.78033 10.2196C7.63968 10.0789 7.44891 9.99993 7.25 9.99993C7.05109 9.99993 6.86032 10.0789 6.71967 10.2196C6.57902 10.3603 6.5 10.551 6.5 10.7499V11.4999H3.5V9.24993C3.5 9.05102 3.57902 8.86025 3.71967 8.7196C3.86032 8.57895 4.05109 8.49993 4.25 8.49993H7V8.50293ZM16 12.9999V14.2499C16 14.4488 16.079 14.6396 16.2197 14.7803C16.3603 14.9209 16.5511 14.9999 16.75 14.9999C16.9489 14.9999 17.1397 14.9209 17.2803 14.7803C17.421 14.6396 17.5 14.4488 17.5 14.2499V12.9999H20.5V17.7469C20.5 17.9458 20.421 18.1366 20.2803 18.2773C20.1397 18.4179 19.9489 18.4969 19.75 18.4969H4.25C4.05109 18.4969 3.86032 18.4179 3.71967 18.2773C3.57902 18.1366 3.5 17.9458 3.5 17.7469V12.9999H6.5V14.2499C6.5 14.4488 6.57902 14.6396 6.71967 14.7803C6.86032 14.9209 7.05109 14.9999 7.25 14.9999C7.44891 14.9999 7.63968 14.9209 7.78033 14.7803C7.92098 14.6396 8 14.4488 8 14.2499V12.9999H16Z" fill="#0080FF"/>
</svg>
