<svg width="33" height="32" viewBox="0 0 33 32" fill="none" xmlns="http://www.w3.org/2000/svg">
<path d="M23.8327 15.9996C25.7776 15.9996 27.6429 16.7722 29.0181 18.1475C30.3934 19.5227 31.166 21.388 31.166 23.3329C31.166 25.2778 30.3934 27.1431 29.0181 28.5184C27.6429 29.8936 25.7776 30.6662 23.8327 30.6662C21.8878 30.6662 20.0225 29.8936 18.6472 28.5184C17.272 27.1431 16.4993 25.2778 16.4993 23.3329C16.4993 21.388 17.272 19.5227 18.6472 18.1475C20.0225 16.7722 21.8878 15.9996 23.8327 15.9996ZM23.8327 18.6662L23.7127 18.6769C23.5795 18.7012 23.4568 18.7656 23.3611 18.8613C23.2653 18.9571 23.201 19.0797 23.1767 19.2129L23.166 19.3329V22.6662H19.83L19.71 22.6782C19.5768 22.7026 19.4542 22.7669 19.3584 22.8627C19.2627 22.9584 19.1984 23.081 19.174 23.2142L19.1633 23.3342L19.174 23.4542C19.1984 23.5875 19.2627 23.7101 19.3584 23.8058C19.4542 23.9016 19.5768 23.9659 19.71 23.9902L19.83 24.0009H23.166V27.3382L23.1767 27.4582C23.201 27.5915 23.2653 27.7141 23.3611 27.8098C23.4568 27.9056 23.5795 27.9699 23.7127 27.9942L23.8327 28.0049L23.9527 27.9942C24.0859 27.9699 24.2085 27.9056 24.3043 27.8098C24.4 27.7141 24.4643 27.5915 24.4887 27.4582L24.4993 27.3382V23.9996H27.838L27.958 23.9902C28.0912 23.9659 28.2139 23.9016 28.3096 23.8058C28.4054 23.7101 28.4697 23.5875 28.494 23.4542L28.5047 23.3342L28.494 23.2142C28.4696 23.0809 28.4051 22.9581 28.3091 22.8623C28.2131 22.7666 28.0901 22.7023 27.9567 22.6782L27.8367 22.6676H24.4993V19.3342L24.4887 19.2142C24.4646 19.0808 24.4004 18.9579 24.3046 18.8619C24.2088 18.7659 24.0861 18.7013 23.9527 18.6769L23.8327 18.6662ZM19.066 3.33825C19.5887 3.33821 20.1024 3.47475 20.5561 3.73434C21.0098 3.99394 21.3878 4.36758 21.6527 4.81825L22.738 6.66758H25.4993C26.6484 6.66758 27.7504 7.12394 28.563 7.93631C29.3756 8.74868 29.8323 9.85054 29.8327 10.9996V17.0796C29.2379 16.5086 28.565 16.025 27.834 15.6436L27.8327 10.9996C27.8327 10.3807 27.5868 9.78725 27.1493 9.34967C26.7117 8.91208 26.1182 8.66625 25.4993 8.66625H22.166C21.9917 8.66634 21.8204 8.62086 21.6691 8.53433C21.5177 8.44779 21.3917 8.3232 21.3033 8.17291L19.9273 5.83025C19.8391 5.68016 19.7133 5.55569 19.5622 5.46917C19.4111 5.38264 19.2401 5.33705 19.066 5.33691H13.9953C13.8494 5.33703 13.7053 5.36908 13.5731 5.43081C13.4409 5.49254 13.3238 5.58246 13.23 5.69425L13.1433 5.81425L11.686 8.18891C11.5967 8.33468 11.4714 8.45509 11.3222 8.53866C11.1731 8.62223 11.005 8.66616 10.834 8.66625H7.50068C7.19415 8.66607 6.89059 8.7263 6.60735 8.84348C6.3241 8.96066 6.06672 9.13251 5.8499 9.34919C5.63309 9.56588 5.4611 9.82316 5.34376 10.1063C5.22641 10.3895 5.16602 10.693 5.16602 10.9996V23.6662C5.16602 24.9542 6.21135 25.9996 7.49935 25.9996H15.5833C15.814 26.7102 16.1327 27.3822 16.5287 27.9996H7.49935C6.35008 27.9996 5.24788 27.543 4.43522 26.7304C3.62256 25.9177 3.16602 24.8155 3.16602 23.6662V10.9996C3.16602 9.85031 3.62256 8.74811 4.43522 7.93545C5.24788 7.12279 6.35008 6.66625 7.49935 6.66625H10.2727L11.4393 4.76758C11.7076 4.33054 12.0834 3.96956 12.5309 3.71909C12.9783 3.46863 13.4825 3.33705 13.9953 3.33691H19.066V3.33825ZM16.4993 10.6662C17.7678 10.6662 19.0037 11.0679 20.0297 11.8138C21.0556 12.5598 21.8189 13.6116 22.21 14.8182C21.5434 14.9449 20.9034 15.1476 20.2994 15.4169C20.0039 14.5115 19.3949 13.7413 18.5821 13.2449C17.7693 12.7485 16.806 12.5586 15.8656 12.7092C14.9252 12.8598 14.0694 13.3412 13.4523 14.0666C12.8352 14.792 12.4973 15.7139 12.4993 16.6662C12.4993 18.5729 13.8327 20.1662 15.6167 20.5689C15.4033 21.2026 15.2646 21.8591 15.2033 22.5249C13.7632 22.2021 12.4925 21.3599 11.6341 20.1593C10.7757 18.9588 10.3898 17.484 10.5502 16.0168C10.7105 14.5497 11.4059 13.1931 12.5034 12.2063C13.6009 11.2195 15.0235 10.6717 16.4993 10.6676V10.6662Z" fill="#0080FF"/>
</svg>
