<svg xmlns="http://www.w3.org/2000/svg" viewBox="0 0 182.45 102.89"><defs><style>.cls-1{fill:#0045f6;}.cls-2{fill:#80f3ff;}.cls-3{fill:#7ee1fb;}.cls-4{fill:#a9f3fd;}.cls-5{fill:#c0fcff;}</style></defs><title>card-keyboard</title><g id="Layer_2" data-name="Layer 2"><g id="Layer_1-2" data-name="Layer 1"><path class="cls-1" d="M1.93.92.2,8.72A11.35,11.35,0,0,0,.2,13L15,83.15a6.27,6.27,0,0,0,5.54,5l152.76,14.7a7.42,7.42,0,0,0,7.08-3.63l1.36-2.45L159.05,74.71Z"/><path class="cls-2" d="M2.2,3.37l17.43,79a2.79,2.79,0,0,0,2.45,2.18L179.47,97.77a2.7,2.7,0,0,0,2.9-3.27L166.58,16.62a2.79,2.79,0,0,0-2.45-2.18L5.1,0A2.71,2.71,0,0,0,2.2,3.37Z"/><path class="cls-3" d="M182.37,94.5a2.73,2.73,0,0,1-3,3.27L162,96.32,22.17,84.43a2.84,2.84,0,0,1-2.54-2.09L2.2,3.37A2.8,2.8,0,0,1,5.2,0L63.38,5.28l100.84,9.16a2.7,2.7,0,0,1,2.45,2.18Z"/><path class="cls-4" d="M182.38,94.5a2.74,2.74,0,0,1-3,3.27L162,96.32c-8.89-23.69-54.82-39.58-54.82-39.58C83.71,51.39,68.83,19.44,63.38,5.28l100.84,9.16a2.7,2.7,0,0,1,2.45,2.18Z"/><path class="cls-5" d="M39.06,80.41a.88.88,0,0,1-.87-.71L23.12,5.09a.89.89,0,0,1,.69-1,.9.9,0,0,1,1.05.7L39.93,79.35a.89.89,0,0,1-.7,1A.52.52,0,0,1,39.06,80.41Z"/><path class="cls-5" d="M52.94,81.87a.9.9,0,0,1-.87-.71L37,6.54a.89.89,0,0,1,.69-1,.9.9,0,0,1,1,.7L53.81,80.81a.87.87,0,0,1-.69,1A.55.55,0,0,1,52.94,81.87Z"/><path class="cls-5" d="M66.92,83.77a.9.9,0,0,1-.87-.71L51,8.45a.9.9,0,0,1,.7-1,.89.89,0,0,1,1,.7L67.79,82.71a.87.87,0,0,1-.69,1A.55.55,0,0,1,66.92,83.77Z"/><path class="cls-5" d="M81.26,84.86a.9.9,0,0,1-.87-.71L65.33,9.54a.89.89,0,0,1,.69-1,.9.9,0,0,1,1,.7L82.14,83.8a.89.89,0,0,1-.7,1A.55.55,0,0,1,81.26,84.86Z"/><path class="cls-5" d="M94.51,85.59a.88.88,0,0,1-.86-.71L78.58,10.27a.89.89,0,0,1,.69-1,.9.9,0,0,1,1,.7L95.39,84.53a.89.89,0,0,1-.7,1A.55.55,0,0,1,94.51,85.59Z"/><path class="cls-5" d="M108.85,88.13a.88.88,0,0,1-.86-.71L92.92,12.81a.89.89,0,0,1,.69-1.05.9.9,0,0,1,1,.7l15.07,74.61a.89.89,0,0,1-.7,1A.55.55,0,0,1,108.85,88.13Z"/><path class="cls-5" d="M122.11,88.86a.88.88,0,0,1-.87-.71L106.17,13.53a.89.89,0,0,1,.69-1,.9.9,0,0,1,1,.7L123,87.8a.89.89,0,0,1-.7,1A.52.52,0,0,1,122.11,88.86Z"/><path class="cls-5" d="M136,90.31a.88.88,0,0,1-.87-.71L120.06,15.08a.89.89,0,0,1,.69-1.05.9.9,0,0,1,1,.7l15.07,74.52a.88.88,0,0,1-.7,1A.5.5,0,0,1,136,90.31Z"/><path class="cls-5" d="M150,91.49a.9.9,0,0,1-.87-.71L134,16.17a.89.89,0,0,1,.69-1.05.9.9,0,0,1,1.05.7l15.07,74.61a.89.89,0,0,1-.7,1A.55.55,0,0,1,150,91.49Z"/><path class="cls-5" d="M163.59,93.3a.88.88,0,0,1-.87-.71L147.65,18a.89.89,0,1,1,1.74-.35l15.07,74.61a.87.87,0,0,1-.7,1A.47.47,0,0,1,163.59,93.3Z"/><path class="cls-5" d="M161.78,26.41h-.09L11,12.79A.89.89,0,0,1,11.18,11L161.85,24.64a.89.89,0,0,1-.07,1.77Z"/><path class="cls-5" d="M164.32,38.21h-.08L13.56,24.59a.89.89,0,0,1,.16-1.77L164.4,36.44a.88.88,0,0,1,.8,1A.89.89,0,0,1,164.32,38.21Z"/><path class="cls-5" d="M167,49.92h-.08L16.19,36.3a.9.9,0,0,1-.8-1,.89.89,0,0,1,1-.8L167,48.15a.88.88,0,0,1,.8,1A.89.89,0,0,1,167,49.92Z"/><path class="cls-5" d="M169.13,61.35h-.08L18.37,47.74A.89.89,0,0,1,18.53,46L169.21,59.58a.88.88,0,0,1,.8,1A.89.89,0,0,1,169.13,61.35Z"/><path class="cls-5" d="M170.58,73.06h-.08L19.82,59.45a.9.9,0,0,1-.8-1,.88.88,0,0,1,1-.8L170.66,71.29a.88.88,0,0,1,.8,1A.89.89,0,0,1,170.58,73.06Z"/><path class="cls-5" d="M174.21,85.59h-.08L23.45,72a.9.9,0,0,1-.8-1,.88.88,0,0,1,1-.8L174.29,83.82a.88.88,0,0,1,.8,1A.89.89,0,0,1,174.21,85.59Z"/></g></g></svg>