<svg xmlns="http://www.w3.org/2000/svg" viewBox="0 0 276.07 125.02"><defs><style>.cls-1{fill:#0045f6;}.cls-2{fill:#80dbff;}.cls-3{fill:#fff;}</style></defs><title>card-glasses</title><g id="Layer_2" data-name="Layer 2"><g id="Layer_1-2" data-name="Layer 1"><path class="cls-1" d="M146.34,101.9,133.05,78.78H0L13.29,101.9C20.63,114.64,39.46,125,55.38,125s22.84-10.38,15.51-23.12H88.74C96.08,114.64,114.91,125,130.83,125S153.68,114.64,146.34,101.9Z"/><path class="cls-1" d="M55,.14,0,78.64l13.29,23.12c2.63,4.15,10.66,16.2,26.17,21a43,43,0,0,0,15.92,2.08c15.23-.42,44.86-.42,75.18-.14a50.7,50.7,0,0,0,22-5L265.13,65.35,240.34,0H55Z"/><path class="cls-2" d="M271.78,34.47,252.12.14H55L74.63,34.47c10.93,19,38.76,34.34,62.3,34.34,22.15,0,32.67-13.71,24.64-31.15a2.25,2.25,0,0,1,2.08-3.19h20.21a4.42,4.42,0,0,1,3.74,1.94c11.63,18,38.35,32.4,61.06,32.4C272.33,68.81,282.58,53.44,271.78,34.47Z"/><path class="cls-3" d="M248.79,62.58c-21.18,0-47.21-14.26-56.9-31.15a6.3,6.3,0,0,0-5.4-3.19H160a6.22,6.22,0,0,0-5.39,9.28c3.87,6.65,4.56,12.74,2.07,17.17-2.91,5-10.1,7.89-19.66,7.89-21.18,0-47.21-14.26-56.9-31.15L65.76,6.37H248.51l17.86,31.15c3.88,6.65,4.57,12.74,2.08,17.17C265.4,59.81,258.34,62.58,248.79,62.58Z"/><path class="cls-3" d="M55,37.66,20.64,84.59l-2.08-5.12L52.9,32.67Z"/></g></g></svg>