<svg xmlns="http://www.w3.org/2000/svg" viewBox="0 0 421.85 75.72"><defs><style>.cls-1{fill:#00cfff;}</style></defs><title>card-plane-two-path</title><g id="Layer_2" data-name="Layer 2"><g id="Layer_1-2" data-name="Layer 1"><path class="cls-1" d="M379.73,75.72c-19.47,0-45.7-2-76.32-5.7-62.8-7.7-140.39-22.5-197.66-37.7C89.89,28.07,2.62,4.59,2.62,4.59L3.1,2.83S90.36,26.31,106.22,30.56c57.19,15.19,134.69,30,197.42,37.65,70.76,8.67,113.13,7.47,116.24-3.29,1.2-4.38-4-13.44-35.56-31.62l.91-1.58C411.75,47,423.65,58,421.63,65.41c-1.87,6.49-14,9.84-37,10.27C383,75.71,381.4,75.72,379.73,75.72Z"/><path class="cls-1" d="M11.25,15.7,6.18,9.81c-1.69-2-3.39-3.91-5.08-5.9L0,2.62l1.69-.2C5,2,8.38,1.59,11.73,1.16,14.81.77,17.88.37,20.93,0l.22,1.81C18.1,2.18,15,2.57,12,3c-2.8.36-5.6.72-8.38,1.06q2,2.31,4,4.6c1.69,2,3.39,3.92,5.08,5.9Z"/></g></g></svg>