<svg xmlns="http://www.w3.org/2000/svg" viewBox="0 0 180.55 172.67"><defs><style>.cls-1{fill:#0045f6;}.cls-2{fill:#80dbff;}.cls-3{fill:#fff;}.cls-4{fill:#c0f0ff;}</style></defs><title>card-usb</title><g id="Layer_2" data-name="Layer 2"><g id="Layer_1-2" data-name="Layer 1"><path class="cls-1" d="M124.12,86.79H35.05L0,18.05,98,37.78Z"/><path class="cls-1" d="M7.43,0,0,18.05,35.05,86.79h89.07l7.43-17.91L98,37.78Z"/><path class="cls-2" d="M131.56,68.88H42.49L7.44,0H96.51Z"/><path class="cls-3" d="M64.33,36.56H42.79l-9.71-18.2H54.62Z"/><path class="cls-3" d="M102.27,36.56H80.58l-9.71-18.2H92.56Z"/><path class="cls-1" d="M142.78,172.67H106.67c-25.19,0-54.93-17.3-66.31-38.54L13.51,83.6h127.6L168,134.13C179.35,155.52,168.12,172.67,142.78,172.67Z"/><path class="cls-1" d="M21.55,63.72,13.36,83.6l27,50.53L170.85,158,179.5,137Z"/><path class="cls-4" d="M151,152.94H114.71c-25.18,0-54.92-17.3-66.3-38.54L21.55,63.88H149.16L176,114.4C187.55,135.64,176.32,152.94,151,152.94Z"/></g></g></svg>