<svg xmlns="http://www.w3.org/2000/svg" viewBox="0 0 156.47 101.9"><defs><style>.cls-1{fill:#0045f6;}.cls-2{fill:#3d76f4;}.cls-3{fill:#40e4ff;}</style></defs><title>card-laptop-small</title><g id="Layer_2" data-name="Layer 2"><g id="Layer_1-2" data-name="Layer 1"><path class="cls-1" d="M151.59.27,137.1,66.2,141,71.1l15.42-65A3.5,3.5,0,0,0,155.62,3Z"/><path class="cls-2" d="M38.26,24.76,150.42,0a1.45,1.45,0,0,1,1.75,1.75l-15,64.41L19.57,92.09,34.46,28.44A4.91,4.91,0,0,1,38.26,24.76Z"/><path class="cls-3" d="M39,26.8,148.14,2.61a.48.48,0,0,1,.58.58L134.65,63.56,23.07,88.29,37,28.67A2.7,2.7,0,0,1,39,26.8Z"/><path class="cls-1" d="M137.16,66.19,0,96.41l1.28,5.49L141,71.05Z"/></g></g></svg>