<svg xmlns="http://www.w3.org/2000/svg" viewBox="0 0 293.18 138.42"><defs><style>.cls-1{fill:#80dbff;}.cls-2{fill:#c0f0ff;}.cls-3{fill:#00cfff;}.cls-4{fill:#009dff;}.cls-5{fill:#fff;}</style></defs><title>card-laptop</title><g id="Layer_2" data-name="Layer 2"><g id="Layer_1-2" data-name="Layer 1"><path class="cls-1" d="M293.18,9.18a9.32,9.32,0,0,1-.2,1.88L271.51,114l-.39,1.81a11.2,11.2,0,0,1-4.15,6.69L74.09,132.77l-4.73-4.29,6.81-4.08L282.28.16,283.45,0A9.17,9.17,0,0,1,292,4.5,9,9,0,0,1,293.18,9.18Z"/><path class="cls-2" d="M76.17,128l185.09-13.23a5.26,5.26,0,0,0,4.67-4L287.66,6.32A5.15,5.15,0,0,0,282.28.16L97.19,13.39a5.26,5.26,0,0,0-4.67,4L70.78,121.8A5.13,5.13,0,0,0,76.17,128Z"/><path d="M271.51,114l-.39,1.82a11.22,11.22,0,0,1-4.15,6.68,11.57,11.57,0,0,1-6.49,2.47L6.88,138.41a6.53,6.53,0,0,1-6.75-7.85l.46-2.27,75.58-4Z"/><path class="cls-3" d="M120.54,11.58a262,262,0,0,1,56.71,57.09,266.39,266.39,0,0,1,28,48.85q-67.14,3.6-134.23,7.14a5.65,5.65,0,0,1-.26-1.17,6.15,6.15,0,0,1,.07-1.62Q81.74,69.7,92.65,17.48a5.16,5.16,0,0,1,1.68-2.85A5.24,5.24,0,0,1,97,13.46C99.33,12.94,108.35,12.22,120.54,11.58Z"/><path class="cls-4" d="M142.21,76.71l-32.37,7.92,10.64,4.15-11.94,7.91,2.66,3.77,11.94-7.92.32,11Z"/><path class="cls-5" d="M122.62,106.34l-.36-12.1L111,101.73l-3.73-5.29L118.47,89l-11.71-4.57,37.63-9.2Zm1.4-15.5.29,9.83L140,78.2l-27.11,6.63,9.57,3.73-12.64,8.37,1.59,2.25Z"/></g></g></svg>