<svg id="Layer_1" data-name="Layer 1" xmlns="http://www.w3.org/2000/svg" xmlns:xlink="http://www.w3.org/1999/xlink" viewBox="0 0 613.2 221.87"><defs><style>.cls-1{fill:#c4c4c4;}.cls-2{fill:#fff;}.cls-3{fill:#0080ff;fill-opacity:0.11;}.cls-4{mask:url(#mask);}.cls-5{fill:#3d76f4;}.cls-6{mask:url(#mask-2);}.cls-7{mask:url(#mask-3);}</style><mask id="mask" x="-18.03" y="-35.81" width="631.24" height="309.57" maskUnits="userSpaceOnUse"><g id="mask0_2:2" data-name="mask0 2:2"><rect class="cls-1" x="-18.03" y="136.34" width="70.7" height="137.42"/></g></mask><mask id="mask-2" x="0" y="-190.29" width="613.2" height="575.59" maskUnits="userSpaceOnUse"><g id="mask1_2:2" data-name="mask1 2:2"><rect class="cls-2" x="52.67" y="-190.29" width="542.72" height="575.59"/><rect class="cls-3" x="52.67" y="-190.29" width="542.72" height="575.59"/></g></mask><mask id="mask-3" x="0" y="-35.81" width="627.26" height="257.67" maskUnits="userSpaceOnUse"><g id="mask2_2:2" data-name="mask2 2:2"><rect class="cls-1" x="595.39" y="-34.94" width="31.87" height="140.41"/></g></mask></defs><title>card-laptop-path</title><g class="cls-4"><path class="cls-5" d="M63.69,221.87c-43.41,0-63-10.62-63.68-34.43-.43-16.5,12-31.24,29-34.28,26.51-4.72,73.58-11.29,128.08-18.89,88.5-12.34,198.65-27.71,288.71-44.37C550.19,70.58,605.43,53.37,610,38.74a29.28,29.28,0,0,0-2.82-24.21C597.62-2.07,573.52-14.4,555-21.81a292,292,0,0,0-38.48-12.27l.39-1.73c3,.68,73.09,16.91,91.81,49.45a31,31,0,0,1,3,25.63c-4.84,15.52-59,32.65-165.56,52.37-90.1,16.68-200.27,32-288.79,44.39-54.48,7.6-101.53,14.16-128,18.87-16.11,2.89-27.95,16.86-27.54,32.5.4,15.22,7.79,32.69,61.9,32.69Z"/></g><g class="cls-6"><path class="cls-5" d="M63.69,221.87c-43.41,0-63-10.62-63.68-34.43-.43-16.5,12-31.24,29-34.28,26.51-4.72,73.58-11.29,128.08-18.89,88.5-12.34,198.65-27.71,288.71-44.37C550.19,70.58,605.43,53.37,610,38.74a29.28,29.28,0,0,0-2.82-24.21C597.62-2.07,573.52-14.4,555-21.81a292,292,0,0,0-38.48-12.27l.39-1.73c3,.68,73.09,16.91,91.81,49.45a31,31,0,0,1,3,25.63c-4.84,15.52-59,32.65-165.56,52.37-90.1,16.68-200.27,32-288.79,44.39-54.48,7.6-101.53,14.16-128,18.87-16.11,2.89-27.95,16.86-27.54,32.5.4,15.22,7.79,32.69,61.9,32.69Z"/></g><g class="cls-7"><path class="cls-5" d="M63.69,221.87c-43.41,0-63-10.62-63.68-34.43-.43-16.5,12-31.24,29-34.28,26.51-4.72,73.58-11.29,128.08-18.89,88.5-12.34,198.65-27.71,288.71-44.37C550.19,70.58,605.43,53.37,610,38.74a29.28,29.28,0,0,0-2.82-24.21C597.62-2.07,573.52-14.4,555-21.81a292,292,0,0,0-38.48-12.27l.39-1.73c3,.68,73.09,16.91,91.81,49.45a31,31,0,0,1,3,25.63c-4.84,15.52-59,32.65-165.56,52.37-90.1,16.68-200.27,32-288.79,44.39-54.48,7.6-101.53,14.16-128,18.87-16.11,2.89-27.95,16.86-27.54,32.5.4,15.22,7.79,32.69,61.9,32.69Z"/></g></svg>