<svg width="48" height="48" viewBox="0 0 48 48" fill="none" xmlns="http://www.w3.org/2000/svg">
<path d="M20.4004 29.0448C20.4004 29.2712 20.4646 29.493 20.5853 29.6846C20.7061 29.8761 20.8787 30.0296 21.083 30.1272C21.2873 30.2249 21.5151 30.2627 21.74 30.2364C21.9649 30.21 22.1778 30.1206 22.354 29.9784L28.0216 25.4004C28.2305 25.2316 28.3991 25.0183 28.5148 24.776C28.6306 24.5337 28.6907 24.2685 28.6907 24C28.6907 23.7314 28.6306 23.4663 28.5148 23.2239C28.3991 22.9816 28.2305 22.7683 28.0216 22.5996L22.354 18.024C22.1778 17.8818 21.9651 17.7924 21.7403 17.766C21.5155 17.7396 21.2878 17.7773 21.0835 17.8748C20.8792 17.9723 20.7067 18.1256 20.5858 18.317C20.465 18.5084 20.4007 18.73 20.4004 18.9564V29.0448Z" fill="#0080FF"/>
</svg>
