<svg width="48" height="48" viewBox="0 0 48 48" fill="none" xmlns="http://www.w3.org/2000/svg">
<path d="M27.6009 29.045C27.6008 29.2714 27.5367 29.4932 27.4159 29.6848C27.2951 29.8763 27.1226 30.0298 26.9183 30.1274C26.714 30.2251 26.4862 30.2629 26.2613 30.2366C26.0364 30.2102 25.8235 30.1208 25.6473 29.9786L19.9797 25.4006C19.7707 25.2319 19.6022 25.0185 19.4864 24.7762C19.3706 24.5339 19.3105 24.2687 19.3105 24.0002C19.3105 23.7316 19.3706 23.4665 19.4864 23.2242C19.6022 22.9818 19.7707 22.7685 19.9797 22.5998L25.6473 18.023C25.8235 17.8808 26.0364 17.7913 26.2613 17.765C26.4862 17.7386 26.714 17.7765 26.9183 17.8741C27.1226 17.9718 27.2951 18.1252 27.4159 18.3168C27.5367 18.5083 27.6008 18.7301 27.6009 18.9566V29.045Z" fill="#0080FF"/>
</svg>
