<svg width="16" height="16" viewBox="0 0 16 16" fill="none" xmlns="http://www.w3.org/2000/svg">
<path d="M10.3999 11.3633C10.3999 11.5143 10.3571 11.6622 10.2766 11.7899C10.1961 11.9176 10.0811 12.0199 9.94487 12.085C9.80866 12.1501 9.65681 12.1753 9.50687 12.1577C9.35693 12.1402 9.21501 12.0805 9.09753 11.9857L5.31913 8.93372C5.17984 8.82124 5.06748 8.67901 4.9903 8.51747C4.91311 8.35592 4.87305 8.17916 4.87305 8.00012C4.87305 7.82108 4.91311 7.64432 4.9903 7.48277C5.06748 7.32123 5.17984 7.179 5.31913 7.06652L9.09753 4.01532C9.21501 3.92051 9.35693 3.86088 9.50687 3.84332C9.65681 3.82576 9.80866 3.85098 9.94487 3.91608C10.0811 3.98117 10.1961 4.08348 10.2766 4.21118C10.3571 4.33888 10.3999 4.48675 10.3999 4.63772V11.3633Z" fill="black"/>
</svg>
