<svg id="Layer_1" data-name="Layer 1" xmlns="http://www.w3.org/2000/svg" viewBox="0 0 409.31 409.31"><defs><style>.cls-1{fill:#fff;}</style></defs><title>CD_Logo_Icon_White</title><path class="cls-1" d="M204.66,0C91.63,0,0,91.63,0,204.66S91.63,409.31,204.66,409.31s204.65-91.62,204.65-204.65S317.68,0,204.66,0Zm56.65,292.65a87.58,87.58,0,0,1-49.63-15.33,97,97,0,0,0,18.9-22.46,58.86,58.86,0,1,0-9.42-93.22v13c.09-.11.17-.23.26-.35v78.9c-.08.13-.17.25-.26.38v.33h-.22A88,88,0,1,1,197.63,132a97.32,97.32,0,0,0-18.91,22.46A58.85,58.85,0,1,0,192,243.71V150.42a88,88,0,1,1,69.29,142.23Z"/></svg>