<svg width="16" height="16" viewBox="0 0 16 16" fill="none" xmlns="http://www.w3.org/2000/svg">
<path d="M3.02055 8.64722C2.92577 8.5589 2.8004 8.51081 2.67087 8.5131C2.54133 8.51538 2.41774 8.56786 2.32613 8.65947C2.23453 8.75108 2.18205 8.87467 2.17977 9.0042C2.17748 9.13373 2.22556 9.2591 2.31388 9.35388L5.31388 12.3539C5.40763 12.4475 5.53471 12.5001 5.66722 12.5001C5.79972 12.5001 5.9268 12.4475 6.02055 12.3539L13.3539 5.02055C13.4422 4.92577 13.4903 4.8004 13.488 4.67087C13.4857 4.54133 13.4332 4.41774 13.3416 4.32613C13.25 4.23453 13.1264 4.18205 12.9969 4.17977C12.8674 4.17748 12.742 4.22556 12.6472 4.31388L5.66722 11.2939L3.02055 8.64722Z" fill="white" stroke="white"/>
</svg>
