<svg width="20" height="20" viewBox="0 0 20 20" fill="none" xmlns="http://www.w3.org/2000/svg">
<path d="M9.99935 1.66602C14.6018 1.66602 18.3327 5.39685 18.3327 9.99935C18.3327 14.6018 14.6018 18.3327 9.99935 18.3327C5.39685 18.3327 1.66602 14.6018 1.66602 9.99935C1.66602 5.39685 5.39685 1.66602 9.99935 1.66602ZM9.99935 2.91602C8.12073 2.91602 6.31906 3.66229 4.99068 4.99068C3.66229 6.31906 2.91602 8.12073 2.91602 9.99935C2.91602 11.878 3.66229 13.6796 4.99068 15.008C6.31906 16.3364 8.12073 17.0827 9.99935 17.0827C11.878 17.0827 13.6796 16.3364 15.008 15.008C16.3364 13.6796 17.0827 11.878 17.0827 9.99935C17.0827 8.12073 16.3364 6.31906 15.008 4.99068C13.6796 3.66229 11.878 2.91602 9.99935 2.91602ZM8.95768 11.1993L12.6827 7.47435C12.7943 7.36355 12.9437 7.29894 13.1009 7.2934C13.2581 7.28786 13.4116 7.34181 13.5308 7.44448C13.65 7.54715 13.7261 7.69099 13.7439 7.84728C13.7617 8.00358 13.7199 8.16084 13.6269 8.28768L13.566 8.35768L9.39935 12.5243C9.29353 12.6302 9.15323 12.6946 9.00397 12.7057C8.85472 12.7169 8.70641 12.6741 8.58602 12.5852L8.51602 12.5243L6.43268 10.441C6.32188 10.3293 6.25727 10.18 6.25173 10.0228C6.2462 9.86559 6.30015 9.71207 6.40282 9.59289C6.50548 9.47371 6.64932 9.39762 6.80562 9.37982C6.96191 9.36202 7.11917 9.40381 7.24602 9.49685L7.31602 9.55768L8.95768 11.1993L12.6827 7.47435L8.95768 11.1993Z" fill="#EBF2FA"/>
<path d="M9.99935 1.66602C14.6018 1.66602 18.3327 5.39685 18.3327 9.99935C18.3327 14.6018 14.6018 18.3327 9.99935 18.3327C5.39685 18.3327 1.66602 14.6018 1.66602 9.99935C1.66602 5.39685 5.39685 1.66602 9.99935 1.66602ZM9.99935 2.91602C8.12073 2.91602 6.31906 3.66229 4.99068 4.99068C3.66229 6.31906 2.91602 8.12073 2.91602 9.99935C2.91602 11.878 3.66229 13.6796 4.99068 15.008C6.31906 16.3364 8.12073 17.0827 9.99935 17.0827C11.878 17.0827 13.6796 16.3364 15.008 15.008C16.3364 13.6796 17.0827 11.878 17.0827 9.99935C17.0827 8.12073 16.3364 6.31906 15.008 4.99068C13.6796 3.66229 11.878 2.91602 9.99935 2.91602V2.91602ZM8.95768 11.1993L12.6827 7.47435C12.7943 7.36355 12.9437 7.29894 13.1009 7.2934C13.2581 7.28786 13.4116 7.34181 13.5308 7.44448C13.65 7.54715 13.7261 7.69099 13.7439 7.84728C13.7617 8.00358 13.7199 8.16084 13.6269 8.28768L13.566 8.35768L9.39935 12.5243C9.29353 12.6302 9.15323 12.6946 9.00397 12.7057C8.85472 12.7169 8.70641 12.6741 8.58602 12.5852L8.51602 12.5243L6.43268 10.441C6.32188 10.3293 6.25727 10.18 6.25173 10.0228C6.2462 9.86559 6.30015 9.71207 6.40282 9.59289C6.50548 9.47371 6.64932 9.39762 6.80562 9.37982C6.96191 9.36202 7.11918 9.40381 7.24602 9.49685L7.31602 9.55768L8.95768 11.1993L12.6827 7.47435L8.95768 11.1993V11.1993Z" stroke="#EBF2FA" stroke-width="0.4"/>
</svg>
