<svg width="24" height="24" viewBox="0 0 24 24" fill="none" xmlns="http://www.w3.org/2000/svg">
<rect width="24" height="24" fill="#1E1E1E"/>
<g clip-path="url(#clip0_1_1689)">
<path d="M-378 36C-378 13.3726 -378 2.05887 -370.971 -4.97056C-363.941 -12 -352.627 -12 -330 -12H-12C10.6274 -12 21.9411 -12 28.9706 -4.97056C36 2.05887 36 13.3726 36 36V748H-378V36Z" fill="white"/>
<mask id="path-2-inside-1_1_1689" fill="white">
<path d="M-354 -12H12V40H-354V-12Z"/>
</mask>
<path d="M-354 -12H12V40H-354V-12Z" fill="white"/>
<path d="M12 39H-354V41H12V39Z" fill="#E4E7E7" mask="url(#path-2-inside-1_1_1689)"/>
<path d="M12 1.5C6.15 1.5 1.5 6.15 1.5 12C1.5 17.85 6.15 22.5 12 22.5C17.85 22.5 22.5 17.85 22.5 12C22.5 6.15 17.85 1.5 12 1.5ZM16.05 17.25L12 13.2L7.95 17.25L6.75 16.05L10.8 12L6.75 7.95L7.95 6.75L12 10.8L16.05 6.75L17.25 7.95L13.2 12L17.25 16.05L16.05 17.25Z" fill="#384747"/>
</g>
<defs>
<clipPath id="clip0_1_1689">
<path d="M-378 36C-378 13.3726 -378 2.05887 -370.971 -4.97056C-363.941 -12 -352.627 -12 -330 -12H-12C10.6274 -12 21.9411 -12 28.9706 -4.97056C36 2.05887 36 13.3726 36 36V748H-378V36Z" fill="white"/>
</clipPath>
</defs>
</svg>
