<svg width="60" height="60" viewBox="0 0 60 60" fill="none" xmlns="http://www.w3.org/2000/svg">
<circle cx="30" cy="30" r="30" fill="#0045F6"/>
<path fill-rule="evenodd" clip-rule="evenodd" d="M21.2085 34.042C22.3025 32.9481 23.7862 32.3335 25.3333 32.3335H34.6667C36.2138 32.3335 37.6975 32.9481 38.7915 34.042C39.8854 35.136 40.5 36.6197 40.5 38.1668V40.5002C40.5 41.1445 39.9777 41.6668 39.3333 41.6668C38.689 41.6668 38.1667 41.1445 38.1667 40.5002V38.1668C38.1667 37.2386 37.7979 36.3483 37.1415 35.692C36.4852 35.0356 35.5949 34.6668 34.6667 34.6668H25.3333C24.4051 34.6668 23.5148 35.0356 22.8585 35.692C22.2021 36.3483 21.8333 37.2386 21.8333 38.1668V40.5002C21.8333 41.1445 21.311 41.6668 20.6667 41.6668C20.0223 41.6668 19.5 41.1445 19.5 40.5002V38.1668C19.5 36.6197 20.1146 35.136 21.2085 34.042Z" fill="white"/>
<path fill-rule="evenodd" clip-rule="evenodd" d="M30.0001 20.6668C28.0671 20.6668 26.5001 22.2338 26.5001 24.1668C26.5001 26.0998 28.0671 27.6668 30.0001 27.6668C31.9331 27.6668 33.5001 26.0998 33.5001 24.1668C33.5001 22.2338 31.9331 20.6668 30.0001 20.6668ZM24.1667 24.1668C24.1667 20.9452 26.7784 18.3335 30.0001 18.3335C33.2217 18.3335 35.8334 20.9452 35.8334 24.1668C35.8334 27.3885 33.2217 30.0002 30.0001 30.0002C26.7784 30.0002 24.1667 27.3885 24.1667 24.1668Z" fill="white"/>
</svg>
