<svg width="60" height="60" viewBox="0 0 60 60" fill="none" xmlns="http://www.w3.org/2000/svg">
<circle cx="30" cy="30" r="29.5" fill="white" stroke="#0045F6"/>
<path fill-rule="evenodd" clip-rule="evenodd" d="M20.6665 25.3335C20.0222 25.3335 19.4998 25.8558 19.4998 26.5002V38.1668C19.4998 38.8112 20.0222 39.3335 20.6665 39.3335H39.3332C39.9775 39.3335 40.4998 38.8112 40.4998 38.1668V26.5002C40.4998 25.8558 39.9775 25.3335 39.3332 25.3335H20.6665ZM17.1665 26.5002C17.1665 24.5672 18.7335 23.0002 20.6665 23.0002H39.3332C41.2662 23.0002 42.8332 24.5672 42.8332 26.5002V38.1668C42.8332 40.0998 41.2662 41.6668 39.3332 41.6668H20.6665C18.7335 41.6668 17.1665 40.0998 17.1665 38.1668V26.5002Z" fill="#0045F6"/>
<path fill-rule="evenodd" clip-rule="evenodd" d="M25.1916 19.3586C25.848 18.7022 26.7382 18.3335 27.6665 18.3335H32.3332C33.2614 18.3335 34.1517 18.7022 34.808 19.3586C35.4644 20.015 35.8332 20.9052 35.8332 21.8335V40.5002C35.8332 41.1445 35.3108 41.6668 34.6665 41.6668C34.0222 41.6668 33.4998 41.1445 33.4998 40.5002V21.8335C33.4998 21.5241 33.3769 21.2273 33.1581 21.0085C32.9393 20.7897 32.6426 20.6668 32.3332 20.6668H27.6665C27.3571 20.6668 27.0603 20.7897 26.8415 21.0085C26.6228 21.2273 26.4998 21.5241 26.4998 21.8335V40.5002C26.4998 41.1445 25.9775 41.6668 25.3332 41.6668C24.6888 41.6668 24.1665 41.1445 24.1665 40.5002V21.8335C24.1665 20.9052 24.5353 20.015 25.1916 19.3586Z" fill="#0045F6"/>
</svg>
