<svg id="Layer_1" data-name="Layer 1" xmlns="http://www.w3.org/2000/svg" xmlns:xlink="http://www.w3.org/1999/xlink" viewBox="0 0 487.78 612.63"><defs><style>.cls-1{fill:none;}.cls-2{clip-path:url(#clip-path);}.cls-3{fill:#fff;}.cls-4{fill:#0045f6;}</style><clipPath id="clip-path"><rect class="cls-1" x="-13.09" width="500.87" height="612.63"/></clipPath></defs><title>contact-bg</title><g class="cls-2"><path class="cls-3" d="M100.61-18.92v97.7L442-111v-99.58Z"/><path class="cls-3" d="M201.22,134.41V234.6L542.56,41.78v-98.3Z"/><path d="M100.61,78l341.6-190.65L542.56-56,201,134.64Z"/><path class="cls-3" d="M300,290.63v98.3L643.17,198V97.81Z"/><path d="M201.22,234.12,542.82,41.69l100.35,56.6L301.57,290.72Z"/><path class="cls-3" d="M400.64,446.71V545L742,352.19v-98.3Z"/><path d="M300,388.32l341.6-190.55L742,254.37,400.38,446.81Z"/><path d="M400.64,544.54,742.23,352.1l100.36,56.6L501,601.14Z"/><path class="cls-4" d="M401.23,545.44v-98L300.93,389V291L200.62,234.44V134.55L100.31,78V-20L0-76.56V515.28L601.85,856.44v-98L501.54,700V602Z"/></g></svg>