<svg width="31" height="30" viewBox="0 0 31 30" fill="none" xmlns="http://www.w3.org/2000/svg">
<path d="M25.2531 3.75H5.24687C4.91694 3.75245 4.60122 3.88461 4.36791 4.11791C4.13461 4.35122 4.00245 4.66694 4 4.99687V25.0031C4.00245 25.3331 4.13461 25.6488 4.36791 25.8821C4.60122 26.1154 4.91694 26.2475 5.24687 26.25H16.0187V17.55H13.0938V14.1469H16.0187V11.6438C16.0187 8.7375 17.7906 7.15313 20.3969 7.15313C21.2687 7.15313 22.1406 7.15313 23.0125 7.28437V10.3125H21.2219C19.8063 10.3125 19.5344 10.9875 19.5344 11.9719V14.1375H22.9094L22.4688 17.5406H19.5344V26.25H25.2531C25.5831 26.2475 25.8988 26.1154 26.1321 25.8821C26.3654 25.6488 26.4975 25.3331 26.5 25.0031V4.99687C26.4975 4.66694 26.3654 4.35122 26.1321 4.11791C25.8988 3.88461 25.5831 3.75245 25.2531 3.75Z" fill="black"/>
</svg>
