<svg width="567" height="268" viewBox="0 0 567 268" fill="none" xmlns="http://www.w3.org/2000/svg">
<rect width="567" height="268" fill="#1E1E1E"/>
<path d="M-1685 -514C-1685 -515.105 -1684.1 -516 -1683 -516H3119C3120.1 -516 3121 -515.105 3121 -514V1858C3121 1859.1 3120.1 1860 3119 1860H-1683C-1684.1 1860 -1685 1859.1 -1685 1858V-514Z" fill="#404040"/>
<path d="M-1683 -515H3119V-517H-1683V-515ZM3120 -514V1858H3122V-514H3120ZM3119 1859H-1683V1861H3119V1859ZM-1684 1858V-514H-1686V1858H-1684ZM-1683 1859C-1683.55 1859 -1684 1858.55 -1684 1858H-1686C-1686 1859.66 -1684.66 1861 -1683 1861V1859ZM3120 1858C3120 1858.55 3119.55 1859 3119 1859V1861C3120.66 1861 3122 1859.66 3122 1858H3120ZM3119 -515C3119.55 -515 3120 -514.552 3120 -514H3122C3122 -515.657 3120.66 -517 3119 -517V-515ZM-1683 -517C-1684.66 -517 -1686 -515.657 -1686 -514H-1684C-1684 -514.552 -1683.55 -515 -1683 -515V-517Z" fill="white" fill-opacity="0.1"/>
<rect width="1920" height="1080" transform="translate(-807 -416)" fill="white"/>
<g clip-path="url(#clip0_280_58283)">
<rect x="-546" y="-416" width="1659" height="2000" fill="white"/>
<g clip-path="url(#clip1_280_58283)">
<rect width="1339" height="688" transform="translate(-386 -76)" fill="#F7F8F8"/>
<g clip-path="url(#clip2_280_58283)">
<rect x="-12.5" y="-12" width="592" height="560" rx="24" fill="white"/>
<g clip-path="url(#clip3_280_58283)">
<path d="M0.185791 24C0.185791 12.6863 0.185791 7.02944 3.70051 3.51472C7.21523 0 12.8721 0 24.1858 0H542.814C554.128 0 559.785 0 563.3 3.51472C566.814 7.02944 566.814 12.6863 566.814 24V268H0.185791V24Z" fill="#F1EAE4"/>
<g style="mix-blend-mode:luminosity" clip-path="url(#clip4_280_58283)">
<rect width="637.975" height="280" transform="translate(-15.8142 -1)" fill="#FACC9E"/>
<path fill-rule="evenodd" clip-rule="evenodd" d="M474.838 -63.5958V-169.451L278.497 -48.2654L180.252 -108.922V-3.16125L278.486 57.4883V163.194L376.701 223.851L573.072 102.76V-3.09576L376.701 118.09L278.541 57.4678L474.838 -63.5958ZM278.424 162.396V268.251L82.0819 389.342L-16.1632 328.686V223.83L-114.346 163.194V57.4338L-16.1306 118.09L180.241 -3.09583V102.76L-15.3969 223.398L82.0819 283.581L278.424 162.396Z" fill="black"/>
<path fill-rule="evenodd" clip-rule="evenodd" d="M965.724 103.083V-2.77216L769.383 118.414L671.138 57.7575V163.518L769.372 224.167V329.874L867.587 390.53L1063.96 269.439V163.583L867.587 284.769L769.427 224.147L965.724 103.083ZM769.31 329.075V434.93L572.968 556.021L474.723 495.365V390.51L376.54 329.874V224.113L474.755 284.769L671.127 163.583V269.439L475.489 390.077L572.968 450.261L769.31 329.075Z" fill="black"/>
</g>
<g style="mix-blend-mode:luminosity">
<path d="M572.772 -3V102.856L376.401 223.946L278.186 163.29V57.5296L376.401 118.186L572.772 -3Z" fill="#9E5CD6"/>
<path d="M572.772 -3V102.856L376.401 223.946L278.186 163.29V57.5296L376.401 118.186L572.772 -3Z" stroke="#9E5CD6"/>
</g>
</g>
</g>
</g>
</g>
<defs>
<clipPath id="clip0_280_58283">
<rect width="1659" height="2000" fill="white" transform="translate(-546 -416)"/>
</clipPath>
<clipPath id="clip1_280_58283">
<rect width="1339" height="772" fill="white" transform="translate(-386 -160)"/>
</clipPath>
<clipPath id="clip2_280_58283">
<rect x="-12.5" y="-12" width="592" height="560" rx="24" fill="white"/>
</clipPath>
<clipPath id="clip3_280_58283">
<path d="M0.185791 24C0.185791 12.6863 0.185791 7.02944 3.70051 3.51472C7.21523 0 12.8721 0 24.1858 0H542.814C554.128 0 559.785 0 563.3 3.51472C566.814 7.02944 566.814 12.6863 566.814 24V268H0.185791V24Z" fill="white"/>
</clipPath>
<clipPath id="clip4_280_58283">
<rect width="637.975" height="280" fill="white" transform="translate(-15.8142 -1)"/>
</clipPath>
</defs>
</svg>
