<svg width="568" height="268" viewBox="0 0 568 268" fill="none" xmlns="http://www.w3.org/2000/svg">
<g clip-path="url(#clip0_7809_87563)">
<path d="M0.6875 24C0.6875 12.6863 0.6875 7.02944 4.20222 3.51472C7.71694 0 13.3738 0 24.6875 0H543.316C554.63 0 560.287 0 563.801 3.51472C567.316 7.02944 567.316 12.6863 567.316 24V268H0.6875V24Z" fill="#F1EAE4"/>
<g style="mix-blend-mode:luminosity" clip-path="url(#clip1_7809_87563)">
<rect width="637.975" height="280" transform="translate(-15.3125 -1)" fill="#FACC9E"/>
<path fill-rule="evenodd" clip-rule="evenodd" d="M475.341 -63.5956V-169.451L278.999 -48.2653L180.755 -108.922V-3.16107L278.989 57.4886V163.195L377.204 223.851L573.575 102.76V-3.09558L377.204 118.09L279.044 57.468L475.341 -63.5956ZM278.926 162.396V268.251L82.5843 389.342L-15.6608 328.686V223.831L-113.844 163.195V57.434L-15.6284 118.09L180.743 -3.09558V102.76L-14.8946 223.398L82.5843 283.582L278.926 162.396Z" fill="black"/>
<path fill-rule="evenodd" clip-rule="evenodd" d="M966.228 103.083V-2.77246L769.886 118.413L671.641 57.7571V163.518L769.875 224.167V329.873L868.091 390.53L1064.46 269.439V163.583L868.091 284.769L769.93 224.147L966.228 103.083ZM769.813 329.074V434.93L573.471 556.021L475.226 495.364V390.509L377.043 329.873V224.113L475.258 284.769L671.63 163.583V269.439L475.992 390.077L573.471 450.26L769.813 329.074Z" fill="black"/>
</g>
<g style="mix-blend-mode:luminosity">
<path d="M573.274 -3V102.856L376.903 223.946L278.688 163.29V57.5296L376.903 118.186L573.274 -3Z" fill="#9E5CD6"/>
<path d="M573.274 -3V102.856L376.903 223.946L278.688 163.29V57.5296L376.903 118.186L573.274 -3Z" stroke="#9E5CD6"/>
</g>
</g>
<defs>
<clipPath id="clip0_7809_87563">
<path d="M0.6875 24C0.6875 12.6863 0.6875 7.02944 4.20222 3.51472C7.71694 0 13.3738 0 24.6875 0H543.316C554.63 0 560.287 0 563.801 3.51472C567.316 7.02944 567.316 12.6863 567.316 24V268H0.6875V24Z" fill="white"/>
</clipPath>
<clipPath id="clip1_7809_87563">
<rect width="637.975" height="280" fill="white" transform="translate(-15.3125 -1)"/>
</clipPath>
</defs>
</svg>
