<svg width="24" height="24" viewBox="0 0 24 24" fill="none" xmlns="http://www.w3.org/2000/svg">
<path d="M11.7495 2C9.88987 2 8.17479 2.45825 6.6043 3.37473C5.03381 4.29122 3.79032 5.53472 2.87383 7.10521C1.95734 8.6757 1.4991 10.3908 1.4991 12.2505C1.4991 14.4838 2.15087 16.4926 3.45442 18.2766C4.75797 20.0606 6.44191 21.2952 8.50624 21.9804C8.74649 22.0249 8.92445 21.9937 9.04012 21.8869C9.15579 21.7802 9.21363 21.6467 9.21363 21.4865C9.21363 21.4598 9.2114 21.1195 9.20695 20.4655C9.20251 19.8115 9.20028 19.2131 9.20028 18.6703C9.20028 17.8072 9.43163 17.1755 9.89432 16.7751C9.38714 16.7217 8.93112 16.6416 8.52626 16.5348C8.1214 16.428 7.7032 16.2545 7.27165 16.0143C6.8401 15.774 6.47973 15.4782 6.19055 15.1267C5.90136 14.7752 5.66557 14.3081 5.48316 13.7253C5.30075 13.1425 5.20955 12.4729 5.20955 11.7166C5.20955 10.6577 5.56101 9.74123 6.26395 8.9671C5.93473 8.15739 5.97032 7.2498 6.37073 6.24433C6.61987 6.16425 6.98024 6.21318 7.45183 6.39114C7.92342 6.5691 8.33273 6.76486 8.67975 6.97841L9.18693 7.29874C10.0144 7.06739 10.8686 6.95172 11.7495 6.95172C12.6304 6.95172 13.4847 7.06739 14.3122 7.29874C14.4545 7.20086 14.6436 7.08074 14.8794 6.93837C15.1152 6.796 15.4867 6.62472 15.9939 6.42451C16.5011 6.22431 16.8792 6.16425 17.1284 6.24433C17.5288 7.2498 17.5644 8.15739 17.2351 8.9671C17.9381 9.74123 18.2895 10.6577 18.2895 11.7166C18.2895 12.4729 18.1983 13.1402 18.0159 13.7186C17.8335 14.297 17.6 14.7641 17.3152 15.12C17.0305 15.476 16.6723 15.774 16.2408 16.0143C15.8092 16.2545 15.391 16.428 14.9862 16.5348C14.5813 16.6416 14.1253 16.7217 13.6181 16.7751C13.9651 17.0954 14.1831 17.5536 14.2721 18.1498C14.459 18.2388 14.6592 18.3055 14.8727 18.35C15.0863 18.3945 15.3399 18.4167 15.6335 18.4167C15.9271 18.4167 16.2185 18.3211 16.5077 18.1298C16.7969 17.9385 17.0438 17.6604 17.2485 17.2956C17.4175 17.0109 17.6333 16.7795 17.8958 16.6016C18.1583 16.4236 18.3785 16.3168 18.5565 16.2812L18.8234 16.2412C19.0103 16.2412 19.1393 16.2612 19.2105 16.3012C19.2817 16.3413 19.3039 16.3925 19.2772 16.4547C19.2505 16.517 19.2105 16.5793 19.1571 16.6416C19.1037 16.7039 19.0459 16.7573 18.9836 16.8018L18.8902 16.8685C18.6944 16.9575 18.5009 17.1265 18.3096 17.3757C18.1183 17.6248 17.9781 17.8517 17.8891 18.0564L17.7557 18.3634C17.64 18.7015 17.4442 18.9751 17.1684 19.1842C16.8926 19.3933 16.5945 19.5268 16.2742 19.5846C15.9538 19.6424 15.6446 19.6736 15.3465 19.678C15.0485 19.6825 14.8015 19.6669 14.6058 19.6313L14.2988 19.5779C14.2988 19.916 14.2966 20.3098 14.2921 20.7591C14.2877 21.2085 14.2855 21.4509 14.2855 21.4865C14.2855 21.6467 14.3433 21.7802 14.459 21.8869C14.5747 21.9937 14.7526 22.0249 14.9929 21.9804C17.0572 21.2952 18.7411 20.0606 20.0447 18.2766C21.3482 16.4926 22 14.4838 22 12.2505C22 10.3908 21.5418 8.6757 20.6253 7.10521C19.7088 5.53472 18.4653 4.29122 16.8948 3.37473C15.3243 2.45825 13.6092 2 11.7495 2ZM18.116 16.7217C18.0893 16.6594 18.1205 16.606 18.2095 16.5615C18.2984 16.5348 18.3563 16.5437 18.383 16.5882C18.4097 16.6505 18.3785 16.7039 18.2895 16.7484C18.2095 16.8018 18.1516 16.7929 18.116 16.7217ZM17.7023 17.1755C17.64 17.131 17.6489 17.0598 17.729 16.9619C17.818 16.8818 17.8891 16.8685 17.9425 16.9219C18.0048 16.9664 17.9959 17.0376 17.9158 17.1354C17.8269 17.2244 17.7557 17.2378 17.7023 17.1755ZM17.3019 17.7761C17.2218 17.7138 17.2218 17.6293 17.3019 17.5225C17.3731 17.4068 17.4487 17.3801 17.5288 17.4424C17.6089 17.4869 17.6089 17.567 17.5288 17.6827C17.4487 17.7983 17.3731 17.8295 17.3019 17.7761ZM16.7413 18.3367C16.6701 18.2655 16.6879 18.1809 16.7947 18.0831C16.9015 17.9763 16.9904 17.9629 17.0616 18.043C17.1417 18.1142 17.1239 18.1987 17.0082 18.2966C16.9015 18.4034 16.8125 18.4167 16.7413 18.3367ZM15.9805 18.6703C15.9538 18.5725 16.0117 18.5013 16.154 18.4568C16.2875 18.4212 16.372 18.4523 16.4076 18.5502C16.4432 18.6481 16.3854 18.7148 16.2341 18.7504C16.1007 18.8038 16.0161 18.7771 15.9805 18.6703ZM15.1397 18.7371C15.1397 18.6214 15.2153 18.5725 15.3666 18.5903C15.5089 18.5903 15.5801 18.6392 15.5801 18.7371C15.5801 18.8527 15.5045 18.9017 15.3532 18.8839C15.2109 18.8839 15.1397 18.8349 15.1397 18.7371ZM14.3655 18.6036C14.3833 18.5057 14.4634 18.4657 14.6058 18.4835C14.7482 18.5102 14.8104 18.5769 14.7927 18.6837C14.7749 18.7905 14.6948 18.826 14.5524 18.7905C14.41 18.7549 14.3478 18.6926 14.3655 18.6036Z" fill="black"/>
</svg>
