<svg xmlns="http://www.w3.org/2000/svg" viewBox="0 0 519 466.92"><defs><style>.cls-1{fill:#0045f6;}.cls-2{fill:#3d76f4;}.cls-3{fill:#c0fcff;}.cls-4{fill:#80f3ff;}.cls-5{fill:#40e4ff;}.cls-6{fill:#c0f0ff;}.cls-7{fill:#009dff;}.cls-8{fill:#00cfff;}.cls-9{fill:#fff;}.cls-10{fill:#40bfff;}.cls-11{fill:#80dbff;}</style></defs><title>globe-art</title><g id="Layer_2" data-name="Layer 2"><g id="Layer_1-2" data-name="Layer 1"><path class="cls-1" d="M74.12,189.84a73,73,0,1,0-73-73A73,73,0,0,0,74.12,189.84Z"/><path class="cls-2" d="M205.39,466.24l-65-49.47a3.37,3.37,0,0,1,.74-5.81l47.19-19.87,66.59,50.68a3.37,3.37,0,0,1-.74,5.81l-45.34,19.13A3.7,3.7,0,0,1,205.39,466.24Z"/><path class="cls-2" d="M256.13,445.15l.69-4.23-118.7-30.6.95,4.28,67.44,49.58Z"/><path class="cls-3" d="M205.6,462.54,139.12,412a2.63,2.63,0,0,1,.58-4.49l47-19.82a2.68,2.68,0,0,1,2.59.32l66.48,50.57a2.63,2.63,0,0,1-.58,4.5l-47,19.81A2.55,2.55,0,0,1,205.6,462.54Z"/><path class="cls-4" d="M207.35,461.11a.73.73,0,0,1-.58-.11l-66.49-50.57a.74.74,0,0,1-.26-.64.58.58,0,0,1,.42-.52l47-19.82c.05,0,.05,0,.1-.06a.72.72,0,0,1,.58.11l66.49,50.58a.73.73,0,0,1,.26.63.58.58,0,0,1-.42.53l-47,19.82C207.45,461.11,207.4,461.11,207.35,461.11Z"/><path class="cls-5" d="M242,430.46c-6.44,2.16-16.17,4.23-26.37,1.16-9.77-2.91-14.42-8.88-20.87-13.74-8.25-6.24-22.15-12.79-46.3-12.1,13.06-5.5,26.11-10.94,39.16-16.44Q214.78,410,242,430.46Z"/><path class="cls-6" d="M483,247.29l-5.55-5.55a62.32,62.32,0,0,0-13.9-10.47,208.9,208.9,0,0,1-50.31,117.17A62.48,62.48,0,0,0,483,247.29Z"/><path class="cls-7" d="M389.2,330.1a62.44,62.44,0,0,1,74.41-98.78c.64-6.71,1-13.47,1-20.34a208.88,208.88,0,0,0-23.47-96.56h0A209.94,209.94,0,0,0,282.66,2.76a.05.05,0,0,0-.05-.06A205.82,205.82,0,0,0,254.49.85,210.08,210.08,0,1,0,413.25,348.44a62.65,62.65,0,0,1-18.6-12.85Z"/><path class="cls-5" d="M389.2,241.79a62.49,62.49,0,0,0,0,88.31l5.55,5.55a61.81,61.81,0,0,0,18.6,12.84,209.66,209.66,0,0,0,50.32-117.17A62.42,62.42,0,0,0,389.2,241.79Z"/><path class="cls-5" d="M441.1,114.37c-42.86,7.61-64.42-1.8-76.21-11.94-16.06-13.9-9.46-32.19-29.28-49.26C325.36,44.35,313.26,40.38,289,32.46c-24.68-8.09-41.17-9.89-43.76-19.82C244,7.83,246.46,3.07,248.52,0c20.24-.16,75,2.06,127.73,39.74A213.44,213.44,0,0,1,441.1,114.37Z"/><path class="cls-5" d="M215.86,262.24c-8.46,16.07-8.83,21.67-13.27,33.61,0,0-2,5.29-5.12,12.26-7.19,16.12-17.65,39.48-39,60A139.24,139.24,0,0,1,137,385c-4.76-3.23-9.83-6.92-15-11.15-4.54-3.7-8.61-7.35-12.37-10.89a227.39,227.39,0,0,1-7.82-43.49c-3.64-45.4,7.77-76.42-6.23-85.2-3.54-2.22-4.6-.42-22.94-2.59A268.42,268.42,0,0,1,45.11,227a210.8,210.8,0,0,1,5-64.63,207.53,207.53,0,0,1,10.31-31.87,95.25,95.25,0,0,1,22.2-19.71,97,97,0,0,1,39.05-14.43c15.64-3.07,35.88-4.23,50,7.24,19.71,16.07,8.35,41.27,30,63.47,22.78,23.25,53,13.58,57.61,29.23C263.48,210.77,238,220.17,215.86,262.24Z"/><path class="cls-1" d="M340.64,230.11V360.7l-35.78,10-26.32-6.87V246.76Z"/><path class="cls-6" d="M367,353.62v27.95l-62.1,16.65v-28Z"/><path d="M367,353.62l-62.09,16.64-26.32-6.92,62.1-16.65Z"/><path class="cls-6" d="M393.27,388.44v28l-62,16.65v-28l9.35-2.48h.05Z"/><path class="cls-2" d="M340.58,402.61l-9.36,2.48v28l-26.37-6.93-26.32-6.87V363.34l26.32,6.92v28l26.37,6.87Z"/><path d="M393.27,388.44l-52.64,14.17h-.05l-9.36,2.48-26.37-6.87L367,381.57Z"/><path class="cls-8" d="M204.86,326.5l-.79-1.37a2.81,2.81,0,0,1-1.85,4.12l-82.55,17.92L66.51,358.69a2.94,2.94,0,0,1-2.22-.42l-3.07,3.06a5.67,5.67,0,0,0,6,2.54l52.32-11.36,81.54-17.71a5.63,5.63,0,0,0,3.75-8.3Z"/><path class="cls-3" d="M88.39,334.22l-24.1,24a2.74,2.74,0,0,0,2.22.42l53.17-11.52,82.55-17.92a2.79,2.79,0,0,0,1.84-4.12l-33.18-59.61a2.79,2.79,0,0,0-3.07-1.38L93.3,280.32l-31,6.76,26.06,26.05A14.89,14.89,0,0,1,88.39,334.22Z"/><path class="cls-3" d="M28.09,301.82a5.36,5.36,0,0,1-.53-3.85l.05-.32a5.28,5.28,0,0,1,4.13-4h.1c.11-.06.16-.11.27-.16L62.28,287l-7-6.92a14.94,14.94,0,0,0-21.09,0L4.36,309.91a14.94,14.94,0,0,0,0,21.09l33,33.08a14.94,14.94,0,0,0,21.09,0l2.69-2.7c-.05-.1-.1-.15-.16-.26Z"/><path class="cls-9" d="M63.44,357.32,30.26,297.7a2.81,2.81,0,0,1,1.58-4h-.1a5.43,5.43,0,0,0-4.13,4l-.05.32a5.36,5.36,0,0,0,.53,3.85l33,59.3c0,.11.1.16.15.27l3.07-3.07A2.68,2.68,0,0,1,63.44,357.32Z"/><path class="cls-5" d="M31.84,293.69a2.81,2.81,0,0,0-1.58,4l33.19,59.62a3.63,3.63,0,0,0,.84.95l24.1-24.1a14.94,14.94,0,0,0,0-21.09L62.34,287l-30.18,6.55C32.05,293.58,32,293.69,31.84,293.69Z"/><path class="cls-10" d="M70.52,342a3.77,3.77,0,0,1-3.3-1.93L34.09,280.45A3.8,3.8,0,0,1,34,277,3.63,3.63,0,0,1,36.57,275l135.7-29.48a3.75,3.75,0,0,1,4.08,1.83l33.18,59.6a3.83,3.83,0,0,1,.11,3.41,3.76,3.76,0,0,1-2.62,2.13h0L71.3,342A4.13,4.13,0,0,1,70.52,342Zm102.56-94.78a1.84,1.84,0,0,0-.41.05L37,276.79a1.78,1.78,0,0,0-1.28,1,2,2,0,0,0,0,1.75l33.13,59.66a1.94,1.94,0,0,0,2.06.92l135.71-29.49a1.93,1.93,0,0,0,1.33-1.09,2,2,0,0,0,0-1.75l-33.18-59.59A1.87,1.87,0,0,0,173.08,247.25Z"/><path class="cls-1" d="M453.1,261.18,494,235.24l-37.73,17.44Z"/><path class="cls-8" d="M433.49,244.43,494,235.24l-44.29,15.64,3.39,10.3-3.39-10.3Z"/><path class="cls-3" d="M494,235.24l-44.29,15.64,3.39,10.3,3.17-8.5Z"/><path class="cls-8" d="M494,235.24l-11.68,26.63-26.05-9.19Z"/><path class="cls-9" d="M332.13,298.49c-13.15,0-17.39-3.87-17.72-4.2L315.7,293c.17.15,17,14.88,90.15-16.62,11.66-5,38.35-19.53,38.61-19.68l.89,1.63c-.27.15-27,14.67-38.76,19.76C368.67,294.38,345.67,298.49,332.13,298.49Z"/><path class="cls-9" d="M440.16,264.38l-1.4-1.22.58-.68c1.1-1.25,2.22-2.53,3.32-3.81l-2.06.24-4.31.5-.2-1.85c1.42-.15,2.85-.32,4.29-.49l4.43-.52,2.32-.25-1.51,1.78c-1.61,1.89-3.26,3.78-4.88,5.63Z"/><path class="cls-11" d="M519,39.27a7.32,7.32,0,0,1-.16,1.54l-17.49,83.87-.32,1.48a9.09,9.09,0,0,1-3.38,5.44L340.53,140l-3.86-3.49,5.55-3.33,167.9-101.2.95-.11A7.48,7.48,0,0,1,518,35.47,7.37,7.37,0,0,1,519,39.27Z"/><path class="cls-6" d="M342.22,136,493,125.26a4.27,4.27,0,0,0,3.8-3.28l17.71-85a4.2,4.2,0,0,0-4.39-5L359.34,42.71a4.27,4.27,0,0,0-3.8,3.28l-17.71,85A4.19,4.19,0,0,0,342.22,136Z"/><path d="M501.35,124.62,501,126.1a9.11,9.11,0,0,1-3.38,5.45,9.48,9.48,0,0,1-5.29,2l-206.58,11a5.32,5.32,0,0,1-5.5-6.4l.37-1.85L342.22,133Z"/><path class="cls-8" d="M378.37,41.23a213.36,213.36,0,0,1,46.19,46.51,217.27,217.27,0,0,1,22.83,39.79q-54.69,2.94-109.34,5.81a3.83,3.83,0,0,1-.21-1,4.89,4.89,0,0,1,.05-1.32q8.88-42.49,17.76-85A4.24,4.24,0,0,1,357,43.71a4.33,4.33,0,0,1,2.17-1C361.09,42.34,368.44,41.76,378.37,41.23Z"/><path class="cls-10" d="M285.78,144.55c0-1.38,33.88-3.86,164.94-8.77.9,2.37,1.8,4.86,2.7,7.45s1.63,4.91,2.32,7.24c-15.91-.53-39.95-1.22-69.28-2.06C317.91,146.56,285.83,146,285.78,144.55Z"/><path class="cls-9" d="M472.49,328.94a13.53,13.53,0,0,0-10.41-13.16,18.82,18.82,0,0,0-37.63.58c0,.42.06.84.06,1.27a11.7,11.7,0,0,0-1.48-.11,13.53,13.53,0,0,0-13.37,11.36h62.83Z"/><path class="cls-10" d="M144.62,33.09a9.53,9.53,0,0,1,7.29-9.25,13.22,13.22,0,0,1,26.43.37,4.54,4.54,0,0,1-.06.9,7.18,7.18,0,0,1,1.06-.05,9.55,9.55,0,0,1,9.41,8H144.62Z"/><path class="cls-9" d="M204.53,42.11H159.31v-.88l-.93,0,0-.93a10.39,10.39,0,0,1,7.29-9,14.15,14.15,0,0,1,28.25,1H194A10.43,10.43,0,0,1,204.36,41Zm-44.24-1.86h42A8.55,8.55,0,0,0,194,34.13a6.35,6.35,0,0,0-.92,0l-1.3.2.24-1.3a3.21,3.21,0,0,0,0-.72A12.29,12.29,0,0,0,167.53,32l0,.72-.7.16A8.55,8.55,0,0,0,160.29,40.25Z"/><path class="cls-7" d="M396,94.29l-26.37,6.45,8.67,3.38-9.73,6.45,2.17,3.06,9.72-6.45.27,8.94Z"/><path class="cls-9" d="M379.9,119l-.3-10.07-9.08,6-3.25-4.58,9-6-9.75-3.8L398.2,92.8Zm1.46-13.47.23,7.81,12.25-17.51-21.11,5.16,7.6,3-10.43,6.91,1.09,1.54Z"/><path class="cls-1" d="M102.76,113.47h-31L59.53,89.53,93.67,96.4Z"/><path class="cls-1" d="M62.12,83.24l-2.58,6.29,12.2,23.94h31l2.58-6.23L93.68,96.4Z"/><path class="cls-11" d="M105.36,107.24h-31l-12.2-24h31Z"/><path class="cls-9" d="M81.94,96h-7.5l-3.38-6.34h7.5Z"/><path class="cls-9" d="M95.16,96H87.6l-3.38-6.34h7.55Z"/><path class="cls-1" d="M109.27,143.38H96.69c-8.78,0-19.13-6-23.1-13.42l-9.35-17.6h44.44L118,130C122,137.41,118.09,143.38,109.27,143.38Z"/><path class="cls-1" d="M67,105.44l-2.85,6.92,9.4,17.6,45.45,8.3,3-7.29Z"/><path class="cls-6" d="M112.12,136.51H99.49c-8.77,0-19.13-6-23.09-13.42L67,105.49h44.45l9.35,17.6C124.86,130.49,121,136.51,112.12,136.51Z"/><path class="cls-7" d="M404.53,186.14l-1.38,6.34a64.57,64.57,0,0,0-19.23.69,38.75,38.75,0,0,0-15.12,6.08l-9.46-4.18c4.92-3.75,11.58-6.61,19.72-8.24A80.28,80.28,0,0,1,404.53,186.14Zm-18,10.52A34.19,34.19,0,0,0,374,201.57l9.57,4.23a24.54,24.54,0,0,1,7.87-2.8,41.63,41.63,0,0,1,9.57-.64l1.37-6.39A55.84,55.84,0,0,0,386.56,196.66Zm7.35,9.61a21,21,0,0,0-5.39,1.8l10.25,4.55,1.48-6.87A27.77,27.77,0,0,0,393.91,206.27Z"/><path class="cls-9" d="M399.44,213.93l-13.07-5.8,1.72-.89a22,22,0,0,1,5.63-1.88h0a28,28,0,0,1,6.55-.54l1.12,0Zm-8.61-5.85,7.27,3.22,1-4.63a25.48,25.48,0,0,0-5,.51A23.77,23.77,0,0,0,390.83,208.08Zm-7.22-1.24-11.54-5.1,1.39-.94a34.76,34.76,0,0,1,12.92-5.05h0a56.38,56.38,0,0,1,16.06-.71l1.05.09-1.76,8.19-.79,0a40.61,40.61,0,0,0-9.35.62A23.51,23.51,0,0,0,384,206.6ZM376,201.42l7.53,3.34a25.81,25.81,0,0,1,7.75-2.68,42.94,42.94,0,0,1,9-.68l1-4.59a53.92,53.92,0,0,0-14.49.76h0A35,35,0,0,0,376,201.42Zm-7-1.11-11.39-5,1.25-.95c5.18-4,12-6.78,20.11-8.42a80.79,80.79,0,0,1,25.76-.7l1,.13-1.77,8.15-.83-.09a64,64,0,0,0-18.95.68A37.64,37.64,0,0,0,369.34,200Zm-7.72-5.44,7.5,3.31a40.28,40.28,0,0,1,15.05-5.93,64.56,64.56,0,0,1,18.68-.78l1-4.53a78,78,0,0,0-24.16.8A49.26,49.26,0,0,0,361.19,194.87Z"/><path class="cls-1" d="M219.3,195.6l-5.08-8.83H163.43l5.08,8.83c2.8,4.86,10,8.82,16.06,8.82s8.72-4,5.92-8.82h6.82c2.8,4.86,10,8.82,16.07,8.82S222.1,200.46,219.3,195.6Z"/><path class="cls-1" d="M184.41,156.76l-21,30,5.08,8.83a18.62,18.62,0,0,0,10,8,16.44,16.44,0,0,0,6.07.79c5.82-.16,17.13-.16,28.7-.05a19.43,19.43,0,0,0,8.4-1.9l43-20.77-9.46-25H184.41Z"/><path class="cls-11" d="M267.18,169.86l-7.51-13.1H184.42l7.5,13.1C196.1,177.1,206.72,183,215.7,183c8.46,0,12.47-5.23,9.41-11.89a.86.86,0,0,1,.79-1.22h7.72a1.68,1.68,0,0,1,1.42.74c4.44,6.87,14.64,12.37,23.31,12.37C267.39,183,271.3,177.1,267.18,169.86Z"/><path class="cls-9" d="M258.4,180.59c-8.08,0-18-5.44-21.72-11.89a2.39,2.39,0,0,0-2.06-1.22H224.53a2.37,2.37,0,0,0-2.06,3.54c1.48,2.54,1.74,4.87.79,6.56-1.11,1.9-3.86,3-7.51,3-8.08,0-18-5.44-21.72-11.89l-5.49-9.57H258.3L265.11,171c1.48,2.54,1.75,4.87.8,6.56C264.74,179.53,262.05,180.59,258.4,180.59Z"/><path class="cls-9" d="M184.42,171.08,171.31,189l-.79-2,13.11-17.87Z"/></g></g></svg>