<svg width="28" height="28" viewBox="0 0 28 28" fill="none" xmlns="http://www.w3.org/2000/svg">
<path d="M14.0007 2.33398C20.4442 2.33398 25.6673 7.55832 25.6673 14.0007C25.6673 20.443 20.4442 25.6673 14.0007 25.6673C7.55715 25.6673 2.33398 20.443 2.33398 14.0007C2.33398 7.55832 7.55715 2.33398 14.0007 2.33398ZM14.0007 4.27882C8.63982 4.27882 4.27882 8.63982 4.27882 14.0007C4.27882 19.3615 8.63982 23.7225 14.0007 23.7225C19.3615 23.7225 23.7225 19.3615 23.7225 14.0007C23.7225 8.63982 19.3615 4.27882 14.0007 4.27882ZM14.0007 18.084C14.3101 18.084 14.6068 18.2069 14.8256 18.4257C15.0444 18.6445 15.1673 18.9412 15.1673 19.2507C15.1673 19.5601 15.0444 19.8568 14.8256 20.0756C14.6068 20.2944 14.3101 20.4173 14.0007 20.4173C13.6912 20.4173 13.3945 20.2944 13.1757 20.0756C12.9569 19.8568 12.834 19.5601 12.834 19.2507C12.834 18.9412 12.9569 18.6445 13.1757 18.4257C13.3945 18.2069 13.6912 18.084 14.0007 18.084ZM14.0007 7.87565C14.8516 7.87565 15.6676 8.21367 16.2693 8.81535C16.871 9.41703 17.209 10.2331 17.209 11.084C17.209 12.2623 16.8625 12.9203 15.9828 13.8362L15.7857 14.0357C15.06 14.7613 14.8757 15.0693 14.8757 15.7507C14.8757 15.9827 14.7835 16.2053 14.6194 16.3694C14.4553 16.5335 14.2327 16.6257 14.0007 16.6257C13.7686 16.6257 13.546 16.5335 13.3819 16.3694C13.2178 16.2053 13.1257 15.9827 13.1257 15.7507C13.1257 14.5723 13.4722 13.9143 14.3518 12.9985L14.549 12.799C15.2747 12.0733 15.459 11.7653 15.459 11.084C15.4578 10.711 15.3137 10.3526 15.0563 10.0826C14.799 9.81256 14.448 9.65141 14.0754 9.63228C13.7029 9.61316 13.3372 9.7375 13.0536 9.97975C12.7699 10.222 12.5899 10.5637 12.5505 10.9347L12.5423 11.084C12.5423 11.316 12.4501 11.5386 12.286 11.7027C12.1219 11.8668 11.8994 11.959 11.6673 11.959C11.4353 11.959 11.2127 11.8668 11.0486 11.7027C10.8845 11.5386 10.7923 11.316 10.7923 11.084C10.7923 10.2331 11.1303 9.41703 11.732 8.81535C12.3337 8.21367 13.1497 7.87565 14.0007 7.87565Z" fill="#384747"/>
</svg>
