<svg id="Layer_1" data-name="Layer 1" xmlns="http://www.w3.org/2000/svg" viewBox="0 0 1440 920"><defs><style>.cls-1{fill:#0d0d0d;}.cls-2{fill:#1f1f1f;}</style></defs><title>hero-bg</title><path class="cls-1" d="M88.3,136.4,393.18-39.95l243.9,140.71L331.78,277.4Z"/><path class="cls-1" d="M331.78,368.14l305.3-176.36,90,52-305.3,176.5Z"/><path class="cls-2" d="M332.92,368.09V276.54L637.48,100.11v91.55Z"/><path class="cls-2" d="M421.32,511.79V420.23L725.89,243.8l1.21,90.95Z"/><path class="cls-2" d="M512.15,654.87V562.72L816.71,386.89l1.21,90.94Z"/><path class="cls-2" d="M601.76,798V705.8L906.32,530l1.21,90.94Z"/><path class="cls-1" d="M421.82,511.12l305.3-176.35,90,51.82L511.86,563.23Z"/><path class="cls-1" d="M511.86,654.11l305.31-176.5,90,52L601.91,706.22Z"/><path class="cls-1" d="M601.91,797.09,907.21,620.6l90,52L692,849.21Z"/><path class="cls-1" d="M-496.7,290.58l304.88-176.53L52.08,254.9l-305.3,176.81Z"/><path class="cls-1" d="M-253.22,522.53,52.08,346l90,52-305.3,176.66Z"/><path class="cls-2" d="M-252.08,522.49V430.85L52.48,254.24v91.64Z"/><path class="cls-2" d="M-163.68,666.32V574.68l304.57-176.6,1.21,91Z"/><path class="cls-2" d="M-72.85,809.55V717.3l304.56-176,1.21,91Z"/><path class="cls-2" d="M16.76,952.77V860.53l304.56-176,1.21,91Z"/><path class="cls-1" d="M-163.18,665.66l305.3-176.53,90,51.88L-73.14,717.82Z"/><path class="cls-1" d="M-73.14,808.78,232.17,632.11l90,52L16.91,860.94Z"/><path class="cls-1" d="M16.91,951.91l305.3-176.67,90.05,52L107,1004.07Z"/></svg>