<svg width="23" height="22" viewBox="0 0 23 22" fill="none" xmlns="http://www.w3.org/2000/svg">
<path d="M21.1852 0H2.4069C1.4864 0 0.75 0.736402 0.75 1.56485V20.4351C0.75 21.2636 1.4864 22 2.4069 22H21.1852C22.1057 22 22.8421 21.2636 22.8421 20.4351V1.56485C22.8421 0.736402 22.1057 0 21.1852 0ZM7.28557 18.7782H4.06381V8.28452H7.28557V18.7782ZM5.72071 6.81172C4.70816 6.81172 3.78766 5.98326 3.78766 4.87866C3.78766 3.77406 4.61611 2.94561 5.72071 2.94561C6.73326 2.94561 7.65377 3.77406 7.65377 4.87866C7.65377 5.98326 6.73326 6.81172 5.72071 6.81172ZM19.6203 18.6862H16.3985V13.5314C16.3985 12.3347 16.3985 10.6778 14.6496 10.6778C12.9006 10.6778 12.7165 12.0586 12.7165 13.3473V18.5941H9.49477V8.28452H12.5324V9.66527H12.6245C13.0847 8.83682 14.1893 7.91632 15.7542 7.91632C19.068 7.91632 19.7123 10.1255 19.7123 12.9791V18.6862H19.6203Z" fill="black"/>
</svg>
