<svg width="23" height="22" viewBox="0 0 23 22" fill="none" xmlns="http://www.w3.org/2000/svg">
<path d="M17.622 6.44762C18.351 6.44762 18.942 5.85663 18.942 5.12762C18.942 4.3986 18.351 3.80762 17.622 3.80762C16.893 3.80762 16.302 4.3986 16.302 5.12762C16.302 5.85663 16.893 6.44762 17.622 6.44762Z" fill="black"/>
<path d="M11.7498 5.35156C10.6327 5.35156 9.54057 5.68284 8.61168 6.30351C7.68279 6.92417 6.95881 7.80635 6.53129 8.83848C6.10377 9.8706 5.99191 11.0063 6.20986 12.102C6.4278 13.1977 6.96577 14.2042 7.75573 14.9942C8.54569 15.7841 9.55215 16.3221 10.6479 16.54C11.7436 16.758 12.8793 16.6461 13.9114 16.2186C14.9435 15.7911 15.8257 15.0671 16.4464 14.1382C17.067 13.2093 17.3983 12.1172 17.3983 11.0001C17.3983 9.50199 16.8032 8.06527 15.7439 7.00597C14.6846 5.94667 13.2479 5.35156 11.7498 5.35156ZM11.7498 14.6667C11.0246 14.6667 10.3157 14.4517 9.71273 14.0488C9.10975 13.6459 8.63978 13.0732 8.36226 12.4032C8.08474 11.7332 8.01213 10.996 8.15361 10.2847C8.29509 9.57347 8.6443 8.92013 9.1571 8.40734C9.66989 7.89454 10.3232 7.54533 11.0345 7.40385C11.7458 7.26237 12.483 7.33498 13.153 7.6125C13.823 7.89003 14.3956 8.35999 14.7985 8.96297C15.2014 9.56595 15.4165 10.2749 15.4165 11.0001C15.4165 11.9725 15.0302 12.9052 14.3425 13.5928C13.6549 14.2804 12.7223 14.6667 11.7498 14.6667Z" fill="black"/>
<path d="M11.75 1.98183C14.687 1.98183 15.0353 1.99283 16.1949 2.046C16.8924 2.05428 17.5832 2.18234 18.2372 2.42458C18.7118 2.60763 19.1427 2.888 19.5024 3.24764C19.862 3.60728 20.1424 4.03823 20.3254 4.51275C20.5677 5.16682 20.6957 5.85765 20.704 6.55508C20.7572 7.71467 20.7682 8.063 20.7682 11.0009C20.7682 13.9388 20.7572 14.2853 20.704 15.4449C20.6957 16.1424 20.5677 16.8332 20.3254 17.4872C20.1424 17.9618 19.862 18.3927 19.5024 18.7524C19.1427 19.112 18.7118 19.3924 18.2372 19.5754C17.5832 19.8177 16.8924 19.9457 16.1949 19.954C15.0353 20.0072 14.687 20.0182 11.75 20.0182C8.813 20.0182 8.46467 20.0072 7.30508 19.954C6.60765 19.9457 5.91682 19.8177 5.26275 19.5754C4.78823 19.3924 4.35728 19.112 3.99764 18.7524C3.638 18.3927 3.35763 17.9618 3.17458 17.4872C2.93234 16.8332 2.80428 16.1424 2.796 15.4449C2.74283 14.2853 2.73183 13.937 2.73183 11C2.73183 8.063 2.74283 7.71467 2.796 6.55508C2.80428 5.85765 2.93234 5.16682 3.17458 4.51275C3.35763 4.03823 3.638 3.60728 3.99764 3.24764C4.35728 2.888 4.78823 2.60763 5.26275 2.42458C5.91682 2.18234 6.60765 2.05428 7.30508 2.046C8.46467 1.99283 8.813 1.98183 11.75 1.98183ZM11.75 0C8.76258 0 8.38767 0.0128334 7.21433 0.066C6.30204 0.0844214 5.39948 0.257372 4.545 0.5775C3.81416 0.860106 3.15044 1.2923 2.59637 1.84637C2.0423 2.40044 1.61011 3.06416 1.3275 3.795C1.00727 4.64977 0.834318 5.55265 0.816 6.46525C0.762833 7.63858 0.75 8.01167 0.75 11C0.75 13.9883 0.762833 14.3623 0.816 15.5357C0.834421 16.448 1.00737 17.3505 1.3275 18.205C1.61011 18.9358 2.0423 19.5996 2.59637 20.1536C3.15044 20.7077 3.81416 21.1399 4.545 21.4225C5.39977 21.7427 6.30265 21.9157 7.21525 21.934C8.38858 21.9872 8.76258 22 11.75 22C14.7374 22 15.1123 21.9872 16.2857 21.934C17.1983 21.9157 18.1012 21.7427 18.9559 21.4225C19.6868 21.1399 20.3505 20.7077 20.9046 20.1536C21.4586 19.5996 21.8908 18.9358 22.1734 18.205C22.4933 17.3502 22.666 16.4473 22.684 15.5348C22.7372 14.3614 22.75 13.9883 22.75 11C22.75 8.01167 22.7372 7.63767 22.684 6.46433C22.6656 5.55204 22.4926 4.64948 22.1725 3.795C21.8899 3.06416 21.4577 2.40044 20.9036 1.84637C20.3496 1.2923 19.6858 0.860106 18.955 0.5775C18.1002 0.257583 17.1973 0.0849412 16.2848 0.0669166C15.1114 0.0119166 14.7383 0 11.75 0Z" fill="black"/>
</svg>
