<svg width="23" height="24" viewBox="0 0 23 24" fill="none" xmlns="http://www.w3.org/2000/svg">
<path d="M21.2531 0.75H1.24687C0.916941 0.752453 0.601217 0.884608 0.367912 1.11791C0.134608 1.35122 0.00245314 1.66694 0 1.99687V22.0031C0.00245314 22.3331 0.134608 22.6488 0.367912 22.8821C0.601217 23.1154 0.916941 23.2475 1.24687 23.25H12.0187V14.55H9.09375V11.1469H12.0187V8.64375C12.0187 5.7375 13.7906 4.15313 16.3969 4.15313C17.2688 4.15313 18.1406 4.15312 19.0125 4.28437V7.3125H17.2219C15.8063 7.3125 15.5344 7.9875 15.5344 8.97188V11.1375H18.9094L18.4688 14.5406H15.5344V23.25H21.2531C21.5831 23.2475 21.8988 23.1154 22.1321 22.8821C22.3654 22.6488 22.4975 22.3331 22.5 22.0031V1.99687C22.4975 1.66694 22.3654 1.35122 22.1321 1.11791C21.8988 0.884608 21.5831 0.752453 21.2531 0.75Z" fill="black"/>
</svg>
