<svg width="25" height="20" viewBox="0 0 25 20" fill="none" xmlns="http://www.w3.org/2000/svg">
<path d="M7.7619 19.8344C9.61996 19.8461 11.4618 19.4888 13.1807 18.7831C14.8996 18.0775 16.4613 17.0375 17.7751 15.7237C19.089 14.4098 20.1289 12.8481 20.8346 11.1293C21.5402 9.41038 21.8976 7.56849 21.8859 5.71044V5.06144C22.8491 4.35578 23.6827 3.48863 24.3499 2.49844C23.443 2.89509 22.4833 3.15816 21.5009 3.27944C22.5425 2.6588 23.324 1.68187 23.7009 0.529438C22.7302 1.11182 21.6657 1.52124 20.5549 1.73944C19.8068 0.942342 18.8169 0.414 17.7383 0.236163C16.6597 0.0583264 15.5526 0.240908 14.5882 0.755658C13.6238 1.27041 12.856 2.08863 12.4035 3.08372C11.9509 4.07882 11.839 5.19531 12.0849 6.26044C10.1115 6.16358 8.18069 5.65216 6.41809 4.75949C4.6555 3.86683 3.10069 2.61293 1.8549 1.07944C1.22672 2.16973 1.03631 3.458 1.32224 4.68339C1.60816 5.90879 2.34906 6.97975 3.3949 7.67944C2.62338 7.64968 1.8697 7.43865 1.1949 7.06344V7.11844C1.18805 8.25786 1.5719 9.36521 2.28248 10.2559C2.99306 11.1467 3.98744 11.767 5.0999 12.0134C4.3823 12.2064 3.63062 12.2365 2.8999 12.1014C3.22197 13.0732 3.83675 13.9215 4.65995 14.53C5.48315 15.1385 6.47445 15.4775 7.4979 15.5004C5.74803 16.909 3.5732 17.6844 1.3269 17.7004C0.933051 17.689 0.540124 17.656 0.149902 17.6014C2.42355 19.05 5.06603 19.8137 7.7619 19.8014" fill="black"/>
</svg>
