<svg width="22" height="22" viewBox="0 0 22 22" fill="none" xmlns="http://www.w3.org/2000/svg">
<path d="M11.0007 1.83203C16.0643 1.83203 20.1692 5.93687 20.1692 11.0005C20.1692 16.0633 16.0643 20.1681 11.0007 20.1681C5.93698 20.1681 1.83398 16.0633 1.83398 11.0005C1.83307 5.93687 5.93698 1.83203 11.0007 1.83203ZM11.0007 3.20703C9.97014 3.19585 8.94765 3.38917 7.99235 3.7758C7.03705 4.16242 6.16792 4.73467 5.43526 5.45943C4.70259 6.18419 4.12095 7.04707 3.72399 7.99812C3.32703 8.94917 3.12263 9.9695 3.12263 11.0001C3.12263 12.0306 3.32703 13.051 3.72399 14.002C4.12095 14.9531 4.70259 15.816 5.43526 16.5407C6.16792 17.2655 7.03705 17.8377 7.99235 18.2243C8.94765 18.611 9.97014 18.8043 11.0007 18.7931C13.0467 18.7617 14.9983 17.9269 16.4341 16.4689C17.8698 15.011 18.6746 13.0468 18.6746 11.0005C18.6746 8.95427 17.8698 6.9901 16.4341 5.53212C14.9983 4.07414 13.0467 3.23933 11.0007 3.20795V3.20703ZM10.997 9.6237C11.1633 9.62348 11.324 9.68355 11.4494 9.79277C11.5748 9.90198 11.6564 10.053 11.679 10.2177L11.6854 10.3112L11.6891 15.3547C11.6909 15.5301 11.6255 15.6996 11.5064 15.8284C11.3873 15.9572 11.2235 16.0356 11.0484 16.0476C10.8734 16.0595 10.7004 16.0041 10.5649 15.8927C10.4294 15.7813 10.3416 15.6222 10.3196 15.4482L10.3141 15.3556L10.3104 10.3121C10.3104 10.1298 10.3828 9.95491 10.5118 9.82598C10.6407 9.69705 10.8156 9.62462 10.9979 9.62462L10.997 9.6237ZM11.0016 6.41811C11.1242 6.41423 11.2464 6.43504 11.3608 6.47929C11.4752 6.52354 11.5796 6.59033 11.6677 6.67571C11.7559 6.76109 11.8259 6.8633 11.8738 6.97628C11.9216 7.08926 11.9463 7.21071 11.9463 7.33341C11.9463 7.4561 11.9216 7.57755 11.8738 7.69053C11.8259 7.80351 11.7559 7.90573 11.6677 7.9911C11.5796 8.07648 11.4752 8.14328 11.3608 8.18753C11.2464 8.23178 11.1242 8.25258 11.0016 8.2487C10.7638 8.24117 10.5383 8.14144 10.3728 7.97061C10.2073 7.79979 10.1148 7.57126 10.1148 7.33341C10.1148 7.09555 10.2073 6.86703 10.3728 6.6962C10.5383 6.52537 10.7638 6.42564 11.0016 6.41811Z" fill="black"/>
</svg>
