<svg width="45" height="44" viewBox="0 0 45 44" fill="none" xmlns="http://www.w3.org/2000/svg">
<rect width="44" height="44" transform="translate(0.75)" fill="white"/>
<path d="M28.6227 17.4476C29.3518 17.4476 29.9427 16.8566 29.9427 16.1276C29.9427 15.3986 29.3518 14.8076 28.6227 14.8076C27.8937 14.8076 27.3027 15.3986 27.3027 16.1276C27.3027 16.8566 27.8937 17.4476 28.6227 17.4476Z" fill="black"/>
<path d="M22.7501 16.3516C21.6329 16.3516 20.5408 16.6828 19.6119 17.3035C18.683 17.9242 17.9591 18.8063 17.5315 19.8385C17.104 20.8706 16.9922 22.0063 17.2101 23.102C17.428 24.1977 17.966 25.2042 18.756 25.9942C19.5459 26.7841 20.5524 27.3221 21.6481 27.54C22.7438 27.758 23.8795 27.6461 24.9117 27.2186C25.9438 26.7911 26.826 26.0671 27.4466 25.1382C28.0673 24.2093 28.3986 23.1172 28.3986 22.0001C28.3986 20.502 27.8035 19.0653 26.7442 18.006C25.6849 16.9467 24.2481 16.3516 22.7501 16.3516ZM22.7501 25.6667C22.0249 25.6667 21.316 25.4517 20.713 25.0488C20.11 24.6459 19.64 24.0732 19.3625 23.4032C19.085 22.7332 19.0124 21.996 19.1539 21.2847C19.2953 20.5735 19.6445 19.9201 20.1573 19.4073C20.6701 18.8945 21.3235 18.5453 22.0347 18.4038C22.746 18.2624 23.4832 18.335 24.1532 18.6125C24.8232 18.89 25.3959 19.36 25.7988 19.963C26.2017 20.566 26.4167 21.2749 26.4167 22.0001C26.4167 22.9725 26.0304 23.9052 25.3428 24.5928C24.6552 25.2804 23.7225 25.6667 22.7501 25.6667Z" fill="black"/>
<path d="M22.75 12.9818C25.687 12.9818 26.0353 12.9928 27.1949 13.046C27.8924 13.0543 28.5832 13.1823 29.2372 13.4246C29.7118 13.6076 30.1427 13.888 30.5024 14.2476C30.862 14.6073 31.1424 15.0382 31.3254 15.5128C31.5677 16.1668 31.6957 16.8576 31.704 17.5551C31.7572 18.7147 31.7682 19.063 31.7682 22.0009C31.7682 24.9388 31.7572 25.2853 31.704 26.4449C31.6957 27.1424 31.5677 27.8332 31.3254 28.4872C31.1424 28.9618 30.862 29.3927 30.5024 29.7524C30.1427 30.112 29.7118 30.3924 29.2372 30.5754C28.5832 30.8177 27.8924 30.9457 27.1949 30.954C26.0353 31.0072 25.687 31.0182 22.75 31.0182C19.813 31.0182 19.4647 31.0072 18.3051 30.954C17.6076 30.9457 16.9168 30.8177 16.2628 30.5754C15.7882 30.3924 15.3573 30.112 14.9976 29.7524C14.638 29.3927 14.3576 28.9618 14.1746 28.4872C13.9323 27.8332 13.8043 27.1424 13.796 26.4449C13.7428 25.2853 13.7318 24.937 13.7318 22C13.7318 19.063 13.7428 18.7147 13.796 17.5551C13.8043 16.8576 13.9323 16.1668 14.1746 15.5128C14.3576 15.0382 14.638 14.6073 14.9976 14.2476C15.3573 13.888 15.7882 13.6076 16.2628 13.4246C16.9168 13.1823 17.6076 13.0543 18.3051 13.046C19.4647 12.9928 19.813 12.9818 22.75 12.9818ZM22.75 11C19.7626 11 19.3877 11.0128 18.2143 11.066C17.302 11.0844 16.3995 11.2574 15.545 11.5775C14.8142 11.8601 14.1504 12.2923 13.5964 12.8464C13.0423 13.4004 12.6101 14.0642 12.3275 14.795C12.0073 15.6498 11.8343 16.5527 11.816 17.4653C11.7628 18.6386 11.75 19.0117 11.75 22C11.75 24.9883 11.7628 25.3623 11.816 26.5357C11.8344 27.448 12.0074 28.3505 12.3275 29.205C12.6101 29.9358 13.0423 30.5996 13.5964 31.1536C14.1504 31.7077 14.8142 32.1399 15.545 32.4225C16.3998 32.7427 17.3027 32.9157 18.2153 32.934C19.3886 32.9872 19.7626 33 22.75 33C25.7374 33 26.1123 32.9872 27.2857 32.934C28.1983 32.9157 29.1012 32.7427 29.9559 32.4225C30.6868 32.1399 31.3505 31.7077 31.9046 31.1536C32.4586 30.5996 32.8908 29.9358 33.1734 29.205C33.4933 28.3502 33.666 27.4473 33.684 26.5348C33.7372 25.3614 33.75 24.9883 33.75 22C33.75 19.0117 33.7372 18.6377 33.684 17.4643C33.6656 16.552 33.4926 15.6495 33.1725 14.795C32.8899 14.0642 32.4577 13.4004 31.9036 12.8464C31.3496 12.2923 30.6858 11.8601 29.955 11.5775C29.1002 11.2576 28.1973 11.0849 27.2848 11.0669C26.1114 11.0119 25.7383 11 22.75 11Z" fill="black"/>
</svg>
