<svg width="24" height="24" viewBox="0 0 24 24" fill="none" xmlns="http://www.w3.org/2000/svg">
<path d="M12.0002 3.27295C9.63009 3.27295 9.33264 3.28331 8.40176 3.32568C7.4727 3.36822 6.83853 3.51531 6.28364 3.73113C5.70966 3.95404 5.22277 4.25222 4.73769 4.73749C4.25225 5.22259 3.95408 5.70949 3.73045 6.28331C3.51409 6.8384 3.36682 7.47277 3.325 8.40149C3.28337 9.3324 3.27246 9.63004 3.27246 12.0002C3.27246 14.3704 3.28301 14.667 3.32519 15.5979C3.36791 16.527 3.515 17.1611 3.73063 17.716C3.95371 18.29 4.25189 18.777 4.73714 19.262C5.22204 19.7475 5.70893 20.0464 6.28255 20.2693C6.83781 20.4851 7.47215 20.6322 8.40103 20.6748C9.33191 20.7171 9.62918 20.7275 11.9991 20.7275C14.3694 20.7275 14.6659 20.7171 15.5968 20.6748C16.5259 20.6322 17.1608 20.4851 17.716 20.2693C18.2898 20.0464 18.776 19.7475 19.2609 19.262C19.7463 18.777 20.0445 18.29 20.2681 17.7162C20.4827 17.1611 20.6299 16.5268 20.6736 15.598C20.7154 14.6671 20.7263 14.3704 20.7263 12.0002C20.7263 9.63004 20.7154 9.33259 20.6736 8.40168C20.6299 7.47259 20.4827 6.8384 20.2681 6.28349C20.0445 5.70949 19.7463 5.22259 19.2609 4.73749C18.7754 4.25204 18.29 3.95386 17.7155 3.73113C17.1591 3.51531 16.5246 3.36822 15.5955 3.32568C14.6647 3.28331 14.3683 3.27295 11.9975 3.27295H12.0002ZM11.2173 4.84568C11.4497 4.84531 11.7089 4.84568 12.0002 4.84568C14.3303 4.84568 14.6065 4.85404 15.5266 4.89586C16.3775 4.93477 16.8393 5.07695 17.1469 5.1964C17.5542 5.35459 17.8446 5.54368 18.1498 5.84913C18.4553 6.15459 18.6444 6.44549 18.8029 6.85277C18.9224 7.16004 19.0647 7.62186 19.1034 8.47277C19.1453 9.39277 19.1543 9.66913 19.1543 11.9982C19.1543 14.3273 19.1453 14.6037 19.1034 15.5237C19.0645 16.3746 18.9224 16.8364 18.8029 17.1437C18.6447 17.5509 18.4553 17.8409 18.1498 18.1462C17.8444 18.4517 17.5544 18.6408 17.1469 18.7989C16.8397 18.9189 16.3775 19.0608 15.5266 19.0997C14.6067 19.1415 14.3303 19.1506 12.0002 19.1506C9.6699 19.1506 9.39373 19.1415 8.47376 19.0997C7.62287 19.0604 7.16107 18.9182 6.85326 18.7988C6.446 18.6406 6.1551 18.4515 5.84966 18.146C5.54421 17.8406 5.35513 17.5504 5.19658 17.143C5.07713 16.8357 4.93477 16.3739 4.89605 15.5229C4.85423 14.6029 4.84587 14.3266 4.84587 11.996C4.84587 9.66549 4.85423 9.39059 4.89605 8.47059C4.93496 7.61968 5.07713 7.15786 5.19658 6.85022C5.35476 6.44295 5.54421 6.15204 5.84966 5.84659C6.1551 5.54113 6.446 5.35204 6.85326 5.19349C7.16089 5.07349 7.62287 4.93168 8.47376 4.89259C9.27882 4.85622 9.59082 4.84531 11.2173 4.84349V4.84568ZM16.6586 6.29477C16.0804 6.29477 15.6114 6.76331 15.6114 7.34168C15.6114 7.91986 16.0804 8.38895 16.6586 8.38895C17.2368 8.38895 17.7058 7.91986 17.7058 7.34168C17.7058 6.76349 17.2368 6.2944 16.6586 6.2944V6.29477ZM12.0002 7.5184C9.52518 7.5184 7.51851 9.52513 7.51851 12.0002C7.51851 14.4753 9.52518 16.4811 12.0002 16.4811C14.4752 16.4811 16.4812 14.4753 16.4812 12.0002C16.4812 9.52513 14.475 7.5184 12 7.5184H12.0002ZM12.0002 9.09113C13.6067 9.09113 14.9092 10.3935 14.9092 12.0002C14.9092 13.6068 13.6067 14.9093 12.0002 14.9093C10.3935 14.9093 9.09119 13.6068 9.09119 12.0002C9.09119 10.3935 10.3935 9.09113 12.0002 9.09113V9.09113Z" fill="black"/>
</svg>
