<svg width="69" height="32" viewBox="0 0 69 32" fill="none" xmlns="http://www.w3.org/2000/svg">
<g id="Group 24">
<path id="Vector" d="M18.2635 29.5852L61.0555 26.5254C61.5805 26.4804 62.0154 26.1055 62.1354 25.5955L67.1601 1.46211C67.325 0.697156 66.6951 -0.00779687 65.9151 0.0372001L23.1232 3.097C22.5982 3.14199 22.1633 3.51697 22.0433 4.02693L17.0186 28.1603C16.8537 28.9253 17.4836 29.6452 18.2635 29.5852Z" fill="#0080FF"/>
<path id="Vector_2" d="M68.4377 2.12071C68.4377 2.2707 68.4227 2.4057 68.3927 2.55569L63.4281 26.3591L63.3381 26.7791C63.2181 27.409 62.8581 27.949 62.3781 28.324L17.7863 30.6938L16.6914 29.7039L18.2663 28.7589L65.9179 0.0358534L66.1879 0.00585533C66.9828 -0.0541407 67.7328 0.350832 68.1527 1.04079C68.3477 1.35576 68.4377 1.74574 68.4377 2.12071Z" fill="#00CFFF"/>
<path id="Vector_3" d="M63.4273 26.3418L63.3373 26.7618C63.2173 27.3917 62.8573 27.9317 62.3773 28.3067C61.9574 28.6366 61.4324 28.8466 60.8775 28.8766L2.24666 31.9964C1.25673 32.0564 0.491788 31.1565 0.686774 30.1815L0.791759 29.6566L18.2655 28.7266L63.4273 26.3418Z" fill="black"/>
<path id="Vector_4" d="M28.5299 2.67773C32.2947 5.45255 37.1693 9.71227 41.639 15.8769C44.5938 19.9566 46.6636 23.8713 48.1185 27.1711C37.7693 27.7261 27.42 28.266 17.0857 28.821C17.0557 28.746 17.0407 28.656 17.0257 28.551C17.0107 28.401 17.0257 28.266 17.0407 28.176C18.7206 20.1366 20.4005 12.0821 22.0804 4.04264C22.0954 3.93765 22.1854 3.63767 22.4704 3.38269C22.6803 3.2027 22.9053 3.1427 23.0853 3.11271C23.6253 2.99271 25.7101 2.82772 28.5299 2.67773Z" fill="#0045F6"/>
</g>
</svg>
