<svg width="24" height="24" viewBox="0 0 24 24" fill="none" xmlns="http://www.w3.org/2000/svg">
<path d="M20.0264 12.1919C19.878 12.4294 19.6814 12.6331 19.4494 12.7899L13.3994 16.8739C12.9862 17.1529 12.499 17.302 12.0004 17.302C11.5018 17.302 11.0146 17.1529 10.6014 16.8739L4.55141 12.7899C4.18931 12.5456 3.91714 12.1896 3.77648 11.776C3.63581 11.3625 3.63438 10.9143 3.77241 10.4999L10.6134 15.0599C10.9975 15.3159 11.4449 15.4605 11.9061 15.4778C12.3673 15.4951 12.8243 15.3844 13.2264 15.1579L13.3864 15.0599L20.2274 10.4999C20.3208 10.7793 20.3513 11.0759 20.3165 11.3684C20.2818 11.661 20.1827 11.9422 20.0264 12.1919ZM20.2274 13.7499C20.3662 14.1642 20.3653 14.6125 20.2247 15.0262C20.0842 15.4398 19.8118 15.796 19.4494 16.0399L13.3994 20.1239C12.9862 20.4029 12.499 20.552 12.0004 20.552C11.5018 20.552 11.0146 20.4029 10.6014 20.1239L4.55141 16.0399C4.18931 15.7956 3.91714 15.4396 3.77648 15.026C3.63581 14.6125 3.63438 14.1643 3.77241 13.7499L10.6134 18.3099C10.9975 18.5659 11.4449 18.7105 11.9061 18.7278C12.3673 18.7451 12.8243 18.6344 13.2264 18.4079L13.3864 18.3099L20.2274 13.7499ZM13.3874 3.42492L19.7524 7.66792C19.8894 7.75925 20.0017 7.88297 20.0793 8.02811C20.157 8.17324 20.1976 8.33531 20.1976 8.49992C20.1976 8.66454 20.157 8.8266 20.0793 8.97174C20.0017 9.11688 19.8894 9.2406 19.7524 9.33192L13.3874 13.5759C12.9767 13.8498 12.4941 13.996 12.0004 13.996C11.5067 13.996 11.0241 13.8498 10.6134 13.5759L4.24841 9.33192C4.11145 9.2406 3.99915 9.11688 3.92149 8.97174C3.84382 8.8266 3.80318 8.66454 3.80318 8.49992C3.80318 8.33531 3.84382 8.17324 3.92149 8.02811C3.99915 7.88297 4.11145 7.75925 4.24841 7.66792L10.6134 3.42492C11.0241 3.15104 11.5067 3.00488 12.0004 3.00488C12.4941 3.00488 12.9767 3.15104 13.3874 3.42492ZM11.5604 4.60592L11.4444 4.67292L5.70541 8.49992L11.4454 12.3279C11.5909 12.4248 11.7592 12.4819 11.9336 12.4935C12.108 12.5051 12.2824 12.4708 12.4394 12.3939L12.5554 12.3279L18.2944 8.49992L12.5544 4.67292C12.4091 4.57603 12.241 4.51887 12.0668 4.50711C11.8926 4.49536 11.7184 4.52943 11.5614 4.60592H11.5604Z" fill="#E55006"/>
</svg>
