<svg width="24" height="24" viewBox="0 0 24 24" fill="none" xmlns="http://www.w3.org/2000/svg">
<path d="M19 7.5C19.0005 8.00715 18.9308 8.51194 18.793 9H20.413C21.29 9 22 9.71 22 10.586V15.5C22 16.7216 21.6558 17.9185 21.0067 18.9534C20.3577 19.9884 19.4301 20.8195 18.3304 21.3514C17.2307 21.8834 16.0034 22.0947 14.7891 21.961C13.5748 21.8274 12.4227 21.3543 11.465 20.596L10.28 21.78C10.2113 21.8537 10.1285 21.9128 10.0365 21.9538C9.94454 21.9948 9.84522 22.0168 9.74452 22.0186C9.64382 22.0204 9.54379 22.0018 9.4504 21.9641C9.35701 21.9264 9.27218 21.8703 9.20096 21.799C9.12974 21.7278 9.0736 21.643 9.03588 21.5496C8.99816 21.4562 8.97963 21.3562 8.98141 21.2555C8.98318 21.1548 9.00523 21.0555 9.04622 20.9635C9.08721 20.8715 9.14631 20.7887 9.22 20.72L10.404 19.535C10.0062 19.0334 9.68468 18.4757 9.45 17.88C8.57816 18.058 7.67764 18.0398 6.81369 17.8268C5.94974 17.6138 5.14399 17.2113 4.45479 16.6484C3.7656 16.0856 3.21022 15.3765 2.82889 14.5725C2.44756 13.7685 2.24982 12.8898 2.25 12V7.514C2.25 6.678 2.928 6 3.764 6H8.207C8.53386 4.84815 9.22754 3.83436 10.1828 3.11247C11.138 2.39058 12.3027 2 13.5 2H17.56C18.355 2 19 2.645 19 3.44V7.5ZM9.722 6.182C10.552 6.3927 11.3275 6.77827 11.9964 7.31289C12.6654 7.84751 13.2125 8.51886 13.601 9.282C14.2165 9.09451 14.8565 8.99947 15.5 9H17.21C17.4021 8.52328 17.5006 8.01399 17.5 7.5V3.5H13.5C12.6699 3.50001 11.8603 3.75815 11.1834 4.23868C10.5065 4.71921 9.9958 5.39834 9.722 6.182ZM12.535 19.526C13.2797 20.0744 14.1619 20.4056 15.0836 20.4826C16.0052 20.5596 16.9301 20.3795 17.7555 19.9623C18.5809 19.5451 19.2745 18.9072 19.759 18.1194C20.2435 17.3316 20.5 16.4249 20.5 15.5V10.586C20.5 10.5747 20.4978 10.5635 20.4935 10.5531C20.4891 10.5427 20.4828 10.5332 20.4748 10.5252C20.4668 10.5172 20.4573 10.5109 20.4469 10.5065C20.4365 10.5022 20.4253 10.5 20.414 10.5H15.5C14.5751 10.5 13.6684 10.7565 12.8806 11.241C12.0928 11.7255 11.4549 12.4191 11.0377 13.2445C10.6205 14.0699 10.4404 14.9948 10.5174 15.9164C10.5944 16.8381 10.9256 17.7203 11.474 18.465L15.72 14.22C15.7887 14.1463 15.8715 14.0872 15.9635 14.0462C16.0555 14.0052 16.1548 13.9832 16.2555 13.9814C16.3562 13.9796 16.4562 13.9982 16.5496 14.0359C16.643 14.0736 16.7278 14.1297 16.799 14.201C16.8703 14.2722 16.9264 14.357 16.9641 14.4504C17.0018 14.5438 17.0204 14.6438 17.0186 14.7445C17.0168 14.8452 16.9948 14.9445 16.9538 15.0365C16.9128 15.1285 16.8537 15.2113 16.78 15.28L12.535 19.526ZM9 15.5C9 14.908 9.08 14.334 9.228 13.789L6.47 11.03C6.39631 10.9613 6.33721 10.8785 6.29622 10.7865C6.25523 10.6945 6.23319 10.5952 6.23141 10.4945C6.22963 10.3938 6.24816 10.2938 6.28588 10.2004C6.3236 10.107 6.37974 10.0222 6.45096 9.95096C6.52218 9.87974 6.60701 9.8236 6.7004 9.78588C6.79379 9.74816 6.89382 9.72963 6.99452 9.73141C7.09523 9.73318 7.19454 9.75523 7.28654 9.79622C7.37854 9.83721 7.46134 9.89631 7.53 9.97L9.848 12.287C10.4154 11.2919 11.2344 10.4636 12.223 9.885C11.8393 9.1645 11.2669 8.56192 10.5671 8.1418C9.86723 7.72167 9.06628 7.49982 8.25 7.5H3.759L3.754 7.504C3.75278 7.50553 3.75177 7.50721 3.751 7.509L3.75 7.514V12C3.74991 12.6601 3.89506 13.3122 4.17514 13.9099C4.45523 14.5077 4.8634 15.0365 5.37071 15.4589C5.87801 15.8813 6.47203 16.1868 7.11065 16.354C7.74926 16.5211 8.41682 16.5457 9.066 16.426C9.02215 16.1193 9.00009 15.8098 9 15.5Z" fill="#0080FF"/>
</svg>
