<svg width="45" height="44" viewBox="0 0 45 44" fill="none" xmlns="http://www.w3.org/2000/svg">
<rect width="44" height="44" transform="translate(0.75)" fill="white"/>
<path d="M32.1852 11H13.4069C12.4864 11 11.75 11.7364 11.75 12.5649V31.4351C11.75 32.2636 12.4864 33 13.4069 33H32.1852C33.1057 33 33.8421 32.2636 33.8421 31.4351V12.5649C33.8421 11.7364 33.1057 11 32.1852 11ZM18.2856 29.7782H15.0638V19.2845H18.2856V29.7782ZM16.7207 17.8117C15.7082 17.8117 14.7877 16.9833 14.7877 15.8787C14.7877 14.7741 15.6161 13.9456 16.7207 13.9456C17.7333 13.9456 18.6538 14.7741 18.6538 15.8787C18.6538 16.9833 17.7333 17.8117 16.7207 17.8117ZM30.6203 29.6862H27.3985V24.5314C27.3985 23.3347 27.3985 21.6778 25.6496 21.6778C23.9006 21.6778 23.7165 23.0586 23.7165 24.3473V29.5941H20.4948V19.2845H23.5324V20.6653H23.6245C24.0847 19.8368 25.1893 18.9163 26.7542 18.9163C30.068 18.9163 30.7123 21.1255 30.7123 23.9791V29.6862H30.6203Z" fill="black"/>
</svg>
