<svg width="19" height="19" viewBox="0 0 19 19" fill="none" xmlns="http://www.w3.org/2000/svg">
<g clip-path="url(#clip0_441:921)">
<path d="M15.9455 15.2911H13.1256V11.1267C13.1256 10.1336 13.1068 8.85528 11.6589 8.85528C10.1902 8.85528 9.96552 9.93724 9.96552 11.0544V15.2908H7.14558V6.7271H9.85271V7.89742H9.89061C10.1615 7.46061 10.553 7.10126 11.0234 6.85766C11.4937 6.61406 12.0254 6.49532 12.5616 6.51409C15.4197 6.51409 15.9467 8.28688 15.9467 10.5932L15.9455 15.2911ZM3.96378 5.5565C3.64012 5.55656 3.32371 5.46611 3.05457 5.29659C2.78542 5.12707 2.57565 4.8861 2.45173 4.60414C2.32782 4.32219 2.29535 4.01191 2.35843 3.71256C2.42152 3.4132 2.57733 3.13821 2.80615 2.92236C3.03497 2.70651 3.32652 2.55948 3.64395 2.49989C3.96138 2.44029 4.29041 2.47079 4.58945 2.58754C4.88849 2.70429 5.1441 2.90204 5.32397 3.15578C5.50383 3.40952 5.59987 3.70786 5.59992 4.01307C5.59996 4.21572 5.55767 4.41639 5.47546 4.60363C5.39326 4.79087 5.27277 4.96101 5.12084 5.10433C4.96891 5.24765 4.78852 5.36135 4.58999 5.43893C4.39146 5.51652 4.17868 5.55647 3.96378 5.5565ZM5.37374 15.2911H2.55088V6.7271H5.37374V15.2911ZM17.3514 0.000734438H1.13387C0.765784 -0.0031827 0.411084 0.130867 0.147748 0.373427C-0.115587 0.615988 -0.266015 0.947213 -0.270508 1.29432V16.6509C-0.266169 16.9981 -0.115829 17.3296 0.147497 17.5724C0.410824 17.8152 0.765601 17.9495 1.13387 17.9458H17.3514C17.7204 17.9502 18.0761 17.8163 18.3405 17.5735C18.6049 17.3307 18.7562 16.9988 18.7613 16.6509V1.29321C18.7561 0.945417 18.6046 0.613815 18.3402 0.37126C18.0759 0.128706 17.7202 -0.004961 17.3514 -0.000374006" fill="black"/>
</g>
<defs>
<clipPath id="clip0_441:921">
<rect width="19" height="18.0952" fill="white"/>
</clipPath>
</defs>
</svg>
