<svg xmlns="http://www.w3.org/2000/svg" viewBox="0 0 67.58 124"><defs><style>.cls-1{fill:#0045f6;}.cls-2{fill:#00cfff;}</style></defs><title>location-icon</title><g id="Layer_2" data-name="Layer 2"><g id="Layer_1-2" data-name="Layer 1"><path class="cls-1" d="M67.58,33.12C67.58,14.82,52.45,0,33.78,0S0,14.82,0,33.12c0,5.81,2.38,14.45,5.14,20L33.63,124,62.24,53.57C65.07,48,67.58,39.08,67.58,33.12ZM33.78,17.17A16,16,0,1,1,17.52,33.12,16.11,16.11,0,0,1,33.78,17.17Z"/><path class="cls-2" d="M4.93,33.12c0-17.48,13.82-31.79,31.33-33C35.45.05,34.63,0,33.8,0,15.12,0,0,14.82,0,33.12c0,5.81,2.38,14.45,5.14,20L33.63,124l2.48-6.09-26-64.76C7.31,47.57,4.93,38.93,4.93,33.12Z"/></g></g></svg>