<svg xmlns="http://www.w3.org/2000/svg" xmlns:xlink="http://www.w3.org/1999/xlink" viewBox="0 0 259.43 70.51"><defs><style>.cls-1{fill:none;}.cls-2{clip-path:url(#clip-path);}.cls-3{fill:#fff;}</style><clipPath id="clip-path" transform="translate(-15.47 -9.45)"><rect class="cls-1" width="286" height="86"/></clipPath></defs><title>logo-orange</title><g id="Layer_2" data-name="Layer 2"><g id="Layer_1-2" data-name="Layer 1"><g class="cls-2"><path class="cls-3" d="M247.33,9.45c3.49,0,7,0,10.45,0v1.82h-4.1c0,3.8,0,7.59,0,11.39h-2.24c0-3.81,0-7.6,0-11.4h-4.1Q247.32,10.37,247.33,9.45Z" transform="translate(-15.47 -9.45)"/><path class="cls-3" d="M260.39,9.46h3.42c1.28,3.31,2.59,6.61,3.88,9.92,1.27-3.31,2.56-6.61,3.82-9.92,1.12,0,2.26,0,3.39,0,0,4.41,0,8.81,0,13.22h-2.23c0-3.62,0-7.25,0-10.87-1.48,3.6-2.85,7.25-4.29,10.87h-1.44c-1.43-3.6-2.78-7.24-4.28-10.81,0,3.61,0,7.21,0,10.82h-2.23Q260.38,16.07,260.39,9.46Z" transform="translate(-15.47 -9.45)"/><path class="cls-3" d="M33.91,23.55A20.65,20.65,0,0,1,47,27a18,18,0,0,1,6.75,9.53,29,29,0,0,1,.8,12.57,20.39,20.39,0,0,1-4.26,9.93A18.22,18.22,0,0,1,39.9,65.16a22.61,22.61,0,0,1-13-1.07,17.46,17.46,0,0,1-8.26-6.94,23.35,23.35,0,0,1-3.19-12.84,22.36,22.36,0,0,1,4-13.44A18.79,18.79,0,0,1,33.91,23.55Zm-.43,9a7.72,7.72,0,0,0-5.38,3.29,15.06,15.06,0,0,0-2.16,8,17.21,17.21,0,0,0,1.84,9,7.7,7.7,0,0,0,5.07,3.68,9.67,9.67,0,0,0,7.66-1.37A10.15,10.15,0,0,0,44,48.92a23.26,23.26,0,0,0,.11-8.11,10.78,10.78,0,0,0-3.2-6.45A9.22,9.22,0,0,0,33.48,32.57Z" transform="translate(-15.47 -9.45)"/><path class="cls-3" d="M72,29.18A15,15,0,0,1,84.3,23.8c0,3.3,0,6.6,0,9.9-3,0-6.06.14-8.78,1.44A5.45,5.45,0,0,0,72.7,38c0,8.84,0,17.67,0,26.51H62q0-20,0-39.93c3.33,0,6.66,0,10,0Z" transform="translate(-15.47 -9.45)"/><path class="cls-3" d="M98.14,24.89a28.42,28.42,0,0,1,12.67-.81c3.54.57,7.21,2,9.43,4.93a11.38,11.38,0,0,1,2,7.79c0,9.23-.06,18.46,0,27.69H113c-.31-1.15-.61-2.3-.92-3.45a23.74,23.74,0,0,1-9,3.59c-3.24.52-6.71.59-9.74-.82a10.33,10.33,0,0,1-5.56-6.33,12.59,12.59,0,0,1,1-10.28,15.78,15.78,0,0,1,7.35-5.73c5.08-2.16,10.57-3.06,16-3.7,0-1.63.3-3.52-.87-4.86-1.66-1.89-4.44-2-6.76-1.8a12,12,0,0,0-8.27,4.51c-2.38-1.35-4.76-2.7-7.12-4.08A17.59,17.59,0,0,1,98.14,24.89Zm4.28,21.47a8.62,8.62,0,0,0-4.21,3.28,5.84,5.84,0,0,0,.59,6.69,4.44,4.44,0,0,0,3.29,1.39c3.66.06,7.06-1.82,9.72-4.21,0-3.11,0-6.23,0-9.34A36,36,0,0,0,102.42,46.36Z" transform="translate(-15.47 -9.45)"/><path class="cls-3" d="M150.25,24a16.88,16.88,0,0,1,10.08.9,9.59,9.59,0,0,1,4.95,5.54,17.41,17.41,0,0,1,.95,5.59V64.43H155.71V37.76c-.06-1.74-.25-3.66-1.43-5s-3.12-1.4-4.77-1.22c-3.26.41-6.08,2.28-8.55,4.34V64.43H130.5q0-19.4,0-38.79c2.91-.41,5.83-.82,8.74-1.21.28,1.56.64,3.12.94,4.68C143.24,26.9,146.51,24.8,150.25,24Z" transform="translate(-15.47 -9.45)"/><path class="cls-3" d="M177.59,29.84a14.7,14.7,0,0,1,10.57-6.1,18.43,18.43,0,0,1,8,1.12,8.57,8.57,0,0,1,4.63,4c.26-1.47.54-2.94.77-4.41,3-.07,5.94,0,8.91,0V64c-.07,3.88-.93,8-3.68,10.92-3.06,3.24-7.61,4.47-11.91,4.9-5,.47-10.26.2-14.71-2.27A11.25,11.25,0,0,1,174.47,70l10.38-1.68A4.33,4.33,0,0,0,186.51,71c1.85,1.2,4.15,1.27,6.28,1.24a7.46,7.46,0,0,0,5.62-2.11c1.54-1.73,1.86-4.15,1.93-6.38,0-1.68,0-3.36,0-5A11.84,11.84,0,0,1,196.21,63c-2.56,1.46-5.62,1.58-8.49,1.3a14.9,14.9,0,0,1-10.16-5.49c-3.08-3.87-4.15-8.94-4.2-13.8C173.26,39.73,174.38,34.18,177.59,29.84Zm12.83,1.46a6.8,6.8,0,0,0-4,2.31,11.73,11.73,0,0,0-2.42,6,33.56,33.56,0,0,0,0,7.43c.29,2.42.87,5,2.62,6.8a6.69,6.69,0,0,0,5.16,2,7.5,7.5,0,0,0,5.55-2.09,11.23,11.23,0,0,0,2.7-6,31.63,31.63,0,0,0,.33-6.3,12.29,12.29,0,0,0-3.06-7.95A7.72,7.72,0,0,0,190.42,31.3Z" transform="translate(-15.47 -9.45)"/><path class="cls-3" d="M221.35,29.54a16.7,16.7,0,0,1,10.9-5.69c4.64-.54,9.63,0,13.63,2.61a16.34,16.34,0,0,1,6.63,9.13,28.53,28.53,0,0,1,1.05,10.48H227.12A14.56,14.56,0,0,0,229,53.83a7.69,7.69,0,0,0,5.4,3.37,11.11,11.11,0,0,0,6.68-.85,12.21,12.21,0,0,0,4.37-4.11c2.57,1.43,5.14,2.87,7.72,4.28a17.19,17.19,0,0,1-11.38,8,24.94,24.94,0,0,1-14.41-.82,15.8,15.8,0,0,1-8.18-7.6c-2.2-4.37-2.65-9.4-2.34-14.22C217.18,37.48,218.46,33,221.35,29.54Zm8.22,3.64a10.17,10.17,0,0,0-2.29,6c5.36,0,10.71,0,16.06,0a9.18,9.18,0,0,0-2-6,8.09,8.09,0,0,0-6.7-2.38A7.34,7.34,0,0,0,229.57,33.18Z" transform="translate(-15.47 -9.45)"/></g></g></g></svg>