<svg xmlns="http://www.w3.org/2000/svg" xmlns:xlink="http://www.w3.org/1999/xlink" viewBox="0 0 268 75.19"><defs><style>.cls-1{fill:none;}.cls-2{clip-path:url(#clip-path);}.cls-3{fill:#fff;}</style><clipPath id="clip-path"><rect class="cls-1" width="268" height="75"/></clipPath></defs><title>logo-propel</title><g id="Layer_2" data-name="Layer 2"><g id="Layer_1-2" data-name="Layer 1"><g class="cls-2"><path class="cls-3" d="M70.32,3.69h20.9c9.38,0,17.39,6,17.39,16.91s-8,16.9-17.39,16.9H78.52V56.35h-8.2ZM90.44,30.31c6.06,0,10-3.89,10-9.71s-3.9-9.72-10-9.72H78.33V30.31Z"/><path class="cls-3" d="M111.54,19.24h8v5.05c3.12-4.08,8-5.64,14.45-5.64V27a14.36,14.36,0,0,0-4.88-.78c-4.89,0-9.57,3.89-9.57,11.46V56.35h-8Z"/><path class="cls-3" d="M133.8,37.69a19.93,19.93,0,1,1,19.93,19.63A19.79,19.79,0,0,1,133.8,37.69Zm31.45,0c0-7-5.08-12.24-11.72-12.24S142,30.7,142,37.69c0,6.8,5.08,12.25,11.52,12.05C160.17,49.94,165.25,44.49,165.25,37.69Z"/><path class="cls-3" d="M177.36,19.24h8v5.24c3.13-3.5,7.23-5.83,13.68-5.83,10.15,0,17.77,8.36,17.77,19.24,0,10.69-7.62,19-17.77,19-6.64,0-10.55-2.33-13.68-5.83V75.19h-8ZM209,37.69c0-7-5.08-12.24-11.72-12.24a11.9,11.9,0,0,0-11.92,12.24c0,7,5.08,12.25,11.92,12.25C203.93,49.94,209,44.69,209,37.69Z"/><path class="cls-3" d="M256.87,37.11v2.72H225.81c.78,7,6.05,10.88,12.3,10.88a14.08,14.08,0,0,0,11.14-5.05l4.88,4.08c-3.51,4.86-9.57,7.38-16,7.38a19.17,19.17,0,0,1-19.53-19.43,19.22,19.22,0,0,1,19.53-19.62C248.86,18.07,256.67,25.45,256.87,37.11ZM226,34.59h23.83c-1.36-6.61-5.66-10.3-11.91-10.3A11.68,11.68,0,0,0,226,34.59Z"/><path class="cls-3" d="M268,0h-7.62V56.35H268Z"/><path class="cls-3" d="M42,4.08V18.26L14.06,34.2,0,26.23v-14l14.06,8Z"/><path class="cls-3" d="M55.87,26.23v14L27.93,56.35,14.06,48.19v-14l13.87,8.16Z"/></g></g></g></svg>