<svg xmlns="http://www.w3.org/2000/svg" xmlns:xlink="http://www.w3.org/1999/xlink" viewBox="0 0 309 87.23"><defs><style>.cls-1{fill:none;}.cls-2{clip-path:url(#clip-path);}</style><clipPath id="clip-path"><rect class="cls-1" width="309" height="87"/></clipPath></defs><title>logo-propel-black</title><g id="Layer_2" data-name="Layer 2"><g id="Layer_1-2" data-name="Layer 1"><g class="cls-2"><path d="M81.08,4.28h24.1c10.81,0,20,7,20,19.61S116,43.5,105.18,43.5H90.54V65.36H81.08Zm23.2,30.88c7,0,11.48-4.51,11.48-11.27s-4.5-11.27-11.48-11.27h-14V35.16Z"/><path d="M128.6,22.31h9.23v5.86c3.61-4.73,9.24-6.53,16.67-6.53v9.69a16.26,16.26,0,0,0-5.63-.9c-5.63,0-11,4.51-11,13.3V65.36H128.6Z"/><path d="M154.27,43.73a23,23,0,1,1,23,22.76A22.89,22.89,0,0,1,154.27,43.73Zm36.27,0c0-8.12-5.86-14.2-13.52-14.2s-13.29,6.08-13.29,14.2c0,7.88,5.86,14.19,13.29,14C184.68,57.92,190.54,51.61,190.54,43.73Z"/><path d="M204.5,22.31h9.23V28.4c3.61-4.06,8.34-6.76,15.77-6.76C241.21,21.64,250,31.33,250,44,250,56.35,241.21,66,229.5,66c-7.66,0-12.16-2.71-15.77-6.76v28H204.5ZM241,43.73c0-8.12-5.85-14.2-13.51-14.2s-13.74,6.08-13.74,14.2,5.86,14.2,13.74,14.2C235.13,57.93,241,51.84,241,43.73Z"/><path d="M296.16,43.05V46.2H260.35c.9,8.12,7,12.63,14.19,12.63A16.21,16.21,0,0,0,287.38,53L293,57.7c-4.05,5.63-11,8.56-18.47,8.56A22.16,22.16,0,0,1,252,43.73C252,30.88,261.7,21,274.54,21,286.93,21,295.94,29.53,296.16,43.05Zm-35.58-2.93h27.47c-1.57-7.66-6.53-11.95-13.73-11.95S261.7,32.91,260.58,40.12Z"/><path d="M309,0h-8.78V65.36H309Z"/><path d="M48.42,4.73V21.19L16.22,39.67,0,30.43V14.2l16.22,9.24Z"/><path d="M64.41,30.43V46.66l-32.2,18.7-16-9.46V39.67l16,9.46Z"/></g></g></g></svg>