<svg xmlns="http://www.w3.org/2000/svg" viewBox="0 0 262.31 49.35"><defs><style>.cls-1{fill:#fff;}</style></defs><title>logo-farfetch</title><g id="Layer_2" data-name="Layer 2"><g id="Layer_1-2" data-name="Layer 1"><path class="cls-1" d="M49.35,21.09V13.91H27.93c-6.25,0-9.75,3.77-9.75,9.24v4.59H8.87V17.68c0-7,.7-10.42,8.66-10.42H49.31V0H12.81C4.81,0,0,5.34,0,13.13V49.35H8.87V34.91h9.31V49.35H27.1V34.91H49.31V27.74H27.1V25.33c0-3,.48-4.24,4.63-4.24Z"/><path class="cls-1" d="M96.43,22.93c-.66-1.4-1-2.15-1.45-3.2-.39,1.1-.61,1.45-1.35,3.28L92.1,26.78h6Zm-6.08,8.53-2.14,4.77h-6.3l11-23.1h5.29l11,23.1h-6.21l-2.32-4.77Zm34.49-8.31a5,5,0,0,0,2.36-.35,2.73,2.73,0,0,0,1.36-2.37,2.82,2.82,0,0,0-1.36-2.36,4.89,4.89,0,0,0-2.36-.35h-7.69V23.1h7.69Zm-7.69,13.08h-5.77V13.13h15c2.67,0,4.16.35,5.51,1.18a6.17,6.17,0,0,1,2.84,5.16,6.05,6.05,0,0,1-4,5.86c2.27.79,3,2.1,3.06,5.69.13,2.89.26,3.72,1,5.21h-6.39a8.8,8.8,0,0,1-.43-4c0-3.37-.92-4.37-3.89-4.37h-6.91Zm44.63,0V13.13h21.11v4.68H167.55v4.33H181.1v4.68H167.55v4.77h15.34v4.68Zm37.89,0H193.9V17.81h-8V13.13h21.73v4.68h-8ZM236,27.17c-1.66,6.56-6.16,9.89-13.59,9.89-8.48,0-13.86-4.73-13.86-12.16,0-7.62,5.51-12.6,14-12.6,4.07,0,7.21,1,9.75,3.32a10.17,10.17,0,0,1,3.37,5.56h-6.26c-1.18-2.93-3.45-4.38-6.9-4.38a7.57,7.57,0,0,0-7.87,8,7.43,7.43,0,0,0,7.74,7.79c3.67,0,5.9-1.66,7.21-5.38Zm20.59-14v9H244.65v-9h-5.77v23.1h5.77V26.82h11.89v9.41h5.77V13.13ZM63.21,36.23V13.13H83.44v4.68H69v4.33H82.26v4.68H69v9.41Zm75.31,0V13.13h20.24v4.68H144.34v4.33h13.28v4.68H144.34v9.41Z"/></g></g></svg>