<svg width="43" height="30" viewBox="0 0 43 30" fill="none" xmlns="http://www.w3.org/2000/svg">
<path d="M23.0357 15.026C23.0357 19.2938 19.5995 22.7535 15.3611 22.7535C11.1227 22.7535 7.68629 19.2938 7.68629 15.026C7.68629 10.7583 11.1224 7.29834 15.3611 7.29834C19.5998 7.29834 23.0357 10.7583 23.0357 15.026Z" fill="white"/>
<path d="M31.4549 15.026C31.4549 19.0432 29.7368 22.301 27.6175 22.301C25.4981 22.301 23.7801 19.0432 23.7801 15.026C23.7801 11.0088 25.4979 7.75098 27.6172 7.75098C29.7366 7.75098 31.4546 11.0078 31.4546 15.026" fill="white"/>
<path d="M34.8986 15.0261C34.8986 18.6245 34.2944 21.5434 33.549 21.5434C32.8035 21.5434 32.1996 18.6253 32.1996 15.0261C32.1996 11.4269 32.8038 8.50879 33.549 8.50879C34.2942 8.50879 34.8986 11.4266 34.8986 15.0261Z" fill="white"/>
</svg>
