<svg width="29" height="20" viewBox="0 0 29 20" fill="none" xmlns="http://www.w3.org/2000/svg">
<path d="M15.3569 10.0173C15.3569 12.8625 13.0662 15.1689 10.2406 15.1689C7.41494 15.1689 5.12402 12.8625 5.12402 10.0173C5.12402 7.17211 7.41477 4.86548 10.2406 4.86548C13.0664 4.86548 15.3569 7.17211 15.3569 10.0173Z" fill="black"/>
<path d="M20.9701 10.0175C20.9701 12.6956 19.8247 14.8675 18.4118 14.8675C16.9989 14.8675 15.8535 12.6956 15.8535 10.0175C15.8535 7.33939 16.9987 5.16748 18.4116 5.16748C19.8245 5.16748 20.9699 7.33869 20.9699 10.0175" fill="black"/>
<path d="M23.2651 10.0175C23.2651 12.4164 22.8624 14.3623 22.3654 14.3623C21.8684 14.3623 21.4658 12.4169 21.4658 10.0175C21.4658 7.61801 21.8686 5.67261 22.3654 5.67261C22.8622 5.67261 23.2651 7.61783 23.2651 10.0175Z" fill="black"/>
</svg>
