<svg id="Layer_1" data-name="Layer 1" xmlns="http://www.w3.org/2000/svg" xmlns:xlink="http://www.w3.org/1999/xlink" viewBox="0 0 471.35 592"><defs><style>.cls-1{fill:none;}.cls-2{clip-path:url(#clip-path);}.cls-3{fill:#fff;}.cls-4{fill:#0045f6;}.cls-5{fill:#00cfff;}.cls-6{fill:#0080ff;}</style><clipPath id="clip-path"><rect class="cls-1" x="-12.65" width="484" height="592"/></clipPath></defs><title>mission-bg</title><g class="cls-2"><path class="cls-3" d="M97.22-16.66V80.07L427.07-107.8v-98.58Z"/><path class="cls-3" d="M194.44,137.13v99.18L524.29,45.44V-51.87Z"/><path class="cls-4" d="M97.22,81.3l330.1-188.73,97,56.06L194.2,137.36Z"/><path class="cls-3" d="M289.92,291.78v97.31l331.59-189V100.9Z"/><path class="cls-4" d="M194.44,235.84,524.54,45.35l97,56L291.42,291.87Z"/><path class="cls-3" d="M387.14,446.29V543.6L717,352.72V255.41Z"/><path class="cls-5" d="M289.92,388.48,620,199.86l97,56L386.9,446.38Z"/><path class="cls-6" d="M387.14,543.12l330.1-190.49,97,56L484.12,599.15Z"/><path d="M387.72,544V447l-96.93-57.84v-97l-96.93-56V137.27l-96.93-56v-97L0-71.71V514.17L581.58,851.88v-97L484.65,697V600Z"/></g></svg>