<svg width="471" height="150" viewBox="0 0 471 150" fill="none" xmlns="http://www.w3.org/2000/svg">
<g clip-path="url(#clip0_17_138)">
<rect width="470.5" height="150" fill="#F7F8F8"/>
<path d="M221.875 74.9999C221.871 77.4092 222.531 79.773 223.783 81.8315C225.035 83.8899 226.83 85.5633 228.972 86.6678C231.113 87.7722 233.517 88.2649 235.92 88.0916C238.323 87.9184 240.632 87.086 242.593 85.6858L253.782 96.8749L256.875 93.7818L245.686 82.5927C246.882 80.9098 247.664 78.9682 247.969 76.926C248.273 74.8837 248.091 72.7985 247.437 70.8399C246.784 68.8813 245.677 67.1046 244.207 65.6544C242.737 64.2042 240.946 63.1214 238.979 62.4941C237.012 61.8668 234.924 61.7127 232.886 62.0444C230.848 62.376 228.917 63.1841 227.251 64.4028C225.584 65.6214 224.228 67.2164 223.294 69.0578C222.36 70.8992 221.874 72.9351 221.875 74.9999ZM226.25 74.9999C226.25 73.2693 226.763 71.5776 227.725 70.1387C228.686 68.6997 230.053 67.5782 231.652 66.916C233.25 66.2537 235.01 66.0804 236.707 66.418C238.404 66.7556 239.963 67.589 241.187 68.8127C242.411 70.0364 243.244 71.5955 243.582 73.2929C243.92 74.9902 243.746 76.7495 243.084 78.3484C242.422 79.9472 241.3 81.3138 239.861 82.2753C238.422 83.2367 236.731 83.7499 235 83.7499C232.68 83.747 230.456 82.8242 228.816 81.1839C227.176 79.5436 226.253 77.3197 226.25 74.9999Z" fill="#384747"/>
<path d="M263.438 55.3125H249.306L245.566 49.7344C245.368 49.4328 245.099 49.1849 244.782 49.0131C244.465 48.8413 244.11 48.7509 243.75 48.75H226.25C225.89 48.7509 225.535 48.8413 225.218 49.0131C224.901 49.1849 224.632 49.4328 224.434 49.7344L220.694 55.3125H206.562C205.983 55.3142 205.427 55.5453 205.018 55.9551C204.608 56.365 204.377 56.9204 204.375 57.5V94.6875C204.377 95.2671 204.608 95.8225 205.018 96.2324C205.427 96.6422 205.983 96.8733 206.562 96.875H226.25V92.5H208.75V59.6875H221.875C222.235 59.6866 222.59 59.5962 222.907 59.4244C223.224 59.2526 223.493 59.0047 223.691 58.7031L227.431 53.125H242.569L246.309 58.7031C246.507 59.0047 246.776 59.2526 247.093 59.4244C247.41 59.5962 247.765 59.6866 248.125 59.6875H261.25V85.9375H265.625V57.5C265.623 56.9204 265.392 56.365 264.982 55.9551C264.573 55.5453 264.017 55.3142 263.438 55.3125Z" fill="#384747"/>
<g opacity="0.1" clip-path="url(#clip1_17_138)">
<path d="M21.6487 21.43C19.2477 26.5315 18.2997 32.1963 18.909 37.8016C19.5182 43.4069 21.6612 48.7358 25.1022 53.2023C28.5433 57.6689 33.1492 61.1002 38.4136 63.1192C43.6781 65.1381 49.3973 65.6665 54.9426 64.6462L67.544 99.4674L77.17 95.9838L64.5686 61.1627C68.7747 58.784 72.3598 55.4461 75.0325 51.4205C77.7052 47.3948 79.3899 42.7952 79.9496 37.9956C80.5093 33.196 79.9281 28.3321 78.2534 23.7996C76.5787 19.267 73.8577 15.1937 70.3117 11.9111C66.7658 8.62852 62.4951 6.22928 57.847 4.90857C53.1989 3.58786 48.3047 3.38298 43.5625 4.31059C38.8203 5.2382 34.364 7.2721 30.5562 10.2469C26.7483 13.2216 23.6964 17.0532 21.6487 21.43ZM30.92 25.774C32.6383 22.1066 35.4056 19.0312 38.8718 16.9365C42.338 14.8419 46.3476 13.8221 50.3933 14.0062C54.4391 14.1903 58.3395 15.57 61.6012 17.9708C64.8628 20.3715 67.3393 23.6856 68.7175 27.4939C70.0957 31.3021 70.3136 35.4336 69.3438 39.3657C68.3739 43.2978 66.2598 46.8541 63.2689 49.5847C60.2779 52.3153 56.5443 54.0977 52.5404 54.7065C48.5364 55.3152 44.4419 54.723 40.7745 53.0046C35.8615 50.6951 32.0649 46.5314 30.2175 41.4266C28.3702 36.3219 28.6228 30.6928 30.92 25.774Z" fill="#384747"/>
<path d="M129.274 20.9781L99.3274 6.94688L96.9391 -8.58815C96.8201 -9.42334 96.4956 -10.2159 95.9946 -10.8947C95.4937 -11.5734 94.832 -12.1171 94.0689 -12.477L56.9838 -29.8531C56.219 -30.2091 55.3778 -30.3696 54.5356 -30.3202C53.6934 -30.2707 52.8767 -30.0129 52.1588 -29.5698L38.6933 -21.4631L8.74703 -35.4943C7.51699 -36.0662 6.11064 -36.1281 4.83513 -35.6665C3.55961 -35.2049 2.51857 -34.2573 1.93938 -33.0307L-34.9849 45.7752C-35.5567 47.0052 -35.6186 48.4116 -35.157 49.6871C-34.6954 50.9626 -33.7479 52.0036 -32.5213 52.5828L9.19948 72.131L13.5435 62.8597L-23.5416 45.4836L9.03864 -24.051L36.8525 -11.0189C37.6173 -10.6629 38.4585 -10.5024 39.3007 -10.5518C40.1429 -10.6013 40.9596 -10.8591 41.6775 -11.3022L55.143 -19.4089L87.2217 -4.37857L89.61 11.1565C89.7289 11.9916 90.0535 12.7842 90.5544 13.463C91.0554 14.1417 91.7171 14.6854 92.4801 15.0453L120.294 28.0774L94.2298 83.705L103.501 88.0491L131.737 27.7858C132.309 26.5557 132.371 25.1494 131.909 23.8738C131.448 22.5983 130.5 21.5573 129.274 20.9781Z" fill="#384747"/>
</g>
<g opacity="0.08" clip-path="url(#clip2_17_138)">
<path d="M397.701 110.759C396.23 113.885 395.649 117.356 396.022 120.791C396.395 124.225 397.708 127.491 399.817 130.228C401.926 132.965 404.748 135.067 407.974 136.304C411.2 137.542 414.704 137.865 418.102 137.24L425.824 158.578L431.723 156.443L424.001 135.106C426.578 133.648 428.775 131.603 430.413 129.136C432.051 126.669 433.083 123.851 433.426 120.909C433.769 117.968 433.413 114.988 432.387 112.211C431.36 109.433 429.693 106.937 427.52 104.926C425.347 102.914 422.73 101.444 419.882 100.635C417.034 99.8254 414.035 99.6999 411.129 100.268C408.223 100.837 405.492 102.083 403.159 103.906C400.826 105.729 398.956 108.077 397.701 110.759ZM403.382 113.42C404.435 111.173 406.131 109.289 408.255 108.005C410.379 106.722 412.836 106.097 415.315 106.209C417.794 106.322 420.184 107.168 422.183 108.639C424.181 110.11 425.699 112.141 426.543 114.474C427.388 116.808 427.521 119.34 426.927 121.749C426.333 124.159 425.037 126.338 423.204 128.011C421.372 129.684 419.084 130.776 416.63 131.149C414.177 131.522 411.668 131.16 409.421 130.107C406.41 128.691 404.084 126.14 402.952 123.012C401.82 119.884 401.974 116.435 403.382 113.42Z" fill="#384747"/>
<path d="M463.651 110.482L445.301 101.884L443.837 92.3644C443.764 91.8527 443.565 91.367 443.258 90.9511C442.951 90.5352 442.546 90.202 442.078 89.9815L419.354 79.3339C418.885 79.1157 418.369 79.0174 417.853 79.0477C417.337 79.078 416.837 79.236 416.397 79.5075L408.146 84.4751L389.795 75.8771C389.042 75.5267 388.18 75.4888 387.398 75.7716C386.617 76.0545 385.979 76.6351 385.624 77.3868L362.998 125.677C362.647 126.43 362.609 127.292 362.892 128.074C363.175 128.855 363.756 129.493 364.507 129.848L390.073 141.827L392.735 136.146L370.01 125.498L389.974 82.8892L407.018 90.8749C407.486 91.0931 408.002 91.1915 408.518 91.1612C409.034 91.1309 409.534 90.9729 409.974 90.7014L418.226 85.7338L437.882 94.944L439.346 104.463C439.419 104.975 439.618 105.461 439.925 105.877C440.232 106.293 440.637 106.626 441.105 106.846L458.148 114.832L442.177 148.919L447.858 151.581L465.16 114.653C465.511 113.9 465.549 113.038 465.266 112.256C464.983 111.475 464.402 110.837 463.651 110.482Z" fill="#384747"/>
</g>
</g>
<defs>
<clipPath id="clip0_17_138">
<rect width="470.5" height="150" fill="white"/>
</clipPath>
<clipPath id="clip1_17_138">
<rect width="163.816" height="163.816" fill="white" transform="translate(10.0444 -74.46) rotate(25.1053)"/>
</clipPath>
<clipPath id="clip2_17_138">
<rect width="100.382" height="100.382" fill="white" transform="translate(390.59 52) rotate(25.1053)"/>
</clipPath>
</defs>
</svg>
