<svg width="536" height="268" viewBox="0 0 536 268" fill="none" xmlns="http://www.w3.org/2000/svg">
<g clip-path="url(#clip0_4254_46500)">
<path d="M0 24C0 12.6863 0 7.02944 3.51472 3.51472C7.02944 0 12.6863 0 24 0H512C523.314 0 528.971 0 532.485 3.51472C536 7.02944 536 12.6863 536 24V268H0V24Z" fill="#F1EAE4"/>
<g clip-path="url(#clip1_4254_46500)">
<rect width="637.975" height="280" transform="translate(-31 -1)" fill="#FACC9E"/>
<path fill-rule="evenodd" clip-rule="evenodd" d="M459.653 -63.5956V-169.451L263.312 -48.2653L165.067 -108.922V-3.16107L263.301 57.4886V163.195L361.516 223.851L557.887 102.76V-3.09558L361.516 118.09L263.356 57.468L459.653 -63.5956ZM263.239 162.396V268.251L66.8968 389.342L-31.3482 328.686V223.831L-129.531 163.195V57.434L-31.3159 118.09L165.055 -3.09558V102.76L-30.5821 223.398L66.8968 283.582L263.239 162.396Z" fill="black"/>
<path fill-rule="evenodd" clip-rule="evenodd" d="M950.539 103.084V-2.77148L754.198 118.414L655.953 57.7581V163.519L754.187 224.168V329.874L852.402 390.53L1048.77 269.44V163.584L852.402 284.77L754.242 224.148L950.539 103.084ZM754.124 329.075V434.931L557.783 556.022L459.537 495.366V390.51L361.354 329.874V224.114L459.57 284.77L655.941 163.584V269.44L460.304 390.078L557.783 450.261L754.124 329.075Z" fill="black"/>
</g>
<path d="M557.586 -3V102.856L361.215 223.946L263 163.29V57.5296L361.215 118.186L557.586 -3Z" fill="#9E5CD6" stroke="#9E5CD6"/>
</g>
<defs>
<clipPath id="clip0_4254_46500">
<path d="M0 24C0 12.6863 0 7.02944 3.51472 3.51472C7.02944 0 12.6863 0 24 0H512C523.314 0 528.971 0 532.485 3.51472C536 7.02944 536 12.6863 536 24V268H0V24Z" fill="white"/>
</clipPath>
<clipPath id="clip1_4254_46500">
<rect width="637.975" height="280" fill="white" transform="translate(-31 -1)"/>
</clipPath>
</defs>
</svg>
