<svg width="28" height="28" viewBox="0 0 28 28" fill="none" xmlns="http://www.w3.org/2000/svg">
<g clip-path="url(#clip0_1256_16652)">
<path d="M13.9996 2.32813C16.2706 2.32515 18.4536 3.20645 20.0861 4.78532C21.7185 6.36419 22.6721 8.51658 22.7449 10.7865L22.7496 11.0781V15.858L24.3596 19.54C24.4567 19.7618 24.497 20.0044 24.4769 20.2457C24.4567 20.4871 24.3767 20.7196 24.2441 20.9223C24.1115 21.1249 23.9305 21.2914 23.7174 21.4065C23.5044 21.5216 23.2659 21.5818 23.0238 21.5816L17.4996 21.5851C17.5008 22.4963 17.1466 23.372 16.5123 24.0261C15.878 24.6803 15.0136 25.0613 14.1029 25.0882C13.1921 25.1151 12.3068 24.7857 11.635 24.1701C10.9632 23.5546 10.558 22.7013 10.5054 21.7916L10.4996 21.5816H4.98708C4.74536 21.5814 4.50749 21.521 4.29484 21.4061C4.0822 21.2912 3.90142 21.1252 3.76876 20.9232C3.63609 20.7211 3.55569 20.4892 3.53477 20.2484C3.51385 20.0076 3.55308 19.7654 3.64892 19.5435L5.24958 15.8591V11.0781C5.24958 6.23063 9.16025 2.32813 13.9996 2.32813ZM15.7496 21.5828L12.2496 21.5851C12.2495 22.0347 12.4224 22.467 12.7325 22.7924C13.0425 23.1179 13.4659 23.3116 13.9149 23.3334C14.3639 23.3551 14.804 23.2033 15.1441 22.9093C15.4842 22.6153 15.698 22.2017 15.7414 21.7543L15.7496 21.5828ZM13.9996 4.07813C10.1262 4.07813 6.99958 7.1978 6.99958 11.0781V16.2231L5.43158 19.8328H22.5781L20.9996 16.2243V11.0933L20.9961 10.8308C20.9355 9.01692 20.1713 7.29782 18.8655 6.03745C17.5596 4.77709 15.8145 4.07439 13.9996 4.07813Z" fill="#384747"/>
<path d="M25.1307 3.45262C23.8805 2.20238 22.1848 1.5 20.4167 1.5C18.6486 1.5 16.9529 2.20238 15.7026 3.45262C14.4524 4.70286 13.75 6.39856 13.75 8.16667C13.75 9.93478 14.4524 11.6305 15.7026 12.8807C16.9529 14.131 18.6486 14.8333 20.4167 14.8333C22.1848 14.8333 23.8805 14.131 25.1307 12.8807C26.381 11.6305 27.0833 9.93478 27.0833 8.16667C27.0833 6.39856 26.381 4.70286 25.1307 3.45262Z" fill="#00CFFF" stroke="white" stroke-width="4"/>
</g>
<defs>
<clipPath id="clip0_1256_16652">
<rect width="28" height="28" fill="white"/>
</clipPath>
</defs>
</svg>
