<svg width="127" height="40" viewBox="0 0 127 40" fill="none" xmlns="http://www.w3.org/2000/svg">
<g clip-path="url(#clip0_454:1930)">
<path d="M109.003 4.39697C110.623 4.40246 112.243 4.39697 113.863 4.39971C113.862 4.68206 113.862 4.96304 113.863 5.24538C113.227 5.24401 112.588 5.24538 111.952 5.24538C111.95 7.0121 111.951 8.77882 111.951 10.5455C111.604 10.5442 111.258 10.5442 110.911 10.5469C110.908 8.77882 110.912 7.0121 110.908 5.24538C110.273 5.24538 109.636 5.24264 109.002 5.24675C108.996 4.96304 108.997 4.67932 109.003 4.39697Z" fill="black"/>
<path d="M115.074 4.39844C115.602 4.39844 116.132 4.39981 116.663 4.39844C117.261 5.93764 117.869 7.47273 118.467 9.01193C119.06 7.47547 119.658 5.94038 120.243 4.40118C120.768 4.39844 121.294 4.39707 121.821 4.40118C121.816 6.45025 121.827 8.49932 121.815 10.5484C121.47 10.5443 121.124 10.5443 120.78 10.5456C120.776 8.85979 120.786 7.17393 120.773 5.48945C120.087 7.16434 119.449 8.85979 118.781 10.5429C118.554 10.5429 118.331 10.5429 118.109 10.5415C117.446 8.86527 116.818 7.17393 116.123 5.51001C116.101 7.18901 116.119 8.86664 116.112 10.5456C115.765 10.5456 115.42 10.5456 115.074 10.5456C115.07 8.49657 115.07 6.44751 115.074 4.39844Z" fill="black"/>
<path d="M9.76599 10.9514C11.8904 10.8377 14.0903 11.3311 15.8433 12.5756C17.3578 13.6378 18.4475 15.2455 18.9847 17.0109C19.5577 18.8941 19.6317 20.9117 19.3534 22.8538C19.0958 24.526 18.4639 26.168 17.3729 27.4742C16.164 28.9503 14.4069 29.9235 12.5511 30.3059C10.55 30.7184 8.42005 30.58 6.52038 29.8083C4.94417 29.1696 3.57356 28.032 2.67855 26.5819C1.57383 24.8097 1.15717 22.6798 1.19691 20.6115C1.18595 18.4144 1.71501 16.1447 3.03902 14.3588C4.57822 12.2275 7.18101 11.0556 9.76599 10.9514ZM9.56588 15.1469C8.56396 15.2784 7.63195 15.8363 7.06588 16.6778C6.33534 17.7606 6.10919 19.0956 6.06259 20.3785C6.03244 21.8067 6.19143 23.3006 6.91511 24.5589C7.41676 25.4278 8.28984 26.0679 9.27257 26.268C10.476 26.5161 11.8288 26.3818 12.8375 25.6307C13.7421 24.944 14.2273 23.8448 14.4494 22.7551C14.692 21.5147 14.7002 20.2291 14.4987 18.9805C14.3082 17.8703 13.8833 16.734 13.0102 15.9816C12.081 15.1661 10.7528 14.9701 9.56588 15.1469Z" fill="black"/>
<path d="M27.4587 13.5733C28.8567 11.9436 31.0264 10.869 33.1974 11.0719C33.1947 12.6056 33.1961 14.1407 33.1961 15.6758C31.8186 15.6881 30.3822 15.7402 29.1144 16.3433C28.562 16.6297 28.0083 17.067 27.8054 17.6714C27.7863 21.7791 27.8041 25.8896 27.7958 29.9987C26.1374 29.9946 24.479 30.0014 22.8205 29.9946C22.8178 23.8049 22.8246 17.6152 22.8164 11.4255C24.3638 11.4118 25.9113 11.42 27.4587 11.42C27.4614 12.1369 27.4614 12.8551 27.4587 13.5733Z" fill="black"/>
<path d="M39.6354 11.5751C41.5296 10.9693 43.5663 10.92 45.5235 11.201C47.1696 11.4641 48.8788 12.1165 49.9109 13.494C50.7044 14.5124 50.9429 15.8514 50.8566 17.1165C50.8621 21.4093 50.8278 25.7048 50.8813 29.9976C49.4298 29.9976 47.9783 29.9962 46.5268 29.9976C46.3843 29.4603 46.2431 28.9257 46.1019 28.3898C44.8314 29.2245 43.395 29.8098 41.8955 30.0606C40.3919 30.3005 38.7787 30.3361 37.3684 29.6796C36.1376 29.1272 35.1809 28.0252 34.7834 26.7355C34.2941 25.1716 34.3832 23.3665 35.2617 21.9548C36.0485 20.6966 37.3478 19.8674 38.68 19.289C41.0402 18.2843 43.5964 17.8676 46.1293 17.5688C46.1088 16.8081 46.2678 15.9323 45.7223 15.3059C44.952 14.4301 43.6595 14.3753 42.5808 14.4685C41.0731 14.5877 39.6792 15.395 38.7362 16.5655C37.6302 15.9378 36.5213 15.3128 35.4235 14.67C36.4405 13.2116 37.9468 12.1152 39.6354 11.5751ZM41.6228 21.5614C40.8607 21.8931 40.0945 22.3523 39.6669 23.091C39.0926 24.045 39.1995 25.3663 39.941 26.201C40.3303 26.6163 40.8963 26.8602 41.4679 26.8451C43.1715 26.8767 44.7519 26.0022 45.9909 24.8893C45.984 23.4405 45.9923 21.9918 45.9868 20.5444C44.5052 20.7322 43.0098 20.9871 41.6228 21.5614Z" fill="black"/>
<path d="M63.8629 11.1763C65.4144 10.8816 67.092 10.9351 68.549 11.5971C69.6331 12.0878 70.4541 13.054 70.8502 14.1711C71.1545 15.0017 71.2751 15.8912 71.2943 16.7739C71.2943 21.1722 71.2943 25.5705 71.2943 29.9688C69.6633 29.9688 68.0323 29.9715 66.4012 29.9688C66.4012 25.8336 66.4026 21.6999 66.3999 17.5647C66.3738 16.752 66.2861 15.8597 65.7365 15.2169C65.18 14.6124 64.2836 14.5672 63.5202 14.6522C62.0043 14.8413 60.6899 15.713 59.5413 16.6697C59.5413 21.1023 59.5413 25.5349 59.5413 29.9688C57.9185 29.9688 56.2984 29.9702 54.677 29.9688C54.677 23.9545 54.6743 17.9403 54.677 11.9247C56.0325 11.7341 57.3894 11.5464 58.745 11.3613C58.8738 12.0891 59.0383 12.8128 59.1808 13.5392C60.6008 12.514 62.1235 11.5354 63.8629 11.1763Z" fill="black"/>
<path d="M76.5749 13.8792C77.7194 12.2989 79.5341 11.1901 81.4913 11.042C82.7509 10.9694 84.0461 11.0831 85.2207 11.5642C86.1144 11.9261 86.9477 12.5415 87.3753 13.4283C87.4946 12.7443 87.6289 12.0631 87.7358 11.3792C89.1147 11.3436 90.4949 11.3723 91.8751 11.3641C91.8751 17.4908 91.8751 23.616 91.8751 29.7427C91.8463 31.5492 91.4461 33.4735 90.1673 34.8249C88.7405 36.3312 86.627 36.9014 84.6259 37.1015C82.3178 37.3235 79.8575 37.1961 77.7879 36.0448C76.4625 35.3238 75.4154 34.0492 75.1234 32.547C76.7325 32.2879 78.3403 32.0275 79.9494 31.7684C80.0755 32.2427 80.2948 32.7251 80.7224 33.0006C81.5804 33.5585 82.6508 33.5927 83.6418 33.579C84.5848 33.5763 85.6018 33.32 86.2542 32.5949C86.9696 31.7917 87.1204 30.6651 87.1519 29.6303C87.1437 28.849 87.1711 28.0664 87.1327 27.2852C86.6434 28.0788 86.0609 28.8545 85.2331 29.3164C84.042 29.9949 82.6179 30.0511 81.2857 29.9236C79.46 29.7317 77.6933 28.8299 76.5598 27.3674C75.1303 25.5692 74.63 23.2076 74.6094 20.9516C74.5615 18.479 75.0837 15.8981 76.5749 13.8792ZM82.5398 14.5577C81.8257 14.6879 81.1665 15.0757 80.6991 15.6308C80.0275 16.4148 79.7164 17.4373 79.5738 18.4433C79.423 19.5878 79.4546 20.7487 79.5615 21.8959C79.6931 23.0226 79.9631 24.2205 80.7772 25.0607C81.383 25.7199 82.3041 25.9982 83.1785 25.9708C84.1174 25.9941 85.0905 25.6829 85.7594 25.0017C86.494 24.2493 86.8367 23.2076 87.0108 22.1892C87.1656 21.2229 87.2068 20.2388 87.1684 19.2616C87.0861 17.928 86.6983 16.5396 85.7443 15.5637C84.9329 14.7153 83.6857 14.3466 82.5398 14.5577Z" fill="black"/>
<path d="M96.9232 13.739C98.1719 12.2189 100.058 11.328 101.989 11.095C104.146 10.8415 106.468 11.1019 108.327 12.3053C109.843 13.2688 110.893 14.8478 111.409 16.5528C111.879 18.1249 112.036 19.7916 111.897 21.4267C107.799 21.4254 103.702 21.4281 99.6069 21.4254C99.6151 22.6685 99.8015 23.9706 100.48 25.0369C101.03 25.9045 101.982 26.4596 102.99 26.6063C104.03 26.757 105.141 26.6954 106.094 26.2102C106.94 25.7839 107.592 25.0643 108.128 24.2954C109.322 24.9643 110.52 25.6304 111.719 26.2897C110.62 28.2469 108.587 29.5449 106.427 30.0177C104.22 30.4851 101.844 30.4933 99.7261 29.6395C98.0773 28.9843 96.7149 27.6863 95.9213 26.1019C94.8975 24.0693 94.6878 21.731 94.8317 19.4887C94.9811 17.4341 95.58 15.3385 96.9232 13.739ZM100.743 15.4303C100.055 16.1951 99.7618 17.2327 99.6809 18.2387C102.17 18.2442 104.659 18.2401 107.148 18.2414C107.122 17.2505 106.896 16.2061 106.217 15.4509C105.45 14.5778 104.223 14.2625 103.099 14.3461C102.218 14.3996 101.335 14.7601 100.743 15.4303Z" fill="black"/>
</g>
<defs>
<clipPath id="clip0_454:1930">
<rect width="127" height="40" fill="white"/>
</clipPath>
</defs>
</svg>
