<svg width="44" height="44" viewBox="0 0 44 44" fill="none" xmlns="http://www.w3.org/2000/svg">
<circle cx="22" cy="22" r="22" fill="#FF8000"/>
<path d="M24.7188 15.4393V10L19.2794 10V15.4393H24.7188Z" fill="white"/>
<path d="M15.4393 19.2773H10V24.7166H15.4393V19.2773Z" fill="white"/>
<path d="M33.9979 19.2773H28.5586V24.7166H33.9979V19.2773Z" fill="white"/>
<path d="M19.2856 15.435L15.4395 11.5889L11.5933 15.435L15.4394 19.2811L19.2856 15.435Z" fill="white"/>
<path d="M28.5532 11.5923L24.707 15.4385L28.5532 19.2846L32.3993 15.4385L28.5532 11.5923Z" fill="white"/>
<path d="M19.2734 28.5607V34H24.7128V28.5607H19.2734Z" fill="white"/>
<path d="M15.4301 24.7086L11.584 28.5547L15.4301 32.4008L19.2763 28.5547L15.4301 24.7086Z" fill="white"/>
<path d="M32.4106 28.5512L28.5645 24.7051L24.7183 28.5512L28.5644 32.3973L32.4106 28.5512Z" fill="white"/>
</svg>
