<svg xmlns="http://www.w3.org/2000/svg" viewBox="0 0 318.28 139.83"><defs><style>.cls-1{fill:#00cfff;}</style></defs><title>path-contact</title><g id="Layer_2" data-name="Layer 2"><g id="Layer_1-2" data-name="Layer 1"><path class="cls-1" d="M13.78,139.83c-5.45,0-10.29-1.15-12.5-4-2.47-3.21-1.36-7.91,3.28-13.94l1,.76C1.31,128.14.2,132.32,2.27,135c1.85,2.4,6.23,3.66,12.38,3.51a47.93,47.93,0,0,0,16-3.2l3.61-1.48c91.1-37.29,166.83-71.5,213.24-96.32C258.16,31.82,316.6.3,316.6.3l.6,1.11s-58.45,31.52-69.08,37.24C201.68,63.49,125.91,97.71,34.77,135l-3.61,1.48A48.84,48.84,0,0,1,13.78,139.83Z"/><path class="cls-1" d="M312.57,10.87l-1.12-.58c.87-1.68,1.75-3.34,2.63-5,.66-1.24,1.32-2.49,2-3.74l-6,.73L303,3.14l-.16-1.25L309.93,1l7.16-.88L318.28,0l-.55,1.07-2.54,4.81C314.32,7.54,313.44,9.19,312.57,10.87Z"/></g></g></svg>