<svg id="Layer_1" data-name="Layer 1" xmlns="http://www.w3.org/2000/svg" viewBox="0 0 1639.6 967.89"><defs><style>.cls-1{opacity:0.2;}.cls-2{fill:#0045f6;}</style></defs><title>pattern-blue</title><g class="cls-1"><path class="cls-2" d="M559.2,82.3l-.31-.18L521.34,60.37V21.46L559.2,43.39,634.16,0V38.91ZM522.57,59.65,559.2,80.88,632.93,38.2V2.14L559.2,44.82l-.31-.18-36.32-21Z"/><path class="cls-2" d="M596.44,141.36l-.31-.17-37.55-21.76V80.52l37.86,21.81,75-43.27V98Zm-36.63-22.64,36.63,21.22,73.73-42.68V61.2l-73.73,42.56-.31-.18L559.81,82.66Z"/><path class="cls-2" d="M410.24,82.3,372.39,60.37V21.46l37.85,21.93L485.33,0V38.91ZM373.62,59.65l36.62,21.23L484.1,38.2V2.14L410.24,44.82,373.62,23.59Z"/><path class="cls-2" d="M447.48,141.36l-.31-.17-37.55-21.76V80.52l37.86,21.81,75.09-43.26V98Zm-36.63-22.64,36.63,21.22,73.86-42.68V61.2l-73.86,42.55L410.85,82.66Z"/><path class="cls-2" d="M261.29,82.3l-.31-.18L223.43,60.37V21.46l37.86,21.93L336.38,0V38.91ZM224.66,59.65l36.63,21.23L335.15,38.2V2.14L261.29,44.82l-.31-.18-36.32-21Z"/><path class="cls-2" d="M298.53,141.36l-.31-.17-37.55-21.76V80.52l37.86,21.81,75.09-43.26V98ZM261.9,118.72l36.63,21.22,73.86-42.68V61.2l-73.86,42.55L261.9,82.66Z"/><path class="cls-2" d="M112.34,82.3l-.31-.18L74.48,60.37V21.46l37.86,21.93L187.42,0V38.91ZM75.71,59.65l36.63,21.23L186.19,38.2V2.14L112.34,44.82l-.31-.18-36.32-21Z"/><path class="cls-2" d="M149.57,141.36l-37.85-21.93V80.52l37.85,21.81,75.09-43.26V98ZM113,118.72l36.62,21.22,73.86-42.68V61.2l-73.86,42.56L113,82.66Z"/><path class="cls-2" d="M708.15,82.3l-38-21.93V21.46l38,21.93L783.12,0V38.91ZM671.4,59.65l36.75,21.23L781.89,38.2V2.14L708.15,44.82,671.4,23.59Z"/><path class="cls-2" d="M745.39,141.36l-.31-.17-37.55-21.76V80.52l37.86,21.81,75-43.26V98Zm-36.63-22.64,36.63,21.22,73.74-42.68V61.2l-73.74,42.56-.31-.18L708.76,82.66Z"/><path class="cls-2" d="M857,82.3,819.13,60.37V21.46L857,43.39,932.07,0V38.91ZM820.36,59.65,857,80.88,930.84,38.2V2.14L857,44.82,820.36,23.59Z"/><path class="cls-2" d="M894.22,141.36l-.31-.17-37.55-21.76V80.52l37.86,21.81,75.09-43.26V98Zm-36.63-22.64,36.63,21.22,73.86-42.68V61.2l-73.86,42.55L857.59,82.66Z"/><path class="cls-2" d="M1005.94,82.3l-.31-.18L968.08,60.37V21.46l37.86,21.93L1081,0V38.91ZM969.31,59.65l36.63,21.23L1079.8,38.2V2.14l-73.86,42.68-.31-.18-36.32-21Z"/><path class="cls-2" d="M1043.18,141.36l-.31-.17-37.55-21.76V80.52l37.86,21.81,75.08-43.26V98Zm-36.63-22.64,36.63,21.22L1117,97.26V61.2l-73.85,42.55-36.63-21.09Z"/><path class="cls-2" d="M1154.89,82.3l-.31-.18L1117,60.37V21.46l37.86,21.93L1230,0V38.91Zm-36.63-22.65,36.63,21.23,73.86-42.68V2.14l-73.86,42.68-.31-.18-36.32-21Z"/><path class="cls-2" d="M1192.13,141.36l-.31-.17-37.55-21.76V80.52l37.86,21.81,75.09-43.26V98Zm-36.63-22.64,36.63,21.22L1266,97.26V61.2l-73.86,42.55L1155.5,82.66Z"/><path class="cls-2" d="M1303.85,82.3l-.31-.18L1266,60.37V21.46l37.86,21.93L1378.93,0V38.91Zm-36.63-22.65,36.63,21.23L1377.7,38.2V2.14l-73.85,42.68-.31-.18-36.32-21Z"/><path class="cls-2" d="M1341.09,141.36l-.31-.17-37.55-21.76V80.52l37.86,21.81,75.08-43.26V98Zm-36.63-22.64,36.63,21.22,73.85-42.68V61.2l-73.85,42.55-36.63-21.09Z"/><path class="cls-2" d="M1452.8,82.3l-.31-.18-37.55-21.75V21.46l37.86,21.93L1527.89,0V38.91Zm-36.63-22.65,36.63,21.23,73.86-42.68V2.14L1452.8,44.82l-.31-.18-36.32-21Z"/><path class="cls-2" d="M1490,141.36l-.31-.17-37.55-21.76V80.52L1490,102.33l75.09-43.26V98Zm-36.63-22.64L1490,139.94l73.86-42.68V61.2L1490,103.75l-36.63-21.09Z"/><path class="cls-2" d="M633.68,200.31l-38-21.81v-39l38,21.94,75-43.39v39l-.31.18Zm-36.76-22.53,36.76,21.1,73.73-42.55V120.14l-73.73,42.68L596.92,141.6Z"/><path class="cls-2" d="M670.92,259.37l-.31-.18-37.55-21.63v-39l37.86,21.94,75-43.39v39l-.3.18Zm-36.63-22.52L670.92,258l73.73-42.56V179.21l-73.73,42.67-36.63-21.22Z"/><path class="cls-2" d="M484.72,200.31l-.31-.18L446.86,178.5v-39l37.86,21.94,75-43.39v39l-.31.18Zm-36.63-22.53,36.63,21.1,73.74-42.55V120.14l-73.74,42.68-.31-.18-36.32-21Z"/><path class="cls-2" d="M522,259.37l-.31-.18L484.1,237.56v-39L522,220.46l75-43.39v39l-.3.18Zm-36.63-22.52L522,258l73.73-42.56V179.21L522,221.88l-36.63-21.22Z"/><path class="cls-2" d="M335.77,200.31,297.91,178.5v-39l37.86,21.94L410.85,118v39Zm-36.63-22.53,36.63,21.1,73.85-42.55V120.14l-73.85,42.68-.31-.18-36.32-21Z"/><path class="cls-2" d="M373,259.37l-37.86-21.81v-39L373,220.46l75.08-43.39v39Zm-36.63-22.52L373,258l73.85-42.56V179.21L373,221.88l-36.63-21.22Z"/><path class="cls-2" d="M186.81,200.31,149,178.5v-39l37.86,21.94L261.9,118v39Zm-36.63-22.53,36.63,21.1,73.86-42.55V120.14l-73.86,42.68-.31-.18-36.32-21Z"/><path class="cls-2" d="M224.05,259.37l-37.86-21.81v-39l37.86,21.94,75.09-43.39v39Zm-36.63-22.52L224.05,258l73.86-42.56V179.21l-73.86,42.67-36.63-21.22Z"/><path class="cls-2" d="M782.51,200.31,744.65,178.5v-39l37.86,21.94L857.59,118v39Zm-36.63-22.53,36.63,21.1,73.85-42.55V120.14l-73.85,42.68L745.88,141.6Z"/><path class="cls-2" d="M819.75,259.37l-37.86-21.81v-39l37.86,21.94,75.08-43.39v39Zm-36.63-22.52L819.75,258l73.85-42.56V179.21l-73.85,42.67-36.63-21.22Z"/><path class="cls-2" d="M931.46,200.31,893.6,178.5v-39l37.86,21.94L1006.55,118v39Zm-36.63-22.53,36.63,21.1,73.86-42.55V120.14l-73.86,42.68L894.83,141.6Z"/><path class="cls-2" d="M968.7,259.37l-37.86-21.81v-39l37.86,21.94,75.09-43.39v39Zm-36.63-22.52L968.7,258l73.86-42.56V179.21L968.7,221.88l-36.63-21.22Z"/><path class="cls-2" d="M1080.42,200.31l-37.86-21.81v-39l37.86,21.94L1155.5,118v39Zm-36.63-22.53,36.63,21.1,73.85-42.55V120.14l-73.85,42.68-36.63-21.22Z"/><path class="cls-2" d="M1117.66,259.37l-37.86-21.81v-39l37.86,21.94,75.08-43.39v39ZM1081,236.85l36.63,21.1,73.85-42.56V179.21l-73.85,42.67L1081,200.66Z"/><path class="cls-2" d="M1229.37,200.31l-37.86-21.81v-39l37.86,21.94L1304.46,118v39Zm-36.63-22.53,36.63,21.1,73.86-42.55V120.14l-73.86,42.68-.31-.18-36.32-21Z"/><path class="cls-2" d="M1266.61,259.37l-37.86-21.81v-39l37.86,21.94,75.09-43.39v39ZM1230,236.85l36.63,21.1,73.86-42.56V179.21l-73.86,42.67L1230,200.66Z"/><path class="cls-2" d="M1378.32,200.31l-37.85-21.81v-39l37.85,21.94L1453.41,118v39Zm-36.62-22.53,36.62,21.1,73.86-42.55V120.14l-73.86,42.68L1341.7,141.6Z"/><path class="cls-2" d="M1415.56,259.37l-37.85-21.81v-39l37.85,21.94,75.09-43.39v39Zm-36.62-22.52,36.62,21.1,73.86-42.56V179.21l-73.86,42.67-36.62-21.22Z"/><path class="cls-2" d="M1527.28,200.31l-37.86-21.81v-39l37.86,21.94L1602.37,118v39Zm-36.63-22.53,36.63,21.1,73.86-42.55V120.14l-73.86,42.68-.31-.18-36.32-21Z"/><path class="cls-2" d="M1564.52,259.37l-37.86-21.81v-39l37.86,21.94,75.08-43.39v39Zm-36.63-22.52,36.63,21.1,73.85-42.56V179.21l-73.85,42.67-36.63-21.22Z"/><path class="cls-2" d="M559.2,318.43l-.31-.17-37.55-21.64v-39l37.86,21.93,75-43.39v39l-.31.17Zm-36.63-22.52L559.2,317l73.73-42.56V238.27L559.2,281l-.31-.18-36.32-21Z"/><path class="cls-2" d="M596.44,377.5l-.31-.18-37.55-21.63v-39l37.86,21.94,75-43.39v39l-.31.18ZM559.81,355l36.63,21.1,73.73-42.55V297.34L596.44,340l-36.63-21.22Z"/><path class="cls-2" d="M410.24,318.43l-37.85-21.81v-39l37.85,21.93,75.09-43.39v39Zm-36.62-22.52L410.24,317l73.86-42.56V238.27L410.24,281l-36.62-21.22Z"/><path class="cls-2" d="M447.48,377.5l-37.86-21.81v-39l37.86,21.94,75.09-43.39v39ZM410.85,355l36.63,21.1,73.86-42.55V297.33L447.48,340l-36.63-21.22Z"/><path class="cls-2" d="M261.29,318.43l-37.86-21.81v-39l37.86,21.93,75.09-43.39v39Zm-36.63-22.52L261.29,317l73.86-42.56V238.27L261.29,281l-.31-.18-36.32-21Z"/><path class="cls-2" d="M298.53,377.5l-37.86-21.81v-39l37.86,21.94,75.09-43.39v39ZM261.9,355l36.63,21.1,73.86-42.55V297.33L298.53,340,261.9,318.79Z"/><path class="cls-2" d="M112.34,318.43,74.48,296.62v-39l37.86,21.93,75.08-43.39v39ZM75.71,295.91,112.34,317l73.85-42.56V238.27L112.34,281l-.31-.18-36.32-21Z"/><path class="cls-2" d="M149.57,377.5l-37.85-21.81v-39l37.85,21.94,75.09-43.39v39ZM113,355l36.62,21.1,73.86-42.55V297.33L149.57,340,113,318.79Z"/><path class="cls-2" d="M708.15,318.43l-38-21.81v-39l38,21.93,75-43.39v39l-.31.17ZM671.4,295.91,708.15,317l73.74-42.56V238.27L708.15,281,671.4,259.73Z"/><path class="cls-2" d="M745.39,377.5l-.31-.18-37.55-21.63v-39l37.86,21.94,75-43.39v39l-.31.18ZM708.76,355l36.63,21.1,73.74-42.55V297.34L745.39,340l-36.63-21.22Z"/><path class="cls-2" d="M857,318.43l-37.85-21.81v-39L857,279.52l75.09-43.39v39Zm-36.62-22.52L857,317l73.86-42.56V238.27L857,281l-36.62-21.22Z"/><path class="cls-2" d="M894.22,377.5l-37.86-21.81v-39l37.86,21.94,75.09-43.39v39ZM857.59,355l36.63,21.1,73.86-42.55V297.33L894.22,340l-36.63-21.22Z"/><path class="cls-2" d="M1005.94,318.43l-37.86-21.81v-39l37.86,21.93L1081,236.13v39Zm-36.63-22.52,36.63,21.1,73.86-42.56V238.27L1005.94,281l-.31-.18-36.32-21Z"/><path class="cls-2" d="M1043.18,377.5l-37.86-21.81v-39l37.86,21.94,75.08-43.39v39ZM1006.55,355l36.63,21.1L1117,333.52V297.33L1043.18,340l-36.63-21.22Z"/><path class="cls-2" d="M1154.89,318.43,1117,296.62v-39l37.86,21.93L1230,236.13v39Zm-36.63-22.52,36.63,21.1,73.86-42.56V238.27L1154.89,281l-.31-.18-36.32-21Z"/><path class="cls-2" d="M1192.13,377.5l-37.86-21.81v-39l37.86,21.94,75.09-43.39v39ZM1155.5,355l36.63,21.1L1266,333.52V297.33L1192.13,340l-36.63-21.22Z"/><path class="cls-2" d="M1303.85,318.43,1266,296.62v-39l37.86,21.93,75.08-43.39v39Zm-36.63-22.52,36.63,21.1,73.85-42.56V238.27L1303.85,281l-.31-.18-36.32-21Z"/><path class="cls-2" d="M1341.09,377.5l-37.86-21.81v-39l37.86,21.94,75.08-43.39v39ZM1304.46,355l36.63,21.1,73.85-42.55V297.33L1341.09,340l-36.63-21.22Z"/><path class="cls-2" d="M1452.8,318.43l-37.86-21.81v-39l37.86,21.93,75.09-43.39v39Zm-36.63-22.52L1452.8,317l73.86-42.56V238.27L1452.8,281l-.31-.18-36.32-21Z"/><path class="cls-2" d="M1490,377.5l-37.86-21.81v-39L1490,338.59l75.09-43.39v39ZM1453.41,355l36.63,21.1,73.86-42.55V297.33L1490,340l-36.63-21.22Z"/><path class="cls-2" d="M633.68,436.56l-38-21.93V375.72l38,21.81,75-43.39v39Zm-36.76-22.64,36.76,21.22,73.73-42.68V356.28L633.68,399l-36.76-21.1Z"/><path class="cls-2" d="M670.92,495.5l-.31-.18-37.55-21.63v-39l37.86,21.93,75-43.39v39l-.3.17ZM634.29,473l36.63,21.1,73.73-42.56V415.34L670.92,458l-.31-.18-36.32-21Z"/><path class="cls-2" d="M484.72,436.56l-.31-.18-37.55-21.75V375.72l37.86,21.81,75-43.39v39Zm-36.63-22.64,36.63,21.22,73.74-42.68V356.28L484.72,399l-36.63-21.1Z"/><path class="cls-2" d="M522,495.5l-.31-.18L484.1,473.69v-39L522,456.59l75-43.39v39l-.3.17ZM485.33,473,522,494.08l73.73-42.56V415.34L522,458l-.31-.18-36.32-21Z"/><path class="cls-2" d="M335.77,436.56l-.31-.18-37.55-21.75V375.72l37.86,21.81,75.08-43.39v39Zm-36.63-22.64,36.63,21.22,73.85-42.68V356.28L335.77,399l-.31-.17-36.32-20.93Z"/><path class="cls-2" d="M373,495.5l-37.86-21.81v-39L373,456.59l75.08-43.39v39ZM336.38,473,373,494.08l73.85-42.56V415.34L373,458l-.31-.18-36.32-21Z"/><path class="cls-2" d="M186.81,436.56l-.31-.18L149,414.63V375.72l37.86,21.81,75.09-43.39v39Zm-36.63-22.64,36.63,21.22,73.86-42.68V356.28L186.81,399l-.31-.17-36.32-20.93Z"/><path class="cls-2" d="M224.05,495.5l-37.86-21.81v-39l37.86,21.93,75.09-43.39v39ZM187.42,473l36.63,21.1,73.86-42.56V415.34L224.05,458l-.31-.18-36.32-21Z"/><path class="cls-2" d="M782.51,436.56l-.31-.18-37.55-21.75V375.72l37.86,21.81,75.08-43.39v39Zm-36.63-22.64,36.63,21.22,73.85-42.68V356.28L782.51,399l-.31-.17-36.32-20.93Z"/><path class="cls-2" d="M819.75,495.5l-37.86-21.81v-39l37.86,21.93,75.08-43.39v39ZM783.12,473l36.63,21.1,73.85-42.56V415.34L819.75,458l-.31-.18-36.32-21Z"/><path class="cls-2" d="M931.46,436.56l-.31-.18L893.6,414.63V375.72l37.86,21.81,75.09-43.39v39Zm-36.63-22.64,36.63,21.22,73.86-42.68V356.28L931.46,399l-.31-.17-36.32-20.93Z"/><path class="cls-2" d="M968.7,495.5l-37.86-21.81v-39l37.86,21.93,75.09-43.39v39ZM932.07,473l36.63,21.1,73.86-42.56V415.34L968.7,458l-.31-.18-36.32-21Z"/><path class="cls-2" d="M1080.42,436.56l-.31-.18-37.55-21.75V375.72l37.86,21.81,75.08-43.39v39Zm-36.63-22.64,36.63,21.22,73.85-42.68V356.28L1080.42,399l-.31-.17-36.32-20.93Z"/><path class="cls-2" d="M1117.66,495.5l-37.86-21.81v-39l37.86,21.93,75.08-43.39v39ZM1081,473l36.63,21.1,73.85-42.56V415.34L1117.66,458l-.31-.18-36.32-21Z"/><path class="cls-2" d="M1229.37,436.56l-.31-.18-37.55-21.75V375.72l37.86,21.81,75.09-43.39v39Zm-36.63-22.64,36.63,21.22,73.86-42.68V356.28L1229.37,399l-.31-.17-36.32-20.93Z"/><path class="cls-2" d="M1266.61,495.5l-37.86-21.81v-39l37.86,21.93,75.09-43.39v39ZM1230,473l36.63,21.1,73.86-42.56V415.34L1266.61,458l-.31-.18-36.32-21Z"/><path class="cls-2" d="M1378.32,436.56l-37.85-21.93V375.72l37.85,21.81,75.09-43.39v39Zm-36.62-22.64,36.62,21.22,73.86-42.68V356.28L1378.32,399l-36.62-21.1Z"/><path class="cls-2" d="M1415.56,495.5l-37.85-21.81v-39l37.85,21.93,75.09-43.39v39ZM1378.94,473l36.62,21.1,73.86-42.56V415.34L1415.56,458l-36.62-21.22Z"/><path class="cls-2" d="M1527.28,436.56l-.31-.18-37.55-21.75V375.72l37.86,21.81,75.09-43.39v39Zm-36.63-22.64,36.63,21.22,73.86-42.68V356.28L1527.28,399l-.31-.17-36.32-20.93Z"/><path class="cls-2" d="M1564.52,495.5l-37.86-21.81v-39l37.86,21.93,75.08-43.39v39ZM1527.89,473l36.63,21.1,73.85-42.56V415.34L1564.52,458l-.31-.18-36.32-21Z"/><path class="cls-2" d="M559.2,554.69l-.31-.18-37.55-21.76v-39l37.86,21.94,75-43.39v39ZM522.57,532l36.63,21.22,73.73-42.67V474.4L559.2,517.08l-.31-.18-36.32-21Z"/><path class="cls-2" d="M596.44,613.63l-.31-.18-37.55-21.63v-39l37.86,21.94,75-43.39v39l-.31.18ZM559.81,591.1l36.63,21.1,73.73-42.55V533.47l-73.73,42.67-.31-.17-36.32-21.05Z"/><path class="cls-2" d="M410.24,554.69l-37.85-21.94v-39l37.85,21.94,75.09-43.39v39ZM373.62,532l36.62,21.22,73.86-42.67V474.4l-73.86,42.68-36.62-21.22Z"/><path class="cls-2" d="M447.48,613.63l-37.86-21.81v-39l37.86,21.94,75.09-43.39v39ZM410.85,591.1l36.63,21.11,73.86-42.56V533.47l-73.86,42.67-.31-.17-36.32-21.05Z"/><path class="cls-2" d="M261.29,554.69l-.31-.18-37.55-21.76v-39l37.86,21.94,75.09-43.39v39ZM224.66,532l36.63,21.22,73.86-42.67V474.4l-73.86,42.68-.31-.18-36.32-21Z"/><path class="cls-2" d="M298.53,613.63l-37.86-21.81v-39l37.86,21.94,75.09-43.39v39ZM261.9,591.1l36.63,21.11,73.86-42.56V533.47l-73.86,42.67-.31-.17L261.9,554.92Z"/><path class="cls-2" d="M112.34,554.69l-.31-.18L74.48,532.75v-39l37.86,21.94,75.08-43.39v39ZM75.71,532l36.63,21.22,73.85-42.67V474.4l-73.85,42.68-.31-.18-36.32-21Z"/><path class="cls-2" d="M149.57,613.63l-37.85-21.81v-39l37.85,21.94,75.09-43.39v39ZM113,591.1l36.62,21.11,73.86-42.56V533.47l-73.86,42.67L113,554.92Z"/><path class="cls-2" d="M708.15,554.69l-38-21.94v-39l38,21.94,75-43.39v39ZM671.4,532l36.75,21.22,73.74-42.67V474.4l-73.74,42.68L671.4,495.86Z"/><path class="cls-2" d="M745.39,613.63l-.31-.18-37.55-21.63v-39l37.86,21.94,75-43.39v39l-.31.18ZM708.76,591.1l36.63,21.1,73.74-42.55V533.47l-73.74,42.67-.31-.17-36.32-21.05Z"/><path class="cls-2" d="M857,554.69l-37.85-21.94v-39L857,515.66l75.09-43.39v39ZM820.36,532,857,553.26l73.86-42.67V474.4L857,517.08l-36.62-21.22Z"/><path class="cls-2" d="M894.22,613.63l-37.86-21.81v-39l37.86,21.94,75.09-43.39v39ZM857.59,591.1l36.63,21.11,73.86-42.56V533.47l-73.86,42.67-.31-.17-36.32-21.05Z"/><path class="cls-2" d="M1005.94,554.69l-.31-.18-37.55-21.76v-39l37.86,21.94L1081,472.27v39ZM969.31,532l36.63,21.22,73.86-42.67V474.4l-73.86,42.68-.31-.18-36.32-21Z"/><path class="cls-2" d="M1043.18,613.63l-37.86-21.81v-39l37.86,21.94,75.08-43.39v39Zm-36.63-22.53,36.63,21.11L1117,569.65V533.47l-73.85,42.67-.31-.17-36.32-21.05Z"/><path class="cls-2" d="M1154.89,554.69l-.31-.18L1117,532.75v-39l37.86,21.94L1230,472.27v39ZM1118.26,532l36.63,21.22,73.86-42.67V474.4l-73.86,42.68-.31-.18-36.32-21Z"/><path class="cls-2" d="M1192.13,613.63l-37.86-21.81v-39l37.86,21.94,75.09-43.39v39ZM1155.5,591.1l36.63,21.11L1266,569.65V533.47l-73.86,42.67-.31-.17-36.32-21.05Z"/><path class="cls-2" d="M1303.85,554.69l-.31-.18L1266,532.75v-39l37.86,21.94,75.08-43.39v39ZM1267.22,532l36.63,21.22,73.85-42.67V474.4l-73.85,42.68-.31-.18-36.32-21Z"/><path class="cls-2" d="M1341.09,613.63l-37.86-21.81v-39l37.86,21.94,75.08-43.39v39Zm-36.63-22.53,36.63,21.11,73.85-42.56V533.47l-73.85,42.67-.31-.17-36.32-21.05Z"/><path class="cls-2" d="M1452.8,554.69l-.31-.18-37.55-21.76v-39l37.86,21.94,75.09-43.39v39ZM1416.17,532l36.63,21.22,73.86-42.67V474.4l-73.86,42.68-.31-.18-36.32-21Z"/><path class="cls-2" d="M1490,613.63l-37.86-21.81v-39L1490,574.72l75.09-43.39v39Zm-36.63-22.53L1490,612.21l73.86-42.56V533.47L1490,576.14l-.31-.17-36.32-21.05Z"/><path class="cls-2" d="M633.68,672.69l-38-21.93V611.85l38,21.81,75-43.27V629.3Zm-36.76-22.64,36.76,21.22,73.73-42.68V592.53l-73.73,42.55L596.92,614Z"/><path class="cls-2" d="M670.92,731.76l-37.86-21.94V670.91l37.86,21.82,75-43.27v38.91Zm-36.63-22.65,36.63,21.22,73.73-42.67V651.59l-73.73,42.56-.31-.18-36.32-20.92Z"/><path class="cls-2" d="M484.72,672.69l-.31-.17-37.55-21.76V611.85l37.86,21.81,75-43.26v38.9Zm-36.63-22.64,36.63,21.22,73.74-42.68V592.53l-73.74,42.56-.31-.18L448.09,614Z"/><path class="cls-2" d="M522,731.76,484.1,709.82V670.91L522,692.73l75-43.27v38.91Zm-36.63-22.65L522,730.33l73.73-42.67V651.59L522,694.15l-.31-.18-36.32-20.92Z"/><path class="cls-2" d="M335.77,672.69l-.31-.17-37.55-21.76V611.85l37.86,21.81,75.08-43.26v38.9Zm-36.63-22.64,36.63,21.22,73.85-42.68V592.53l-73.85,42.55L299.14,614Z"/><path class="cls-2" d="M373,731.76l-37.86-21.94V670.91L373,692.73l75.08-43.27v38.91Zm-36.63-22.65L373,730.33l73.85-42.67V651.59L373,694.15l-36.63-21.1Z"/><path class="cls-2" d="M186.81,672.69l-.31-.17L149,650.76V611.85l37.86,21.81L261.9,590.4v38.9Zm-36.63-22.64,36.63,21.22,73.86-42.68V592.53l-73.86,42.55L150.18,614Z"/><path class="cls-2" d="M224.05,731.76l-37.86-21.94V670.91l37.86,21.82,75.09-43.27v38.91Zm-36.63-22.65,36.63,21.22,73.86-42.67V651.59l-73.86,42.56-36.63-21.1Z"/><path class="cls-2" d="M37.86,200.31,0,178.5v-39L37.86,161.4,113,118v39ZM1.23,177.78l36.63,21.1,73.86-42.55V120.14L37.86,162.82l-.31-.18-36.32-21Z"/><path class="cls-2" d="M75.1,259.37,37.24,237.56v-39L75.1,220.46l75.08-43.39v39ZM38.47,236.85,75.1,258,149,215.39V179.21L75.1,221.88,38.47,200.66Z"/><path class="cls-2" d="M37.86,436.56l-.31-.18L0,414.63V375.72l37.86,21.81L113,354.14v39ZM1.23,413.92l36.63,21.22,73.86-42.68V356.28L37.86,399l-.31-.17L1.23,377.85Z"/><path class="cls-2" d="M75.1,495.5,37.24,473.69v-39L75.1,456.59l75.08-43.39v39ZM38.47,473l36.63,21.1L149,451.52V415.34L75.1,458l-.31-.18-36.32-21Z"/><path class="cls-2" d="M37.86,672.69l-.31-.17L0,650.76V611.85l37.86,21.81L113,590.4v38.9ZM1.23,650.05l36.63,21.22,73.86-42.68V592.53L37.86,635.08,1.23,614Z"/><path class="cls-2" d="M75.1,731.76l-.31-.18L37.24,709.82V670.91L75.1,692.73l75.08-43.27v38.91ZM38.47,709.11,75.1,730.33,149,687.66V651.59L75.1,694.15l-36.63-21.1Z"/><path class="cls-2" d="M782.51,672.69l-.31-.17-37.55-21.76V611.85l37.86,21.81,75.08-43.26v38.9Zm-36.63-22.64,36.63,21.22,73.85-42.68V592.53l-73.85,42.55L745.88,614Z"/><path class="cls-2" d="M819.75,731.76l-.31-.18-37.55-21.76V670.91l37.86,21.82,75.08-43.27v38.91Zm-36.63-22.65,36.63,21.22,73.85-42.67V651.59l-73.85,42.56-36.63-21.1Z"/><path class="cls-2" d="M931.46,672.69l-.31-.17L893.6,650.76V611.85l37.86,21.81,75.09-43.26v38.9Zm-36.63-22.64,36.63,21.22,73.86-42.68V592.53l-73.86,42.55L894.83,614Z"/><path class="cls-2" d="M968.7,731.76l-.31-.18-37.55-21.76V670.91l37.86,21.82,75.09-43.27v38.91Zm-36.63-22.65,36.63,21.22,73.86-42.67V651.59L968.7,694.15l-36.63-21.1Z"/><path class="cls-2" d="M1080.42,672.69l-.31-.17-37.55-21.76V611.85l37.86,21.81,75.08-43.26v38.9Zm-36.63-22.64,36.63,21.22,73.85-42.68V592.53l-73.85,42.55L1043.79,614Z"/><path class="cls-2" d="M1117.66,731.76l-.31-.18-37.55-21.76V670.91l37.86,21.82,75.08-43.27v38.91ZM1081,709.11l36.63,21.22,73.85-42.67V651.59l-73.85,42.56L1081,673.05Z"/><path class="cls-2" d="M1229.37,672.69l-.31-.17-37.55-21.76V611.85l37.86,21.81,75.09-43.26v38.9Zm-36.63-22.64,36.63,21.22,73.86-42.68V592.53l-73.86,42.55L1192.74,614Z"/><path class="cls-2" d="M1266.61,731.76l-.31-.18-37.55-21.76V670.91l37.86,21.82,75.09-43.27v38.91ZM1230,709.11l36.63,21.22,73.86-42.67V651.59l-73.86,42.56L1230,673.05Z"/><path class="cls-2" d="M1378.32,672.69l-37.85-21.93V611.85l37.85,21.81,75.09-43.26v38.9Zm-36.62-22.64,36.62,21.22,73.86-42.68V592.53l-73.86,42.55L1341.7,614Z"/><path class="cls-2" d="M1415.56,731.76l-37.85-21.94V670.91l37.85,21.82,75.09-43.27v38.91Zm-36.62-22.65,36.62,21.22,73.86-42.67V651.59l-73.86,42.56-36.62-21.1Z"/><path class="cls-2" d="M1527.28,672.69l-.31-.17-37.55-21.76V611.85l37.86,21.81,75.09-43.26v38.9Zm-36.63-22.64,36.63,21.22,73.86-42.68V592.53l-73.86,42.55L1490.65,614Z"/><path class="cls-2" d="M1564.52,731.76l-.31-.18-37.55-21.76V670.91l37.86,21.82,75.08-43.27v38.91Zm-36.63-22.65,36.63,21.22,73.85-42.67V651.59l-73.85,42.56-36.63-21.1Z"/><path class="cls-2" d="M559.2,790.82l-.31-.18-37.55-21.75V730l37.86,21.81,75-43.27v38.91Zm-36.63-22.64L559.2,789.4l73.73-42.68V710.66L559.2,753.21l-.31-.17-36.32-20.93Z"/><path class="cls-2" d="M596.44,849.88l-.31-.17L558.58,828V789l37.86,21.81,75-43.39v39Zm-36.63-22.64,36.63,21.22,73.73-42.68V769.6l-73.73,42.68-36.63-21.1Z"/><path class="cls-2" d="M410.24,790.82l-37.85-21.93V730l37.85,21.81,75.09-43.27v38.91Zm-36.62-22.64,36.62,21.22,73.86-42.68V710.66l-73.86,42.55-36.62-21.1Z"/><path class="cls-2" d="M447.48,849.88l-.31-.17L409.62,828V789l37.86,21.81,75.09-43.39v39Zm-36.63-22.64,36.63,21.22,73.86-42.68V769.6l-73.86,42.68-.31-.18-36.32-20.92Z"/><path class="cls-2" d="M261.29,790.82l-.31-.18-37.55-21.75V730l37.86,21.81,75.09-43.27v38.91Zm-36.63-22.64,36.63,21.22,73.86-42.68V710.66l-73.86,42.55-36.63-21.1Z"/><path class="cls-2" d="M298.53,849.88l-.31-.17L260.67,828V789l37.86,21.81,75.09-43.39v39ZM261.9,827.24l36.63,21.22,73.86-42.68V769.6l-73.86,42.68-.31-.18L261.9,791.18Z"/><path class="cls-2" d="M112.34,790.82l-.31-.18L74.48,768.89V730l37.86,21.81,75.08-43.27v38.91ZM75.71,768.17l36.63,21.23,73.85-42.68V710.66l-73.85,42.55-36.63-21.1Z"/><path class="cls-2" d="M149.57,849.88,111.72,828V789l37.85,21.81,75.09-43.39v39ZM113,827.24l36.62,21.22,73.86-42.68V769.6l-73.86,42.68L113,791.18Z"/><path class="cls-2" d="M708.15,790.82l-38-21.93V730l38,21.81,75-43.27v38.91ZM671.4,768.18l36.75,21.22,73.74-42.68V710.66l-73.74,42.55-36.75-21.1Z"/><path class="cls-2" d="M745.39,849.88l-.31-.17L707.53,828V789l37.86,21.81,75-43.39v39Zm-36.63-22.64,36.63,21.22,73.74-42.68V769.6l-73.74,42.68-36.63-21.1Z"/><path class="cls-2" d="M857,790.82l-37.85-21.93V730L857,751.79l75.09-43.27v38.91Zm-36.62-22.64L857,789.4l73.86-42.68V710.66L857,753.21l-36.62-21.1Z"/><path class="cls-2" d="M894.22,849.88l-.31-.17L856.36,828V789l37.86,21.81,75.09-43.39v39Zm-36.63-22.64,36.63,21.22,73.86-42.68V769.6l-73.86,42.68-.31-.18-36.32-20.92Z"/><path class="cls-2" d="M1005.94,790.82l-.31-.18-37.55-21.75V730l37.86,21.81L1081,708.52v38.91Zm-36.63-22.64,36.63,21.22,73.86-42.68V710.66l-73.86,42.55-36.63-21.1Z"/><path class="cls-2" d="M1043.18,849.88l-.31-.17L1005.32,828V789l37.86,21.81,75.08-43.39v39Zm-36.63-22.64,36.63,21.22L1117,805.78V769.6l-73.85,42.68-.31-.18-36.32-20.92Z"/><path class="cls-2" d="M1154.89,790.82l-.31-.18L1117,768.89V730l37.86,21.81L1230,708.52v38.91Zm-36.63-22.64,36.63,21.22,73.86-42.68V710.66l-73.86,42.55-36.63-21.1Z"/><path class="cls-2" d="M1192.13,849.88,1154.27,828V789l37.86,21.81,75.09-43.39v39Zm-36.63-22.64,36.63,21.22L1266,805.78V769.6l-73.86,42.68-.31-.18-36.32-20.92Z"/><path class="cls-2" d="M1303.85,790.82l-.31-.18L1266,768.89V730l37.86,21.81,75.08-43.27v38.91Zm-36.63-22.64,36.63,21.22,73.85-42.68V710.66l-73.85,42.55-36.63-21.1Z"/><path class="cls-2" d="M1341.09,849.88,1303.23,828V789l37.86,21.81,75.08-43.39v39Zm-36.63-22.64,36.63,21.22,73.85-42.68V769.6l-73.85,42.68-.31-.18-36.32-20.92Z"/><path class="cls-2" d="M1452.8,790.82l-.31-.18-37.55-21.75V730l37.86,21.81,75.09-43.27v38.91Zm-36.63-22.64,36.63,21.22,73.86-42.68V710.66l-73.86,42.55-36.63-21.1Z"/><path class="cls-2" d="M1490,849.88l-.31-.17L1452.18,828V789L1490,810.85l75.09-43.39v39Zm-36.63-22.64L1490,848.46l73.86-42.68V769.6L1490,812.28l-.31-.18-36.32-20.92Z"/><path class="cls-2" d="M633.68,908.82l-38-21.8V848l38,21.94,75-43.39v39l-.31.18ZM596.92,886.3l36.76,21.1,73.73-42.55V828.66l-73.73,42.68-36.76-21.22Z"/><path class="cls-2" d="M670.92,967.89,633.06,946V907L670.92,929l75-43.39v39l-.3.18Zm-36.63-22.65,36.63,21.22,73.73-42.55V887.73L670.92,930.4l-36.63-21.22Z"/><path class="cls-2" d="M484.72,908.83l-.31-.18L446.86,887V848l37.86,21.94,75-43.39v39l-.31.18ZM448.09,886.3l36.63,21.1,73.74-42.55V828.66l-73.74,42.68-.31-.18-36.32-21Z"/><path class="cls-2" d="M522,967.89,484.1,946V907L522,929l75-43.39v39l-.3.18Zm-36.63-22.65L522,966.46l73.73-42.55V887.73L522,930.4l-36.63-21.22Z"/><path class="cls-2" d="M335.77,908.82,297.91,887V848l37.86,21.94,75.08-43.39v39ZM299.14,886.3l36.63,21.1,73.85-42.55V828.66l-73.85,42.68-.31-.18-36.32-21Z"/><path class="cls-2" d="M373,967.89l-.3-.18L335.15,946V907L373,929l75.08-43.39v39Zm-36.62-22.65L373,966.47l73.85-42.56V887.73L373,930.4l-36.63-21.22Z"/><path class="cls-2" d="M186.81,908.82,149,887V848l37.86,21.94,75.09-43.39v39ZM150.18,886.3l36.63,21.1,73.86-42.55V828.66l-73.86,42.68-.31-.18-36.32-21Z"/><path class="cls-2" d="M224,967.89l-.3-.18L186.19,946V907L224.05,929l75.09-43.39v39Zm-36.62-22.65,36.63,21.23,73.86-42.56V887.73L224.05,930.4l-36.63-21.22Z"/><path class="cls-2" d="M37.86,908.83,0,887V848l37.86,21.94L113,826.53v39ZM1.23,886.3l36.63,21.1,73.86-42.55V828.66L37.86,871.34l-.31-.18-36.32-21Z"/><path class="cls-2" d="M75.1,967.89l-.31-.18L37.24,946V907L75.1,929l75.08-43.39v39ZM38.47,945.24,75.1,966.47,149,923.91V887.73L75.1,930.41l-.31-.18L38.47,909.18Z"/><path class="cls-2" d="M782.51,908.82,744.65,887V848l37.86,21.94,75.08-43.39v39ZM745.88,886.3l36.63,21.1,73.85-42.55V828.66l-73.85,42.68-.31-.18-36.32-21Z"/><path class="cls-2" d="M819.75,967.89l-.31-.18L781.89,946V907L819.75,929l75.08-43.39v39Zm-36.63-22.65,36.63,21.23,73.85-42.56V887.73L819.75,930.4l-.31-.17-36.32-21.05Z"/><path class="cls-2" d="M931.46,908.82,893.6,887V848l37.86,21.94,75.09-43.39v39ZM894.83,886.3l36.63,21.1,73.86-42.55V828.66l-73.86,42.68-.31-.18-36.32-21Z"/><path class="cls-2" d="M968.7,967.89l-.31-.18L930.84,946V907L968.7,929l75.09-43.39v39Zm-36.63-22.65,36.63,21.23,73.86-42.56V887.73L968.7,930.4l-.31-.17-36.32-21.05Z"/><path class="cls-2" d="M1080.42,908.82,1042.56,887V848l37.86,21.94,75.08-43.39v39Zm-36.63-22.52,36.63,21.1,73.85-42.55V828.66l-73.85,42.68-.31-.18-36.32-21Z"/><path class="cls-2" d="M1117.66,967.89l-.31-.18L1079.8,946V907L1117.66,929l75.08-43.39v39ZM1081,945.24l36.63,21.23,73.85-42.56V887.73l-73.85,42.67-.31-.17L1081,909.18Z"/><path class="cls-2" d="M1229.37,908.82,1191.51,887V848l37.86,21.94,75.09-43.39v39Zm-36.63-22.52,36.63,21.1,73.86-42.55V828.66l-73.86,42.68-.31-.18-36.32-21Z"/><path class="cls-2" d="M1266.61,967.89l-.31-.18L1228.75,946V907L1266.61,929l75.09-43.39v39ZM1230,945.24l36.63,21.23,73.86-42.56V887.73l-73.86,42.67-.31-.17L1230,909.18Z"/><path class="cls-2" d="M1378.32,908.82,1340.47,887V848l37.85,21.94,75.09-43.39v39ZM1341.7,886.3l36.62,21.1,73.86-42.55V828.66l-73.86,42.68-36.62-21.22Z"/><path class="cls-2" d="M1415.56,967.89,1377.71,946V907L1415.56,929l75.09-43.39v39Zm-36.62-22.65,36.62,21.23,73.86-42.56V887.73l-73.86,42.67-36.62-21.22Z"/><path class="cls-2" d="M1527.28,908.82,1489.42,887V848l37.86,21.94,75.09-43.39v39Zm-36.63-22.52,36.63,21.1,73.86-42.55V828.66l-73.86,42.68-.31-.18-36.32-21Z"/><path class="cls-2" d="M1564.52,967.89l-.31-.18L1526.66,946V907L1564.52,929l75.08-43.39v39Zm-36.63-22.65,36.63,21.23,73.85-42.56V887.73l-73.85,42.67-.31-.17-36.32-21.05Z"/></g></svg>