<svg id="Layer_1" data-name="Layer 1" xmlns="http://www.w3.org/2000/svg" xmlns:xlink="http://www.w3.org/1999/xlink" viewBox="0 0 1440 505"><defs><style>.cls-1{fill:none;}.cls-2{clip-path:url(#clip-path);}.cls-3{opacity:0.2;}.cls-4{fill:#fff;}</style><clipPath id="clip-path"><rect class="cls-1" width="1440" height="505"/></clipPath></defs><title>pattern-white</title><g class="cls-2"><g class="cls-3"><path class="cls-4" d="M1200.39,79.47l-81.28-46.95V-50.34l81.28,46.68,160.79-93v83.12l-.5.29Zm-79.28-48.11,79.28,45.79,158.79-91.9v-78.5L1200.39-1.36l-79.28-45.52Z"/><path class="cls-4" d="M1280.42,206.12l-81-46.68V76.31l81,47L1441.2,30.21v83.13Zm-79-47.84,79,45.54,158.78-91.64V33.67l-158.78,91.91-79-45.79Z"/><path class="cls-4" d="M880.3,79.47l-81-46.95V-50.34l81,46.68,160.78-93v83.12l-.5.29Zm-79-48.11,79,45.79,158.78-91.9v-78.5L880.3-1.36l-79-45.52Z"/><path class="cls-4" d="M560.21,79.47l-81-46.95V-50.34l81,46.68,161-93v83.12l-.5.29Zm-79-48.11,79,45.79,159-91.9v-78.5l-159,91.89-.5-.28L481.19-46.88Z"/><path class="cls-4" d="M240.12,79.47l-81-46.95V-50.34l81,46.68,161-93v83.12l-.5.29Zm-79-48.11,79,45.79,159-91.9v-78.5l-159,91.89-.5-.28L161.09-46.88Z"/><path class="cls-4" d="M1520.22,79.47l-81-46.95V-50.34l81,46.68,161-93v83.12l-.5.29Zm-79-48.11,79,45.79,159-91.9v-78.5l-159,91.89-.5-.28L1441.2-46.88Z"/><path class="cls-4" d="M1040.35,333.32l-81-46.95V203.23l81,47,160.78-93.05v83.13l-.5.29Zm-79-48.11,79,45.79,158.78-91.9V160.59L1040.35,252.5l-79-45.79Z"/><path class="cls-4" d="M1120.37,460l-.5-.28-80.52-46.4V330.15l81,47,160.78-93.05v83.13Zm-79-47.84,79,45.54L1279.15,366V287.52l-158.78,91.91-.5-.29-78.52-45.51Z"/><path class="cls-4" d="M720.26,333.32l-81-46.95V203.23l81,47,161-93.05v83.13l-.5.29Zm-79-48.11,79,45.79,159-91.9V160.59l-159,91.91-79-45.79Z"/><path class="cls-4" d="M400.16,333.32l-81-46.95V203.23l81,47,161.05-93.05v83.13l-.5.29Zm-79-48.11,79,45.79,159.05-91.9V160.59l-159,91.91-79-45.79Z"/><path class="cls-4" d="M80.07,333.32l-81-46.95V203.23l81,47,161.05-93.05v83.13l-.5.29Zm-79-48.11,79,45.79,159.05-91.9V160.59l-159,91.91-79-45.79Z"/><path class="cls-4" d="M160.09,460l-.5-.28-80.52-46.4V330.15l81,47,161-93.05v83.13Zm-79-47.84,79,45.54,159-91.64V287.52l-159,91.91-79-45.8Z"/><path class="cls-4" d="M1360.44,333.32l-81.29-46.95V203.24l81.29,46.94,160.78-93.05v83.13l-.5.29Zm-79.29-48.11L1360.44,331l158.78-91.9V160.59L1360.44,252.5l-79.29-45.8Z"/><path class="cls-4" d="M1440.46,460l-.5-.28-80.52-46.4V330.15l81,47,160.79-93.05v83.13Zm-79-47.84,79,45.54L1599.25,366V287.52l-158.79,91.91-.5-.29-78.52-45.51Z"/><path class="cls-4" d="M1200.39,586.9l-.5-.29L1119.11,540V457.09l81.28,46.68L1361.18,411v82.87l-.5.29Zm-79.28-48.11,79.28,45.79,158.79-91.89V414.44l-158.79,91.63-79.28-45.52Z"/><path class="cls-4" d="M880.3,586.9l-81-46.95V457.09l81,46.68L1041.08,411v82.87l-.5.29Zm-79-48.11,79,45.79,158.78-91.89V414.44L880.3,506.07l-79-45.52Z"/><path class="cls-4" d="M560.21,586.9l-81-46.95V457.09l81,46.68,161-92.79v82.87l-.5.29Zm-79-48.11,79,45.79,159-91.89V414.44l-159,91.63-79-45.52Z"/><path class="cls-4" d="M240.12,586.9l-81-46.95V457.09l81,46.68,161-92.79v82.87l-.5.29Zm-79-48.11,79,45.79,159-91.89V414.44l-159,91.63-79-45.52Z"/><path class="cls-4" d="M-80,79.47l-81-46.95V-50.34L-80-3.66l161.05-93v83.12l-.5.29Zm-79-48.11,79,45.79L79.07-14.75v-78.5L-80-1.36l-.5-.28L-159-46.88Z"/><path class="cls-4" d="M.05,206.12l-81-46.68V76.31l81,47,161-93.05v83.13Zm-79-47.84,79,45.54,159-91.64V33.67L.05,125.58-79,79.79Z"/><path class="cls-4" d="M-80,586.9-161,540V457.09l81,46.68L81.07,411v82.87l-.5.29Zm-79-48.11,79,45.79L79.07,492.69V414.44L-80,506.07l-79-45.52Z"/><path class="cls-4" d="M1520.22,586.9l-81-46.95V457.09l81,46.68,161-92.79v82.87l-.5.29Zm-79-48.11,79,45.79,159-91.89V414.44l-159,91.63-79-45.52Z"/></g></g></svg>