<svg width="200" height="200" viewBox="0 0 200 200" fill="none" xmlns="http://www.w3.org/2000/svg">
    <g clip-path="url(#clip0_1211_26488)">
        <rect width="200" height="200" rx="100" fill="#D1F2FA" />
        <path fill-rule="evenodd" clip-rule="evenodd"
            d="M100 94.8149C120.25 94.8149 136.667 76.5746 136.667 54.0741C136.667 31.5736 120.25 13.3334 100 13.3334C79.7496 13.3334 63.3333 31.5736 63.3333 54.0741C63.3333 76.5746 79.7496 94.8149 100 94.8149ZM100 354.112C160.751 354.112 210 299.35 210 231.797C210 164.244 160.751 109.481 100 109.481C39.2487 109.481 -10 164.244 -10 231.797C-10 299.35 39.2487 354.112 100 354.112Z"
            fill="#0080FF" />
    </g>
    <defs>
        <clipPath id="clip0_1211_26488">
            <rect width="200" height="200" rx="100" fill="white" />
        </clipPath>
    </defs>
</svg>