<svg width="25" height="24" viewBox="0 0 25 24" fill="none" xmlns="http://www.w3.org/2000/svg">
<path d="M17.9999 11.9999C19.4586 11.9999 20.8575 12.5793 21.889 13.6108C22.9204 14.6422 23.4999 16.0412 23.4999 17.4999C23.4999 18.9586 22.9204 20.3575 21.889 21.389C20.8575 22.4204 19.4586 22.9999 17.9999 22.9999C16.5412 22.9999 15.1423 22.4204 14.1108 21.389C13.0794 20.3575 12.4999 18.9586 12.4999 17.4999C12.4999 16.0412 13.0794 14.6422 14.1108 13.6108C15.1423 12.5793 16.5412 11.9999 17.9999 11.9999ZM12.5229 13.9999C12.2232 14.4674 11.9849 14.9715 11.8139 15.4999H4.75291C4.65438 15.4998 4.55679 15.5191 4.46574 15.5567C4.37468 15.5943 4.29195 15.6496 4.22228 15.7193C4.15261 15.7889 4.09737 15.8717 4.05973 15.9627C4.02208 16.0538 4.00277 16.1514 4.00291 16.2499V16.8269C4.00291 17.3619 4.19491 17.8799 4.54291 18.2869C5.79591 19.7559 7.76291 20.5009 10.4999 20.5009C11.0969 20.5009 11.6569 20.4659 12.1799 20.3949C12.4259 20.8899 12.7329 21.3489 13.0919 21.7619C12.2969 21.9219 11.4319 22.0019 10.4999 22.0019C7.35391 22.0019 4.96791 21.0959 3.40191 19.2619C2.82229 18.583 2.50388 17.7196 2.50391 16.8269V16.2489C2.50391 15.6524 2.74085 15.0804 3.16262 14.6586C3.58439 14.2368 4.15643 13.9999 4.75291 13.9999H12.5229ZM17.9999 13.9999L17.9099 14.0079C17.81 14.0261 17.718 14.0744 17.6462 14.1462C17.5744 14.218 17.5262 14.31 17.5079 14.4099L17.4999 14.4999V16.9999H15.0039L14.9139 17.0079C14.814 17.0261 14.722 17.0744 14.6502 17.1462C14.5784 17.218 14.5302 17.31 14.5119 17.4099L14.5039 17.4999L14.5119 17.5899C14.5302 17.6898 14.5784 17.7818 14.6502 17.8536C14.722 17.9254 14.814 17.9736 14.9139 17.9919L15.0039 17.9999H17.4999V20.4999L17.5079 20.5899C17.5262 20.6898 17.5744 20.7818 17.6462 20.8536C17.718 20.9254 17.81 20.9736 17.9099 20.9919L17.9999 20.9999L18.0899 20.9919C18.1898 20.9736 18.2818 20.9254 18.3536 20.8536C18.4254 20.7818 18.4737 20.6898 18.4919 20.5899L18.4999 20.4999V17.9999H21.0039L21.0939 17.9919C21.1938 17.9736 21.2858 17.9254 21.3576 17.8536C21.4294 17.7818 21.4777 17.6898 21.4959 17.5899L21.5039 17.4999L21.4959 17.4099C21.4777 17.31 21.4294 17.218 21.3576 17.1462C21.2858 17.0744 21.1938 17.0261 21.0939 17.0079L21.0039 16.9999H18.4999V14.4999L18.4919 14.4099C18.4737 14.31 18.4254 14.218 18.3536 14.1462C18.2818 14.0744 18.1898 14.0261 18.0899 14.0079L17.9999 13.9999ZM10.4999 2.00488C11.1565 2.00488 11.8067 2.13421 12.4133 2.38548C13.02 2.63676 13.5711 3.00506 14.0354 3.46935C14.4997 3.93364 14.868 4.48484 15.1193 5.09147C15.3706 5.69809 15.4999 6.34827 15.4999 7.00488C15.4999 7.66149 15.3706 8.31167 15.1193 8.9183C14.868 9.52493 14.4997 10.0761 14.0354 10.5404C13.5711 11.0047 13.02 11.373 12.4133 11.6243C11.8067 11.8756 11.1565 12.0049 10.4999 12.0049C9.17382 12.0049 7.90205 11.4781 6.96437 10.5404C6.02669 9.60273 5.49991 8.33097 5.49991 7.00488C5.49991 5.6788 6.02669 4.40703 6.96437 3.46935C7.90205 2.53167 9.17382 2.00488 10.4999 2.00488ZM10.4999 3.50488C10.0403 3.50488 9.58515 3.59541 9.16051 3.7713C8.73588 3.9472 8.35004 4.205 8.02503 4.53001C7.70003 4.85501 7.44222 5.24085 7.26633 5.66549C7.09044 6.09013 6.99991 6.54526 6.99991 7.00488C6.99991 7.46451 7.09044 7.91963 7.26633 8.34427C7.44222 8.76891 7.70003 9.15475 8.02503 9.47976C8.35004 9.80476 8.73588 10.0626 9.16051 10.2385C9.58515 10.4144 10.0403 10.5049 10.4999 10.5049C11.4282 10.5049 12.3184 10.1361 12.9748 9.47976C13.6312 8.82338 13.9999 7.93314 13.9999 7.00488C13.9999 6.07662 13.6312 5.18639 12.9748 4.53001C12.3184 3.87363 11.4282 3.50488 10.4999 3.50488Z" fill="#EBF2FA"/>
</svg>
