<svg width="47" height="41" viewBox="0 0 47 41" fill="none" xmlns="http://www.w3.org/2000/svg">
<g id="Group">
<path id="Vector" d="M20.7243 40.1994L46.129 15.3049C46.9338 14.507 46.7894 12.8846 45.8401 12.3793L27.4108 2.37891L1.40767 27.8851C0.602812 28.683 0.747273 30.3054 1.69659 30.8107L19.4035 40.4387C19.8575 40.6515 20.3528 40.5451 20.7243 40.1994Z" fill="#0080FF"/>
<path id="Vector_2" d="M0.908805 29.5858L0.640521 27.4581L46.9922 12.0586L46.6207 14.2129L20.2874 39.1606L0.908805 29.5858Z" fill="#0080FF"/>
<path id="Vector_3" d="M20.64 38.3378L46.6019 12.8848C47.221 12.273 47.0972 11.023 46.3749 10.624L28.0076 0.650291C27.6774 0.464114 27.2853 0.543914 26.9963 0.80988L1.03446 26.2629C0.415334 26.8746 0.53916 28.1247 1.26147 28.5236L19.6288 38.4974C19.959 38.6835 20.3511 38.6303 20.64 38.3378Z" fill="#D1F2FA"/>
<path id="Vector_4" d="M19.9618 37.6177C20.0444 37.6443 20.1269 37.6177 20.1888 37.5645L46.1507 12.1115C46.2539 12.0051 46.2539 11.8722 46.2539 11.7924C46.2539 11.7126 46.2126 11.5796 46.0888 11.5264L27.7215 1.55265C27.7009 1.55265 27.7009 1.55266 27.6802 1.52606C27.5977 1.49946 27.5151 1.52605 27.4532 1.57924L1.49131 27.0323C1.38813 27.1386 1.38813 27.2716 1.38813 27.3514C1.38813 27.4312 1.4294 27.5642 1.55322 27.6174L19.9205 37.5911C19.9205 37.6177 19.9412 37.6177 19.9618 37.6177Z" fill="#00CFFF"/>
<path id="Vector_5" d="M6.44051 22.1922C8.95828 23.2827 12.7556 24.3199 16.7386 22.7773C20.5565 21.3145 22.3726 18.3091 24.8904 15.8622C28.1098 12.7238 33.5374 9.42582 42.9688 9.77157C37.8713 7.00552 32.7739 4.26605 27.6764 1.5C20.5978 8.41513 13.5191 15.3037 6.44051 22.1922Z" fill="#0045F6"/>
</g>
</svg>
