<svg xmlns="http://www.w3.org/2000/svg" xmlns:xlink="http://www.w3.org/1999/xlink" viewBox="0 0 853.19 733.35"><defs><style>.cls-1{fill:none;}.cls-2{clip-path:url(#clip-path);}.cls-3{fill:#0045f6;}</style><clipPath id="clip-path" transform="translate(-40.81)"><rect class="cls-1" width="894" height="733"/></clipPath></defs><title>pro-art</title><g id="Layer_2" data-name="Layer 2"><g id="Layer_1-2" data-name="Layer 1"><g class="cls-2"><path d="M740.7,511.74c-4.07,9.5-12.89,28.51-12.89,28.51C657.27,671.92,510.07,752,354.06,729.61,165.49,702.46,31.18,535.5,41.36,348.85c0-2.71.67-5.43.67-8.82a27.86,27.86,0,0,1,.68-7.47C58.31,146.6,215,0,405.61,0c151.27,0,281.5,93,337.13,224.65,0,0,3.39,8.82,6.78,19.68l-45.45,25.12C667.44,159.49,571.8,73.3,449.7,56.33c-170.93-25.11-331,94.34-355.43,266.05-.68,4.76-1.36,10.18-2,14.94a18.71,18.71,0,0,1-.68,6.1c0,2.72-.68,4.75-.68,7.47,0,4.75-.67,9.5-.67,14.93,0,173.07,141.08,314.24,314.06,314.24,128.88,0,240.12-78,288.28-190Z" transform="translate(-40.81)"/><path class="cls-3" d="M830.24,319.67V263.34L711.53,329.17l-63.76-29.86v56.33l63.76,29.18Z" transform="translate(-40.81)"/><path class="cls-3" d="M775.29,414.69l-63.76-29.86v56.33l63.76,29.18L894,405.19V349.53Z" transform="translate(-40.81)"/></g></g></g></svg>