<svg width="241" height="240" viewBox="0 0 241 240" fill="none" xmlns="http://www.w3.org/2000/svg">
<circle cx="120.5" cy="120" r="120" fill="#C4C4C4"/>
<path d="M134 120H108C107.735 120 107.48 119.895 107.293 119.707C107.105 119.52 107 119.265 107 119V102C107 101.735 107.105 101.48 107.293 101.293C107.48 101.105 107.735 101 108 101H114.46L116.17 98.45C116.261 98.3124 116.384 98.1994 116.529 98.1209C116.673 98.0424 116.835 98.0009 117 98H125C125.165 98.0009 125.327 98.0424 125.471 98.1209C125.616 98.1994 125.739 98.3124 125.83 98.45L127.54 101H134C134.265 101 134.52 101.105 134.707 101.293C134.895 101.48 135 101.735 135 102V119C135 119.265 134.895 119.52 134.707 119.707C134.52 119.895 134.265 120 134 120ZM109 118H133V103H127C126.835 102.999 126.673 102.958 126.529 102.879C126.384 102.801 126.261 102.688 126.17 102.55L124.46 100H117.54L115.83 102.55C115.739 102.688 115.616 102.801 115.471 102.879C115.327 102.958 115.165 102.999 115 103H109V118Z" fill="#414141"/>
<path d="M121 116C119.813 116 118.653 115.648 117.667 114.989C116.68 114.33 115.911 113.392 115.457 112.296C115.003 111.2 114.884 109.993 115.115 108.829C115.347 107.666 115.918 106.596 116.757 105.757C117.596 104.918 118.666 104.347 119.829 104.115C120.993 103.884 122.2 104.003 123.296 104.457C124.392 104.911 125.33 105.68 125.989 106.667C126.648 107.653 127 108.813 127 110C127 111.591 126.368 113.117 125.243 114.243C124.117 115.368 122.591 116 121 116ZM121 106C120.209 106 119.436 106.235 118.778 106.674C118.12 107.114 117.607 107.738 117.304 108.469C117.002 109.2 116.923 110.004 117.077 110.78C117.231 111.556 117.612 112.269 118.172 112.828C118.731 113.388 119.444 113.769 120.22 113.923C120.996 114.077 121.8 113.998 122.531 113.696C123.262 113.393 123.886 112.88 124.326 112.222C124.765 111.564 125 110.791 125 110C125 108.939 124.579 107.922 123.828 107.172C123.078 106.421 122.061 106 121 106Z" fill="#414141"/>
<path d="M70.0242 131.273H71.3452V137.013C71.3452 137.624 71.2018 138.165 70.9148 138.636C70.6279 139.105 70.2245 139.474 69.7046 139.744C69.1847 140.011 68.5754 140.145 67.8765 140.145C67.1805 140.145 66.5725 140.011 66.0526 139.744C65.5327 139.474 65.1293 139.105 64.8424 138.636C64.5555 138.165 64.412 137.624 64.412 137.013V131.273H65.7288V136.906C65.7288 137.301 65.8154 137.652 65.9887 137.959C66.1648 138.266 66.4134 138.507 66.7345 138.683C67.0555 138.857 67.4362 138.943 67.8765 138.943C68.3197 138.943 68.7018 138.857 69.0228 138.683C69.3467 138.507 69.5938 138.266 69.7643 137.959C69.9376 137.652 70.0242 137.301 70.0242 136.906V131.273ZM73.2774 142.455V133.455H74.5217V134.516H74.6282C74.7021 134.379 74.8086 134.222 74.9478 134.043C75.0871 133.864 75.2802 133.707 75.5274 133.574C75.7746 133.438 76.1013 133.369 76.5075 133.369C77.0359 133.369 77.5075 133.503 77.9223 133.77C78.3371 134.037 78.6623 134.422 78.8981 134.925C79.1368 135.428 79.2561 136.033 79.2561 136.74C79.2561 137.447 79.1382 138.054 78.9024 138.56C78.6666 139.062 78.3427 139.45 77.9308 139.723C77.5189 139.993 77.0487 140.128 76.5203 140.128C76.1226 140.128 75.7973 140.061 75.5444 139.928C75.2944 139.794 75.0984 139.638 74.9564 139.459C74.8143 139.28 74.7049 139.121 74.6282 138.982H74.5515V142.455H73.2774ZM74.526 136.727C74.526 137.187 74.5927 137.591 74.7263 137.938C74.8598 138.284 75.053 138.555 75.3058 138.751C75.5586 138.945 75.8683 139.041 76.2348 139.041C76.6155 139.041 76.9336 138.94 77.1893 138.739C77.445 138.534 77.6382 138.257 77.7689 137.908C77.9024 137.558 77.9692 137.165 77.9692 136.727C77.9692 136.295 77.9038 135.908 77.7731 135.564C77.6453 135.22 77.4521 134.949 77.1936 134.75C76.9379 134.551 76.6183 134.452 76.2348 134.452C75.8655 134.452 75.553 134.547 75.2973 134.737C75.0444 134.928 74.8527 135.193 74.722 135.534C74.5913 135.875 74.526 136.273 74.526 136.727ZM82.0778 131.273V140H80.8036V131.273H82.0778ZM86.669 140.132C86.0554 140.132 85.5199 139.991 85.0625 139.71C84.6051 139.429 84.25 139.036 83.9972 138.53C83.7443 138.024 83.6179 137.433 83.6179 136.757C83.6179 136.078 83.7443 135.484 83.9972 134.976C84.25 134.467 84.6051 134.072 85.0625 133.791C85.5199 133.51 86.0554 133.369 86.669 133.369C87.2827 133.369 87.8182 133.51 88.2756 133.791C88.7329 134.072 89.0881 134.467 89.3409 134.976C89.5937 135.484 89.7202 136.078 89.7202 136.757C89.7202 137.433 89.5937 138.024 89.3409 138.53C89.0881 139.036 88.7329 139.429 88.2756 139.71C87.8182 139.991 87.2827 140.132 86.669 140.132ZM86.6733 139.062C87.071 139.062 87.4006 138.957 87.6619 138.747C87.9233 138.537 88.1165 138.257 88.2415 137.908C88.3693 137.558 88.4332 137.173 88.4332 136.753C88.4332 136.335 88.3693 135.952 88.2415 135.602C88.1165 135.25 87.9233 134.967 87.6619 134.754C87.4006 134.541 87.071 134.435 86.6733 134.435C86.2727 134.435 85.9403 134.541 85.6761 134.754C85.4148 134.967 85.2202 135.25 85.0923 135.602C84.9673 135.952 84.9048 136.335 84.9048 136.753C84.9048 137.173 84.9673 137.558 85.0923 137.908C85.2202 138.257 85.4148 138.537 85.6761 138.747C85.9403 138.957 86.2727 139.062 86.6733 139.062ZM93.1672 140.145C92.7524 140.145 92.3774 140.068 92.0422 139.915C91.707 139.759 91.4414 139.533 91.2453 139.237C91.0522 138.942 90.9556 138.58 90.9556 138.151C90.9556 137.781 91.0266 137.477 91.1686 137.239C91.3107 137 91.5024 136.811 91.7439 136.672C91.9854 136.533 92.2553 136.428 92.5536 136.357C92.8519 136.286 93.1559 136.232 93.4655 136.195C93.8576 136.149 94.1757 136.112 94.4201 136.084C94.6644 136.053 94.8419 136.003 94.9527 135.935C95.0635 135.866 95.1189 135.756 95.1189 135.602V135.572C95.1189 135.2 95.0138 134.912 94.8036 134.707C94.5962 134.503 94.2865 134.401 93.8746 134.401C93.4456 134.401 93.1076 134.496 92.8604 134.686C92.6161 134.874 92.4471 135.082 92.3533 135.312L91.1559 135.04C91.2979 134.642 91.5053 134.321 91.778 134.077C92.0536 133.83 92.3703 133.651 92.7283 133.54C93.0863 133.426 93.4627 133.369 93.8576 133.369C94.1189 133.369 94.3959 133.401 94.6885 133.463C94.984 133.523 95.2596 133.634 95.5152 133.795C95.7738 133.957 95.9854 134.189 96.1502 134.49C96.3149 134.788 96.3973 135.176 96.3973 135.653V140H95.153V139.105H95.1019C95.0195 139.27 94.8959 139.432 94.7311 139.591C94.5664 139.75 94.3547 139.882 94.0962 139.987C93.8377 140.092 93.528 140.145 93.1672 140.145ZM93.4442 139.122C93.7965 139.122 94.0976 139.053 94.3476 138.913C94.6005 138.774 94.7922 138.592 94.9229 138.368C95.0564 138.141 95.1232 137.898 95.1232 137.639V136.795C95.0777 136.841 94.9897 136.884 94.859 136.923C94.7311 136.96 94.5848 136.993 94.4201 137.021C94.2553 137.047 94.0948 137.071 93.9385 137.094C93.7823 137.114 93.6516 137.131 93.5465 137.145C93.2993 137.176 93.0735 137.229 92.8689 137.303C92.6672 137.376 92.5053 137.483 92.3831 137.622C92.2638 137.759 92.2042 137.94 92.2042 138.168C92.2042 138.483 92.3206 138.722 92.5536 138.884C92.7865 139.043 93.0834 139.122 93.4442 139.122ZM100.665 140.128C100.136 140.128 99.6647 139.993 99.2499 139.723C98.838 139.45 98.5141 139.062 98.2783 138.56C98.0454 138.054 97.9289 137.447 97.9289 136.74C97.9289 136.033 98.0468 135.428 98.2826 134.925C98.5212 134.422 98.8479 134.037 99.2627 133.77C99.6775 133.503 100.148 133.369 100.673 133.369C101.079 133.369 101.406 133.438 101.653 133.574C101.903 133.707 102.097 133.864 102.233 134.043C102.372 134.222 102.48 134.379 102.557 134.516H102.633V131.273H103.908V140H102.663V138.982H102.557C102.48 139.121 102.369 139.28 102.224 139.459C102.082 139.638 101.886 139.794 101.636 139.928C101.386 140.061 101.062 140.128 100.665 140.128ZM100.946 139.041C101.312 139.041 101.622 138.945 101.875 138.751C102.131 138.555 102.324 138.284 102.454 137.938C102.588 137.591 102.655 137.187 102.655 136.727C102.655 136.273 102.589 135.875 102.459 135.534C102.328 135.193 102.136 134.928 101.883 134.737C101.631 134.547 101.318 134.452 100.946 134.452C100.562 134.452 100.243 134.551 99.9871 134.75C99.7315 134.949 99.5383 135.22 99.4076 135.564C99.2798 135.908 99.2158 136.295 99.2158 136.727C99.2158 137.165 99.2812 137.558 99.4119 137.908C99.5425 138.257 99.7357 138.534 99.9914 138.739C100.25 138.94 100.568 139.041 100.946 139.041ZM109.947 142.455C109.757 142.455 109.584 142.439 109.427 142.408C109.271 142.379 109.155 142.348 109.078 142.314L109.385 141.27C109.618 141.332 109.825 141.359 110.007 141.351C110.189 141.342 110.349 141.274 110.489 141.146C110.631 141.018 110.756 140.81 110.864 140.52L111.021 140.085L108.626 133.455H109.99L111.648 138.534H111.716L113.373 133.455H114.741L112.044 140.874C111.919 141.214 111.76 141.503 111.567 141.739C111.373 141.977 111.143 142.156 110.876 142.276C110.609 142.395 110.3 142.455 109.947 142.455ZM118.593 140.132C117.98 140.132 117.444 139.991 116.987 139.71C116.529 139.429 116.174 139.036 115.921 138.53C115.669 138.024 115.542 137.433 115.542 136.757C115.542 136.078 115.669 135.484 115.921 134.976C116.174 134.467 116.529 134.072 116.987 133.791C117.444 133.51 117.98 133.369 118.593 133.369C119.207 133.369 119.742 133.51 120.2 133.791C120.657 134.072 121.012 134.467 121.265 134.976C121.518 135.484 121.644 136.078 121.644 136.757C121.644 137.433 121.518 138.024 121.265 138.53C121.012 139.036 120.657 139.429 120.2 139.71C119.742 139.991 119.207 140.132 118.593 140.132ZM118.598 139.062C118.995 139.062 119.325 138.957 119.586 138.747C119.848 138.537 120.041 138.257 120.166 137.908C120.294 137.558 120.357 137.173 120.357 136.753C120.357 136.335 120.294 135.952 120.166 135.602C120.041 135.25 119.848 134.967 119.586 134.754C119.325 134.541 118.995 134.435 118.598 134.435C118.197 134.435 117.865 134.541 117.6 134.754C117.339 134.967 117.144 135.25 117.017 135.602C116.892 135.952 116.829 136.335 116.829 136.753C116.829 137.173 116.892 137.558 117.017 137.908C117.144 138.257 117.339 138.537 117.6 138.747C117.865 138.957 118.197 139.062 118.598 139.062ZM127.333 137.286V133.455H128.611V140H127.358V138.866H127.29C127.14 139.216 126.898 139.507 126.566 139.74C126.236 139.97 125.826 140.085 125.334 140.085C124.914 140.085 124.542 139.993 124.218 139.808C123.897 139.621 123.644 139.344 123.459 138.977C123.278 138.611 123.187 138.158 123.187 137.618V133.455H124.461V137.464C124.461 137.911 124.584 138.266 124.831 138.53C125.079 138.794 125.4 138.926 125.795 138.926C126.033 138.926 126.27 138.866 126.506 138.747C126.745 138.628 126.942 138.447 127.099 138.206C127.258 137.964 127.336 137.658 127.333 137.286ZM130.443 140V133.455H131.675V134.494H131.743C131.862 134.142 132.073 133.865 132.374 133.663C132.678 133.459 133.021 133.357 133.405 133.357C133.485 133.357 133.578 133.359 133.686 133.365C133.797 133.371 133.884 133.378 133.946 133.386V134.605C133.895 134.591 133.804 134.575 133.673 134.558C133.543 134.538 133.412 134.528 133.281 134.528C132.98 134.528 132.712 134.592 132.476 134.72C132.243 134.845 132.058 135.02 131.922 135.244C131.786 135.466 131.717 135.719 131.717 136.003V140H130.443ZM138.465 142.455V133.455H139.709V134.516H139.815C139.889 134.379 139.996 134.222 140.135 134.043C140.274 133.864 140.467 133.707 140.715 133.574C140.962 133.438 141.288 133.369 141.695 133.369C142.223 133.369 142.695 133.503 143.109 133.77C143.524 134.037 143.85 134.422 144.085 134.925C144.324 135.428 144.443 136.033 144.443 136.74C144.443 137.447 144.325 138.054 144.09 138.56C143.854 139.062 143.53 139.45 143.118 139.723C142.706 139.993 142.236 140.128 141.707 140.128C141.31 140.128 140.984 140.061 140.732 139.928C140.482 139.794 140.286 139.638 140.144 139.459C140.002 139.28 139.892 139.121 139.815 138.982H139.739V142.455H138.465ZM139.713 136.727C139.713 137.187 139.78 137.591 139.913 137.938C140.047 138.284 140.24 138.555 140.493 138.751C140.746 138.945 141.055 139.041 141.422 139.041C141.803 139.041 142.121 138.94 142.377 138.739C142.632 138.534 142.825 138.257 142.956 137.908C143.09 137.558 143.156 137.165 143.156 136.727C143.156 136.295 143.091 135.908 142.96 135.564C142.832 135.22 142.639 134.949 142.381 134.75C142.125 134.551 141.805 134.452 141.422 134.452C141.053 134.452 140.74 134.547 140.484 134.737C140.232 134.928 140.04 135.193 139.909 135.534C139.779 135.875 139.713 136.273 139.713 136.727ZM145.991 140V133.455H147.265V140H145.991ZM146.634 132.445C146.413 132.445 146.222 132.371 146.063 132.223C145.907 132.072 145.829 131.893 145.829 131.686C145.829 131.476 145.907 131.297 146.063 131.149C146.222 130.999 146.413 130.923 146.634 130.923C146.856 130.923 147.045 130.999 147.201 131.149C147.36 131.297 147.44 131.476 147.44 131.686C147.44 131.893 147.36 132.072 147.201 132.223C147.045 132.371 146.856 132.445 146.634 132.445ZM151.856 140.132C151.223 140.132 150.677 139.989 150.22 139.702C149.765 139.412 149.416 139.013 149.172 138.504C148.927 137.996 148.805 137.413 148.805 136.757C148.805 136.092 148.93 135.506 149.18 134.997C149.43 134.486 149.782 134.087 150.237 133.8C150.691 133.513 151.227 133.369 151.843 133.369C152.341 133.369 152.784 133.462 153.173 133.646C153.562 133.828 153.876 134.084 154.115 134.413C154.356 134.743 154.5 135.128 154.545 135.568H153.305C153.237 135.261 153.081 134.997 152.836 134.776C152.595 134.554 152.271 134.443 151.865 134.443C151.51 134.443 151.199 134.537 150.931 134.724C150.667 134.909 150.461 135.173 150.314 135.517C150.166 135.858 150.092 136.261 150.092 136.727C150.092 137.205 150.164 137.616 150.309 137.963C150.454 138.31 150.659 138.578 150.923 138.768C151.19 138.959 151.504 139.054 151.865 139.054C152.106 139.054 152.325 139.01 152.521 138.922C152.72 138.831 152.886 138.702 153.02 138.534C153.156 138.366 153.251 138.165 153.305 137.929H154.545C154.5 138.352 154.362 138.73 154.132 139.062C153.902 139.395 153.593 139.656 153.207 139.847C152.824 140.037 152.373 140.132 151.856 140.132ZM159.083 133.455V134.477H155.508V133.455H159.083ZM156.467 131.886H157.741V138.078C157.741 138.325 157.778 138.511 157.852 138.636C157.925 138.759 158.021 138.842 158.137 138.888C158.256 138.93 158.386 138.952 158.525 138.952C158.627 138.952 158.717 138.945 158.793 138.93C158.87 138.916 158.93 138.905 158.972 138.896L159.202 139.949C159.129 139.977 159.023 140.006 158.887 140.034C158.751 140.065 158.58 140.082 158.376 140.085C158.04 140.091 157.728 140.031 157.438 139.906C157.148 139.781 156.914 139.588 156.735 139.327C156.556 139.065 156.467 138.737 156.467 138.342V131.886ZM164.759 137.286V133.455H166.037V140H164.784V138.866H164.716C164.566 139.216 164.324 139.507 163.992 139.74C163.662 139.97 163.252 140.085 162.76 140.085C162.34 140.085 161.968 139.993 161.644 139.808C161.323 139.621 161.07 139.344 160.885 138.977C160.703 138.611 160.613 138.158 160.613 137.618V133.455H161.887V137.464C161.887 137.911 162.01 138.266 162.257 138.53C162.505 138.794 162.826 138.926 163.221 138.926C163.459 138.926 163.696 138.866 163.932 138.747C164.171 138.628 164.368 138.447 164.524 138.206C164.684 137.964 164.762 137.658 164.759 137.286ZM167.869 140V133.455H169.101V134.494H169.169C169.288 134.142 169.499 133.865 169.8 133.663C170.104 133.459 170.447 133.357 170.831 133.357C170.91 133.357 171.004 133.359 171.112 133.365C171.223 133.371 171.31 133.378 171.372 133.386V134.605C171.321 134.591 171.23 134.575 171.099 134.558C170.969 134.538 170.838 134.528 170.707 134.528C170.406 134.528 170.138 134.592 169.902 134.72C169.669 134.845 169.484 135.02 169.348 135.244C169.212 135.466 169.143 135.719 169.143 136.003V140H167.869ZM175.181 140.132C174.537 140.132 173.981 139.994 173.515 139.719C173.052 139.44 172.694 139.05 172.441 138.547C172.191 138.041 172.066 137.449 172.066 136.77C172.066 136.099 172.191 135.509 172.441 134.997C172.694 134.486 173.046 134.087 173.498 133.8C173.953 133.513 174.484 133.369 175.092 133.369C175.461 133.369 175.819 133.43 176.166 133.553C176.512 133.675 176.823 133.866 177.099 134.128C177.375 134.389 177.592 134.729 177.751 135.146C177.91 135.561 177.99 136.065 177.99 136.659V137.111H172.787V136.156H176.741C176.741 135.821 176.673 135.524 176.537 135.266C176.4 135.004 176.208 134.798 175.961 134.648C175.717 134.497 175.43 134.422 175.1 134.422C174.742 134.422 174.43 134.51 174.163 134.686C173.899 134.859 173.694 135.087 173.549 135.368C173.407 135.646 173.336 135.949 173.336 136.276V137.021C173.336 137.459 173.413 137.831 173.566 138.138C173.723 138.445 173.94 138.679 174.218 138.841C174.497 139 174.822 139.08 175.194 139.08C175.436 139.08 175.656 139.045 175.855 138.977C176.054 138.906 176.225 138.801 176.37 138.662C176.515 138.523 176.626 138.351 176.703 138.146L177.909 138.364C177.812 138.719 177.639 139.03 177.389 139.297C177.142 139.561 176.831 139.767 176.456 139.915C176.083 140.06 175.659 140.132 175.181 140.132Z" fill="#414141"/>
</svg>
