<svg width="167" height="30" viewBox="0 0 167 30" fill="none" xmlns="http://www.w3.org/2000/svg">
<path d="M25.8754 2.69986H33.6035C37.0767 2.69986 40.0725 4.96831 40.0725 8.97335C40.0725 12.9784 37.0767 15.2725 33.6035 15.2725H28.9289V22.2989H25.8754V2.69986ZM33.4081 12.6131C35.6221 12.6131 37.1055 11.1553 37.1055 8.97335C37.1055 6.7914 35.6221 5.3592 33.4081 5.3592H28.9225V12.6131H33.4081Z" fill="black"/>
<path d="M41.194 8.44148H44.1353V10.3158C45.2824 8.7747 47.0734 8.18836 49.4829 8.2172V11.3251C48.9031 11.096 48.2829 10.987 47.6598 11.0047C45.8431 11.0047 44.1353 12.4914 44.1353 15.2629V22.2989H41.194V8.44148Z" fill="black"/>
<path d="M49.4575 15.3559C49.4454 13.8959 49.8673 12.4652 50.6697 11.2453C51.4721 10.0255 52.6187 9.07149 53.9642 8.50438C55.3096 7.93727 56.7932 7.78262 58.2267 8.06005C59.6602 8.33749 60.979 9.0345 62.0157 10.0626C63.0524 11.0908 63.7603 12.4037 64.0496 13.8349C64.3389 15.266 64.1966 16.7508 63.6407 18.1009C63.0847 19.451 62.1403 20.6056 60.9271 21.418C59.714 22.2305 58.2868 22.6643 56.8267 22.6643C54.881 22.6703 53.0123 21.9042 51.6308 20.534C50.2492 19.1639 49.4676 17.3017 49.4575 15.3559V15.3559ZM61.1586 15.3848C61.1586 12.8216 59.2554 10.8222 56.8203 10.8479C54.3821 10.8222 52.5077 12.8087 52.5077 15.3848C52.5077 17.9608 54.3821 19.9185 56.8203 19.8832C59.2554 19.9185 61.1586 17.932 61.1586 15.3976V15.3848Z" fill="black"/>
<path d="M65.6407 8.44178H68.582V10.4283C69.7291 9.11142 71.2414 8.24313 73.6764 8.24313C77.4572 8.24313 80.2832 11.351 80.2832 15.3849C80.2832 19.4188 77.4572 22.4979 73.6764 22.4979C71.2414 22.4979 69.7291 21.6007 68.582 20.3415V29.3128H65.6407V8.44178ZM77.3515 15.3977C77.3515 12.7929 75.4739 10.8064 72.9812 10.8064C70.4884 10.8064 68.582 12.78 68.582 15.3977C68.582 18.0154 70.4852 19.9603 72.9748 19.9603C75.4643 19.9603 77.3515 17.9609 77.3515 15.3977Z" fill="black"/>
<path d="M95.1532 15.1317C95.1532 15.4521 95.1532 15.7725 95.1244 16.141H83.5899C83.9103 18.7042 85.8327 20.2294 88.1236 20.2294C88.907 20.247 89.6843 20.0873 90.3972 19.7622C91.1102 19.4371 91.7404 18.9549 92.2407 18.3518L94.035 19.8641C92.7534 21.6551 90.4497 22.6356 88.1236 22.6356C87.1695 22.6467 86.2229 22.4672 85.3392 22.1075C84.4555 21.7478 83.6525 21.2153 82.9774 20.5411C82.3023 19.8669 81.7687 19.0646 81.4078 18.1814C81.047 17.2981 80.8662 16.3517 80.8761 15.3977C80.8761 11.2517 83.984 8.06045 88.1268 8.06045C92.1286 8.04764 95.0699 10.7647 95.1532 15.1317ZM83.6475 14.209H92.5227C92.0453 11.7707 90.4209 10.3449 88.1236 10.3449C85.8263 10.3449 84.0801 11.8732 83.6475 14.209Z" fill="black"/>
<path d="M99.2414 1.3H96.4507V22.2992H99.2414V1.3Z" fill="black"/>
<path d="M15.5588 2.85074V8.08612L5.18732 14.0744L0 11.0755V5.8465L5.18732 8.84547L15.5588 2.85074Z" fill="#0045F6"/>
<path d="M20.7491 11.0786V16.314L10.3777 22.2991L5.19037 19.3001V14.0712L10.3777 17.0701L20.7491 11.0786Z" fill="#0045F6"/>
<path d="M109.184 2.4C111.032 2.4 112.572 3.016 113.804 4.248C115.055 5.48 115.68 7.01067 115.68 8.84C115.68 10.6507 115.055 12.1813 113.804 13.432C112.572 14.664 111.032 15.28 109.184 15.28H105.18V22H101.96V2.4H109.184ZM109.184 12.256C109.651 12.256 110.08 12.172 110.472 12.004C110.883 11.836 111.237 11.6027 111.536 11.304C111.835 10.9867 112.059 10.6227 112.208 10.212C112.376 9.80133 112.46 9.344 112.46 8.84C112.46 8.336 112.376 7.87867 112.208 7.468C112.059 7.05733 111.835 6.70267 111.536 6.404C111.237 6.08667 110.883 5.844 110.472 5.676C110.08 5.508 109.651 5.424 109.184 5.424H105.18V12.256H109.184ZM119.395 16.288C119.619 17.352 120.123 18.1733 120.907 18.752C121.71 19.312 122.699 19.592 123.875 19.592C125.462 19.592 126.666 19.0133 127.487 17.856L129.979 19.312C128.617 21.3467 126.573 22.364 123.847 22.364C121.589 22.364 119.75 21.6733 118.331 20.292C116.931 18.892 116.231 17.128 116.231 15C116.231 12.928 116.922 11.1827 118.303 9.764C119.666 8.34533 121.439 7.636 123.623 7.636C125.658 7.636 127.338 8.35467 128.663 9.792C129.989 11.2293 130.651 12.9747 130.651 15.028C130.651 15.1773 130.642 15.364 130.623 15.588C130.605 15.7933 130.577 16.0267 130.539 16.288H119.395ZM127.599 13.824C127.394 12.6853 126.927 11.8267 126.199 11.248C125.471 10.6693 124.603 10.38 123.595 10.38C122.475 10.38 121.542 10.688 120.795 11.304C120.049 11.92 119.573 12.76 119.367 13.824H127.599ZM136.056 10.352C136.803 8.616 138.24 7.748 140.368 7.748V11.024C139.211 10.9493 138.203 11.2293 137.344 11.864C136.485 12.48 136.056 13.5067 136.056 14.944V22H133.032V8H136.056V10.352ZM154.698 22H151.086L145.346 15.532V22H142.322V2.4H145.346V14.188L150.778 8H154.474L148.314 14.86L154.698 22ZM158.184 11.864C158.184 12.3307 158.436 12.704 158.94 12.984C159.463 13.2453 160.088 13.4787 160.816 13.684C161.358 13.796 161.918 13.9547 162.496 14.16C163.075 14.3467 163.607 14.608 164.092 14.944C164.578 15.2613 164.97 15.672 165.268 16.176C165.586 16.68 165.735 17.3053 165.716 18.052C165.716 19.396 165.194 20.4507 164.148 21.216C163.103 21.9813 161.806 22.364 160.256 22.364C158.856 22.364 157.662 22.0747 156.672 21.496C155.702 20.9173 154.992 20.1147 154.544 19.088L157.148 17.576C157.615 18.92 158.651 19.592 160.256 19.592C161.843 19.592 162.636 19.0693 162.636 18.024C162.636 17.576 162.375 17.212 161.852 16.932C161.348 16.652 160.723 16.4187 159.976 16.232C159.454 16.1013 158.903 15.9427 158.324 15.756C157.746 15.5693 157.214 15.3173 156.728 15C156.243 14.664 155.842 14.2533 155.524 13.768C155.226 13.264 155.086 12.648 155.104 11.92C155.104 10.632 155.59 9.596 156.56 8.812C157.531 8.028 158.754 7.636 160.228 7.636C161.404 7.636 162.44 7.89733 163.336 8.42C164.232 8.924 164.923 9.63333 165.408 10.548L162.86 11.976C162.375 10.912 161.498 10.38 160.228 10.38C159.65 10.38 159.164 10.5107 158.772 10.772C158.38 11.0147 158.184 11.3787 158.184 11.864Z" fill="#0045F6"/>
</svg>
