<svg width="114" height="33" viewBox="0 0 114 33" fill="none" xmlns="http://www.w3.org/2000/svg">
<path d="M29.5723 1.59961H38.4044C42.3737 1.59961 45.7975 4.19213 45.7975 8.76931C45.7975 13.3465 42.3737 15.9683 38.4044 15.9683H33.0619V23.9985H29.5723V1.59961ZM38.181 12.9291C40.7113 12.9291 42.4067 11.263 42.4067 8.76931C42.4067 6.27566 40.7113 4.63886 38.181 4.63886H33.0546V12.9291H38.181Z" fill="black"/>
<path d="M47.0791 8.16177H50.4406V10.3039C51.7515 8.54259 53.7984 7.87249 56.552 7.90545V11.4573C55.8895 11.1955 55.1806 11.0709 54.4685 11.0912C52.3923 11.0912 50.4406 12.7902 50.4406 15.9576V23.9988H47.0791V8.16177Z" fill="black"/>
<path d="M56.5227 16.0639C56.509 14.3952 56.9912 12.7601 57.9082 11.366C58.8252 9.97192 60.1356 8.88163 61.6733 8.2335C63.211 7.58538 64.9065 7.40864 66.5448 7.7257C68.183 8.04277 69.6902 8.83935 70.875 10.0144C72.0598 11.1894 72.8689 12.6899 73.1995 14.3255C73.5301 15.9611 73.3675 17.658 72.7321 19.201C72.0968 20.744 71.0174 22.0634 69.6309 22.992C68.2445 23.9205 66.6134 24.4162 64.9448 24.4163C62.7211 24.4231 60.5855 23.5475 59.0066 21.9817C57.4276 20.4158 56.5344 18.2875 56.5227 16.0639ZM69.8954 16.0968C69.8954 13.1674 67.7204 10.8825 64.9374 10.9118C62.1509 10.8825 60.0087 13.1528 60.0087 16.0968C60.0087 19.0409 62.1509 21.2782 64.9374 21.2379C67.7204 21.2782 69.8954 19.0079 69.8954 16.1115V16.0968Z" fill="black"/>
<path d="M75.0186 8.1616H78.38V10.4319C79.6909 8.9269 81.4193 7.93457 84.2022 7.93457C88.5231 7.93457 91.7527 11.4865 91.7527 16.0966C91.7527 20.7067 88.5231 24.2257 84.2022 24.2257C81.4193 24.2257 79.6909 23.2004 78.38 21.7613V32.0142H75.0186V8.1616ZM88.4022 16.1112C88.4022 13.1342 86.2565 10.864 83.4076 10.864C80.5588 10.864 78.38 13.1196 78.38 16.1112C78.38 19.1029 80.5551 21.3256 83.4003 21.3256C86.2455 21.3256 88.4022 19.0406 88.4022 16.1112Z" fill="black"/>
<path d="M108.747 15.8081C108.747 16.1743 108.747 16.5404 108.714 16.9615H95.5316C95.8978 19.8909 98.0948 21.6339 100.713 21.6339C101.608 21.6541 102.497 21.4716 103.311 21.1C104.126 20.7285 104.847 20.1774 105.418 19.4881L107.469 21.2165C106.004 23.2634 103.371 24.3839 100.713 24.3839C99.6227 24.3966 98.5408 24.1915 97.5308 23.7804C96.5209 23.3693 95.6032 22.7607 94.8316 21.9902C94.0601 21.2197 93.4502 20.3028 93.0378 19.2934C92.6255 18.284 92.4188 17.2024 92.4301 16.112C92.4301 11.3737 95.982 7.72661 100.717 7.72661C105.29 7.71197 108.652 10.8171 108.747 15.8081ZM95.5975 14.7535H105.741C105.195 11.9669 103.338 10.3374 100.713 10.3374C98.0875 10.3374 96.0919 12.0841 95.5975 14.7535Z" fill="black"/>
<path d="M113.419 0H110.229V23.9991H113.419V0Z" fill="black"/>
<path d="M17.7814 1.77246V7.75575L5.92837 14.5996L0 11.1722V5.19619L5.92837 8.62359L17.7814 1.77246Z" fill="black"/>
<path d="M23.7131 11.1758V17.1591L11.86 23.9992L5.93164 20.5718V14.5959L11.86 18.0232L23.7131 11.1758Z" fill="black"/>
</svg>
