<svg width="100" height="29" viewBox="0 0 100 29" fill="none" xmlns="http://www.w3.org/2000/svg">
<path d="M25.876 1.40039H33.6041C37.0773 1.40039 40.073 3.66884 40.073 7.67388C40.073 11.6789 37.0773 13.973 33.6041 13.973H28.9294V20.9994H25.876V1.40039ZM33.4086 11.3137C35.6226 11.3137 37.1061 9.85582 37.1061 7.67388C37.1061 5.49193 35.6226 4.05973 33.4086 4.05973H28.923V11.3137H33.4086Z" fill="black"/>
<path d="M41.1943 7.14131H44.1356V9.01566C45.2827 7.47453 47.0737 6.88819 49.4832 6.91703V10.0249C48.9034 9.79582 48.2832 9.68681 47.6601 9.70453C45.8434 9.70453 44.1356 11.1912 44.1356 13.9627V20.9987H41.1943V7.14131Z" fill="black"/>
<path d="M49.4573 14.0551C49.4452 12.5951 49.8671 11.1644 50.6695 9.94455C51.4719 8.7247 52.6186 7.77069 53.964 7.20358C55.3095 6.63647 56.7931 6.48182 58.2265 6.75926C59.66 7.03669 60.9788 7.7337 62.0155 8.76184C63.0522 9.78999 63.7601 11.1029 64.0494 12.5341C64.3388 13.9652 64.1964 15.45 63.6405 16.8001C63.0846 18.1502 62.1401 19.3048 60.9269 20.1172C59.7138 20.9297 58.2866 21.3635 56.8265 21.3635C54.8808 21.3695 53.0122 20.6034 51.6306 19.2332C50.2491 17.8631 49.4675 16.0009 49.4573 14.0551ZM61.1584 14.084C61.1584 11.5208 59.2552 9.52144 56.8201 9.54708C54.3819 9.52144 52.5075 11.5079 52.5075 14.084C52.5075 16.66 54.3819 18.6177 56.8201 18.5824C59.2552 18.6177 61.1584 16.6312 61.1584 14.0968V14.084Z" fill="black"/>
<path d="M65.6416 7.14201H68.5829V9.12851C69.7299 7.81165 71.2422 6.94336 73.6773 6.94336C77.4581 6.94336 80.284 10.0513 80.284 14.0851C80.284 18.119 77.4581 21.1981 73.6773 21.1981C71.2422 21.1981 69.7299 20.301 68.5829 19.0418V28.013H65.6416V7.14201ZM77.3523 14.098C77.3523 11.4931 75.4748 9.50658 72.982 9.50658C70.4893 9.50658 68.5829 11.4803 68.5829 14.098C68.5829 16.7156 70.4861 18.6605 72.9756 18.6605C75.4652 18.6605 77.3523 16.6612 77.3523 14.098Z" fill="black"/>
<path d="M95.1535 13.8311C95.1535 14.1515 95.1535 14.4719 95.1247 14.8404H83.5902C83.9106 17.4036 85.833 18.9287 88.1239 18.9287C88.9073 18.9464 89.6846 18.7867 90.3975 18.4616C91.1105 18.1364 91.7407 17.6543 92.241 17.0511L94.0353 18.5634C92.7537 20.3545 90.45 21.3349 88.1239 21.3349C87.1698 21.3461 86.2232 21.1665 85.3395 20.8069C84.4558 20.4472 83.6528 19.9146 82.9777 19.2404C82.3026 18.5662 81.769 17.764 81.4081 16.8807C81.0473 15.9975 80.8665 15.0511 80.8764 14.097C80.8764 9.95102 83.9843 6.75981 88.1271 6.75981C92.1289 6.74699 95.0702 9.46401 95.1535 13.8311ZM83.6478 12.9083H92.523C92.0456 10.4701 90.4212 9.04428 88.1239 9.04428C85.8266 9.04428 84.0804 10.5726 83.6478 12.9083Z" fill="black"/>
<path d="M99.2419 0H96.4512V20.9992H99.2419V0Z" fill="black"/>
<path d="M15.5588 1.55078V6.78616L5.18732 12.7745L0 9.77552V4.54655L5.18732 7.54552L15.5588 1.55078Z" fill="black"/>
<path d="M20.7492 9.7793V15.0147L10.3777 20.9998L5.19043 18.0008V12.7719L10.3777 15.7708L20.7492 9.7793Z" fill="black"/>
</svg>
