<svg width="536" height="144" viewBox="0 0 536 144" fill="none" xmlns="http://www.w3.org/2000/svg">
<g clip-path="url(#clip0_9696_61416)">
<rect width="684" height="300" transform="translate(-48.7188 -15)" fill="#E0D6F5"/>
<path fill-rule="evenodd" clip-rule="evenodd" d="M477.33 -82.0668V-195.483L266.824 -65.6414L161.492 -130.63V-17.3154L266.813 47.6663V160.923L372.113 225.912L582.651 96.1713V-17.2453L372.113 112.597L266.872 47.6442L477.33 -82.0668ZM266.746 160.067V273.483L56.2393 403.224L-49.0934 338.235V225.89L-154.359 160.923V47.6078L-49.0585 112.597L161.48 -17.2453V96.1713L-48.272 225.427L56.2393 289.909L266.746 160.067Z" fill="black"/>
<path fill-rule="evenodd" clip-rule="evenodd" d="M1003.63 96.5182V-16.8984L793.121 112.944L687.789 47.9547V161.27L793.11 226.251V339.508L898.41 404.497L1108.95 274.756V161.34L898.41 291.182L793.169 226.229L1003.63 96.5182ZM793.042 338.652V452.068L582.536 581.809L477.203 516.82V404.475L371.938 339.508V226.193L477.238 291.182L687.776 161.34V274.756L478.025 404.012L582.536 468.494L793.042 338.652Z" fill="black"/>
</g>
<defs>
<clipPath id="clip0_9696_61416">
<rect width="684" height="300" fill="white" transform="translate(-48.7188 -15)"/>
</clipPath>
</defs>
</svg>
