<svg width="116" height="120" viewBox="0 0 116 120" fill="none" xmlns="http://www.w3.org/2000/svg">
<g clip-path="url(#clip0_1313_6083)">
<path d="M120.266 0H0.265625V120H120.266V0Z" fill="white"/>
<path d="M38.681 105.908L23.7178 115.364C22.7471 115.978 23.4655 116.995 24.8675 116.995H93.595C94.9898 116.995 95.7106 115.987 94.7579 115.372L80.1227 105.916C79.7711 105.708 79.3683 105.602 78.9597 105.611H39.8307C39.4275 105.603 39.0297 105.705 38.681 105.908Z" fill="#C0FCFF"/>
<path d="M93.5962 116.994H24.8687C23.7166 116.994 23.0246 116.307 23.3562 115.723H95.1051C95.4367 116.309 94.7459 116.994 93.5962 116.994Z" fill="#3D76F4"/>
<path d="M40.3269 106.322L26.7189 114.996H91.6956L78.4311 106.322H40.3269Z" fill="#80F3FF"/>
<path d="M61.8604 114.999H26.7212L40.3256 106.322H45.7319L47.9256 106.388C47.9256 106.388 43.3699 114.712 61.8604 114.999Z" fill="#3D76F4"/>
<path d="M61.8604 114.999H26.7212L40.3256 106.322H45.7319L47.9256 106.388C47.9256 106.388 43.3699 114.712 61.8604 114.999Z" fill="#40E4FF"/>
<path fill-rule="evenodd" clip-rule="evenodd" d="M78.9591 102.205C79.3782 102.196 79.7914 102.305 80.152 102.518L80.153 102.519L80.1539 102.52L94.7892 111.974C95.0358 112.134 95.1811 112.324 95.2302 112.523C95.2795 112.723 95.2294 112.924 95.1036 113.1C94.8537 113.449 94.3037 113.705 93.595 113.705H24.8675C24.1552 113.705 23.6038 113.446 23.3558 113.094C23.231 112.917 23.1828 112.715 23.235 112.515C23.287 112.315 23.436 112.125 23.6871 111.967L38.6512 102.51L38.6521 102.51C39.0098 102.302 39.4178 102.197 39.8314 102.205H78.9591ZM80.0924 102.617C79.7502 102.415 79.3584 102.312 78.961 102.32L78.9598 102.32H39.8295C39.4372 102.312 39.0502 102.412 38.7109 102.609L23.7486 112.064C23.5143 112.212 23.3891 112.38 23.3465 112.544C23.3042 112.706 23.3413 112.874 23.45 113.028C23.6691 113.339 24.1779 113.589 24.8675 113.589H93.595C94.2811 113.589 94.7889 113.341 95.0099 113.033C95.1196 112.879 95.1583 112.713 95.1183 112.55C95.0782 112.387 94.9564 112.22 94.7267 112.071L80.0933 102.618C80.093 102.617 80.0927 102.617 80.0924 102.617Z" fill="#009DFF"/>
<g opacity="0.8">
<path d="M112.955 56.7881C112.955 58.5037 112.875 60.1984 112.715 61.8724C111.673 72.6924 107.28 82.9176 100.15 91.1224C90.5315 102.22 76.3299 109.238 60.4909 109.238C51.0472 109.239 41.7783 106.691 33.6627 101.862C25.5472 97.0325 18.8861 90.1016 14.3827 81.8008C9.87936 73.4999 7.7008 64.1372 8.07705 54.701C8.4533 45.2647 11.3704 36.1051 16.5203 28.1892C25.8719 13.8279 42.0737 4.32498 60.4909 4.32498C62.8406 4.32254 65.1878 4.47827 67.5166 4.79112C67.5195 4.79112 67.5222 4.79225 67.5242 4.79428C67.5263 4.79631 67.5274 4.79906 67.5274 4.80193C84.7889 7.10257 99.3892 17.8165 107.088 32.6776H107.099C110.957 40.1281 112.966 48.3978 112.955 56.7881Z" fill="#D1F2FA"/>
</g>
<path d="M43.3604 52.7539H43.3712L42.3608 29.6982L43.3604 52.7539Z" fill="#80DBFF"/>
<path d="M48.2921 55.3248L49.7266 55.2636L50.3273 55.2359L51.7629 55.1735L52.3636 55.1482L53.798 55.0834L54.3987 55.0581L55.8344 54.9945L56.4351 54.968L57.8695 54.9044L58.4702 54.8779L59.9035 54.8143L60.5042 54.789L61.9374 54.7242L62.5381 54.6989L63.9725 54.6364L64.5732 54.6088L66.0149 54.5463L66.6156 54.5187L68.05 54.4562L68.6507 54.431L70.0924 54.3661L70.6931 54.3409L72.1275 54.2772L72.7282 54.2508L74.1615 54.1883L74.7622 54.1607L76.1942 54.0982L76.7949 54.0718L78.2293 54.0081L78.83 53.9817L80.2645 53.9192L80.8652 53.8916L82.0365 53.8399C82.0328 53.6791 82.0441 53.5182 82.0702 53.3594C82.1677 52.7226 82.4832 52.1395 82.9628 51.7094C83.4424 51.2793 84.0564 51.029 84.7 51.0011L83.6416 27.9406L82.6252 27.9838C82.6389 28.3371 82.5121 28.6814 82.2725 28.9413C82.0328 29.2012 81.7 29.3556 81.3467 29.3705C80.9935 29.3855 80.6488 29.2598 80.388 29.021C80.1273 28.7823 79.9719 28.4499 79.9557 28.0967L78.5417 28.1568C78.5546 28.3351 78.5316 28.5142 78.474 28.6834C78.4165 28.8526 78.3256 29.0086 78.2066 29.1421C78.0877 29.2755 77.9432 29.3837 77.7817 29.4603C77.6202 29.5369 77.4449 29.5803 77.2663 29.588C77.0877 29.5956 76.9094 29.5673 76.742 29.5048C76.5745 29.4423 76.4213 29.3468 76.2914 29.224C76.1615 29.1012 76.0576 28.9535 75.9858 28.7898C75.914 28.6261 75.8758 28.4497 75.8734 28.2709L74.4594 28.331C74.4753 28.685 74.35 29.0308 74.1109 29.2924C73.8719 29.554 73.5387 29.7099 73.1847 29.7258C72.8307 29.7417 72.4849 29.6164 72.2233 29.3773C71.9618 29.1383 71.8059 28.8051 71.7899 28.4511L70.3771 28.5112C70.3922 28.8652 70.2661 29.2107 70.0265 29.4717C69.7869 29.7327 69.4534 29.8879 69.0994 29.903C68.7454 29.9181 68.3999 29.792 68.1389 29.5524C67.8779 29.3128 67.7228 28.9793 67.7076 28.6253L66.2936 28.6854C66.3075 29.0384 66.1808 29.3825 65.9414 29.6423C65.702 29.902 65.3693 30.0563 65.0164 30.0713C64.6634 30.0862 64.3189 29.9606 64.0584 29.722C63.7979 29.4834 63.6426 29.1512 63.6265 28.7983L62.2125 28.8596C62.2275 29.2138 62.1012 29.5594 61.8613 29.8204C61.6215 30.0814 61.2878 30.2364 60.9336 30.2514C60.5795 30.2664 60.2339 30.1401 59.9729 29.9002C59.7119 29.6604 59.5568 29.3267 59.5418 28.9725L58.1302 29.0326C58.1377 29.2079 58.1106 29.3829 58.0505 29.5477C57.9903 29.7125 57.8983 29.8639 57.7796 29.9931C57.661 30.1224 57.5181 30.227 57.359 30.301C57.1999 30.375 57.0278 30.4169 56.8526 30.4244C56.6773 30.4319 56.5022 30.4048 56.3374 30.3446C56.1726 30.2845 56.0213 30.1925 55.892 30.0738C55.631 29.8342 55.4759 29.5007 55.4608 29.1467L54.0467 29.2068C54.0596 29.3851 54.0366 29.5642 53.9791 29.7334C53.9215 29.9026 53.8306 30.0586 53.7117 30.1921C53.5927 30.3255 53.4482 30.4338 53.2867 30.5103C53.1252 30.5869 52.95 30.6303 52.7714 30.638C52.5928 30.6456 52.4145 30.6173 52.247 30.5548C52.0795 30.4923 51.9263 30.3968 51.7964 30.274C51.6665 30.1512 51.5626 30.0035 51.4908 29.8398C51.419 29.6761 51.3808 29.4997 51.3785 29.3209L49.9644 29.381C49.9723 29.5563 49.9456 29.7314 49.8858 29.8964C49.826 30.0613 49.7343 30.2129 49.616 30.3424C49.4976 30.4719 49.3549 30.5769 49.196 30.6512C49.0371 30.7256 48.865 30.7679 48.6898 30.7758C48.5145 30.7837 48.3394 30.757 48.1744 30.6972C48.0095 30.6374 47.8579 30.5457 47.7284 30.4274C47.4668 30.1883 47.3109 29.8551 47.295 29.5011L45.8809 29.5612C45.8959 29.915 45.7697 30.2603 45.5301 30.5211C45.2905 30.7819 44.9571 30.9368 44.6033 30.9518C44.2494 30.9668 43.9041 30.8406 43.6434 30.601C43.3826 30.3614 43.2276 30.028 43.2127 29.6741L42.3717 29.7102L43.3821 52.7659C44.1028 52.7387 44.8059 52.9921 45.3436 53.4727C45.8814 53.9533 46.2118 54.6237 46.2654 55.3429V55.3561C46.2672 55.3797 46.2672 55.4034 46.2654 55.427L47.6974 55.3645L48.2921 55.3248Z" fill="#80DBFF"/>
<path d="M86.9141 102.766L84.8898 56.561H84.8766C84.511 56.5768 84.146 56.5204 83.8023 56.395C83.4586 56.2696 83.1429 56.0776 82.8735 55.8302C82.604 55.5827 82.386 55.2845 82.2318 54.9527C82.0777 54.6209 81.9905 54.2619 81.9752 53.8964C81.974 53.8784 81.974 53.8603 81.9752 53.8423C81.9712 53.6786 81.9825 53.5149 82.0089 53.3533L80.7822 53.4074L80.8039 53.8879L80.2032 53.9156L80.1828 53.435L78.7483 53.4975L78.7687 53.978L78.168 54.0045L78.1476 53.5239L76.712 53.5864L76.7336 54.067L76.1329 54.0934L76.1125 53.6128L74.678 53.6753C74.678 53.6813 74.6984 54.1102 74.7009 54.1559L74.1002 54.1835L74.0797 53.6969L72.6381 53.7606C72.6381 53.7606 72.6597 54.2099 72.6609 54.2412L72.0602 54.2676C72.0602 54.2327 72.0374 53.787 72.0374 53.787L70.6041 53.8495L70.6258 54.3361L70.0251 54.3613C70.0251 54.3264 70.0022 53.8807 70.0022 53.8807L68.569 53.9432L68.5894 54.4298L67.9887 54.455C67.9887 54.419 67.9659 53.9744 67.9659 53.9744L66.5339 54.0369L66.5543 54.5175L65.9536 54.5451L65.932 54.0645L64.4975 54.127L64.5179 54.6076L63.9172 54.6352L63.8968 54.1547L62.4624 54.2183L62.4828 54.6989L61.8821 54.7241L61.8605 54.2436L60.426 54.306C60.426 54.306 60.4477 54.7746 60.4489 54.7938L59.8482 54.819L59.8277 54.3385L58.3933 54.4009C58.3933 54.4009 58.4137 54.8515 58.4149 54.8815L57.8142 54.9079C57.8142 54.8899 57.7926 54.4274 57.7926 54.4274L56.357 54.4898C56.357 54.4898 56.3786 54.9404 56.3798 54.9704L55.7791 54.9968C55.7791 54.9788 55.7563 54.5103 55.7563 54.5103L54.323 54.5727L54.3434 55.0605L53.7427 55.0857C53.7427 55.0497 53.7211 54.6052 53.7211 54.5992L52.2879 54.6628L52.3083 55.1506L51.7076 55.1758L51.6872 54.6893L50.2515 54.7529L50.272 55.2335L49.6713 55.2611L49.6508 54.7734L48.2164 54.8358L48.2368 55.3236L47.6361 55.3512L47.6157 54.8635L46.1404 54.9283C46.1724 55.0869 46.1933 55.2474 46.2029 55.4089C46.2342 56.1443 45.9731 56.8621 45.4767 57.4056C44.9804 57.949 44.289 58.2738 43.5538 58.309L45.6394 104.52L86.9141 102.766Z" fill="#009DFF"/>
<path d="M33.1546 56.1321L33.1654 56.1297L28.6747 33.4945L33.1546 56.1321Z" fill="#009DFF"/>
<path d="M38.4191 57.9258L39.8283 57.6471L40.4134 57.527L41.8226 57.2483L42.4089 57.1281L43.8181 56.847L44.4044 56.7269L45.8136 56.4469L46.3999 56.3268L47.8079 56.0469L48.3942 55.9267L49.801 55.648L50.3897 55.5279L51.7965 55.2636L52.3827 55.1434L53.792 54.8635L54.3782 54.7434L55.7863 54.4647L56.3725 54.3445L57.7818 54.0646L58.368 53.9445L59.7772 53.6633L60.3635 53.5432L61.7763 53.2873L62.3626 53.1672L63.7706 52.8872L64.3581 52.7671L65.7601 52.5004L66.3464 52.3803L67.7556 52.0991L68.3419 51.979L69.7511 51.7003L70.3374 51.5801L71.4871 51.3519C71.4591 51.1933 71.4454 51.0324 71.4463 50.8713C71.4466 50.2272 71.6703 49.6032 72.0793 49.1056C72.4884 48.6081 73.0574 48.2679 73.6892 48.143L69.2069 25.5042L68.2085 25.7012C68.2749 26.0479 68.2013 26.4068 68.0038 26.6995C67.8063 26.9921 67.5011 27.1947 67.1547 27.2629C66.8083 27.3312 66.449 27.2596 66.1553 27.0637C65.8616 26.8679 65.6573 26.5638 65.5871 26.2178L64.1983 26.4917C64.2668 26.8391 64.1945 27.1996 63.9973 27.4937C63.8 27.7879 63.494 27.9916 63.1465 28.0601C62.7991 28.1286 62.4386 28.0563 62.1445 27.859C61.8504 27.6618 61.6466 27.3557 61.5781 27.0083L60.1905 27.2822C60.2569 27.6289 60.1833 27.9878 59.9858 28.2805C59.7883 28.5731 59.4831 28.7757 59.1367 28.844C58.7903 28.9122 58.431 28.8406 58.1373 28.6448C57.8436 28.4489 57.6393 28.1448 57.5691 27.7988L56.1815 28.0715C56.2157 28.2436 56.2158 28.4208 56.1815 28.5929C56.1473 28.7651 56.0795 28.9288 55.982 29.0747C55.8845 29.2206 55.7592 29.3459 55.6132 29.4434C55.4673 29.5409 55.3036 29.6087 55.1315 29.6429C54.7839 29.7121 54.423 29.6403 54.1283 29.4434C53.8336 29.2464 53.6292 28.9405 53.5601 28.5929L52.1713 28.8656C52.2052 29.0377 52.2049 29.2147 52.1704 29.3866C52.1359 29.5586 52.0679 29.722 51.9702 29.8677C51.8726 30.0133 51.7472 30.1383 51.6012 30.2354C51.4552 30.3326 51.2915 30.4001 51.1195 30.434C50.9475 30.4679 50.7704 30.4676 50.5985 30.4331C50.4265 30.3986 50.2631 30.3306 50.1175 30.2329C49.9718 30.1353 49.8468 30.0099 49.7497 29.8639C49.6525 29.7179 49.585 29.5543 49.5511 29.3822L48.1635 29.6561C48.2298 30.0029 48.1562 30.3618 47.9588 30.6544C47.7613 30.947 47.456 31.1496 47.1097 31.2179C46.7633 31.2861 46.404 31.2145 46.1103 31.0187C45.8165 30.8228 45.6123 30.5187 45.5421 30.1727L44.1545 30.4466C44.2208 30.7934 44.1472 31.1523 43.9497 31.4449C43.7523 31.7376 43.447 31.9401 43.1006 32.0084C42.7543 32.0767 42.395 32.005 42.1012 31.8092C41.8075 31.6134 41.6032 31.3092 41.5331 30.9632L40.1443 31.2359C40.2128 31.5834 40.1404 31.9439 39.9432 32.238C39.7459 32.5321 39.4399 32.7358 39.0925 32.8043C38.745 32.8729 38.3846 32.8005 38.0904 32.6033C37.7963 32.406 37.5926 32.1 37.5241 31.7525L36.1365 32.0253C36.1944 32.3686 36.1161 32.721 35.9182 33.0075C35.7204 33.294 35.4186 33.4921 35.077 33.5595C34.7354 33.627 34.3809 33.5585 34.089 33.3687C33.7971 33.1788 33.5908 32.8826 33.5138 32.543L32.1263 32.8158C32.1602 32.9878 32.1599 33.1648 32.1254 33.3368C32.0909 33.5087 32.0228 33.6722 31.9252 33.8178C31.8275 33.9634 31.7021 34.0884 31.5561 34.1856C31.4102 34.2828 31.2465 34.3502 31.0744 34.3842C30.9024 34.4181 30.7254 34.4178 30.5534 34.3833C30.3815 34.3488 30.218 34.2808 30.0724 34.1831C29.9268 34.0854 29.8018 33.96 29.7046 33.814C29.6074 33.6681 29.54 33.5044 29.506 33.3324L28.6747 33.4969L33.1654 56.1322C33.8743 55.9952 34.6086 56.1387 35.2136 56.5325C35.8187 56.9262 36.2473 57.5395 36.4092 58.243V58.255C36.4164 58.279 36.42 58.3007 36.4248 58.3247L37.8304 58.046L38.4191 57.9258Z" fill="#009DFF"/>
<path d="M83.7808 98.971L74.7813 53.6045H74.7681C74.0446 53.7473 73.294 53.5975 72.6808 53.1879C72.0676 52.7783 71.6418 52.1422 71.4967 51.4191C71.4927 51.4017 71.4899 51.3841 71.4883 51.3663C71.459 51.205 71.4449 51.0413 71.4463 50.8773L70.2449 51.1176L70.3386 51.5981L69.7523 51.7183L69.6574 51.2377L68.2494 51.5165L68.3431 51.997L67.7568 52.1171L67.6631 51.6366L66.2527 51.8997L66.3464 52.3802L65.7601 52.5004L65.6664 52.0198L64.2572 52.2998L64.3533 52.7743L63.7658 52.8944L63.6709 52.4139L62.2629 52.6938C62.2629 52.6938 62.3518 53.1359 62.3578 53.1744L61.7715 53.2945C61.7715 53.2597 61.6766 52.8212 61.6766 52.8139L60.2686 53.0939L60.3635 53.5744L59.7772 53.6946C59.77 53.6609 59.6811 53.2224 59.6811 53.22L58.2743 53.4987L58.368 53.9793L57.7818 54.0994C57.7745 54.0646 57.6868 53.6261 57.6856 53.6189L56.2788 53.8976L56.3725 54.3781L55.7863 54.4983L55.6925 54.0177L54.2833 54.2965L54.3782 54.777L53.792 54.8971L53.6971 54.4166L52.2854 54.6749L52.3791 55.1554L51.7929 55.2756L51.6992 54.795L50.2899 55.0737C50.2899 55.0737 50.3824 55.5339 50.386 55.5543L49.7974 55.6744L49.7037 55.1939L48.2944 55.4738C48.2944 55.4738 48.3833 55.9159 48.3906 55.9544L47.8043 56.0745C47.8043 56.0565 47.7094 55.5939 47.7082 55.5939L46.3038 55.8643C46.3038 55.8643 46.3927 56.3064 46.3987 56.3448L45.8136 56.4649C45.8136 56.4469 45.7175 55.9844 45.7175 55.9844L44.3095 56.2631L44.4044 56.7437L43.8181 56.8638C43.8109 56.829 43.722 56.3905 43.722 56.3833L42.314 56.656L42.4077 57.1365L41.8214 57.2567L41.7277 56.7761L40.3185 57.056L40.4122 57.5366L39.8271 57.6567L39.7322 57.1762L38.323 57.4561L38.4179 57.9366L37.8316 58.0568L37.7367 57.5762L36.289 57.8634C36.346 58.0171 36.3913 58.175 36.4248 58.3355C36.5674 59.0578 36.4183 59.8072 36.0099 60.4198C35.6015 61.0324 34.9671 61.4583 34.2455 61.6045L43.245 106.97L83.7808 98.971Z" fill="#0045F6"/>
<path d="M56.2404 76.1856C55.2528 77.6633 53.8304 78.592 51.9731 78.9716C50.1157 79.3513 48.4338 79.0501 46.9273 78.0682C45.4231 77.0863 44.4893 75.7055 44.1256 73.9258C43.762 72.1462 44.0792 70.5095 45.0771 69.0158C46.0759 67.5221 47.5031 66.5854 49.3589 66.2057C51.2146 65.8261 52.8873 66.1224 54.377 67.0948C55.8651 68.0663 56.7942 69.4547 57.1642 71.26C57.5343 73.0652 57.2263 74.7071 56.2404 76.1856ZM50.3812 90.5013L64.0109 67.2774L66.6395 68.1183L52.9798 91.3807L50.3812 90.5013ZM49.2676 74.7091C49.5356 74.8981 49.8408 75.028 50.1629 75.0901C50.485 75.1522 50.8166 75.1452 51.1357 75.0695C51.4608 75.0125 51.7704 74.8884 52.0448 74.7051C52.3193 74.5219 52.5526 74.2835 52.7299 74.0051C52.911 73.7268 53.0341 73.4148 53.0919 73.0879C53.1497 72.7609 53.141 72.4256 53.0663 72.1021C53.0084 71.7782 52.8854 71.4695 52.7046 71.1945C52.5238 70.9196 52.2891 70.6842 52.0147 70.5027C51.7403 70.3212 51.4319 70.1973 51.1081 70.1385C50.7844 70.0797 50.4521 70.0872 50.1314 70.1607C49.8096 70.2162 49.503 70.3381 49.231 70.5187C48.9589 70.6992 48.7276 70.9345 48.5515 71.2095C48.3754 71.4854 48.2563 71.7939 48.2012 72.1165C48.1461 72.4392 48.1562 72.7697 48.2308 73.0885C48.3479 73.7448 48.7208 74.3277 49.2676 74.7091ZM72.4446 88.8109C71.4595 90.3022 70.0386 91.2377 68.1821 91.6174C66.3256 91.997 64.6512 91.6946 63.1591 90.7103C61.6686 89.7252 60.7415 88.3428 60.3779 86.5632C60.0143 84.7835 60.3247 83.1484 61.309 81.6579C62.2925 80.1666 63.7134 79.2311 65.5715 78.8515C67.4296 78.4718 69.1036 78.7742 70.5933 79.7585C72.0838 80.7437 73.0113 82.126 73.3757 83.9057C73.7401 85.6853 73.4297 87.3204 72.4446 88.8109ZM65.515 87.3464C65.7831 87.5356 66.0882 87.6655 66.4103 87.7277C66.7324 87.7898 67.064 87.7827 67.3832 87.7069C67.7079 87.6498 68.0164 87.523 68.2875 87.3354C68.5585 87.1477 68.7857 86.9035 68.9534 86.6196C69.2911 86.0512 69.4045 85.3772 69.2711 84.7296C69.1378 84.082 68.7674 83.5075 68.2326 83.1188C67.9606 82.9381 67.6557 82.813 67.3352 82.7505C67.0147 82.6881 66.6851 82.6897 66.3652 82.7551C66.0453 82.8205 65.7415 82.9485 65.4713 83.1318C65.2011 83.315 64.9698 83.5498 64.7906 83.8228C64.4536 84.3946 64.3407 85.0712 64.4738 85.7215C64.607 86.3718 64.9767 86.9495 65.5114 87.3428L65.515 87.3464Z" fill="#00CFFF"/>
<path d="M22.5381 24.3701H14.2906L11.0372 17.9979L20.1185 19.83L22.5381 24.3701Z" fill="#0045F6"/>
<path d="M11.7256 16.3292L11.0372 17.9979L14.2906 24.37H22.5381L23.2264 22.7025L20.1185 19.83L11.7256 16.3292Z" fill="#0045F6"/>
<path d="M23.2264 22.7025H14.9777L11.7256 16.3292H19.9731L23.2264 22.7025Z" fill="#80DBFF"/>
<path d="M17.0008 19.7171H15.0005L14.1007 18.028H16.101L17.0008 19.7171Z" fill="white"/>
<path d="M20.5065 19.7171H18.5074L17.6075 18.028H19.6066L20.5065 19.7171Z" fill="white"/>
<path d="M24.268 32.3232H20.915C18.5771 32.3232 15.8283 30.7229 14.7759 28.7479L12.2794 24.0721H24.0998L26.5927 28.7479C27.6487 30.7229 26.6059 32.3232 24.268 32.3232Z" fill="#0045F6"/>
<path d="M13.0424 22.2328L12.2831 24.0721L14.7759 28.7479L26.8667 30.9584L27.6632 29.0158L13.0424 22.2328Z" fill="#0045F6"/>
<path d="M25.0261 30.4839H21.6743C19.3352 30.4839 16.5876 28.8836 15.5352 26.9098L13.0424 22.2328H24.8616L27.3544 26.911C28.4068 28.8836 27.364 30.4839 25.0261 30.4839Z" fill="#80F3FF"/>
<path d="M48.7293 10.1397C48.7293 9.57676 48.5396 9.03028 48.1909 8.58844C47.8421 8.1466 47.3546 7.83518 46.8071 7.70445C46.793 6.78044 46.4123 5.8999 45.7489 5.25655C45.0855 4.6132 44.1937 4.25973 43.2697 4.27391C42.3456 4.28809 41.4651 4.66875 40.8218 5.33215C40.1784 5.99556 39.8249 6.88736 39.8391 7.81138C39.8391 7.89067 39.8463 7.96876 39.8511 8.05165C39.761 8.04159 39.6703 8.03638 39.5796 8.03604C38.9848 8.03581 38.4093 8.24738 37.9563 8.63284C37.5032 9.0183 37.2022 9.55247 37.1072 10.1397H48.7293Z" fill="#80F3FF"/>
<mask id="mask0_1313_6083" style="mask-type:luminance" maskUnits="userSpaceOnUse" x="114" y="66" width="3" height="1">
<path d="M116.926 66.2622L114.83 66.8845C114.744 66.91 114.655 66.9305 114.566 66.9458L116.661 66.3235C116.751 66.308 116.839 66.2876 116.926 66.2622Z" fill="white"/>
</mask>
<g mask="url(#mask0_1313_6083)">
<path d="M116.926 66.2622L114.83 66.8845C114.744 66.91 114.655 66.9305 114.566 66.9458L116.661 66.3235C116.751 66.308 116.839 66.2876 116.926 66.2622Z" fill="#005285"/>
</g>
<path d="M114.208 57.0957L112.113 57.7168L110.625 56.5587L112.719 55.9363L114.208 57.0957Z" fill="#004F80"/>
<path d="M110.012 60.4139L107.917 61.035L110.624 56.5587L112.718 55.9363L110.012 60.4139Z" fill="#888888"/>
<path d="M110.549 63.147L108.454 63.7693L112.113 57.7168L114.208 57.0956L110.549 63.147Z" fill="#005488"/>
<path d="M110.012 60.4138L107.917 61.035L105.8 59.3867L107.895 58.7643L110.012 60.4138Z" fill="#004F80"/>
<path d="M106.942 60.3381L104.847 60.9605L105.8 59.3867L107.895 58.7643L106.942 60.3381Z" fill="#888888"/>
<path d="M110.549 63.147L108.454 63.7693L104.847 60.9605L106.942 60.3382L110.549 63.147Z" fill="#808080"/>
<path d="M113.76 51.5453C115.13 51.3122 116.482 52.367 116.784 53.9012L118.602 63.1266C118.902 64.6595 118.037 66.0916 116.667 66.3235L107.777 67.8336C106.752 68.0066 105.735 67.46 105.164 66.5301C104.965 66.2068 104.826 65.8503 104.753 65.4777L102.942 56.2523C102.641 54.7181 103.506 53.2873 104.876 53.0542L112.101 51.8276L113.76 51.5453ZM110.552 63.147L114.212 57.0956L112.715 55.9363L110.012 60.4139L107.895 58.7644L106.948 60.3382L110.552 63.147Z" fill="#80F3FF"/>
<path d="M112.719 55.9363L114.208 57.0957L110.549 63.147L106.942 60.3382L107.895 58.7644L110.012 60.4139L112.719 55.9363Z" fill="#00CFFF"/>
<path d="M107.772 67.8336C106.748 68.0066 105.73 67.4599 105.159 66.5301C104.96 66.2068 104.821 65.8503 104.749 65.4777L102.938 56.2523C102.921 56.167 102.908 56.0829 102.898 55.9988C102.898 55.9711 102.898 55.9435 102.898 55.9171C102.898 55.8606 102.889 55.8041 102.886 55.7489C102.886 55.7164 102.886 55.6852 102.886 55.6528C102.886 55.6023 102.886 55.5518 102.886 55.5026C102.886 55.4533 102.886 55.4365 102.892 55.4041C102.898 55.3716 102.901 55.308 102.907 55.2599L102.921 55.1638C102.928 55.1157 102.938 55.0689 102.948 55.022C102.957 54.9752 102.961 54.9608 102.968 54.9307C102.98 54.8827 102.993 54.8346 103.008 54.7878C103.016 54.7601 103.023 54.7337 103.032 54.7073C103.051 54.6508 103.073 54.5967 103.094 54.5427C103.101 54.5259 103.106 54.509 103.113 54.4922C103.143 54.4225 103.176 54.3541 103.212 54.288C103.22 54.2712 103.231 54.2556 103.241 54.2387C103.268 54.1907 103.296 54.1414 103.326 54.0958C103.341 54.0729 103.357 54.0513 103.373 54.0285C103.389 54.0057 103.427 53.9516 103.456 53.9084C103.485 53.8651 103.493 53.8627 103.512 53.8411C103.532 53.8195 103.57 53.7726 103.6 53.7414C103.63 53.7101 103.641 53.6981 103.662 53.6765C103.684 53.6549 103.726 53.6164 103.759 53.5864L103.826 53.5287C103.861 53.4999 103.897 53.4735 103.933 53.447L104.001 53.3978C104.043 53.3701 104.085 53.3449 104.129 53.3197L104.189 53.2848C104.233 53.2608 104.28 53.2392 104.326 53.2188C104.348 53.2079 104.371 53.1959 104.394 53.1863C104.465 53.1575 104.537 53.1323 104.61 53.1094L102.515 53.7318C102.442 53.7534 102.37 53.7798 102.299 53.8086L102.23 53.8411C102.188 53.8603 102.146 53.8783 102.11 53.8999C102.106 53.9022 102.102 53.9042 102.098 53.906C102.078 53.9168 102.059 53.93 102.038 53.942C101.996 53.9672 101.953 53.9924 101.918 54.0201C101.883 54.0477 101.872 54.0525 101.85 54.0693C101.827 54.0862 101.776 54.1222 101.741 54.151C101.707 54.1799 101.697 54.1895 101.674 54.2087C101.651 54.2279 101.609 54.2676 101.578 54.2988L101.516 54.3625C101.486 54.3949 101.457 54.4286 101.428 54.4622L101.371 54.5307C101.343 54.5679 101.315 54.6052 101.289 54.6448C101.262 54.6844 101.257 54.6881 101.242 54.7121C101.212 54.7577 101.184 54.8058 101.156 54.855L101.128 54.9043C101.093 54.9704 101.059 55.0389 101.029 55.1085C101.022 55.1254 101.017 55.1422 101.01 55.159C100.988 55.2131 100.967 55.2671 100.949 55.3224C100.939 55.35 100.932 55.3764 100.923 55.4041C100.909 55.4509 100.896 55.4978 100.884 55.547C100.876 55.5771 100.87 55.6083 100.863 55.6383C100.856 55.6684 100.844 55.7321 100.837 55.7789L100.822 55.8762C100.822 55.9243 100.812 55.9711 100.808 56.0192C100.804 56.0672 100.808 56.0853 100.808 56.1189C100.808 56.1525 100.808 56.2186 100.808 56.2691C100.808 56.3015 100.808 56.3327 100.808 56.3652C100.808 56.4204 100.815 56.4769 100.82 56.5322C100.82 56.5598 100.82 56.5874 100.826 56.6151C100.836 56.6992 100.849 56.7833 100.866 56.8674L102.676 66.094C102.749 66.4665 102.888 66.8229 103.087 67.1464C103.66 68.0762 104.675 68.6229 105.701 68.4487L114.591 66.9397L116.687 66.3174L107.772 67.8336Z" fill="#0045F6"/>
<path d="M114.983 15.7033C114.982 15.7904 114.973 15.8772 114.957 15.9628L111.962 30.3109L111.908 30.5644C111.834 30.9349 111.628 31.2663 111.33 31.4978L84.4464 32.9287L83.7881 32.328L84.7372 31.7561L113.462 14.4562L113.623 14.4406C113.858 14.4248 114.093 14.4744 114.302 14.5838C114.51 14.6932 114.685 14.8582 114.805 15.0605C114.922 15.2546 114.984 15.4768 114.983 15.7033Z" fill="#80DBFF"/>
<path d="M84.7311 32.2631L110.526 30.419C110.68 30.4079 110.827 30.3468 110.944 30.2449C111.06 30.1431 111.141 30.0059 111.172 29.8544L114.209 15.3056C114.232 15.1977 114.229 15.086 114.201 14.9793C114.173 14.8726 114.121 14.7739 114.049 14.6909C113.976 14.6078 113.885 14.5428 113.783 14.5008C113.681 14.4588 113.571 14.4411 113.461 14.449L87.6661 16.2932C87.5116 16.3042 87.365 16.3654 87.2483 16.4672C87.1317 16.5691 87.0515 16.7062 87.0197 16.8578L83.9827 31.4065C83.9601 31.5145 83.9628 31.6262 83.9907 31.7328C84.0186 31.8395 84.0709 31.9383 84.1435 32.0213C84.216 32.1043 84.3069 32.1694 84.4088 32.2114C84.5108 32.2533 84.6211 32.271 84.7311 32.2631Z" fill="#C0F0FF"/>
<mask id="mask1_1313_6083" style="mask-type:luminance" maskUnits="userSpaceOnUse" x="83" y="14" width="32" height="19">
<path d="M84.7311 32.2631L110.526 30.419C110.68 30.4079 110.827 30.3468 110.944 30.2449C111.06 30.1431 111.141 30.0059 111.172 29.8544L114.209 15.3056C114.232 15.1977 114.229 15.086 114.201 14.9793C114.173 14.8726 114.121 14.7739 114.049 14.6909C113.976 14.6078 113.885 14.5428 113.783 14.5008C113.681 14.4588 113.571 14.4411 113.461 14.449L87.6661 16.2932C87.5116 16.3042 87.365 16.3654 87.2483 16.4672C87.1317 16.5691 87.0515 16.7062 87.0197 16.8578L83.9827 31.4065C83.9601 31.5145 83.9628 31.6262 83.9907 31.7328C84.0186 31.8395 84.0709 31.9383 84.1435 32.0213C84.216 32.1043 84.3069 32.1694 84.4088 32.2114C84.5108 32.2533 84.6211 32.271 84.7311 32.2631Z" fill="white"/>
</mask>
<g mask="url(#mask1_1313_6083)">
<path d="M112.955 56.7881C112.955 58.5037 112.875 60.1984 112.715 61.8724C111.673 72.6924 107.28 82.9176 100.15 91.1224C90.5313 102.22 76.3298 109.238 60.4908 109.238C51.0471 109.239 41.7781 106.691 33.6626 101.862C25.547 97.0325 18.886 90.1016 14.3826 81.8008C9.87924 73.4999 7.70068 64.1372 8.07693 54.701C8.45317 45.2647 11.3703 36.1051 16.5202 28.1892C25.8718 13.8279 42.0736 4.32498 60.4908 4.32498C62.8405 4.32254 65.1877 4.47827 67.5165 4.79112C67.5193 4.79112 67.5221 4.79225 67.5241 4.79428C67.5261 4.79631 67.5273 4.79906 67.5273 4.80193C84.7887 7.10257 99.3891 17.8165 107.088 32.6776H107.098C110.957 40.1281 112.966 48.3978 112.955 56.7881Z" fill="#40E4FF"/>
</g>
<path d="M111.962 30.3109L111.908 30.5643C111.834 30.9349 111.628 31.2663 111.33 31.4978C111.07 31.703 110.754 31.8237 110.424 31.8438L75.078 33.724C74.9392 33.7313 74.8005 33.7066 74.6727 33.6519C74.5448 33.5972 74.4312 33.5139 74.3406 33.4084C74.25 33.303 74.1848 33.1781 74.1499 33.0435C74.1151 32.9089 74.1116 32.7681 74.1398 32.6319L74.2034 32.3184L84.7371 31.7573L111.962 30.3109Z" fill="black"/>
<path d="M92.2842 24.3268L87.7706 25.4236L89.2507 26.0027L87.588 27.1068L87.9652 27.6318L89.628 26.5265L89.6712 28.0607L92.2842 24.3268Z" fill="#009DFF" stroke="white" stroke-width="1.13" stroke-miterlimit="10"/>
<path d="M29.3054 70.1342L29.2021 69.9492C29.2309 70.0005 29.2472 70.0579 29.2498 70.1167C29.2523 70.1755 29.2411 70.234 29.2169 70.2877C29.1927 70.3413 29.1563 70.3885 29.1105 70.4255C29.0647 70.4625 29.0109 70.4882 28.9534 70.5007L17.962 72.8878L10.8858 74.4244C10.8363 74.4344 10.7852 74.4343 10.7357 74.4242C10.6862 74.4141 10.6392 74.3941 10.5975 74.3655L10.1866 74.7764C10.2693 74.9082 10.3906 75.0113 10.534 75.0717C10.6774 75.1321 10.8359 75.1469 10.988 75.114L17.956 73.6014L28.8045 71.2419C28.92 71.2167 29.028 71.1648 29.1199 71.0904C29.2118 71.016 29.285 70.9211 29.3336 70.8134C29.3823 70.7056 29.4051 70.588 29.4002 70.4699C29.3953 70.3517 29.3629 70.2364 29.3054 70.133V70.1342Z" fill="#00CFFF"/>
<path d="M13.798 71.159L10.5976 74.3655C10.64 74.395 10.688 74.4154 10.7386 74.4255C10.7893 74.4356 10.8414 74.4352 10.8919 74.4244L17.968 72.8878L28.9595 70.5007C29.017 70.4883 29.0708 70.4625 29.1166 70.4255C29.1623 70.3885 29.1987 70.3413 29.2229 70.2877C29.2471 70.2341 29.2584 70.1755 29.2558 70.1167C29.2533 70.0579 29.2369 70.0006 29.2082 69.9492L24.7931 62.0105C24.7539 61.9399 24.693 61.8838 24.6194 61.8505C24.5459 61.8171 24.4635 61.8084 24.3846 61.8255L14.4624 63.9808L10.326 64.8746L13.798 68.3466C14.1708 68.7197 14.3802 69.2254 14.3802 69.7528C14.3802 70.2802 14.1708 70.786 13.798 71.159Z" fill="#C0FCFF"/>
<path d="M10.4774 74.2454L6.06235 66.3006C6.03596 66.2528 6.02047 66.1997 6.01698 66.1451C6.0135 66.0905 6.02211 66.0359 6.04219 65.985C6.06228 65.9342 6.09334 65.8884 6.13317 65.851C6.173 65.8135 6.2206 65.7853 6.27259 65.7684H6.25577C6.12382 65.796 6.00246 65.8606 5.90588 65.9547C5.80929 66.0487 5.74147 66.1683 5.71034 66.2994L5.69953 66.3415C5.65768 66.5148 5.68255 66.6975 5.76921 66.8533L10.1591 74.7451C10.1651 74.7572 10.1735 74.768 10.1807 74.78L10.5976 74.3655C10.5491 74.3348 10.5081 74.2938 10.4774 74.2454Z" fill="black"/>
<path d="M6.27247 65.7685C6.22049 65.7854 6.17288 65.8136 6.13306 65.851C6.09323 65.8885 6.06216 65.9342 6.04208 65.9851C6.02199 66.0359 6.01338 66.0906 6.01687 66.1451C6.02035 66.1997 6.03584 66.2528 6.06223 66.3007L10.4773 74.2454C10.508 74.2938 10.549 74.3349 10.5974 74.3655L13.8039 71.1591C14.176 70.7861 14.3849 70.2808 14.3849 69.754C14.3849 69.2273 14.176 68.722 13.8039 68.349L10.3259 64.8746L6.31092 65.7468C6.2965 65.7528 6.28689 65.7637 6.27247 65.7685Z" fill="#40E4FF"/>
<path fill-rule="evenodd" clip-rule="evenodd" d="M25.0048 59.52C25.0048 59.52 25.0048 59.52 25.0048 59.52L6.93724 63.4413C6.8878 63.452 6.8415 63.4741 6.80216 63.5059C6.76283 63.5377 6.73151 63.5783 6.71072 63.6244C6.68992 63.6705 6.68024 63.7208 6.68245 63.7714C6.68465 63.8219 6.69868 63.8712 6.72341 63.9153L6.7235 63.9155L11.1387 71.8532C11.1721 71.9141 11.2244 71.9625 11.2876 71.9912C11.3509 72.0198 11.4217 72.0272 11.4895 72.0121L11.4897 72.0121L29.5573 68.0884L29.5576 68.0883C29.607 68.0778 29.6534 68.0559 29.6928 68.0243C29.7323 67.9927 29.7638 67.9522 29.7848 67.9062C29.8058 67.8602 29.8157 67.81 29.8137 67.7594C29.8117 67.7089 29.7979 67.6596 29.7734 67.6154M29.7734 67.6154L25.356 59.6791C25.3223 59.6184 25.2699 59.5701 25.2067 59.5414C25.1434 59.5128 25.0726 59.5053 25.0048 59.52M24.9824 59.4168C25.0724 59.3973 25.1663 59.4072 25.2502 59.4452C25.3341 59.4832 25.4035 59.5472 25.4482 59.6277M25.4482 59.6277L29.8657 67.564C29.8982 67.6227 29.9166 67.6883 29.9192 67.7553C29.9218 67.8223 29.9087 67.8891 29.8808 67.9501C29.853 68.0111 29.8112 68.0648 29.7588 68.1067C29.7065 68.1486 29.6451 68.1777 29.5795 68.1916C29.5794 68.1916 29.5795 68.1916 29.5795 68.1916L11.5123 72.1152C11.5123 72.1152 11.5124 72.1152 11.5123 72.1152C11.4223 72.1352 11.3281 72.1254 11.244 72.0873C11.16 72.0493 11.0906 71.985 11.0462 71.9041C11.0462 71.9041 11.0462 71.9042 11.0462 71.9041L6.6313 63.9669C6.63129 63.9669 6.63131 63.967 6.6313 63.9669C6.59851 63.9084 6.57987 63.843 6.57695 63.776C6.57402 63.7089 6.58687 63.6421 6.61445 63.581C6.64204 63.5198 6.68359 63.466 6.73578 63.4238C6.78796 63.3816 6.84931 63.3522 6.9149 63.3381L24.9824 59.4168" fill="#00CFFF"/>
<path fill-rule="evenodd" clip-rule="evenodd" d="M86.8456 87.0521H86.8696C86.8557 86.9812 86.8477 86.9093 86.8456 86.8371C86.8349 86.7663 86.8309 86.6947 86.8336 86.6232C86.8312 86.543 86.8352 86.4626 86.8456 86.383C86.8865 85.9573 87.0421 85.5507 87.2959 85.2065C87.5496 84.8622 87.8919 84.5933 88.2864 84.4282C88.6809 84.2631 89.1128 84.2081 89.536 84.2691C89.9593 84.33 90.3581 84.5046 90.69 84.7743C90.9877 84.1637 91.4505 83.6487 92.0259 83.2877C92.6014 82.9267 93.2665 82.7342 93.9458 82.732C94.3181 82.7265 94.6888 82.783 95.0426 82.899C95.3662 81.7324 96.0613 80.7032 97.0225 79.9673C97.9838 79.2314 99.1587 78.829 100.369 78.821C101.58 78.813 102.76 79.1998 103.731 79.9229C104.702 80.646 105.41 81.6659 105.749 82.8281C106.022 82.7599 106.302 82.7276 106.583 82.732C108.432 82.732 110.817 84.0799 111.028 85.8688L111.314 87.5375H86.8456V87.0521Z" fill="#80F3FF"/>
<path fill-rule="evenodd" clip-rule="evenodd" d="M103.725 80.8146C102.767 80.1016 101.603 79.7201 100.408 79.7282C99.214 79.7362 98.0549 80.1333 97.1066 80.8592C96.1582 81.5851 95.4723 82.6003 95.1528 83.7511L95.1322 83.825L95.0593 83.801C94.713 83.6869 94.35 83.6317 93.9854 83.6377L93.9844 83.6377C93.3189 83.6398 92.6674 83.8285 92.1037 84.1822C91.54 84.5359 91.0868 85.0406 90.7954 85.6389L90.7553 85.7213L90.6838 85.6639C90.3618 85.4056 89.976 85.2391 89.5672 85.182C89.1584 85.1249 88.7417 85.1793 88.3612 85.3395C87.9808 85.4997 87.6507 85.7597 87.4058 86.092C87.1609 86.4243 87.0104 86.8166 86.9701 87.2274L86.9699 87.2286L86.9698 87.2297C86.9599 87.3055 86.9561 87.382 86.9584 87.4584L86.9585 87.4613L86.9583 87.4642C86.955 87.5296 86.9577 87.5952 86.9662 87.6601L86.9667 87.6637L86.9668 87.6673C86.9689 87.7354 86.9762 87.8032 86.9884 87.8703L87.0042 87.9566H86.9668V88.2956H111.267L110.995 86.7106L110.995 86.7087C110.892 85.8442 110.263 85.0767 109.418 84.5227C108.575 83.9692 107.531 83.6377 106.623 83.6377L106.622 83.6377C106.347 83.6337 106.072 83.6649 105.805 83.7305L105.737 83.7472L105.717 83.6799C105.382 82.5336 104.683 81.5277 103.725 80.8146ZM86.8312 87.8102C86.8256 87.7655 86.8221 87.7206 86.8206 87.6755C86.8114 87.604 86.8085 87.5318 86.8119 87.4598C86.8097 87.377 86.8138 87.2941 86.8245 87.212C86.8675 86.7753 87.0276 86.3584 87.2879 86.0051C87.5485 85.6516 87.8997 85.375 88.3044 85.2046C88.7092 85.0342 89.1525 84.9763 89.5874 85.037C89.9926 85.0936 90.3765 85.2512 90.7041 85.4946C91.0081 84.9068 91.4644 84.4106 92.0259 84.0582C92.6126 83.69 93.2908 83.4936 93.9834 83.4913C94.3388 83.4855 94.6928 83.5353 95.0325 83.6389C95.369 82.4876 96.0641 81.4728 97.0176 80.7429C97.9912 79.9977 99.1812 79.59 100.407 79.5818C101.633 79.5735 102.829 79.9651 103.812 80.6972C104.777 81.4155 105.487 82.4231 105.838 83.5724C106.096 83.5147 106.359 83.4875 106.623 83.4913C107.563 83.4914 108.635 83.8332 109.499 84.4003C110.361 84.9664 111.03 85.766 111.14 86.6895L111.441 88.442H86.8204V87.8102H86.8312Z" fill="black"/>
</g>
<defs>
<clipPath id="clip0_1313_6083">
<rect width="120" height="120" fill="white" transform="translate(0.265625)"/>
</clipPath>
</defs>
</svg>
