<svg width="116" height="120" viewBox="0 0 116 120" fill="none" xmlns="http://www.w3.org/2000/svg">
<g clip-path="url(#clip0_1313_2332)">
<path d="M120.266 0H0.265625V120H120.266V0Z" fill="white"/>
<path fill-rule="evenodd" clip-rule="evenodd" d="M112.615 65.1161C112.775 63.4373 112.855 61.7386 112.855 60.0198C112.867 51.6076 110.854 43.3161 106.987 35.8456H106.976C99.2594 20.9497 84.6206 10.2117 67.3135 7.90268C67.3135 7.89981 67.3124 7.89706 67.3103 7.89503C67.3083 7.89301 67.3055 7.89187 67.3027 7.89187C64.9683 7.57804 62.6155 7.42191 60.2602 7.42453C41.801 7.42453 25.5535 16.9503 16.1839 31.3476C11.021 39.2833 8.09637 48.4656 7.71883 57.9254C7.3413 67.3852 9.52484 76.7714 14.0389 85.0933C18.553 93.4151 25.2302 100.364 33.3657 105.206C41.5011 110.048 50.7929 112.604 60.2602 112.603C76.1448 112.603 90.3824 105.567 100.026 94.4418C107.172 86.2148 111.573 75.9632 112.615 65.1161ZM97.115 63.6059C97.2303 62.4246 97.288 61.2284 97.288 60.0174C97.2963 54.0955 95.8792 48.2586 93.1564 42.9998H93.148C87.7154 32.513 77.4111 24.9515 65.2279 23.3284C65.2279 23.3265 65.2271 23.3247 65.2258 23.3233C65.2244 23.322 65.2226 23.3212 65.2207 23.3212C57.913 22.3397 50.4787 23.5641 43.8718 26.8373C37.2649 30.1105 31.7867 35.2833 28.1402 41.6917C24.4938 48.1002 22.8453 55.4521 23.4064 62.804C23.9676 70.1559 26.7127 77.1725 31.2895 82.9533C35.8663 88.7342 42.0661 93.0156 49.0932 95.2482C56.1204 97.4808 63.6543 97.5628 70.7284 95.4836C77.8025 93.4044 84.0939 89.2589 88.7954 83.579C93.4969 77.8991 96.394 70.9439 97.115 63.6059Z" fill="#D1F2FA"/>
<g opacity="0.8">
<path fill-rule="evenodd" clip-rule="evenodd" d="M21.6472 34.8971C29.8583 22.2873 44.0927 13.9401 60.2663 13.9401V16.9401C45.1492 16.9401 31.8412 24.7389 24.1603 36.5355L24.1594 36.5369C19.6022 43.5187 17.1817 51.6788 17.195 60.0162L17.195 60.1844H14.195V60.0197C14.1811 51.0987 16.771 42.3676 21.6472 34.8971Z" fill="#0080FF"/>
<path fill-rule="evenodd" clip-rule="evenodd" d="M66.4158 14.3467C66.4741 14.3539 66.5318 14.3645 66.5887 14.3784C81.6473 16.4344 94.3774 25.7812 101.134 38.7233C101.157 38.7597 101.178 38.7973 101.198 38.836C104.587 45.3838 106.35 52.6511 106.338 60.0238V60.0257L106.337 60.026L106.338 60.0263V60.1892H103.338V60.0208C103.349 53.1696 101.721 46.4156 98.5898 40.3231C98.5681 40.2884 98.5476 40.2527 98.5286 40.216C92.2019 28.0156 80.2107 19.2188 66.0427 17.3319C65.9901 17.3249 65.9385 17.3152 65.888 17.303C64.0247 17.0592 62.1473 16.938 60.268 16.9402L60.2645 13.9402C62.3217 13.9378 64.3768 14.0736 66.4158 14.3467Z" fill="#0045F6"/>
<path fill-rule="evenodd" clip-rule="evenodd" d="M106.337 60.192C106.333 61.6399 106.262 63.0711 106.125 64.4855L106.125 64.487C105.013 75.8781 99.7013 86.4477 91.2243 94.1377C82.7472 101.828 71.7116 106.087 60.2663 106.088L60.2662 103.088C70.9664 103.087 81.2835 99.1049 89.2086 91.9157C97.1334 84.7268 102.099 74.8459 103.139 64.1969C103.267 62.8769 103.333 61.5386 103.338 60.1817L106.337 60.192Z" fill="black"/>
<path fill-rule="evenodd" clip-rule="evenodd" d="M27.7541 92.654C19.1205 84.0527 14.2445 72.3824 14.1926 60.1956L17.1926 60.1829C17.2411 71.5765 21.7997 82.4872 29.8714 90.5287C37.9431 98.5701 48.8709 103.088 60.2646 103.094L60.2631 106.094C48.0762 106.087 36.3877 101.255 27.7541 92.654Z" fill="#80DBFF"/>
</g>
<path d="M19.6367 39.5567L24.7726 53.2548L40.9192 96.3328L42.5903 100.792L47.4151 99.007L74.1818 89.0981L61.7956 56.149L55.4895 39.3741L55.4163 39.1758L37.5433 32.9286L19.6367 39.5567Z" fill="#0045F6"/>
<path d="M43.4613 36.7851L31.3418 41.2711C31.8639 42.6813 31.8045 44.2412 31.1766 45.6076C30.5487 46.9741 29.4037 48.0351 27.9935 48.5574L43.0697 88.5202C43.7685 88.2607 44.5115 88.1416 45.2564 88.1695C46.0013 88.1975 46.7334 88.372 47.4107 88.6831C48.0881 88.9941 48.6976 89.4357 49.2042 89.9825C49.7108 90.5293 50.1047 91.1705 50.3633 91.8696L62.4828 87.3825C61.9603 85.973 62.0189 84.4138 62.6456 83.0475C63.2724 81.6811 64.4159 80.6196 65.825 80.0961L50.7477 40.1345C50.0493 40.3931 49.3069 40.5115 48.5628 40.4831C47.8187 40.4546 47.0874 40.2799 46.4108 39.9689C45.7342 39.6579 45.1255 39.2166 44.6194 38.6703C44.1133 38.1241 43.7198 37.4835 43.4613 36.7851Z" fill="#00CFFF"/>
<path d="M43.3387 53.8003C41.5926 54.4467 40.0774 55.5964 38.9847 57.1039C37.892 58.6115 37.2708 60.4092 37.1998 62.2698C37.1288 64.1304 37.6112 65.9702 38.5858 67.5567C39.5605 69.1431 40.9837 70.4049 42.6755 71.1825C44.3673 71.9601 46.2516 72.2186 48.0903 71.9252C49.929 71.6318 51.6394 70.7998 53.0052 69.5344C54.371 68.2689 55.3309 66.6269 55.7634 64.8159C56.196 63.0049 56.0819 61.1064 55.4354 59.3603C54.5686 57.0189 52.8071 55.1177 50.5386 54.075C48.27 53.0323 45.6801 52.9335 43.3387 53.8003Z" fill="#C0F0FF"/>
<path d="M37.5433 32.9286L44.6555 45.7942L55.4896 39.3741L55.6722 39.2659L55.4163 39.1758L37.5433 32.9286Z" fill="#0045F6"/>
<g style="mix-blend-mode:color-burn" opacity="0.2">
<path d="M57.0802 43.6702L44.6555 45.7943L55.4896 39.3741L57.0802 43.6702Z" fill="#193F1E"/>
</g>
<g style="mix-blend-mode:color-burn" opacity="0.2">
<path d="M37.5433 32.9286L44.6554 45.7942L36.3551 33.3684L37.5433 32.9286Z" fill="#193F1E"/>
</g>
<path d="M53.3979 54.2159V106.456H90.0905V54.2159H64.268C64.2428 46.9884 61.8196 41.1497 58.8342 41.1497C55.8488 41.1497 53.428 46.9884 53.3991 54.2159H53.3979Z" fill="#0045F6"/>
<path d="M58.8354 99.8228H84.6519L84.6519 41.2002H58.8354L58.8354 99.8228Z" fill="#00CFFF"/>
<path d="M62.5848 71.2107C62.5846 73.0221 63.1215 74.793 64.1276 76.2993C65.1338 77.8056 66.564 78.9798 68.2374 79.6733C69.9108 80.3669 71.7523 80.5486 73.529 80.1956C75.3057 79.8426 76.9379 78.9708 78.2191 77.6902C79.5003 76.4097 80.3731 74.778 80.727 73.0014C81.0809 71.2249 80.9001 69.3833 80.2074 67.7095C79.5148 66.0357 78.3414 64.6049 76.8356 63.598C75.3298 62.5911 73.5592 62.0533 71.7478 62.0526C70.5448 62.0522 69.3535 62.2889 68.242 62.7489C67.1305 63.209 66.1205 63.8835 65.2696 64.7339C64.4187 65.5843 63.7437 66.594 63.2831 67.7053C62.8224 68.8166 62.5852 70.0077 62.5848 71.2107Z" fill="#C0F0FF"/>
<g style="mix-blend-mode:color-burn" opacity="0.2">
<path d="M53.3979 54.2159V57.9186H90.0905V41.1497H58.8342C55.8488 41.1497 53.428 46.9884 53.3991 54.2159H53.3979Z" fill="#193F1E"/>
</g>
<path d="M58.8342 41.1497C61.8197 41.1497 64.2404 46.9884 64.2681 54.216H100.961C100.934 46.9896 98.5111 41.1509 95.5256 41.1509L58.8342 41.1497Z" fill="#0045F6"/>
<path d="M65.455 41.1497C66.7765 41.1497 67.937 42.3511 68.6062 44.1532C70.6305 44.2024 72.2548 45.7582 72.2548 47.6696V47.6792H90.8065V47.6696C90.8065 45.9144 92.1761 44.4595 93.9673 44.194C93.3006 42.3607 92.1316 41.1461 90.8005 41.1461L65.455 41.1497Z" fill="#00CFFF"/>
<path d="M39.6553 115.193C49.1567 115.193 56.8591 113.795 56.8591 112.071C56.8591 110.346 49.1567 108.948 39.6553 108.948C30.1539 108.948 22.4515 110.346 22.4515 112.071C22.4515 113.795 30.1539 115.193 39.6553 115.193Z" fill="#0080FF"/>
<path d="M56.8603 106.966H22.4515V112.071H56.8603V106.966Z" fill="#0080FF"/>
<path d="M39.6553 110.089C49.1567 110.089 56.8591 108.691 56.8591 106.966C56.8591 105.242 49.1567 103.844 39.6553 103.844C30.1539 103.844 22.4515 105.242 22.4515 106.966C22.4515 108.691 30.1539 110.089 39.6553 110.089Z" fill="#80F3FF"/>
<path d="M44.1413 108.948C53.6427 108.948 61.3451 107.551 61.3451 105.826C61.3451 104.102 53.6427 102.704 44.1413 102.704C34.6399 102.704 26.9375 104.102 26.9375 105.826C26.9375 107.551 34.6399 108.948 44.1413 108.948Z" fill="#0080FF"/>
<path d="M61.3451 100.723H26.9363V105.827H61.3451V100.723Z" fill="#0080FF"/>
<path d="M44.1413 103.845C53.6427 103.845 61.3451 102.447 61.3451 100.723C61.3451 98.9982 53.6427 97.6003 44.1413 97.6003C34.6399 97.6003 26.9375 98.9982 26.9375 100.723C26.9375 102.447 34.6399 103.845 44.1413 103.845Z" fill="#80F3FF"/>
<path d="M40.5696 102.705C50.071 102.705 57.7734 101.307 57.7734 99.5825C57.7734 97.8581 50.071 96.4601 40.5696 96.4601C31.0682 96.4601 23.3658 97.8581 23.3658 99.5825C23.3658 101.307 31.0682 102.705 40.5696 102.705Z" fill="#0080FF"/>
<path d="M57.7746 94.4778H23.3658V99.5825H57.7746V94.4778Z" fill="#0080FF"/>
<path d="M40.5696 97.6003C50.071 97.6003 57.7734 96.2023 57.7734 94.4779C57.7734 92.7534 50.071 91.3555 40.5696 91.3555C31.0682 91.3555 23.3658 92.7534 23.3658 94.4779C23.3658 96.2023 31.0682 97.6003 40.5696 97.6003Z" fill="#80F3FF"/>
<path d="M34.0413 97.2314C43.5427 97.2314 51.2451 95.8335 51.2451 94.109C51.2451 92.3846 43.5427 90.9866 34.0413 90.9866C24.5399 90.9866 16.8375 92.3846 16.8375 94.109C16.8375 95.8335 24.5399 97.2314 34.0413 97.2314Z" fill="#0080FF"/>
<path d="M51.2463 89.0043H16.8375V94.109H51.2463V89.0043Z" fill="#0080FF"/>
<path d="M34.0413 92.1267C43.5427 92.1267 51.2451 90.7288 51.2451 89.0043C51.2451 87.2799 43.5427 85.882 34.0413 85.882C24.5399 85.882 16.8375 87.2799 16.8375 89.0043C16.8375 90.7288 24.5399 92.1267 34.0413 92.1267Z" fill="#80F3FF"/>
<path d="M39.6553 90.8196C49.1567 90.8196 56.8591 89.4217 56.8591 87.6972C56.8591 85.9728 49.1567 84.5748 39.6553 84.5748C30.1539 84.5748 22.4515 85.9728 22.4515 87.6972C22.4515 89.4217 30.1539 90.8196 39.6553 90.8196Z" fill="#0080FF"/>
<path d="M56.8603 82.5926H22.4515V87.6973H56.8603V82.5926Z" fill="#0080FF"/>
<path d="M39.6553 85.715C49.1567 85.715 56.8591 84.3171 56.8591 82.5926C56.8591 80.8682 49.1567 79.4702 39.6553 79.4702C30.1539 79.4702 22.4515 80.8682 22.4515 82.5926C22.4515 84.3171 30.1539 85.715 39.6553 85.715Z" fill="#80F3FF"/>
<path d="M79.5761 115.193C89.0775 115.193 96.7799 113.795 96.7799 112.071C96.7799 110.346 89.0775 108.948 79.5761 108.948C70.0747 108.948 62.3723 110.346 62.3723 112.071C62.3723 113.795 70.0747 115.193 79.5761 115.193Z" fill="#0080FF"/>
<path d="M96.7811 106.966H62.3723V112.071H96.7811V106.966Z" fill="#0080FF"/>
<path d="M79.5761 110.089C89.0775 110.089 96.7799 108.691 96.7799 106.966C96.7799 105.242 89.0775 103.844 79.5761 103.844C70.0747 103.844 62.3723 105.242 62.3723 106.966C62.3723 108.691 70.0747 110.089 79.5761 110.089Z" fill="#C0F0FF"/>
<path d="M84.0619 108.948C93.5633 108.948 101.266 107.551 101.266 105.826C101.266 104.102 93.5633 102.704 84.0619 102.704C74.5606 102.704 66.8582 104.102 66.8582 105.826C66.8582 107.551 74.5606 108.948 84.0619 108.948Z" fill="#0080FF"/>
<path d="M101.267 100.723H66.8582V105.827H101.267V100.723Z" fill="#0080FF"/>
<path d="M84.0619 103.845C93.5633 103.845 101.266 102.447 101.266 100.723C101.266 98.9982 93.5633 97.6003 84.0619 97.6003C74.5606 97.6003 66.8582 98.9982 66.8582 100.723C66.8582 102.447 74.5606 103.845 84.0619 103.845Z" fill="#C0F0FF"/>
<path d="M80.4903 102.705C89.9917 102.705 97.6941 101.307 97.6941 99.5825C97.6941 97.8581 89.9917 96.4601 80.4903 96.4601C70.9889 96.4601 63.2865 97.8581 63.2865 99.5825C63.2865 101.307 70.9889 102.705 80.4903 102.705Z" fill="#0080FF"/>
<path d="M97.6953 94.4778H63.2865V99.5825H97.6953V94.4778Z" fill="#0080FF"/>
<path d="M80.4903 97.6003C89.9917 97.6003 97.6941 96.2023 97.6941 94.4779C97.6941 92.7534 89.9917 91.3555 80.4903 91.3555C70.9889 91.3555 63.2865 92.7534 63.2865 94.4779C63.2865 96.2023 70.9889 97.6003 80.4903 97.6003Z" fill="#C0F0FF"/>
<path d="M32.4278 28.8367C34.6419 28.8367 36.4368 27.0419 36.4368 24.8277C36.4368 22.6136 34.6419 20.8187 32.4278 20.8187C30.2137 20.8187 28.4188 22.6136 28.4188 24.8277C28.4188 27.0419 30.2137 28.8367 32.4278 28.8367Z" fill="#C0F0FF" stroke="#0080FF" stroke-width="15" stroke-linejoin="round"/>
<path fill-rule="evenodd" clip-rule="evenodd" d="M6.29178 69.9577H6.3098C6.29905 69.9042 6.29302 69.85 6.29178 69.7955C6.28318 69.7423 6.27996 69.6883 6.28217 69.6345C6.28034 69.5747 6.28356 69.5148 6.29178 69.4555C6.32406 69.1371 6.44181 68.8333 6.63257 68.5763C6.82332 68.3193 7.07999 68.1187 7.37542 67.9956C7.67085 67.8725 7.99406 67.8315 8.31086 67.877C8.62765 67.9225 8.92626 68.0528 9.17509 68.2541C9.39859 67.7961 9.74603 67.4098 10.178 67.1393C10.6099 66.8687 11.109 66.7247 11.6187 66.7235C11.8978 66.7173 12.176 66.758 12.4416 66.8437C12.6846 65.9681 13.2063 65.1955 13.9278 64.6431C14.6493 64.0907 15.5312 63.7886 16.4399 63.7824C17.3485 63.7763 18.2344 64.0666 18.9633 64.6093C19.6921 65.1519 20.2242 65.9174 20.4789 66.7896C20.6841 66.7395 20.8948 66.7157 21.106 66.7187C22.4936 66.7187 24.2837 67.7303 24.4447 69.0722L24.6537 70.3241H6.29178V69.9577Z" fill="#0045F6"/>
</g>
<defs>
<clipPath id="clip0_1313_2332">
<rect width="120" height="120" fill="white" transform="translate(0.265625)"/>
</clipPath>
</defs>
</svg>
