<svg width="116" height="120" viewBox="0 0 116 120" fill="none" xmlns="http://www.w3.org/2000/svg">
<g clip-path="url(#clip0_1313_8185)">
<path d="M120.266 0H0.265625V120H120.266V0Z" fill="white"/>
<path d="M115.945 55.5957L63.1631 2.81341C61.5605 1.21073 58.962 1.21073 57.3593 2.81341L4.57702 55.5957C2.97434 57.1984 2.97434 59.7968 4.57702 61.3995L57.3593 114.182C58.962 115.785 61.5605 115.785 63.1631 114.182L115.945 61.3995C117.548 59.7968 117.548 57.1984 115.945 55.5957Z" fill="#D1F2FA"/>
<path d="M60.2603 117.787C80.1031 117.787 96.1888 115.931 96.1888 113.641C96.1888 111.351 80.1031 109.495 60.2603 109.495C40.4175 109.495 24.3318 111.351 24.3318 113.641C24.3318 115.931 40.4175 117.787 60.2603 117.787Z" fill="#0045F6"/>
<path d="M96.1888 106.456H24.3318V113.64H96.1888V106.456Z" fill="#0045F6"/>
<path d="M60.2603 110.602C80.1031 110.602 96.1888 108.745 96.1888 106.456C96.1888 104.166 80.1031 102.31 60.2603 102.31C40.4175 102.31 24.3318 104.166 24.3318 106.456C24.3318 108.745 40.4175 110.602 60.2603 110.602Z" fill="#009DFF"/>
<path opacity="0.3" d="M60.2601 107.462C69.0675 107.462 76.2073 107.012 76.2073 106.456C76.2073 105.9 69.0675 105.449 60.2601 105.449C51.4528 105.449 44.313 105.9 44.313 106.456C44.313 107.012 51.4528 107.462 60.2601 107.462Z" fill="#0045F6"/>
<path d="M4.48242 74.8653L6.18358 74.2358C6.38581 73.8985 6.61354 73.5772 6.86476 73.2747C9.61953 69.9541 15.3766 67.836 19.6583 68.5665C20.0339 68.6324 20.4045 68.7248 20.7671 68.8428L22.5404 68.1868L23.7802 71.5351L23.7598 71.5435C24.1202 72.8302 23.7225 74.3776 22.4383 75.9309C19.6787 79.2456 13.9217 81.3636 9.63635 80.6331C7.65647 80.2944 6.33255 79.3969 5.74748 78.21L5.72225 78.2196L4.48242 74.8653Z" fill="#0045F6"/>
<path d="M15.4424 76.8335C20.4459 75.0143 23.6508 71.1981 22.6006 68.3097C21.5505 65.4213 16.643 64.5546 11.6395 66.3737C6.63599 68.1929 3.43114 72.0091 4.48128 74.8975C5.53142 77.7858 10.4389 78.6526 15.4424 76.8335Z" fill="#009DFF"/>
<path d="M108.254 42.9026L106.812 42.3679C106.64 42.0801 106.447 41.8054 106.235 41.5462C103.896 38.7278 99.0071 36.9293 95.3717 37.5492C95.0526 37.605 94.7379 37.6833 94.4298 37.7835L92.9245 37.2272L91.8721 40.0697L91.8889 40.0769C91.5802 41.169 91.9214 42.4797 93.0158 43.8012C95.3549 46.6196 100.242 48.4193 103.878 47.7982C105.559 47.5111 106.685 46.7494 107.183 45.7366L107.204 45.745L108.254 42.9026Z" fill="#0045F6"/>
<path d="M108.255 42.9289C109.147 40.4764 106.425 37.2361 102.177 35.6915C97.9286 34.1469 93.7618 34.8829 92.8701 37.3354C91.9785 39.7879 94.6996 43.0282 98.948 44.5728C103.196 46.1174 107.363 45.3814 108.255 42.9289Z" fill="#009DFF"/>
<path d="M89.4683 63.0028V96.5971C89.4686 97.2446 89.212 97.8659 88.7547 98.3245C88.2975 98.783 87.677 99.0415 87.0295 99.0431V66.2682C87.0291 65.6197 86.7713 64.9978 86.3126 64.5394C85.8539 64.0809 85.232 63.8234 84.5834 63.8234H34.5639C34.3457 63.8293 34.1285 63.7914 33.9252 63.712C33.7219 63.6326 33.5365 63.5132 33.3801 63.361C33.2236 63.2087 33.0993 63.0267 33.0144 62.8256C32.9295 62.6245 32.8857 62.4084 32.8857 62.1901C32.8857 61.9718 32.9295 61.7557 33.0144 61.5546C33.0993 61.3535 33.2236 61.1715 33.3801 61.0192C33.5365 60.867 33.7219 60.7476 33.9252 60.6682C34.1285 60.5888 34.3457 60.5509 34.5639 60.5568H87.0222C87.671 60.5568 88.2931 60.8145 88.7518 61.2732C89.2106 61.732 89.4683 62.3541 89.4683 63.0028Z" fill="#009DFF"/>
<path d="M79.7574 15.1374V73.1942H43.1861V14.3529C43.1845 13.4452 42.8228 12.5753 42.1804 11.934C41.538 11.2927 40.6674 10.9326 39.7598 10.9326H75.5465C76.0992 10.9318 76.6466 11.0399 77.1575 11.2509C77.6683 11.4619 78.1326 11.7715 78.5237 12.162C78.9148 12.5525 79.225 13.0163 79.4367 13.5269C79.6484 14.0374 79.7574 14.5847 79.7574 15.1374Z" fill="#00CFFF"/>
<path d="M84.5833 63.8234H34.5638C34.3493 63.8236 34.1369 63.7815 33.9386 63.6995C33.7404 63.6175 33.5603 63.4973 33.4086 63.3456C33.2568 63.194 33.1365 63.014 33.0543 62.8158C32.9722 62.6177 32.9299 62.4052 32.9299 62.1907V99.8637C32.9299 100.512 33.1876 101.135 33.6464 101.593C34.1051 102.052 34.7272 102.31 35.3759 102.31H84.5833C84.9046 102.31 85.2227 102.247 85.5196 102.124C85.8164 102.001 86.0861 101.821 86.3133 101.594C86.5404 101.366 86.7206 101.097 86.8435 100.8C86.9663 100.503 87.0295 100.185 87.0293 99.8637V66.2682C87.029 65.6197 86.7712 64.9979 86.3125 64.5394C85.8538 64.081 85.2319 63.8234 84.5833 63.8234Z" fill="black"/>
<path d="M84.6855 63.8234H35.197V99.8648C35.197 101.216 36.247 102.311 37.5409 102.311H84.6855C85.9806 102.311 87.0294 101.216 87.0294 99.8648V66.2682C87.0294 64.919 85.9806 63.8234 84.6855 63.8234Z" fill="#0045F6"/>
<path d="M75.6836 74.9073H88.7197C89.3685 74.9073 89.9906 75.1651 90.4493 75.6238C90.9081 76.0825 91.1658 76.7046 91.1658 77.3534V85.3413C91.1658 85.9901 90.9081 86.6122 90.4493 87.0709C89.9906 87.5297 89.3685 87.7874 88.7197 87.7874H75.6836C74.8379 87.7874 74.0006 87.6208 73.2193 87.2972C72.438 86.9736 71.7282 86.4993 71.1302 85.9013C70.5322 85.3033 70.0579 84.5935 69.7343 83.8122C69.4107 83.0309 69.2441 82.1936 69.2441 81.348C69.244 80.5022 69.4104 79.6647 69.734 78.8833C70.0575 78.1019 70.5318 77.3919 71.1298 76.7938C71.7277 76.1957 72.4377 75.7213 73.219 75.3976C74.0004 75.0739 74.8378 74.9073 75.6836 74.9073Z" fill="#009DFF"/>
<path d="M75.6799 84.7322C77.5497 84.7322 79.0654 83.2165 79.0654 81.3467C79.0654 79.477 77.5497 77.9612 75.6799 77.9612C73.8102 77.9612 72.2944 79.477 72.2944 81.3467C72.2944 83.2165 73.8102 84.7322 75.6799 84.7322Z" fill="#80F3FF"/>
<path d="M43.1863 14.3529V41.0981H36.3384V14.3529C36.3716 13.467 36.7468 12.6285 37.3853 12.0135C38.0238 11.3985 38.8758 11.0549 39.7623 11.0549C40.6488 11.0549 41.5008 11.3985 42.1393 12.0135C42.7778 12.6285 43.1531 13.467 43.1863 14.3529Z" fill="#0045F6"/>
<path d="M74.5495 21.1443H49.9355V23.9411H74.5495V21.1443Z" fill="#C0F0FF"/>
<path d="M74.5495 29.9456H49.9355V32.7424H74.5495V29.9456Z" fill="#C0F0FF"/>
<path d="M74.5495 38.7469H49.9355V41.5438H74.5495V38.7469Z" fill="#C0F0FF"/>
<path d="M74.5495 47.5483H49.9355V50.3451H74.5495V47.5483Z" fill="#C0F0FF"/>
<path fill-rule="evenodd" clip-rule="evenodd" d="M7.11348 44.9653H7.1315C7.12134 44.9122 7.11532 44.8584 7.11348 44.8043C7.10598 44.751 7.10317 44.6971 7.10507 44.6433C7.10344 44.5836 7.10625 44.5237 7.11348 44.4643C7.14461 44.1453 7.26152 43.8407 7.45181 43.5827C7.6421 43.3247 7.89867 43.1231 8.1943 42.9992C8.48992 42.8753 8.81358 42.8337 9.13093 42.8789C9.44828 42.924 9.74748 43.0543 9.99679 43.2557C10.2206 42.798 10.5681 42.412 11 42.1415C11.4319 41.871 11.9308 41.7268 12.4404 41.7252C12.7199 41.7195 12.9983 41.7601 13.2645 41.8453C13.5076 40.9698 14.0295 40.1973 14.751 39.645C15.4726 39.0927 16.3546 38.7907 17.2632 38.7847C18.1719 38.7787 19.0577 39.0691 19.7865 39.6119C20.5153 40.1546 21.0472 40.9202 21.3018 41.7925C21.5064 41.7413 21.7168 41.7171 21.9277 41.7204C23.3153 41.7204 25.1054 42.7319 25.2664 44.0739L25.4814 45.3269H7.11348V44.9653Z" fill="#0045F6"/>
<path fill-rule="evenodd" clip-rule="evenodd" d="M98.8486 74.5073H98.8655C98.8557 74.4542 98.8501 74.4003 98.8486 74.3463C98.8401 74.2931 98.8369 74.2392 98.839 74.1853C98.8372 74.1255 98.8404 74.0656 98.8486 74.0063C98.8798 73.6873 98.9967 73.3826 99.187 73.1247C99.3773 72.8667 99.6338 72.6651 99.9295 72.5412C100.225 72.4173 100.549 72.3757 100.866 72.4209C101.183 72.466 101.483 72.5963 101.732 72.7977C101.955 72.3399 102.303 71.9538 102.734 71.6832C103.166 71.4127 103.665 71.2686 104.174 71.2672C104.454 71.2615 104.732 71.3021 104.999 71.3873C105.242 70.5118 105.763 69.7393 106.485 69.187C107.207 68.6347 108.089 68.3327 108.997 68.3267C109.906 68.3207 110.792 68.6111 111.52 69.1539C112.249 69.6966 112.781 70.4622 113.036 71.3345C113.241 71.2833 113.452 71.2591 113.663 71.2624C115.049 71.2624 116.839 72.2739 117 73.6171L117.215 74.8701H98.8486V74.5073Z" fill="#3D76F4"/>
<path fill-rule="evenodd" clip-rule="evenodd" d="M100.096 13.9519C100.883 13.998 101.513 14.2336 101.959 14.6797L101.959 14.6798C102.521 15.2423 102.747 16.0974 102.682 17.1914C102.616 18.2859 102.257 19.6315 101.634 21.1921C100.387 24.3138 98.0727 28.3137 94.8834 32.9178C88.504 42.127 78.6142 53.7667 66.726 65.6555C54.8378 77.5443 43.1991 87.4347 33.9898 93.813C29.3858 97.0018 25.3856 99.315 22.2632 100.561C20.7024 101.183 19.3563 101.541 18.2613 101.605C17.1668 101.67 16.3111 101.442 15.7479 100.879L15.7477 100.879C15.2471 100.376 15.0132 99.6396 15.0159 98.7085C15.0186 97.7777 15.2574 96.6438 15.7115 95.3334C16.6198 92.7123 18.3958 89.3674 20.9032 85.495L21.0372 85.5818C18.5325 89.4499 16.7644 92.7823 15.8623 95.3857C15.4111 96.6875 15.1781 97.8027 15.1755 98.709C15.1729 99.615 15.4004 100.304 15.8607 100.766C16.3787 101.284 17.1807 101.509 18.2519 101.446C19.3228 101.383 20.6508 101.032 22.2041 100.412C25.3101 99.1733 29.2988 96.8679 33.899 93.6818C43.0982 87.3105 54.7296 77.4268 66.6131 65.5426C78.4967 53.6585 88.3798 42.0262 94.7522 32.8269C97.9388 28.2268 100.245 24.2383 101.486 21.1329C102.106 19.5799 102.458 18.2522 102.522 17.1818C102.587 16.111 102.363 15.3098 101.846 14.7926C101.436 14.3821 100.847 14.1558 100.086 14.1112C99.3251 14.0666 98.3968 14.2045 97.3162 14.5173L97.2718 14.364C98.362 14.0484 99.3097 13.9058 100.096 13.9519Z" fill="black"/>
<path d="M95.2121 12.9473L94.961 15.4954L88.6309 12.2961L85.4148 11.0972L94.6054 11.9153L95.2121 12.9473Z" fill="#009DFF"/>
<path d="M93.7379 13.5432L94.9609 15.4954L89.5247 13.2476L93.7379 13.5432Z" fill="#0045F6"/>
<path d="M93.738 13.5432L85.4148 11.0972L88.566 16.3148L93.738 13.5432Z" fill="#80F3FF"/>
<path d="M98.4858 11.0647L95.2121 12.9473L85.4148 11.0971L98.4858 11.0647Z" fill="#80F3FF"/>
</g>
<defs>
<clipPath id="clip0_1313_8185">
<rect width="120" height="120" fill="white" transform="translate(0.265625)"/>
</clipPath>
</defs>
</svg>
