<svg width="200" height="200" viewBox="0 0 200 200" fill="none" xmlns="http://www.w3.org/2000/svg">
<path d="M19.5 12.5H12.5V19.5H19.5V12.5Z" fill="#D6DBDB"/>
<path d="M26.5 12.5H19.5V19.5H26.5V12.5Z" fill="#D6DBDB"/>
<path d="M33.5 12.5H26.5V19.5H33.5V12.5Z" fill="#D6DBDB"/>
<path d="M40.5 12.5H33.5V19.5H40.5V12.5Z" fill="#D6DBDB"/>
<path d="M47.5 12.5H40.5V19.5H47.5V12.5Z" fill="#D6DBDB"/>
<path d="M54.5 12.5H47.5V19.5H54.5V12.5Z" fill="#D6DBDB"/>
<path d="M61.5 12.5H54.5V19.5H61.5V12.5Z" fill="#D6DBDB"/>
<path d="M75.5 12.5H68.5V19.5H75.5V12.5Z" fill="#D6DBDB"/>
<path d="M82.5 12.5H75.5V19.5H82.5V12.5Z" fill="#D6DBDB"/>
<path d="M124.5 12.5H117.5V19.5H124.5V12.5Z" fill="#D6DBDB"/>
<path d="M145.5 12.5H138.5V19.5H145.5V12.5Z" fill="#D6DBDB"/>
<path d="M152.5 12.5H145.5V19.5H152.5V12.5Z" fill="#D6DBDB"/>
<path d="M159.5 12.5H152.5V19.5H159.5V12.5Z" fill="#D6DBDB"/>
<path d="M166.5 12.5H159.5V19.5H166.5V12.5Z" fill="#D6DBDB"/>
<path d="M173.5 12.5H166.5V19.5H173.5V12.5Z" fill="#D6DBDB"/>
<path d="M180.5 12.5H173.5V19.5H180.5V12.5Z" fill="#D6DBDB"/>
<path d="M187.5 12.5H180.5V19.5H187.5V12.5Z" fill="#D6DBDB"/>
<path d="M19.5 19.5H12.5V26.5H19.5V19.5Z" fill="#D6DBDB"/>
<path d="M61.5 19.5H54.5L54.5 26.5H61.5V19.5Z" fill="#D6DBDB"/>
<path d="M89.5 19.5H82.5V26.5H89.5V19.5Z" fill="#D6DBDB"/>
<path d="M103.5 19.5H96.5V26.5H103.5V19.5Z" fill="#D6DBDB"/>
<path d="M117.5 19.5H110.5V26.5H117.5L117.5 19.5Z" fill="#D6DBDB"/>
<path d="M145.5 19.5H138.5V26.5H145.5V19.5Z" fill="#D6DBDB"/>
<path d="M187.5 19.5H180.5V26.5H187.5V19.5Z" fill="#D6DBDB"/>
<path d="M19.5 26.5H12.5V33.5H19.5V26.5Z" fill="#D6DBDB"/>
<path d="M33.5 26.5H26.5V33.5H33.5V26.5Z" fill="#D6DBDB"/>
<path d="M40.5 26.5H33.5V33.5H40.5V26.5Z" fill="#D6DBDB"/>
<path d="M47.5 26.5H40.5V33.5H47.5V26.5Z" fill="#D6DBDB"/>
<path d="M61.5 26.5H54.5V33.5H61.5V26.5Z" fill="#D6DBDB"/>
<path d="M75.5 26.5H68.5V33.5H75.5V26.5Z" fill="#D6DBDB"/>
<path d="M82.5 26.5H75.5V33.5H82.5V26.5Z" fill="#D6DBDB"/>
<path d="M124.5 26.5H117.5L117.5 33.5H124.5V26.5Z" fill="#D6DBDB"/>
<path d="M145.5 26.5H138.5V33.5H145.5V26.5Z" fill="#D6DBDB"/>
<path d="M159.5 26.5H152.5V33.5H159.5V26.5Z" fill="#D6DBDB"/>
<path d="M166.5 26.5H159.5V33.5H166.5V26.5Z" fill="#D6DBDB"/>
<path d="M173.5 26.5H166.5V33.5H173.5V26.5Z" fill="#D6DBDB"/>
<path d="M187.5 26.5H180.5V33.5H187.5V26.5Z" fill="#D6DBDB"/>
<path d="M19.5 33.5H12.5V40.5H19.5V33.5Z" fill="#D6DBDB"/>
<path d="M33.5 33.5H26.5V40.5H33.5V33.5Z" fill="#D6DBDB"/>
<path d="M40.5 33.5H33.5V40.5H40.5V33.5Z" fill="#D6DBDB"/>
<path d="M47.5 33.5H40.5V40.5H47.5V33.5Z" fill="#D6DBDB"/>
<path d="M61.5 33.5H54.5V40.5H61.5V33.5Z" fill="#D6DBDB"/>
<path d="M75.5 33.5H68.5V40.5H75.5V33.5Z" fill="#D6DBDB"/>
<path d="M89.5 33.5H82.5V40.5H89.5V33.5Z" fill="#D6DBDB"/>
<path d="M96.5 33.5H89.5V40.5H96.5V33.5Z" fill="#D6DBDB"/>
<path d="M110.5 33.5H103.5V40.5H110.5V33.5Z" fill="#D6DBDB"/>
<path d="M131.5 33.5H124.5V40.5H131.5V33.5Z" fill="#D6DBDB"/>
<path d="M145.5 33.5H138.5V40.5H145.5V33.5Z" fill="#D6DBDB"/>
<path d="M159.5 33.5H152.5V40.5H159.5V33.5Z" fill="#D6DBDB"/>
<path d="M166.5 33.5H159.5V40.5H166.5V33.5Z" fill="#D6DBDB"/>
<path d="M173.5 33.5H166.5V40.5H173.5V33.5Z" fill="#D6DBDB"/>
<path d="M187.5 33.5H180.5V40.5H187.5V33.5Z" fill="#D6DBDB"/>
<path d="M19.5 40.5H12.5V47.5H19.5V40.5Z" fill="#D6DBDB"/>
<path d="M33.5 40.5H26.5V47.5H33.5V40.5Z" fill="#D6DBDB"/>
<path d="M40.5 40.5H33.5V47.5H40.5V40.5Z" fill="#D6DBDB"/>
<path d="M47.5 40.5H40.5V47.5H47.5V40.5Z" fill="#D6DBDB"/>
<path d="M61.5 40.5H54.5V47.5H61.5V40.5Z" fill="#D6DBDB"/>
<path d="M89.5 40.5H82.5V47.5H89.5V40.5Z" fill="#D6DBDB"/>
<path d="M103.5 40.5H96.5V47.5H103.5V40.5Z" fill="#D6DBDB"/>
<path d="M110.5 40.5H103.5V47.5H110.5V40.5Z" fill="#D6DBDB"/>
<path d="M131.5 40.5H124.5V47.5H131.5V40.5Z" fill="#D6DBDB"/>
<path d="M145.5 40.5H138.5V47.5H145.5V40.5Z" fill="#D6DBDB"/>
<path d="M159.5 40.5H152.5V47.5H159.5V40.5Z" fill="#D6DBDB"/>
<path d="M166.5 40.5H159.5V47.5H166.5V40.5Z" fill="#D6DBDB"/>
<path d="M173.5 40.5H166.5V47.5H173.5V40.5Z" fill="#D6DBDB"/>
<path d="M187.5 40.5H180.5V47.5H187.5V40.5Z" fill="#D6DBDB"/>
<path d="M19.5 47.5H12.5V54.5H19.5V47.5Z" fill="#D6DBDB"/>
<path d="M61.5 47.5H54.5V54.5H61.5V47.5Z" fill="#D6DBDB"/>
<path d="M75.5 47.5H68.5V54.5H75.5V47.5Z" fill="#D6DBDB"/>
<path d="M89.5 47.5H82.5V54.5H89.5V47.5Z" fill="#D6DBDB"/>
<path d="M96.5 47.5H89.5V54.5H96.5V47.5Z" fill="#D6DBDB"/>
<path d="M110.5 47.5H103.5V54.5H110.5V47.5Z" fill="#D6DBDB"/>
<path d="M124.5 47.5H117.5V54.5H124.5V47.5Z" fill="#D6DBDB"/>
<path d="M145.5 47.5H138.5V54.5H145.5V47.5Z" fill="#D6DBDB"/>
<path d="M187.5 47.5H180.5V54.5H187.5V47.5Z" fill="#D6DBDB"/>
<path d="M19.5 54.5H12.5V61.5H19.5V54.5Z" fill="#D6DBDB"/>
<path d="M26.5 54.5L19.5 54.5V61.5H26.5V54.5Z" fill="#D6DBDB"/>
<path d="M33.5 54.5H26.5V61.5H33.5V54.5Z" fill="#D6DBDB"/>
<path d="M40.5 54.5H33.5V61.5H40.5V54.5Z" fill="#D6DBDB"/>
<path d="M47.5 54.5H40.5V61.5H47.5V54.5Z" fill="#D6DBDB"/>
<path d="M54.5 54.5L47.5 54.5V61.5H54.5L54.5 54.5Z" fill="#D6DBDB"/>
<path d="M61.5 54.5H54.5L54.5 61.5H61.5V54.5Z" fill="#D6DBDB"/>
<path d="M75.5 54.5H68.5V61.5H75.5V54.5Z" fill="#D6DBDB"/>
<path d="M89.5 54.5H82.5V61.5H89.5V54.5Z" fill="#D6DBDB"/>
<path d="M103.5 54.5H96.5V61.5H103.5V54.5Z" fill="#D6DBDB"/>
<path d="M117.5 54.5H110.5V61.5H117.5L117.5 54.5Z" fill="#D6DBDB"/>
<path d="M131.5 54.5L124.5 54.5V61.5H131.5V54.5Z" fill="#D6DBDB"/>
<path d="M145.5 54.5H138.5V61.5H145.5V54.5Z" fill="#D6DBDB"/>
<path d="M152.5 54.5L145.5 54.5V61.5H152.5V54.5Z" fill="#D6DBDB"/>
<path d="M159.5 54.5H152.5V61.5H159.5V54.5Z" fill="#D6DBDB"/>
<path d="M166.5 54.5H159.5V61.5H166.5V54.5Z" fill="#D6DBDB"/>
<path d="M173.5 54.5H166.5V61.5H173.5V54.5Z" fill="#D6DBDB"/>
<path d="M180.5 54.5L173.5 54.5V61.5H180.5V54.5Z" fill="#D6DBDB"/>
<path d="M187.5 54.5H180.5V61.5H187.5V54.5Z" fill="#D6DBDB"/>
<path d="M75.5 61.5H68.5V68.5H75.5V61.5Z" fill="#D6DBDB"/>
<path d="M89.5 61.5H82.5V68.5H89.5V61.5Z" fill="#D6DBDB"/>
<path d="M103.5 61.5H96.5V68.5H103.5V61.5Z" fill="#D6DBDB"/>
<path d="M117.5 61.5H110.5V68.5H117.5V61.5Z" fill="#D6DBDB"/>
<path d="M124.5 61.5H117.5V68.5H124.5V61.5Z" fill="#D6DBDB"/>
<path d="M131.5 61.5H124.5V68.5H131.5V61.5Z" fill="#D6DBDB"/>
<path d="M19.5 68.5H12.5V75.5H19.5V68.5Z" fill="#D6DBDB"/>
<path d="M26.5 68.5H19.5V75.5H26.5V68.5Z" fill="#D6DBDB"/>
<path d="M40.5 68.5H33.5V75.5H40.5V68.5Z" fill="#D6DBDB"/>
<path d="M61.5 68.5H54.5V75.5H61.5V68.5Z" fill="#D6DBDB"/>
<path d="M68.5 68.5H61.5V75.5H68.5V68.5Z" fill="#D6DBDB"/>
<path d="M82.5 68.5H75.5V75.5H82.5V68.5Z" fill="#D6DBDB"/>
<path d="M103.5 68.5H96.5V75.5H103.5V68.5Z" fill="#D6DBDB"/>
<path d="M131.5 68.5H124.5V75.5H131.5V68.5Z" fill="#D6DBDB"/>
<path d="M138.5 68.5H131.5V75.5H138.5V68.5Z" fill="#D6DBDB"/>
<path d="M145.5 68.5H138.5V75.5H145.5V68.5Z" fill="#D6DBDB"/>
<path d="M152.5 68.5H145.5V75.5H152.5V68.5Z" fill="#D6DBDB"/>
<path d="M166.5 68.5H159.5V75.5H166.5V68.5Z" fill="#D6DBDB"/>
<path d="M173.5 68.5H166.5V75.5H173.5V68.5Z" fill="#D6DBDB"/>
<path d="M187.5 68.5H180.5V75.5H187.5V68.5Z" fill="#D6DBDB"/>
<path d="M19.5 75.5H12.5V82.5H19.5V75.5Z" fill="#D6DBDB"/>
<path d="M33.5 75.5H26.5V82.5H33.5V75.5Z" fill="#D6DBDB"/>
<path d="M40.5 75.5H33.5V82.5H40.5V75.5Z" fill="#D6DBDB"/>
<path d="M47.5 75.5H40.5V82.5H47.5V75.5Z" fill="#D6DBDB"/>
<path d="M54.5 75.5H47.5V82.5H54.5L54.5 75.5Z" fill="#D6DBDB"/>
<path d="M82.5 75.5H75.5V82.5H82.5V75.5Z" fill="#D6DBDB"/>
<path d="M89.5 75.5H82.5V82.5H89.5V75.5Z" fill="#D6DBDB"/>
<path d="M96.5 75.5H89.5V82.5H96.5V75.5Z" fill="#D6DBDB"/>
<path d="M103.5 75.5H96.5V82.5H103.5V75.5Z" fill="#D6DBDB"/>
<path d="M110.5 75.5H103.5V82.5H110.5V75.5Z" fill="#D6DBDB"/>
<path d="M138.5 75.5H131.5V82.5H138.5V75.5Z" fill="#D6DBDB"/>
<path d="M152.5 75.5H145.5V82.5H152.5V75.5Z" fill="#D6DBDB"/>
<path d="M159.5 75.5H152.5V82.5H159.5V75.5Z" fill="#D6DBDB"/>
<path d="M180.5 75.5H173.5V82.5H180.5V75.5Z" fill="#D6DBDB"/>
<path d="M19.5 82.5H12.5V89.5H19.5V82.5Z" fill="#D6DBDB"/>
<path d="M33.5 82.5H26.5V89.5H33.5V82.5Z" fill="#D6DBDB"/>
<path d="M40.5 82.5H33.5V89.5H40.5V82.5Z" fill="#D6DBDB"/>
<path d="M47.5 82.5H40.5V89.5H47.5V82.5Z" fill="#D6DBDB"/>
<path d="M54.5 82.5H47.5V89.5H54.5V82.5Z" fill="#D6DBDB"/>
<path d="M61.5 82.5H54.5V89.5H61.5V82.5Z" fill="#D6DBDB"/>
<path d="M68.5 82.5H61.5V89.5H68.5V82.5Z" fill="#D6DBDB"/>
<path d="M82.5 82.5H75.5V89.5H82.5V82.5Z" fill="#D6DBDB"/>
<path d="M89.5 82.5H82.5V89.5H89.5V82.5Z" fill="#D6DBDB"/>
<path d="M110.5 82.5H103.5V89.5H110.5V82.5Z" fill="#D6DBDB"/>
<path d="M124.5 82.5H117.5V89.5H124.5V82.5Z" fill="#D6DBDB"/>
<path d="M131.5 82.5H124.5V89.5H131.5V82.5Z" fill="#D6DBDB"/>
<path d="M145.5 82.5H138.5V89.5H145.5V82.5Z" fill="#D6DBDB"/>
<path d="M187.5 82.5H180.5V89.5H187.5V82.5Z" fill="#D6DBDB"/>
<path d="M26.5 89.5H19.5V96.5H26.5V89.5Z" fill="#D6DBDB"/>
<path d="M40.5 89.5H33.5V96.5H40.5V89.5Z" fill="#D6DBDB"/>
<path d="M54.5 89.5H47.5V96.5H54.5V89.5Z" fill="#D6DBDB"/>
<path d="M75.5 89.5H68.5V96.5H75.5V89.5Z" fill="#D6DBDB"/>
<path d="M82.5 89.5H75.5V96.5H82.5V89.5Z" fill="#D6DBDB"/>
<path d="M96.5 89.5H89.5V96.5H96.5V89.5Z" fill="#D6DBDB"/>
<path d="M110.5 89.5H103.5V96.5H110.5V89.5Z" fill="#D6DBDB"/>
<path d="M117.5 89.5H110.5V96.5H117.5L117.5 89.5Z" fill="#D6DBDB"/>
<path d="M124.5 89.5H117.5L117.5 96.5H124.5V89.5Z" fill="#D6DBDB"/>
<path d="M152.5 89.5H145.5V96.5H152.5V89.5Z" fill="#D6DBDB"/>
<path d="M180.5 89.5H173.5V96.5H180.5V89.5Z" fill="#D6DBDB"/>
<path d="M187.5 89.5H180.5V96.5H187.5V89.5Z" fill="#D6DBDB"/>
<path d="M26.5 96.5H19.5V103.5H26.5V96.5Z" fill="#D6DBDB"/>
<path d="M33.5 96.5H26.5V103.5H33.5V96.5Z" fill="#D6DBDB"/>
<path d="M61.5 96.5H54.5L54.5 103.5H61.5V96.5Z" fill="#D6DBDB"/>
<path d="M68.5 96.5H61.5V103.5H68.5V96.5Z" fill="#D6DBDB"/>
<path d="M89.5 96.5H82.5V103.5H89.5V96.5Z" fill="#D6DBDB"/>
<path d="M96.5 96.5H89.5V103.5H96.5V96.5Z" fill="#D6DBDB"/>
<path d="M103.5 96.5H96.5V103.5H103.5V96.5Z" fill="#D6DBDB"/>
<path d="M110.5 96.5H103.5V103.5H110.5V96.5Z" fill="#D6DBDB"/>
<path d="M131.5 96.5H124.5V103.5H131.5V96.5Z" fill="#D6DBDB"/>
<path d="M180.5 96.5H173.5V103.5H180.5V96.5Z" fill="#D6DBDB"/>
<path d="M19.5 103.5H12.5V110.5H19.5V103.5Z" fill="#D6DBDB"/>
<path d="M26.5 103.5H19.5V110.5H26.5V103.5Z" fill="#D6DBDB"/>
<path d="M33.5 103.5H26.5V110.5H33.5V103.5Z" fill="#D6DBDB"/>
<path d="M40.5 103.5H33.5V110.5H40.5V103.5Z" fill="#D6DBDB"/>
<path d="M47.5 103.5H40.5V110.5H47.5V103.5Z" fill="#D6DBDB"/>
<path d="M54.5 103.5H47.5V110.5H54.5L54.5 103.5Z" fill="#D6DBDB"/>
<path d="M75.5 103.5H68.5V110.5H75.5V103.5Z" fill="#D6DBDB"/>
<path d="M82.5 103.5H75.5V110.5H82.5V103.5Z" fill="#D6DBDB"/>
<path d="M89.5 103.5H82.5V110.5H89.5V103.5Z" fill="#D6DBDB"/>
<path d="M117.5 103.5H110.5V110.5H117.5V103.5Z" fill="#D6DBDB"/>
<path d="M145.5 103.5H138.5V110.5H145.5V103.5Z" fill="#D6DBDB"/>
<path d="M152.5 103.5H145.5V110.5H152.5V103.5Z" fill="#D6DBDB"/>
<path d="M159.5 103.5H152.5V110.5H159.5V103.5Z" fill="#D6DBDB"/>
<path d="M180.5 103.5H173.5V110.5H180.5V103.5Z" fill="#D6DBDB"/>
<path d="M33.5 110.5H26.5V117.5H33.5V110.5Z" fill="#D6DBDB"/>
<path d="M40.5 110.5H33.5V117.5H40.5V110.5Z" fill="#D6DBDB"/>
<path d="M47.5 110.5H40.5V117.5H47.5V110.5Z" fill="#D6DBDB"/>
<path d="M54.5 110.5H47.5V117.5H54.5V110.5Z" fill="#D6DBDB"/>
<path d="M61.5 110.5H54.5V117.5H61.5V110.5Z" fill="#D6DBDB"/>
<path d="M103.5 110.5H96.5V117.5H103.5V110.5Z" fill="#D6DBDB"/>
<path d="M110.5 110.5H103.5V117.5H110.5V110.5Z" fill="#D6DBDB"/>
<path d="M124.5 110.5H117.5L117.5 117.5H124.5V110.5Z" fill="#D6DBDB"/>
<path d="M131.5 110.5H124.5V117.5H131.5V110.5Z" fill="#D6DBDB"/>
<path d="M138.5 110.5H131.5V117.5H138.5V110.5Z" fill="#D6DBDB"/>
<path d="M145.5 110.5H138.5V117.5H145.5V110.5Z" fill="#D6DBDB"/>
<path d="M152.5 110.5H145.5V117.5H152.5V110.5Z" fill="#D6DBDB"/>
<path d="M159.5 110.5H152.5V117.5H159.5V110.5Z" fill="#D6DBDB"/>
<path d="M173.5 110.5H166.5V117.5H173.5V110.5Z" fill="#D6DBDB"/>
<path d="M180.5 110.5H173.5V117.5H180.5V110.5Z" fill="#D6DBDB"/>
<path d="M33.5 117.5H26.5V124.5H33.5V117.5Z" fill="#D6DBDB"/>
<path d="M40.5 117.5H33.5V124.5H40.5V117.5Z" fill="#D6DBDB"/>
<path d="M47.5 117.5H40.5V124.5H47.5V117.5Z" fill="#D6DBDB"/>
<path d="M68.5 117.5L61.5 117.5V124.5H68.5V117.5Z" fill="#D6DBDB"/>
<path d="M75.5 117.5H68.5V124.5H75.5V117.5Z" fill="#D6DBDB"/>
<path d="M96.5 117.5L89.5 117.5V124.5H96.5V117.5Z" fill="#D6DBDB"/>
<path d="M110.5 117.5H103.5V124.5H110.5V117.5Z" fill="#D6DBDB"/>
<path d="M152.5 117.5H145.5V124.5H152.5V117.5Z" fill="#D6DBDB"/>
<path d="M180.5 117.5H173.5V124.5H180.5V117.5Z" fill="#D6DBDB"/>
<path d="M19.5 124.5H12.5V131.5H19.5V124.5Z" fill="#D6DBDB"/>
<path d="M26.5 124.5H19.5V131.5H26.5V124.5Z" fill="#D6DBDB"/>
<path d="M33.5 124.5H26.5V131.5H33.5V124.5Z" fill="#D6DBDB"/>
<path d="M47.5 124.5H40.5V131.5H47.5V124.5Z" fill="#D6DBDB"/>
<path d="M54.5 124.5H47.5V131.5H54.5V124.5Z" fill="#D6DBDB"/>
<path d="M61.5 124.5H54.5V131.5H61.5V124.5Z" fill="#D6DBDB"/>
<path d="M68.5 124.5H61.5V131.5H68.5V124.5Z" fill="#D6DBDB"/>
<path d="M75.5 124.5H68.5V131.5H75.5V124.5Z" fill="#D6DBDB"/>
<path d="M110.5 124.5H103.5V131.5H110.5V124.5Z" fill="#D6DBDB"/>
<path d="M124.5 124.5H117.5V131.5H124.5V124.5Z" fill="#D6DBDB"/>
<path d="M131.5 124.5H124.5V131.5H131.5V124.5Z" fill="#D6DBDB"/>
<path d="M138.5 124.5H131.5V131.5H138.5V124.5Z" fill="#D6DBDB"/>
<path d="M145.5 124.5H138.5V131.5H145.5V124.5Z" fill="#D6DBDB"/>
<path d="M152.5 124.5H145.5V131.5H152.5V124.5Z" fill="#D6DBDB"/>
<path d="M159.5 124.5H152.5V131.5H159.5V124.5Z" fill="#D6DBDB"/>
<path d="M166.5 124.5H159.5V131.5H166.5V124.5Z" fill="#D6DBDB"/>
<path d="M82.5 131.5H75.5V138.5H82.5V131.5Z" fill="#D6DBDB"/>
<path d="M89.5 131.5H82.5V138.5H89.5V131.5Z" fill="#D6DBDB"/>
<path d="M96.5 131.5H89.5V138.5H96.5V131.5Z" fill="#D6DBDB"/>
<path d="M103.5 131.5H96.5V138.5H103.5V131.5Z" fill="#D6DBDB"/>
<path d="M110.5 131.5H103.5V138.5H110.5V131.5Z" fill="#D6DBDB"/>
<path d="M124.5 131.5H117.5V138.5H124.5V131.5Z" fill="#D6DBDB"/>
<path d="M131.5 131.5H124.5V138.5H131.5V131.5Z" fill="#D6DBDB"/>
<path d="M159.5 131.5H152.5V138.5H159.5V131.5Z" fill="#D6DBDB"/>
<path d="M166.5 131.5H159.5V138.5H166.5V131.5Z" fill="#D6DBDB"/>
<path d="M173.5 131.5H166.5V138.5H173.5V131.5Z" fill="#D6DBDB"/>
<path d="M180.5 131.5H173.5V138.5H180.5V131.5Z" fill="#D6DBDB"/>
<path d="M19.5 138.5H12.5V145.5H19.5V138.5Z" fill="#D6DBDB"/>
<path d="M26.5 138.5H19.5V145.5H26.5V138.5Z" fill="#D6DBDB"/>
<path d="M33.5 138.5H26.5V145.5H33.5V138.5Z" fill="#D6DBDB"/>
<path d="M40.5 138.5H33.5V145.5H40.5V138.5Z" fill="#D6DBDB"/>
<path d="M47.5 138.5H40.5V145.5H47.5V138.5Z" fill="#D6DBDB"/>
<path d="M54.5 138.5H47.5V145.5H54.5V138.5Z" fill="#D6DBDB"/>
<path d="M61.5 138.5H54.5V145.5H61.5V138.5Z" fill="#D6DBDB"/>
<path d="M75.5 138.5H68.5V145.5H75.5V138.5Z" fill="#D6DBDB"/>
<path d="M96.5 138.5H89.5V145.5H96.5V138.5Z" fill="#D6DBDB"/>
<path d="M103.5 138.5H96.5V145.5H103.5V138.5Z" fill="#D6DBDB"/>
<path d="M110.5 138.5H103.5V145.5H110.5V138.5Z" fill="#D6DBDB"/>
<path d="M124.5 138.5H117.5V145.5H124.5V138.5Z" fill="#D6DBDB"/>
<path d="M131.5 138.5H124.5V145.5H131.5V138.5Z" fill="#D6DBDB"/>
<path d="M145.5 138.5H138.5V145.5H145.5V138.5Z" fill="#D6DBDB"/>
<path d="M159.5 138.5H152.5V145.5H159.5V138.5Z" fill="#D6DBDB"/>
<path d="M166.5 138.5H159.5V145.5H166.5V138.5Z" fill="#D6DBDB"/>
<path d="M173.5 138.5H166.5V145.5H173.5V138.5Z" fill="#D6DBDB"/>
<path d="M187.5 138.5H180.5V145.5H187.5V138.5Z" fill="#D6DBDB"/>
<path d="M19.5 145.5H12.5V152.5H19.5V145.5Z" fill="#D6DBDB"/>
<path d="M61.5 145.5H54.5L54.5 152.5H61.5V145.5Z" fill="#D6DBDB"/>
<path d="M82.5 145.5H75.5V152.5H82.5V145.5Z" fill="#D6DBDB"/>
<path d="M89.5 145.5H82.5V152.5H89.5V145.5Z" fill="#D6DBDB"/>
<path d="M96.5 145.5H89.5V152.5H96.5V145.5Z" fill="#D6DBDB"/>
<path d="M110.5 145.5H103.5V152.5H110.5V145.5Z" fill="#D6DBDB"/>
<path d="M124.5 145.5H117.5V152.5H124.5V145.5Z" fill="#D6DBDB"/>
<path d="M131.5 145.5H124.5V152.5H131.5V145.5Z" fill="#D6DBDB"/>
<path d="M159.5 145.5H152.5V152.5H159.5V145.5Z" fill="#D6DBDB"/>
<path d="M187.5 145.5H180.5V152.5H187.5V145.5Z" fill="#D6DBDB"/>
<path d="M19.5 152.5H12.5V159.5H19.5V152.5Z" fill="#D6DBDB"/>
<path d="M33.5 152.5H26.5V159.5H33.5V152.5Z" fill="#D6DBDB"/>
<path d="M40.5 152.5H33.5V159.5H40.5V152.5Z" fill="#D6DBDB"/>
<path d="M47.5 152.5H40.5V159.5H47.5V152.5Z" fill="#D6DBDB"/>
<path d="M61.5 152.5H54.5V159.5H61.5V152.5Z" fill="#D6DBDB"/>
<path d="M89.5 152.5H82.5V159.5H89.5V152.5Z" fill="#D6DBDB"/>
<path d="M103.5 152.5H96.5V159.5H103.5V152.5Z" fill="#D6DBDB"/>
<path d="M110.5 152.5H103.5V159.5H110.5V152.5Z" fill="#D6DBDB"/>
<path d="M117.5 152.5H110.5V159.5H117.5L117.5 152.5Z" fill="#D6DBDB"/>
<path d="M124.5 152.5H117.5L117.5 159.5H124.5V152.5Z" fill="#D6DBDB"/>
<path d="M131.5 152.5H124.5V159.5H131.5V152.5Z" fill="#D6DBDB"/>
<path d="M138.5 152.5H131.5V159.5H138.5V152.5Z" fill="#D6DBDB"/>
<path d="M145.5 152.5H138.5V159.5H145.5V152.5Z" fill="#D6DBDB"/>
<path d="M152.5 152.5H145.5V159.5H152.5V152.5Z" fill="#D6DBDB"/>
<path d="M159.5 152.5H152.5V159.5H159.5V152.5Z" fill="#D6DBDB"/>
<path d="M166.5 152.5H159.5V159.5H166.5V152.5Z" fill="#D6DBDB"/>
<path d="M173.5 152.5H166.5V159.5H173.5V152.5Z" fill="#D6DBDB"/>
<path d="M180.5 152.5H173.5V159.5H180.5V152.5Z" fill="#D6DBDB"/>
<path d="M187.5 152.5H180.5V159.5H187.5V152.5Z" fill="#D6DBDB"/>
<path d="M19.5 159.5H12.5V166.5H19.5V159.5Z" fill="#D6DBDB"/>
<path d="M33.5 159.5H26.5V166.5H33.5V159.5Z" fill="#D6DBDB"/>
<path d="M40.5 159.5H33.5V166.5H40.5V159.5Z" fill="#D6DBDB"/>
<path d="M47.5 159.5H40.5V166.5H47.5V159.5Z" fill="#D6DBDB"/>
<path d="M61.5 159.5H54.5V166.5H61.5V159.5Z" fill="#D6DBDB"/>
<path d="M75.5 159.5H68.5V166.5H75.5V159.5Z" fill="#D6DBDB"/>
<path d="M96.5 159.5H89.5V166.5H96.5V159.5Z" fill="#D6DBDB"/>
<path d="M131.5 159.5H124.5V166.5H131.5V159.5Z" fill="#D6DBDB"/>
<path d="M159.5 159.5H152.5V166.5H159.5V159.5Z" fill="#D6DBDB"/>
<path d="M166.5 159.5H159.5V166.5H166.5V159.5Z" fill="#D6DBDB"/>
<path d="M187.5 159.5H180.5V166.5H187.5V159.5Z" fill="#D6DBDB"/>
<path d="M19.5 166.5H12.5V173.5H19.5V166.5Z" fill="#D6DBDB"/>
<path d="M33.5 166.5H26.5V173.5H33.5V166.5Z" fill="#D6DBDB"/>
<path d="M40.5 166.5H33.5V173.5H40.5V166.5Z" fill="#D6DBDB"/>
<path d="M47.5 166.5H40.5V173.5H47.5V166.5Z" fill="#D6DBDB"/>
<path d="M61.5 166.5H54.5V173.5H61.5V166.5Z" fill="#D6DBDB"/>
<path d="M96.5 166.5H89.5V173.5H96.5V166.5Z" fill="#D6DBDB"/>
<path d="M103.5 166.5H96.5V173.5H103.5V166.5Z" fill="#D6DBDB"/>
<path d="M117.5 166.5H110.5V173.5H117.5V166.5Z" fill="#D6DBDB"/>
<path d="M131.5 166.5H124.5V173.5H131.5V166.5Z" fill="#D6DBDB"/>
<path d="M138.5 166.5H131.5V173.5H138.5V166.5Z" fill="#D6DBDB"/>
<path d="M145.5 166.5H138.5V173.5H145.5V166.5Z" fill="#D6DBDB"/>
<path d="M166.5 166.5H159.5V173.5H166.5V166.5Z" fill="#D6DBDB"/>
<path d="M173.5 166.5H166.5V173.5H173.5V166.5Z" fill="#D6DBDB"/>
<path d="M180.5 166.5H173.5V173.5H180.5V166.5Z" fill="#D6DBDB"/>
<path d="M187.5 166.5H180.5V173.5H187.5V166.5Z" fill="#D6DBDB"/>
<path d="M19.5 173.5H12.5V180.5H19.5V173.5Z" fill="#D6DBDB"/>
<path d="M61.5 173.5H54.5V180.5H61.5V173.5Z" fill="#D6DBDB"/>
<path d="M75.5 173.5H68.5V180.5H75.5V173.5Z" fill="#D6DBDB"/>
<path d="M82.5 173.5H75.5V180.5H82.5V173.5Z" fill="#D6DBDB"/>
<path d="M103.5 173.5H96.5V180.5H103.5V173.5Z" fill="#D6DBDB"/>
<path d="M117.5 173.5H110.5V180.5H117.5V173.5Z" fill="#D6DBDB"/>
<path d="M131.5 173.5H124.5V180.5H131.5V173.5Z" fill="#D6DBDB"/>
<path d="M145.5 173.5H138.5V180.5H145.5V173.5Z" fill="#D6DBDB"/>
<path d="M166.5 173.5H159.5V180.5H166.5V173.5Z" fill="#D6DBDB"/>
<path d="M173.5 173.5H166.5V180.5H173.5V173.5Z" fill="#D6DBDB"/>
<path d="M187.5 173.5H180.5V180.5H187.5V173.5Z" fill="#D6DBDB"/>
<path d="M19.5 180.5H12.5V187.5H19.5V180.5Z" fill="#D6DBDB"/>
<path d="M26.5 180.5H19.5V187.5H26.5V180.5Z" fill="#D6DBDB"/>
<path d="M33.5 180.5H26.5V187.5H33.5V180.5Z" fill="#D6DBDB"/>
<path d="M40.5 180.5H33.5V187.5H40.5V180.5Z" fill="#D6DBDB"/>
<path d="M47.5 180.5H40.5V187.5H47.5V180.5Z" fill="#D6DBDB"/>
<path d="M54.5 180.5H47.5V187.5H54.5L54.5 180.5Z" fill="#D6DBDB"/>
<path d="M61.5 180.5H54.5L54.5 187.5H61.5V180.5Z" fill="#D6DBDB"/>
<path d="M75.5 180.5H68.5V187.5H75.5V180.5Z" fill="#D6DBDB"/>
<path d="M103.5 180.5H96.5V187.5H103.5V180.5Z" fill="#D6DBDB"/>
<path d="M110.5 180.5H103.5V187.5H110.5V180.5Z" fill="#D6DBDB"/>
<path d="M124.5 180.5H117.5L117.5 187.5H124.5V180.5Z" fill="#D6DBDB"/>
<path d="M131.5 180.5H124.5V187.5H131.5V180.5Z" fill="#D6DBDB"/>
<path d="M138.5 180.5H131.5V187.5H138.5V180.5Z" fill="#D6DBDB"/>
<path d="M145.5 180.5H138.5V187.5H145.5V180.5Z" fill="#D6DBDB"/>
<path d="M152.5 180.5H145.5V187.5H152.5V180.5Z" fill="#D6DBDB"/>
<path d="M166.5 180.5H159.5V187.5H166.5V180.5Z" fill="#D6DBDB"/>
<path d="M187.5 180.5H180.5V187.5H187.5V180.5Z" fill="#D6DBDB"/>
</svg>
