<svg width="42" height="33" viewBox="0 0 42 33" fill="none" xmlns="http://www.w3.org/2000/svg">
<path d="M1.94348 13.3578C1.94348 15.5914 1.94348 17.8297 1.94348 20.0633C1.94348 20.3534 1.94348 20.6434 1.94348 20.9335C1.94348 21.1076 1.94831 21.2768 1.95798 21.4508C1.96282 21.5717 1.97249 21.6974 1.98216 21.8182C1.98699 21.8859 1.99666 21.9536 2.00149 22.0164C2.00633 22.06 2.01116 22.1035 2.016 22.147C2.0305 22.2533 2.02567 22.234 2.00633 22.089C1.99182 22.1808 2.04017 22.321 2.05951 22.4177C2.08368 22.5482 2.10785 22.6788 2.13686 22.8045C2.19004 23.0607 2.25772 23.3121 2.33024 23.5635C2.39793 23.7907 2.47528 24.0179 2.55746 24.2403C2.58164 24.3032 2.60581 24.3612 2.62515 24.4192C2.62998 24.4385 2.71217 24.6368 2.64932 24.4821C2.59131 24.3274 2.66866 24.5256 2.67833 24.5449C2.71217 24.6223 2.75085 24.6996 2.78469 24.777C2.99741 25.2217 3.23913 25.6472 3.50987 26.0581C3.58238 26.1645 3.6549 26.2708 3.72742 26.3724C3.75643 26.4159 3.79027 26.4594 3.81928 26.5029C3.86279 26.5609 3.91113 26.6818 3.80477 26.4836C3.91597 26.6963 4.13352 26.8897 4.29789 27.0685C4.64115 27.4456 5.00857 27.7985 5.405 28.1225C5.43884 28.1515 5.47269 28.1756 5.50169 28.2046C5.53553 28.2288 5.56938 28.2578 5.60322 28.282C5.49202 28.195 5.47752 28.1853 5.55971 28.2482C5.68057 28.3352 5.80143 28.4222 5.9223 28.5092C6.14952 28.6639 6.38641 28.8138 6.62814 28.9492C6.86986 29.0894 7.11643 29.2151 7.36782 29.3311C7.4065 29.3504 7.44517 29.3649 7.48385 29.3843C7.52253 29.4036 7.5612 29.4181 7.59988 29.4374C7.69657 29.481 7.67723 29.4713 7.5467 29.4133C7.64339 29.4955 7.85127 29.5341 7.9673 29.5776C8.48943 29.7662 9.02606 29.9112 9.57237 30.0128C9.69323 30.0369 9.87694 30.0998 9.9978 30.0804C9.95429 30.0756 9.91562 30.0708 9.87211 30.0611C9.91562 30.0659 9.95913 30.0708 10.0026 30.0756C10.08 30.0853 10.1573 30.0901 10.2347 30.0998C10.5393 30.1288 10.8438 30.1385 11.1484 30.1385C11.656 30.1385 12.1395 30.5832 12.1153 31.1054C12.0912 31.6275 11.6899 32.0723 11.1484 32.0723C8.93421 32.0626 6.71516 31.4003 4.88771 30.1336C3.05059 28.8621 1.65341 27.112 0.802531 25.0477C0.207884 23.5973 -8.75304e-07 22.06 -1.0114e-06 20.5032C-1.12467e-06 19.2076 -1.23836e-06 17.9071 -1.35163e-06 16.6114C-1.44672e-06 15.5237 -1.54182e-06 14.4359 -1.63692e-06 13.3481C-1.68129e-06 12.8405 0.444775 12.3571 0.966904 12.3812C1.4987 12.4151 1.94348 12.8163 1.94348 13.3578Z" fill="#0045F6"/>
<path d="M13.8027 1.9385C12.2605 1.9385 10.7182 1.9385 9.18087 1.9385C7.60964 1.9385 6.03359 1.92399 4.46237 1.9385C4.39468 1.9385 4.327 1.93849 4.25931 1.94333C4.2158 1.94816 4.17229 1.94816 4.12878 1.953C4.05143 1.95783 4.00308 2.00618 4.19163 1.94333C3.99825 2.00618 3.79037 2.02552 3.59215 2.0932C3.55347 2.1077 3.5148 2.12704 3.47129 2.13671C3.34075 2.17539 3.68884 2.03035 3.49546 2.12704C3.41811 2.16572 3.34559 2.19956 3.26824 2.24307C3.19572 2.28175 3.1232 2.33009 3.05068 2.3736C3.00717 2.40261 2.96366 2.44128 2.92015 2.46546C2.84763 2.50413 3.07969 2.32526 2.91532 2.47029C2.77995 2.58632 2.64942 2.70719 2.53339 2.84255C2.50438 2.8764 2.48021 2.9054 2.4512 2.93924C2.33034 3.07945 2.48988 2.8909 2.48504 2.8909C2.45604 2.88606 2.30617 3.1568 2.29166 3.18097C2.24332 3.26316 2.19981 3.34534 2.15629 3.43236C2.14663 3.44687 2.09828 3.54356 2.10312 3.54839C2.10312 3.55323 2.19014 3.31634 2.12729 3.49522C2.0596 3.6886 2.00159 3.88197 1.96291 4.08502C1.95808 4.1237 1.92907 4.2639 1.95324 4.11887C1.98225 3.94966 1.94841 4.16721 1.94841 4.18655C1.94358 4.27357 1.93874 4.36543 1.93874 4.45245C1.93874 4.46212 1.93874 4.47179 1.93874 4.48146C1.93874 4.54914 1.93874 4.62166 1.93874 4.68934C1.93874 4.99392 1.93874 5.29849 1.93874 5.60307C1.93874 7.72059 1.93874 9.84295 1.93874 11.9605C1.93874 12.56 1.93874 13.1643 1.93874 13.7638C1.93874 13.7734 1.93874 13.7879 1.93874 13.7976C1.93874 13.8556 1.93874 13.9088 1.94358 13.9668C1.94841 14.02 1.95325 14.078 1.95325 14.1312C1.96291 14.3149 1.92424 13.9813 1.94841 14.1022C1.98709 14.281 2.02093 14.4599 2.07894 14.6388C2.09345 14.6775 2.10795 14.721 2.12245 14.7597C2.19014 14.9627 2.04027 14.6195 2.11279 14.7355C2.16597 14.8274 2.20464 14.9289 2.25782 15.0207C2.30617 15.1029 2.35451 15.1851 2.40769 15.2625C2.41736 15.277 2.47538 15.364 2.48021 15.364C2.47538 15.364 2.34968 15.2093 2.44637 15.3156C2.5769 15.4655 2.71227 15.6105 2.86214 15.7459C2.88631 15.7652 2.95883 15.8474 2.983 15.8474C2.983 15.8474 2.78479 15.7072 2.93949 15.8088C3.01201 15.8571 3.07969 15.9054 3.15221 15.949C3.2344 15.9973 3.31658 16.0456 3.4036 16.0843C3.42294 16.094 3.53414 16.1617 3.54864 16.152C3.5293 16.1665 3.33592 16.0747 3.52447 16.1375C3.69851 16.1955 3.87255 16.2487 4.05143 16.2825C4.07077 16.2874 4.28832 16.3261 4.11911 16.297C3.97408 16.2729 4.11428 16.297 4.15296 16.297C4.25448 16.3067 4.35117 16.3115 4.4527 16.3115C4.49137 16.3115 4.52522 16.3115 4.56389 16.3115C4.81529 16.3115 5.06668 16.3115 5.32291 16.3115C6.30432 16.3115 7.28573 16.3115 8.26231 16.3115C10.0704 16.3115 11.8785 16.3115 13.6866 16.3115C13.7253 16.3115 13.764 16.3115 13.8027 16.3115C13.8704 16.3115 13.938 16.3115 14.0057 16.3067C14.0492 16.3019 14.0927 16.297 14.1363 16.297C14.3586 16.2825 13.9671 16.3309 14.1073 16.3019C14.3103 16.2584 14.5085 16.2197 14.7019 16.1472C14.7164 16.1423 14.8228 16.1085 14.8228 16.1037C14.8228 16.0988 14.6004 16.21 14.7696 16.1278C14.8566 16.0843 14.9388 16.0456 15.0258 15.9973C15.108 15.949 15.1902 15.9006 15.2675 15.8474C15.282 15.8378 15.3739 15.7798 15.3691 15.7749C15.3739 15.8039 15.195 15.92 15.3691 15.7701C15.5044 15.6541 15.6301 15.5284 15.751 15.393C15.78 15.3591 15.8042 15.3253 15.8332 15.2963C15.925 15.1948 15.7026 15.4945 15.8138 15.3156C15.8719 15.2286 15.9299 15.1416 15.983 15.0497C16.0266 14.9772 16.0652 14.8999 16.1039 14.8273C16.1039 14.8322 16.1619 14.721 16.1571 14.7113C16.1764 14.7403 16.0846 14.9144 16.1426 14.7355C16.2103 14.5373 16.2586 14.3439 16.3021 14.1408C16.336 13.991 16.3021 14.1989 16.2973 14.2037C16.307 14.1989 16.3118 14.0683 16.3118 14.0732C16.3166 13.9861 16.3215 13.8943 16.3215 13.8073C16.3215 13.7976 16.3215 13.7879 16.3215 13.7734C16.3215 13.5752 16.3215 13.377 16.3215 13.1739C16.3215 11.1241 16.3215 9.07426 16.3215 7.02925C16.3215 6.25573 16.3215 5.4822 16.3215 4.70868C16.3215 4.63616 16.3215 4.56848 16.3215 4.49596C16.3215 4.48629 16.3215 4.47662 16.3215 4.46212C16.3215 4.39444 16.3215 4.32675 16.3166 4.25907C16.3118 4.21556 16.3118 4.17205 16.307 4.12854C16.2925 3.90131 16.3505 4.34609 16.307 4.1237C16.2683 3.94483 16.2296 3.76595 16.1716 3.5919C16.1668 3.57257 16.1329 3.44687 16.1136 3.44203C16.1136 3.44203 16.2199 3.66442 16.1378 3.49521C16.0894 3.39852 16.0459 3.30667 15.9927 3.21481C15.9492 3.14229 15.9057 3.06977 15.8573 3.00209C15.8332 2.96341 15.7752 2.81838 15.8235 2.94891C15.8622 3.0601 15.838 2.96825 15.7993 2.92474C15.6688 2.77487 15.5334 2.62983 15.3787 2.4993C15.3787 2.4993 15.2965 2.41711 15.282 2.41711C15.3159 2.41711 15.4416 2.52831 15.3256 2.45579C15.2434 2.40261 15.1708 2.34943 15.0887 2.30108C15.0065 2.25274 14.9243 2.20923 14.8373 2.16572C14.8179 2.15605 14.7309 2.1077 14.7212 2.11254C14.7261 2.1077 14.9146 2.18506 14.7744 2.13671C14.5907 2.07386 14.407 2.01585 14.2136 1.97717C14.1749 1.9675 14.1218 1.9675 14.0831 1.953C14.2716 2.01585 14.2233 1.9675 14.1459 1.96267C14.0251 1.94333 13.9139 1.9385 13.8027 1.9385C13.295 1.93366 12.8116 1.49855 12.8358 0.97159C12.8599 0.454295 13.2612 -0.00015061 13.8027 0.00468387C15.7558 0.0240218 17.4963 1.31967 18.0667 3.19064C18.2891 3.91582 18.2504 4.67484 18.2504 5.42419C18.2504 7.59489 18.2504 9.7656 18.2504 11.9411C18.2504 12.5503 18.2553 13.1643 18.2504 13.7734C18.2408 15.4365 17.2932 17.0609 15.7752 17.7812C15.137 18.0858 14.4698 18.2454 13.7592 18.2454C13.5368 18.2454 13.3192 18.2454 13.0968 18.2454C12.1299 18.2454 11.1582 18.2454 10.1913 18.2454C8.31549 18.2454 6.43969 18.2454 4.56873 18.2454C3.03135 18.2454 1.64384 17.525 0.768786 16.2584C0.145132 15.3737 0.00976528 14.3536 0.00976519 13.3141C0.00976501 11.2401 0.00976483 9.16128 0.00976465 7.08727C0.00976458 6.28474 0.00976451 5.48221 0.00976444 4.68451C0.00976433 3.39369 0.425534 2.15605 1.38277 1.24716C2.11762 0.550987 3.02651 0.14972 4.02242 0.0336909C4.26415 0.00468369 4.50588 0.00468468 4.75244 0.00468466C5.58398 0.00468459 6.41068 0.00468452 7.24222 0.00468445C9.29689 0.00468427 11.3516 0.00468409 13.4014 0.00468391C13.5319 0.0046839 13.6673 0.00468388 13.7978 0.00468387C14.3055 0.00468383 14.7889 0.44946 14.7647 0.971589C14.7454 1.49372 14.3441 1.9385 13.8027 1.9385Z" fill="#0045F6"/>
<path d="M24.9894 13.3578C24.9894 15.5914 24.9894 17.8297 24.9894 20.0633C24.9894 20.3534 24.9894 20.6434 24.9894 20.9335C24.9894 21.1076 24.9942 21.2768 25.0039 21.4508C25.0087 21.5717 25.0184 21.6974 25.0281 21.8182C25.0329 21.8859 25.0426 21.9536 25.0474 22.0164C25.0522 22.06 25.0571 22.1035 25.0619 22.147C25.0764 22.2533 25.0716 22.234 25.0522 22.089C25.0377 22.1808 25.0861 22.321 25.1054 22.4177C25.1296 22.5482 25.1538 22.6788 25.1828 22.8045C25.2359 23.0607 25.3036 23.3121 25.3761 23.5635C25.4438 23.7907 25.5212 24.0179 25.6034 24.2403C25.6275 24.3032 25.6517 24.3612 25.671 24.4192C25.6759 24.4385 25.7581 24.6368 25.6952 24.4821C25.6372 24.3274 25.7146 24.5256 25.7242 24.5449C25.7581 24.6223 25.7967 24.6996 25.8306 24.777C26.0433 25.2217 26.285 25.6472 26.5558 26.0581C26.6283 26.1645 26.7008 26.2708 26.7733 26.3724C26.8023 26.4159 26.8362 26.4594 26.8652 26.5029C26.9087 26.5609 26.957 26.6818 26.8507 26.4836C26.9619 26.6963 27.1794 26.8897 27.3438 27.0685C27.687 27.4456 28.0545 27.7985 28.4509 28.1225C28.4847 28.1515 28.5186 28.1756 28.5476 28.2046C28.5814 28.2288 28.6153 28.2578 28.6491 28.282C28.5379 28.195 28.5234 28.1853 28.6056 28.2482C28.7265 28.3352 28.8473 28.4222 28.9682 28.5092C29.1954 28.6639 29.4323 28.8138 29.674 28.9492C29.9158 29.0894 30.1623 29.2151 30.4137 29.3311C30.4524 29.3504 30.4911 29.3649 30.5297 29.3843C30.5684 29.4036 30.6071 29.4181 30.6458 29.4374C30.7425 29.481 30.7231 29.4713 30.5926 29.4133C30.6893 29.4955 30.8972 29.5341 31.0132 29.5776C31.5353 29.7662 32.072 29.9112 32.6183 30.0128C32.7391 30.0369 32.9228 30.0998 33.0437 30.0804C33.0002 30.0756 32.9615 30.0708 32.918 30.0611C32.9615 30.0659 33.005 30.0708 33.0485 30.0756C33.1259 30.0853 33.2032 30.0901 33.2806 30.0998C33.5852 30.1288 33.8897 30.1385 34.1943 30.1385C34.7019 30.1385 35.1854 30.5832 35.1612 31.1054C35.1371 31.6275 34.7358 32.0723 34.1943 32.0723C31.9801 32.0626 29.7611 31.4003 27.9336 30.1336C26.0965 28.8621 24.6993 27.112 23.8484 25.0477C23.2538 23.5973 23.0459 22.06 23.0459 20.5032C23.0459 19.2076 23.0459 17.9071 23.0459 16.6114C23.0459 15.5237 23.0459 14.4359 23.0459 13.3481C23.0459 12.8405 23.4907 12.3571 24.0128 12.3812C24.5494 12.4151 24.9894 12.8163 24.9894 13.3578Z" fill="#0045F6"/>
<path d="M36.8487 1.9385C35.3065 1.9385 33.7642 1.9385 32.2269 1.9385C30.6556 1.9385 29.0796 1.92399 27.5084 1.9385C27.4407 1.9385 27.373 1.93849 27.3053 1.94333C27.2618 1.94816 27.2183 1.94816 27.1748 1.953C27.0974 1.95783 27.0491 2.00618 27.2376 1.94333C27.0442 2.00618 26.8364 2.02552 26.6381 2.0932C26.5995 2.1077 26.5608 2.12704 26.5173 2.13671C26.3867 2.17539 26.7348 2.03035 26.5415 2.12704C26.4641 2.16572 26.3916 2.19956 26.3142 2.24307C26.2417 2.28175 26.1692 2.33009 26.0967 2.3736C26.0532 2.40261 26.0097 2.44128 25.9661 2.46546C25.8936 2.50413 26.1257 2.32526 25.9613 2.47029C25.8259 2.58632 25.6954 2.70719 25.5794 2.84255C25.5504 2.8764 25.5262 2.9054 25.4972 2.93924C25.3763 3.07945 25.5359 2.8909 25.531 2.8909C25.502 2.88606 25.3522 3.1568 25.3377 3.18097C25.2893 3.26316 25.2458 3.34534 25.2023 3.43236C25.1926 3.44687 25.1443 3.54356 25.1491 3.54839C25.1491 3.55323 25.2361 3.31634 25.1733 3.49522C25.1056 3.6886 25.0476 3.88197 25.0089 4.08502C25.0041 4.1237 24.9751 4.2639 24.9992 4.11887C25.0282 3.94966 24.9944 4.16721 24.9944 4.18655C24.9896 4.27357 24.9847 4.36543 24.9847 4.45245C24.9847 4.46212 24.9847 4.47179 24.9847 4.48146C24.9847 4.54914 24.9847 4.62166 24.9847 4.68934C24.9847 4.99392 24.9847 5.29849 24.9847 5.60307C24.9847 7.72059 24.9847 9.84295 24.9847 11.9605C24.9847 12.56 24.9847 13.1643 24.9847 13.7638C24.9847 13.7734 24.9847 13.7879 24.9847 13.7976C24.9847 13.8556 24.9847 13.9088 24.9896 13.9668C24.9944 14.02 24.9992 14.078 24.9992 14.1312C25.0089 14.3149 24.9702 13.9813 24.9944 14.1022C25.0331 14.281 25.0669 14.4599 25.1249 14.6388C25.1394 14.6775 25.1539 14.721 25.1684 14.7597C25.2361 14.9627 25.0863 14.6195 25.1588 14.7355C25.212 14.8274 25.2506 14.9289 25.3038 15.0207C25.3522 15.1029 25.4005 15.1851 25.4537 15.2625C25.4634 15.277 25.5214 15.364 25.5262 15.364C25.5214 15.364 25.3957 15.2093 25.4924 15.3156C25.6229 15.4655 25.7583 15.6105 25.9081 15.7459C25.9323 15.7652 26.0048 15.8474 26.029 15.8474C26.029 15.8474 25.8308 15.7072 25.9855 15.8088C26.058 15.8571 26.1257 15.9054 26.1982 15.949C26.2804 15.9973 26.3626 16.0456 26.4496 16.0843C26.4689 16.094 26.5801 16.1617 26.5946 16.152C26.5753 16.1665 26.3819 16.0747 26.5705 16.1375C26.7445 16.1955 26.9185 16.2487 27.0974 16.2825C27.1168 16.2874 27.3343 16.3261 27.1651 16.297C27.0201 16.2729 27.1603 16.297 27.199 16.297C27.3005 16.3067 27.3972 16.3115 27.4987 16.3115C27.5374 16.3115 27.5712 16.3115 27.6099 16.3115C27.8613 16.3115 28.1127 16.3115 28.3689 16.3115C29.3503 16.3115 30.3317 16.3115 31.3083 16.3115C33.1164 16.3115 34.9245 16.3115 36.7326 16.3115C36.7713 16.3115 36.81 16.3115 36.8487 16.3115C36.9164 16.3115 36.984 16.3115 37.0517 16.3067C37.0952 16.3019 37.1387 16.297 37.1823 16.297C37.4046 16.2825 37.013 16.3309 37.1532 16.3019C37.3563 16.2584 37.5545 16.2197 37.7479 16.1472C37.7624 16.1423 37.8688 16.1085 37.8688 16.1037C37.8688 16.0988 37.6464 16.21 37.8156 16.1278C37.9026 16.0843 37.9848 16.0456 38.0718 15.9973C38.154 15.949 38.2362 15.9006 38.3135 15.8474C38.328 15.8378 38.4199 15.7798 38.4151 15.7749C38.4199 15.8039 38.241 15.92 38.4151 15.7701C38.5504 15.6541 38.6761 15.5284 38.797 15.393C38.826 15.3591 38.8502 15.3253 38.8792 15.2963C38.971 15.1948 38.7486 15.4945 38.8598 15.3156C38.9178 15.2286 38.9759 15.1416 39.029 15.0497C39.0725 14.9772 39.1112 14.8999 39.1499 14.8273C39.1499 14.8322 39.2079 14.721 39.2031 14.7113C39.2224 14.7403 39.1306 14.9144 39.1886 14.7355C39.2563 14.5373 39.3046 14.3439 39.3481 14.1408C39.382 13.991 39.3481 14.1989 39.3433 14.2037C39.353 14.1989 39.3578 14.0683 39.3578 14.0732C39.3626 13.9861 39.3675 13.8943 39.3675 13.8073C39.3675 13.7976 39.3675 13.7879 39.3675 13.7734C39.3675 13.5752 39.3675 13.377 39.3675 13.1739C39.3675 11.1241 39.3675 9.07426 39.3675 7.02925C39.3675 6.25573 39.3675 5.4822 39.3675 4.70868C39.3675 4.63616 39.3675 4.56848 39.3675 4.49596C39.3675 4.48629 39.3675 4.47662 39.3675 4.46212C39.3675 4.39444 39.3675 4.32675 39.3626 4.25907C39.3578 4.21556 39.3578 4.17205 39.353 4.12854C39.3384 3.90131 39.3965 4.34609 39.353 4.1237C39.3143 3.94483 39.2756 3.76595 39.2176 3.5919C39.2128 3.57257 39.1789 3.44687 39.1596 3.44203C39.1596 3.44203 39.2659 3.66442 39.1837 3.49521C39.1354 3.39852 39.0919 3.30667 39.0387 3.21481C38.9952 3.14229 38.9517 3.06977 38.9033 3.00209C38.8792 2.96341 38.8212 2.81838 38.8695 2.94891C38.9082 3.0601 38.884 2.96825 38.8453 2.92474C38.7148 2.77487 38.5794 2.62983 38.4247 2.4993C38.4247 2.4993 38.3425 2.41711 38.328 2.41711C38.3619 2.41711 38.4876 2.52831 38.3715 2.45579C38.2894 2.40261 38.2168 2.34943 38.1347 2.30108C38.0525 2.25274 37.9703 2.20923 37.8833 2.16572C37.8639 2.15605 37.7769 2.1077 37.7672 2.11254C37.7721 2.1077 37.9606 2.18506 37.8204 2.13671C37.6367 2.07386 37.453 2.01585 37.2596 1.97717C37.2209 1.9675 37.1677 1.9675 37.1291 1.953C37.3176 2.01585 37.2693 1.9675 37.1919 1.96267C37.0711 1.94333 36.9599 1.9385 36.8487 1.9385C36.341 1.93366 35.8576 1.49855 35.8818 0.97159C35.9059 0.454295 36.3072 -0.000150609 36.8487 0.00468387C38.8018 0.0240218 40.5422 1.31967 41.1127 3.19064C41.3351 3.91582 41.2964 4.67484 41.2964 5.42419C41.2964 7.59489 41.2964 9.7656 41.2964 11.9411C41.2964 12.5503 41.3013 13.1643 41.2964 13.7734C41.2868 15.4365 40.3392 17.0609 38.8212 17.7812C38.183 18.0858 37.5158 18.2454 36.8052 18.2454C36.5828 18.2454 36.3652 18.2454 36.1428 18.2454C35.1759 18.2454 34.2042 18.2454 33.2373 18.2454C31.3615 18.2454 29.4857 18.2454 27.6147 18.2454C26.0773 18.2454 24.6898 17.525 23.8148 16.2584C23.2008 15.3737 23.0654 14.3536 23.0654 13.3093C23.0654 11.2353 23.0654 9.15645 23.0654 7.08243C23.0654 6.2799 23.0654 5.47737 23.0654 4.67968C23.0654 3.38886 23.4812 2.15121 24.4384 1.24232C25.1733 0.54615 26.0822 0.144886 27.0781 0.0288567C27.3198 -0.000150475 27.5615 -0.000151829 27.8081 -0.00015185C28.6396 -0.000151923 29.4663 -0.000151995 30.2979 -0.000152068C32.3526 -0.000152248 34.4072 -0.000152427 36.4571 -0.000152606C36.5876 -0.000152618 36.723 -0.00015263 36.8535 -0.000152641C37.3611 -0.000152686 37.8446 0.444624 37.8204 0.966753C37.7914 1.49372 37.3901 1.9385 36.8487 1.9385Z" fill="#0045F6"/>
</svg>
