<svg width="24" height="24" viewBox="0 0 24 24" fill="none" xmlns="http://www.w3.org/2000/svg">
<path d="M10.0008 2.75C11.3709 2.74983 12.713 3.13789 13.8716 3.86922C15.0302 4.60054 15.9579 5.64519 16.5471 6.88212C17.1363 8.11905 17.3629 9.49762 17.2008 10.8581C17.0386 12.2186 16.4943 13.5052 15.6308 14.569L20.5308 19.469C20.6654 19.6027 20.7443 19.7823 20.7517 19.9718C20.7591 20.1613 20.6944 20.3466 20.5707 20.4903C20.447 20.6341 20.2734 20.7256 20.0849 20.7465C19.8965 20.7674 19.707 20.7161 19.5548 20.603L19.4708 20.53L14.5698 15.63C13.6687 16.3611 12.6053 16.8653 11.4689 17.1C10.3325 17.3348 9.15629 17.2934 8.03922 16.9793C6.92214 16.6651 5.89679 16.0874 5.04934 15.2947C4.20188 14.502 3.55708 13.5175 3.16913 12.4238C2.78118 11.3302 2.66141 10.1594 2.81988 9.00989C2.97835 7.86035 3.41044 6.76565 4.07984 5.81778C4.74923 4.8699 5.63636 4.09655 6.66669 3.56272C7.69702 3.02889 8.84043 2.75018 10.0008 2.75ZM10.0008 4.25C9.24574 4.25 8.49803 4.39873 7.80041 4.68769C7.10279 4.97666 6.46891 5.4002 5.93498 5.93414C5.40104 6.46807 4.9775 7.10195 4.68853 7.79957C4.39957 8.49719 4.25084 9.2449 4.25084 10C4.25084 10.7551 4.39957 11.5028 4.68853 12.2004C4.9775 12.8981 5.40104 13.5319 5.93498 14.0659C6.46891 14.5998 7.10279 15.0233 7.80041 15.3123C8.49803 15.6013 9.24574 15.75 10.0008 15.75C11.5258 15.75 12.9884 15.1442 14.0667 14.0659C15.145 12.9875 15.7508 11.525 15.7508 10C15.7508 8.47501 15.145 7.01247 14.0667 5.93414C12.9884 4.8558 11.5258 4.25 10.0008 4.25Z" fill="#00CFFF"/>
</svg>
