<svg width="24" height="24" viewBox="0 0 24 24" fill="none" xmlns="http://www.w3.org/2000/svg">
<path d="M6.74609 4.00047H10.2101C10.4001 4.00053 10.583 4.07271 10.7219 4.20244C10.8607 4.33217 10.9452 4.50977 10.9581 4.69935C10.9711 4.88893 10.9116 5.07636 10.7917 5.22377C10.6717 5.37117 10.5003 5.46757 10.3121 5.49347L10.2101 5.50047H6.74609C6.17613 5.50038 5.62737 5.71661 5.21066 6.10547C4.79396 6.49434 4.54036 7.02686 4.50109 7.59547L4.49609 7.75047V17.2505C4.49628 17.8204 4.71276 18.3691 5.1018 18.7856C5.49085 19.2021 6.02348 19.4555 6.59209 19.4945L6.74609 19.5005H16.2461C16.8162 19.5005 17.3651 19.2842 17.7818 18.8951C18.1986 18.506 18.4521 17.9733 18.4911 17.4045L18.4961 17.2505V16.7525C18.4941 16.5611 18.5654 16.3762 18.6954 16.2357C18.8253 16.0952 19.004 16.0096 19.195 15.9966C19.3859 15.9835 19.5746 16.044 19.7224 16.1656C19.8703 16.2871 19.966 16.4606 19.9901 16.6505L19.9961 16.7525V17.2505C19.9959 18.2103 19.6277 19.1335 18.9673 19.83C18.3069 20.5265 17.4046 20.9433 16.4461 20.9945L16.2461 21.0005H6.74609C5.78593 21.0005 4.86232 20.6323 4.16558 19.9717C3.46884 19.311 3.05205 18.4083 3.00109 17.4495L2.99609 17.2495V7.74947C2.99626 6.78964 3.36447 5.86642 4.02488 5.16992C4.68529 4.47341 5.58764 4.05666 6.54609 4.00547L6.74609 4.00047H10.2101H6.74609ZM14.4991 6.52047V3.75047C14.499 3.61251 14.537 3.47721 14.6088 3.35943C14.6807 3.24166 14.7836 3.14599 14.9063 3.08293C15.029 3.01987 15.1667 2.99188 15.3043 3.00203C15.4419 3.01218 15.574 3.06009 15.6861 3.14047L15.7681 3.20847L21.7621 8.95847C22.0421 9.22747 22.0681 9.65847 21.8391 9.95647L21.7621 10.0415L15.7681 15.7935C15.6686 15.8891 15.5446 15.9553 15.4098 15.985C15.275 16.0147 15.1346 16.0066 15.0042 15.9616C14.8737 15.9166 14.7582 15.8365 14.6703 15.7301C14.5824 15.6237 14.5256 15.4951 14.5061 15.3585L14.4991 15.2515V12.5265L14.1551 12.5565C11.7551 12.8065 9.45509 13.8875 7.24109 15.8165C6.72109 16.2695 5.91809 15.8415 6.00409 15.1585C6.66809 9.83847 9.45009 6.90747 14.1991 6.53947L14.4991 6.51947V3.75047V6.52047ZM15.9991 5.50747V7.25047C15.9991 7.44938 15.9201 7.64014 15.7794 7.7808C15.6388 7.92145 15.448 8.00047 15.2491 8.00047C11.3751 8.00047 8.97509 9.67647 7.93709 13.1575L7.85809 13.4355L8.21009 13.1985C10.4491 11.7375 12.7971 11.0005 15.2501 11.0005C15.4315 11.0005 15.6067 11.0663 15.7433 11.1856C15.8799 11.3049 15.9687 11.4697 15.9931 11.6495L16.0001 11.7505V13.4935L20.1591 9.50047L15.9991 5.50847V5.50747Z" fill="black"/>
</svg>
