<svg width="24" height="24" viewBox="0 0 24 24" fill="none" xmlns="http://www.w3.org/2000/svg">
<path d="M13.2097 3.10186C12.7147 2.09886 11.2837 2.09886 10.7887 3.10186L8.43071 7.87986L3.15771 8.64586C2.05071 8.80586 1.60771 10.1679 2.40971 10.9489L6.22471 14.6679L5.32471 19.9179C5.13471 21.0219 6.29271 21.8629 7.28371 21.3419L11.9987 18.8619L16.7147 21.3419C17.7047 21.8619 18.8627 21.0219 18.6747 19.9189L17.7727 14.6679L21.5887 10.9479C22.3887 10.1679 21.9477 8.80686 20.8407 8.64586L15.5677 7.87986L13.2097 3.10186ZM9.74071 8.61386L11.9987 4.03886L14.2577 8.61386C14.3545 8.81017 14.4975 8.98001 14.6745 9.10875C14.8515 9.23749 15.0571 9.32126 15.2737 9.35286L20.3237 10.0869L16.6697 13.6489C16.513 13.8017 16.3958 13.9903 16.3282 14.1985C16.2606 14.4067 16.2447 14.6281 16.2817 14.8439L17.1437 19.8729L12.6277 17.4979C12.4339 17.3959 12.2182 17.3426 11.9992 17.3426C11.7802 17.3426 11.5645 17.3959 11.3707 17.4979L6.85471 19.8729L7.71671 14.8429C7.75358 14.6273 7.73754 14.406 7.66995 14.198C7.60236 13.99 7.48526 13.8016 7.32871 13.6489L3.67471 10.0869L8.72471 9.35286C9.16471 9.28886 9.54471 9.01286 9.74071 8.61386ZM1.16471 3.78086C1.0406 3.93628 0.98331 4.13464 1.00544 4.3323C1.02757 4.52995 1.1273 4.71073 1.28271 4.83486L3.78271 6.83486C3.85935 6.89858 3.94793 6.94639 4.04326 6.97548C4.1386 7.00457 4.23877 7.01437 4.33794 7.0043C4.4371 6.99424 4.53327 6.9645 4.62081 6.91684C4.70835 6.86918 4.78551 6.80455 4.84778 6.72672C4.91006 6.6489 4.95619 6.55944 4.9835 6.46358C5.0108 6.36771 5.01872 6.26737 5.00679 6.16841C4.99487 6.06945 4.96334 5.97387 4.91405 5.88723C4.86475 5.8006 4.79869 5.72466 4.71971 5.66386L2.21971 3.66386C2.14278 3.6022 2.05446 3.55631 1.95978 3.52881C1.8651 3.50132 1.76594 3.49276 1.66795 3.50363C1.56996 3.51449 1.47508 3.54457 1.38873 3.59214C1.30238 3.63971 1.22625 3.70384 1.16471 3.78086ZM22.8367 18.2179C22.9609 18.0626 23.0184 17.8643 22.9964 17.6666C22.9745 17.469 22.875 17.2881 22.7197 17.1639L20.2197 15.1639C20.1428 15.1023 20.0546 15.0564 19.9599 15.0289C19.8653 15.0015 19.7662 14.9929 19.6683 15.0037C19.4706 15.0256 19.2896 15.1251 19.1652 15.2804C19.1036 15.3572 19.0578 15.4455 19.0303 15.5401C19.0028 15.6347 18.9942 15.7338 19.0051 15.8317C19.0269 16.0295 19.1264 16.2105 19.2817 16.3349L21.7817 18.3349C21.8586 18.3965 21.947 18.4424 22.0416 18.4699C22.1363 18.4974 22.2355 18.506 22.3335 18.4951C22.4315 18.4842 22.5263 18.4541 22.6127 18.4066C22.699 18.359 22.7752 18.2949 22.8367 18.2179ZM1.28271 17.1639C1.20373 17.2247 1.13766 17.3006 1.08837 17.3872C1.03908 17.4739 1.00755 17.5695 0.995621 17.6684C0.983696 17.7674 0.991617 17.8677 1.01892 17.9636C1.04622 18.0594 1.09236 18.1489 1.15463 18.2267C1.21691 18.3045 1.29407 18.3692 1.38161 18.4168C1.46915 18.4645 1.56531 18.4942 1.66448 18.5043C1.76364 18.5144 1.86382 18.5046 1.95915 18.4755C2.05448 18.4464 2.14306 18.3986 2.21971 18.3349L4.71971 16.3349C4.87079 16.2093 4.96655 16.0294 4.9864 15.8339C5.00625 15.6384 4.94859 15.443 4.82584 15.2896C4.70308 15.1361 4.52503 15.037 4.32996 15.0135C4.13489 14.99 3.93839 15.044 3.78271 15.1639L1.28271 17.1639ZM22.8367 3.77986C22.9609 3.93516 23.0184 4.13343 22.9964 4.33108C22.9745 4.52874 22.875 4.70958 22.7197 4.83386L20.2197 6.83386C20.1428 6.89545 20.0546 6.94129 19.9599 6.96877C19.8653 6.99625 19.7662 7.00482 19.6683 6.994C19.5704 6.98319 19.4756 6.95319 19.3893 6.90572C19.3029 6.85825 19.2268 6.79425 19.1652 6.71736C19.1036 6.64047 19.0578 6.5522 19.0303 6.4576C19.0028 6.36299 18.9942 6.2639 19.0051 6.16598C19.0159 6.06806 19.0459 5.97323 19.0933 5.88691C19.1408 5.80058 19.2048 5.72445 19.2817 5.66286L21.7817 3.66286C21.8586 3.6012 21.947 3.55531 22.0416 3.52781C22.1363 3.50032 22.2355 3.49176 22.3335 3.50263C22.4315 3.51349 22.5263 3.54357 22.6127 3.59114C22.699 3.63871 22.7752 3.70284 22.8367 3.77986Z" fill="#14B866"/>
</svg>
