<svg width="19" height="20" viewBox="0 0 19 20" fill="none" xmlns="http://www.w3.org/2000/svg">
<path d="M11.3138 4.565L11.1778 4.691L0.697849 15.179C0.287665 15.6079 0.0617536 16.1804 0.0685065 16.7738C0.0752594 17.3672 0.31414 17.9344 0.733978 18.3538C1.15382 18.7733 1.72122 19.0116 2.31465 19.0178C2.90808 19.024 3.48034 18.7976 3.90885 18.387L14.3878 7.9C14.8094 7.47778 15.0461 6.90545 15.046 6.30879C15.0458 5.71213 14.8087 5.13996 14.3868 4.718L14.2298 4.572C13.8238 4.22482 13.3074 4.03347 12.7731 4.03219C12.2389 4.03091 11.7216 4.21978 11.3138 4.565ZM10.4658 7.526L11.5538 8.614L2.84785 17.327C2.77718 17.4019 2.69221 17.4619 2.59797 17.5033C2.50372 17.5448 2.40211 17.567 2.29916 17.5685C2.1962 17.57 2.09398 17.5508 1.99855 17.5122C1.90313 17.4735 1.81643 17.4161 1.74358 17.3433C1.67074 17.2705 1.61323 17.1839 1.57446 17.0885C1.5357 16.9931 1.51645 16.8909 1.51788 16.7879C1.5193 16.685 1.54136 16.5833 1.58275 16.489C1.62414 16.3948 1.68402 16.3097 1.75885 16.239L10.4658 7.526ZM14.8518 12.006L14.7498 12C14.5686 12 14.3935 12.0656 14.2569 12.1848C14.1203 12.3039 14.0315 12.4684 14.0068 12.648L13.9998 12.75V13.5H13.2498C13.0686 13.5 12.8935 13.5656 12.7569 13.6848C12.6203 13.8039 12.5315 13.9684 12.5068 14.148L12.4998 14.25C12.4998 14.63 12.7818 14.944 13.1478 14.993L13.2498 15H13.9998V15.75C13.9998 16.13 14.2818 16.444 14.6479 16.493L14.7498 16.5C14.9311 16.5 15.1062 16.4344 15.2428 16.3152C15.3794 16.1961 15.4682 16.0316 15.4928 15.852L15.4998 15.75V15H16.2498C16.4311 15 16.6062 14.9344 16.7428 14.8152C16.8794 14.6961 16.9682 14.5316 16.9928 14.352L16.9998 14.25C16.9998 14.0688 16.9342 13.8937 16.8151 13.7571C16.696 13.6205 16.5314 13.5316 16.3518 13.507L16.2498 13.5H15.4998V12.75C15.4998 12.5688 15.4342 12.3937 15.3151 12.2571C15.196 12.1205 15.0314 12.0316 14.8518 12.007L14.7498 12L14.8518 12.007V12.006ZM13.2988 5.752L13.3258 5.779C13.4664 5.9198 13.5453 6.11059 13.5453 6.3095C13.5453 6.50841 13.4664 6.6992 13.3258 6.84L12.6148 7.553L11.5258 6.464L12.2558 5.734C12.398 5.60106 12.5864 5.52861 12.781 5.53197C12.9756 5.53533 13.1613 5.61423 13.2988 5.752ZM4.85185 2.007L4.74985 2C4.56861 2.00001 4.39351 2.06564 4.25692 2.18477C4.12033 2.30389 4.0315 2.46845 4.00685 2.648L3.99985 2.75V3.5H3.24985C3.06861 3.50001 2.89351 3.56564 2.75692 3.68477C2.62033 3.80389 2.5315 3.96845 2.50685 4.148L2.49985 4.25C2.49985 4.63 2.78185 4.943 3.14785 4.993L3.24985 5H3.99985V5.75C3.99985 6.13 4.28185 6.443 4.64785 6.493L4.74985 6.5C4.93109 6.49999 5.10619 6.43436 5.24278 6.31523C5.37937 6.19611 5.4682 6.03155 5.49285 5.852L5.49985 5.75V5H6.24985C6.43109 4.99999 6.60619 4.93436 6.74278 4.81523C6.87937 4.69611 6.9682 4.53155 6.99285 4.352L6.99985 4.25C6.99984 4.06876 6.93421 3.89366 6.81508 3.75707C6.69596 3.62048 6.5314 3.53165 6.35185 3.507L6.24985 3.5H5.49985V2.75C5.49984 2.56876 5.43421 2.39366 5.31508 2.25707C5.19596 2.12048 5.0314 2.03165 4.85185 2.007L4.74985 2L4.85185 2.007ZM16.8518 0.00699997L16.7498 0C16.5686 7.6429e-06 16.3935 0.0656426 16.2569 0.184767C16.1203 0.303891 16.0315 0.468446 16.0068 0.648L15.9998 0.75V1.5H15.2498C15.0686 1.50001 14.8935 1.56564 14.7569 1.68477C14.6203 1.80389 14.5315 1.96845 14.5068 2.148L14.4998 2.25C14.4998 2.63 14.7818 2.943 15.1479 2.993L15.2498 3H15.9998V3.75C15.9998 4.13 16.2819 4.443 16.6479 4.493L16.7498 4.5C16.9311 4.49999 17.1062 4.43436 17.2428 4.31523C17.3794 4.19611 17.4682 4.03155 17.4928 3.852L17.4998 3.75V3H18.2498C18.4311 2.99999 18.6062 2.93436 18.7428 2.81523C18.8794 2.69611 18.9682 2.53155 18.9928 2.352L18.9998 2.25C18.9998 2.06876 18.9342 1.89366 18.8151 1.75707C18.696 1.62048 18.5314 1.53165 18.3518 1.507L18.2498 1.5H17.4998V0.75C17.4998 0.568762 17.4342 0.393658 17.3151 0.257069C17.196 0.120481 17.0314 0.0316483 16.8518 0.00699997L16.7498 0L16.8518 0.00699997Z" fill="#0045F6"/>
</svg>
