<svg width="227" height="57" viewBox="0 0 227 57" fill="none" xmlns="http://www.w3.org/2000/svg">
<path fill-rule="evenodd" clip-rule="evenodd" d="M184.115 24.79C184.115 23.1424 184.043 21.1817 183.933 19.4656H187.07V22.6147C187.316 22.1064 187.228 22.3392 187.569 21.831C187.898 21.324 188.309 20.8752 188.815 20.464C189.348 20.0114 190.027 19.6259 190.806 19.3659C191.598 19.119 192.705 18.9509 193.785 18.9509C196.423 18.9775 198.53 19.8652 199.677 21.4158C200.771 22.9264 201.392 25.0731 201.392 27.4903V41.5158H198.201V28.1551C198.201 26.1064 197.887 24.6465 197.133 23.4373C196.311 22.2823 194.911 21.778 193.389 21.7702C191.141 21.7569 189.636 22.4906 188.676 24.1123C188.182 24.8818 187.822 25.7159 187.616 26.6096C187.396 27.5434 187.3 28.3879 187.3 29.3501V41.5158H184.115V24.79V24.79ZM220.016 28.4754C220.016 26.6855 219.635 25.1219 218.87 23.7821C218.07 22.4306 216.752 21.7297 214.92 21.6792C213.126 21.7299 211.707 22.4423 210.663 23.8197C209.594 25.2086 209.06 26.7605 209.06 28.4754H220.016V28.4754ZM221.88 40.2597C219.861 41.0226 217.665 41.465 215.524 41.4921C212.008 41.4241 209.457 40.3463 207.933 38.2409C206.422 36.1756 205.665 33.4893 205.693 30.2006C205.72 26.842 206.613 24.1235 208.273 22.0453C209.878 19.9813 212.054 18.9349 214.798 18.9078C217.802 18.9638 219.998 20.0226 221.385 22.0867C222.701 24.1094 223.428 26.6144 223.428 29.5992V31.2198H209.03C209.158 33.6083 209.64 35.0582 210.864 36.5661C212.051 38.0301 213.434 38.6534 215.718 38.7284C216.762 38.7631 217.888 38.5409 219.04 38.1581C220.178 37.7792 221.222 37.3279 221.895 36.9269L221.88 40.2597H221.88ZM83.946 22.1845H79.2061V35.5426C79.2061 36.5088 79.4248 37.2536 79.867 37.912C80.2692 38.5974 81.0297 38.7487 81.7229 38.7448C83.0445 38.7315 83.6873 38.4202 84.3444 38.084L84.5552 40.8322C84.2474 40.9375 83.5774 41.1335 83.0291 41.2667C82.4548 41.4128 81.697 41.4839 81.0167 41.4839C79.8942 41.4839 78.9591 41.25 78.3047 40.8619C77.6762 40.4726 77.115 39.9088 76.7943 39.2777C76.5148 38.6206 76.2963 37.7697 76.2161 36.951C76.1362 36.1195 76.1015 35.1625 76.1015 34.1965V22.1845H71.9722V19.4428H76.1015V14.4405L79.2067 13.3372V19.4428H83.9465V22.1845H83.946ZM55.0418 36.5898C56.7191 37.9271 59.0069 38.4975 61.6193 38.4975C63.4545 38.4975 64.8045 38.0848 66.0371 37.1188C67.2424 36.1514 67.7726 34.8659 67.7986 32.8652C67.7719 31.4556 67.2036 30.496 65.865 29.5429C65.2612 29.0462 64.564 28.578 63.761 28.1358C62.9708 27.6922 62.1728 27.2654 61.3426 26.8361C60.5252 26.3653 59.7247 25.8647 58.9616 25.3411C58.1572 24.8445 57.4071 24.2638 56.7786 23.6598C55.3521 22.4143 54.6641 20.781 54.637 18.9678C54.6636 16.6321 55.5513 14.6741 57.3528 13.2606C59.0534 11.9259 61.4149 11.2108 63.9847 11.1836C64.7335 11.1836 65.6103 11.2342 66.6152 11.3414C67.6318 11.5147 68.9547 11.8393 69.9324 12.2157L69.3659 15.3816C67.9718 14.6702 66.0268 14.1763 63.9368 14.1763C63.1996 14.1763 62.5388 14.2376 61.8288 14.3715C61.1188 14.5319 60.5692 14.757 59.9264 15.1734C59.3496 15.5367 58.9371 15.939 58.5633 16.5701C58.174 17.2271 57.9969 17.9241 57.9969 18.8631C57.9969 19.5485 58.1598 20.0528 58.5491 20.6296C58.9241 21.2078 59.382 21.6591 59.9846 22.1027C60.6273 22.5592 61.3076 22.9666 62.0978 23.383C62.8609 23.8253 63.6342 24.2638 64.4645 24.7332C66.1923 25.5519 67.7778 26.6757 69.0633 27.9379C69.6932 28.5419 70.239 29.3437 70.6268 30.1752C70.9748 30.9952 71.1506 32.0091 71.1506 33.0825C71.096 35.9432 70.0915 38.2155 68.0106 39.5515C66.0577 40.806 63.8398 41.4926 61.4718 41.4926C58.6887 41.426 56.3143 40.9987 54.7055 40.1412L55.0418 36.5898ZM157.701 22.1845H152.962V35.5426C152.962 36.5088 153.18 37.2536 153.622 37.912C154.025 38.5974 154.785 38.7487 155.478 38.7448C156.8 38.7315 157.443 38.4202 158.1 38.084L158.309 40.8322C158.003 40.9375 157.333 41.1335 156.784 41.2667C156.21 41.4128 155.452 41.4839 154.772 41.4839C153.65 41.4839 152.715 41.25 152.06 40.8619C151.432 40.4726 150.87 39.9088 150.55 39.2777C150.27 38.6206 150.052 37.7697 149.972 36.951C149.892 36.1195 149.857 35.1625 149.857 34.1965V22.1845H145.728V19.4428H149.857V14.4405L152.962 13.3372V19.4428H157.702V22.1845H157.701ZM128.797 36.5898C130.475 37.9271 132.762 38.4975 135.375 38.4975C137.21 38.4975 138.56 38.0848 139.793 37.1188C140.998 36.1514 141.528 34.8659 141.554 32.8652C141.529 31.4556 140.959 30.496 139.621 29.5429C139.017 29.0462 138.32 28.578 137.516 28.1358C136.726 27.6922 135.928 27.2654 135.098 26.8361C134.281 26.3653 133.48 25.8647 132.717 25.3411C131.913 24.8445 131.163 24.2638 130.534 23.6598C129.108 22.4143 128.42 20.781 128.392 18.9678C128.419 16.6321 129.307 14.6741 131.108 13.2606C132.809 11.9259 135.17 11.2108 137.74 11.1836C138.489 11.1836 139.366 11.2342 140.371 11.3414C141.387 11.5147 142.71 11.8393 143.688 12.2157L143.121 15.3816C141.727 14.6702 139.782 14.1763 137.692 14.1763C136.955 14.1763 136.294 14.2376 135.584 14.3715C134.874 14.5319 134.325 14.757 133.682 15.1734C133.105 15.5367 132.692 15.939 132.319 16.5701C131.929 17.2271 131.752 17.9241 131.752 18.8631C131.752 19.5485 131.915 20.0528 132.304 20.6296C132.68 21.2078 133.137 21.6591 133.74 22.1027C134.383 22.5592 135.063 22.9666 135.853 23.383C136.616 23.8253 137.39 24.2638 138.22 24.7332C139.948 25.5519 141.533 26.6757 142.819 27.9379C143.449 28.5419 143.994 29.3437 144.382 30.1752C144.73 30.9952 144.906 32.0091 144.906 33.0825C144.852 35.9432 143.847 38.2155 141.766 39.5515C139.813 40.806 137.595 41.4926 135.227 41.4926C132.444 41.426 130.07 40.9987 128.461 40.1412L128.797 36.5898V36.5898ZM163.461 30.2119C163.461 32.6328 164.046 34.6296 165.214 36.2049C166.331 37.8577 167.993 38.697 170.201 38.7228C172.407 38.6975 174.095 37.8577 175.264 36.2049C176.38 34.6296 176.939 32.6328 176.939 30.2119C176.939 27.7779 176.38 25.7552 175.264 24.1412C174.095 22.5403 172.407 21.728 170.201 21.7008C167.993 21.7275 166.331 22.5403 165.214 24.1412C164.046 25.7552 163.461 27.7779 163.461 30.2119ZM160.153 30.2119C160.153 27.1378 160.971 24.5124 162.605 22.3345C164.227 20.1011 166.754 18.9566 170.189 18.9023C173.679 18.9569 176.241 20.1011 177.877 22.3345C179.456 24.5124 180.247 27.1378 180.247 30.2119C180.247 33.2303 179.456 35.8427 177.877 38.0478C176.241 40.2955 173.679 41.4529 170.189 41.5215C166.754 41.4522 164.227 40.2955 162.605 38.0478C160.971 35.8427 160.153 33.2303 160.153 30.2119ZM123.174 30.2119C123.174 29.194 123.11 28.1775 122.983 27.1598C122.79 26.1432 122.464 25.2366 122.004 24.4399C121.581 23.58 120.973 22.914 120.181 22.4445C119.401 21.9363 118.422 21.6815 117.245 21.6815C116.144 21.6815 115.223 21.9363 114.481 22.4445C113.726 22.9669 113.113 23.6575 112.639 24.519C112.166 25.3803 111.84 26.2867 111.66 27.2386C111.43 28.2552 111.315 29.247 111.315 30.2119C111.275 32.1557 111.717 34.0399 112.639 35.866C113.113 36.7131 113.726 37.3921 114.481 37.9003C115.223 38.4617 116.144 38.7423 117.245 38.7423C118.422 38.7423 119.401 38.4617 120.181 37.9003C120.973 37.3921 121.581 36.7403 122.004 35.9436C122.464 35.0836 122.79 34.1446 122.983 33.1269C123.11 32.1491 123.174 31.1766 123.174 30.2119V30.2119ZM108.182 19.4363H111.304L111.161 22.5958C111.34 22.2958 111.233 22.5092 111.561 21.9764C111.875 21.4979 112.307 21.0723 112.839 20.5938C113.371 20.1167 114.019 19.7493 114.798 19.395C115.575 19.0807 116.523 18.9229 117.643 18.9229C120.781 18.9509 123.124 20.0468 124.517 22.1251C125.853 24.1607 126.55 26.817 126.55 30.1511C126.55 33.3622 125.842 36.0432 124.397 38.1473C122.909 40.2373 120.7 41.4737 117.536 41.4775C114.64 41.4775 112.668 40.3783 111.305 38.1473L111.291 49.651H108.18V19.4363H108.182ZM100.716 28.4877C100.716 26.6991 100.335 25.1343 99.5717 23.7957C98.7698 22.4442 97.4532 21.7433 95.622 21.6942C93.8283 21.7435 92.4095 22.4571 91.3672 23.8331C90.2976 25.2222 89.7635 26.7741 89.7635 28.4877H100.716ZM102.58 40.2681C100.561 41.031 98.3663 41.4734 96.2247 41.5006C92.7109 41.4326 90.1605 40.3547 88.637 38.2493C87.1265 36.1865 86.37 33.5004 86.3985 30.2116C86.4251 26.8556 87.3179 24.1371 88.9772 22.0602C90.5821 19.9961 92.7562 18.9512 95.4992 18.9226C98.5034 18.9786 100.698 20.0375 102.083 22.1003C103.401 24.123 104.127 26.6266 104.127 29.6115V31.232H89.7337C89.8617 33.618 90.3441 35.0678 91.5663 36.5758C92.7535 38.0398 94.1361 38.6618 96.4199 38.7381C97.4623 38.7715 98.5887 38.5505 99.7397 38.1665C100.878 37.7876 101.92 37.3363 102.594 36.9365L102.579 40.2681H102.58Z" fill="white"/>
<path fill-rule="evenodd" clip-rule="evenodd" d="M34.2388 24.1671C31.9058 21.5468 30.3668 18.7612 27.8966 16.4579C22.6679 11.5823 14.2591 12.7605 10.4556 18.8129C7.49012 23.532 5.39764 27.1868 3.85093 32.5345C3.35299 34.2571 3.54699 35.9772 4.23241 37.4476C15.78 36.3431 26.1726 31.4999 34.2388 24.1671V24.1671ZM5.92982 39.7438C7.08986 40.7771 8.6082 41.438 10.3231 41.5013C11.681 41.5506 13.0493 41.5533 14.4278 41.5013C20.5205 41.2866 26.3544 40.1241 31.7991 38.1634C37.0756 36.2637 38.7128 29.8645 35.4319 25.5386C27.596 33.1197 17.3688 38.2708 5.92982 39.7413" fill="white"/>
</svg>
