<svg width="23" height="19" viewBox="0 0 23 19" fill="none" xmlns="http://www.w3.org/2000/svg">
<path d="M7.26225 18.9213C15.8842 18.9213 20.5992 11.6721 20.5992 5.3858C20.5992 5.1799 20.595 4.97493 20.5859 4.77088C21.5012 4.09938 22.2967 3.26141 22.9241 2.30748C22.0842 2.68636 21.1804 2.94141 20.2323 3.05642C21.2 2.46746 21.943 1.53581 22.2935 0.425175C21.3879 0.970074 20.3849 1.36611 19.317 1.57993C18.4617 0.655254 17.2439 0.0769043 15.8955 0.0769043C13.3069 0.0769043 11.2078 2.20737 11.2078 4.83348C11.2078 5.20679 11.2489 5.5699 11.3293 5.9182C7.43351 5.71926 3.97899 3.82625 1.66703 0.947812C1.26447 1.65084 1.03234 2.46749 1.03234 3.33886C1.03234 4.98933 1.85988 6.44637 3.11829 7.29876C2.34925 7.27465 1.62682 7.06039 0.995389 6.70377C0.994699 6.72373 0.994696 6.74319 0.994696 6.76453C0.994696 9.06843 2.61045 10.992 4.75527 11.4279C4.36139 11.5369 3.94698 11.5953 3.51925 11.5953C3.21768 11.5953 2.92386 11.5652 2.63828 11.5095C3.23503 13.3997 4.96549 14.7752 7.01709 14.8136C5.41276 16.0898 3.39176 16.85 1.19526 16.85C0.817368 16.85 0.444052 16.8281 0.0771484 16.7841C2.15167 18.1336 4.61497 18.921 7.2625 18.921" fill="black"/>
</svg>
