<svg width="45" height="44" viewBox="0 0 45 44" fill="none" xmlns="http://www.w3.org/2000/svg">
<rect width="44" height="44" transform="translate(0.25)" fill="white"/>
<path d="M17.7624 31.8344C19.6204 31.8461 21.4623 31.4888 23.1812 30.7831C24.9001 30.0775 26.4617 29.0375 27.7756 27.7237C29.0895 26.4098 30.1294 24.8481 30.8351 23.1293C31.5407 21.4104 31.8981 19.5685 31.8864 17.7104V17.0614C32.8495 16.3558 33.6832 15.4886 34.3504 14.4984C33.4435 14.8951 32.4838 15.1582 31.5014 15.2794C32.543 14.6588 33.3245 13.6819 33.7014 12.5294C32.7307 13.1118 31.6662 13.5212 30.5554 13.7394C29.8073 12.9423 28.8174 12.414 27.7388 12.2362C26.6602 12.0583 25.5531 12.2409 24.5887 12.7557C23.6243 13.2704 22.8565 14.0886 22.404 15.0837C21.9514 16.0788 21.8395 17.1953 22.0854 18.2604C20.112 18.1636 18.1812 17.6522 16.4186 16.7595C14.656 15.8668 13.1012 14.6129 11.8554 13.0794C11.2272 14.1697 11.0368 15.458 11.3227 16.6834C11.6087 17.9088 12.3495 18.9798 13.3954 19.6794C12.6239 19.6497 11.8702 19.4387 11.1954 19.0634V19.1184C11.1885 20.2579 11.5724 21.3652 12.283 22.2559C12.9935 23.1467 13.9879 23.767 15.1004 24.0134C14.3828 24.2064 13.6311 24.2365 12.9004 24.1014C13.2225 25.0732 13.8372 25.9215 14.6604 26.53C15.4836 27.1385 16.4749 27.4775 17.4984 27.5004C15.7485 28.909 13.5737 29.6844 11.3274 29.7004C10.9335 29.689 10.5406 29.656 10.1504 29.6014C12.424 31.05 15.0665 31.8137 17.7624 31.8014" fill="black"/>
</svg>
