<svg width="20" height="16" viewBox="0 0 20 16" fill="none" xmlns="http://www.w3.org/2000/svg">
<path d="M19.688 1.89404C18.9507 2.22064 18.1687 2.43503 17.368 2.53006C18.2021 2.03017 18.8425 1.23857 19.144 0.295396C18.3511 0.765896 17.4837 1.09739 16.5791 1.27556C15.8423 0.490584 14.7926 0 13.6308 0C11.4 0 9.59142 1.80852 9.59142 4.03911C9.59142 4.35573 9.62718 4.66397 9.69601 4.95967C6.33906 4.79117 3.3628 3.18314 1.37054 0.739375C1.02293 1.33594 0.823741 2.02986 0.823741 2.77C0.823741 4.17139 1.53689 5.40765 2.62065 6.13203C1.97922 6.11194 1.35189 5.93869 0.791056 5.62676C0.790825 5.64368 0.790825 5.66059 0.790825 5.67759C0.790825 7.63462 2.18313 9.26718 4.03088 9.63825C3.43608 9.80002 2.81217 9.82369 2.20682 9.70747C2.72078 11.3122 4.21253 12.4799 5.97999 12.5126C4.5976 13.5959 2.85591 14.2417 0.963556 14.2417C0.637475 14.2417 0.316007 14.2225 0 14.1852C1.78753 15.3313 3.91067 16 6.19171 16C13.6214 16 17.6841 9.84513 17.6841 4.50754C17.6841 4.33235 17.6802 4.15816 17.6724 3.98497C18.4632 3.41331 19.1457 2.70526 19.688 1.89404Z" fill="black"/>
</svg>
