<svg width="20" height="20" viewBox="0 0 20 20" fill="none" xmlns="http://www.w3.org/2000/svg">
<path d="M8.19616 1.69457C8.28949 1.72624 8.38116 1.76457 8.47032 1.8079L9.53949 2.33457C9.6826 2.40501 9.83998 2.44164 9.99949 2.44164C10.159 2.44164 10.3164 2.40501 10.4595 2.33457L11.5287 1.8079C12.0739 1.5397 12.7034 1.49903 13.2786 1.69484C13.8538 1.89065 14.3278 2.3069 14.5962 2.85207L14.6578 2.98707L14.7103 3.12624L15.0937 4.25374C15.1978 4.5604 15.4387 4.8004 15.7445 4.90457L16.8728 5.2879C17.1815 5.39291 17.4641 5.56256 17.702 5.78553C17.9398 6.0085 18.1274 6.27965 18.2521 6.58087C18.3768 6.8821 18.4358 7.20646 18.4251 7.5323C18.4145 7.85815 18.3344 8.17796 18.1903 8.4704L17.6645 9.53957C17.5941 9.68268 17.5574 9.84006 17.5574 9.99957C17.5574 10.1591 17.5941 10.3165 17.6645 10.4596L18.1903 11.5287C18.3343 11.8211 18.4142 12.1409 18.4248 12.4666C18.4354 12.7924 18.3763 13.1166 18.2517 13.4177C18.127 13.7189 17.9395 13.9899 17.7017 14.2128C17.4639 14.4357 17.1814 14.6054 16.8728 14.7104L15.7445 15.0937C15.5936 15.1452 15.4565 15.2307 15.3438 15.3435C15.2311 15.4564 15.1458 15.5936 15.0945 15.7446L14.7103 16.8729C14.6053 17.1814 14.4357 17.464 14.2128 17.7018C13.9899 17.9396 13.7188 18.127 13.4177 18.2517C13.1165 18.3764 12.7923 18.4354 12.4665 18.4249C12.1408 18.4143 11.8211 18.3344 11.5287 18.1904L10.4595 17.6646C10.3164 17.5941 10.159 17.5575 9.99949 17.5575C9.83998 17.5575 9.6826 17.5941 9.53949 17.6646L8.47032 18.1904C8.17792 18.3344 7.85818 18.4143 7.53244 18.4249C7.20669 18.4354 6.88243 18.3764 6.58131 18.2517C6.28019 18.127 6.00913 17.9396 5.78622 17.7018C5.56331 17.464 5.39368 17.1814 5.28866 16.8729L4.90532 15.7446C4.85375 15.5935 4.76817 15.4564 4.65518 15.3437C4.54219 15.231 4.40481 15.1458 4.25366 15.0946L3.12616 14.7104C2.81755 14.6055 2.53489 14.4359 2.29703 14.213C2.05917 13.9902 1.87159 13.7191 1.74681 13.418C1.62204 13.1168 1.56294 12.7926 1.57346 12.4668C1.58398 12.141 1.66388 11.8212 1.80782 11.5287L2.33449 10.4596C2.40493 10.3165 2.44156 10.1591 2.44156 9.99957C2.44156 9.84006 2.40493 9.68268 2.33449 9.53957L1.80782 8.4704C1.66388 8.17795 1.58398 7.85815 1.57346 7.53237C1.56294 7.20658 1.62204 6.88229 1.74681 6.58116C1.87159 6.28003 2.05917 6.00898 2.29703 5.78611C2.53489 5.56324 2.81755 5.39367 3.12616 5.28874L4.25366 4.9054C4.40484 4.85394 4.54216 4.7684 4.65501 4.65541C4.76786 4.54241 4.85322 4.40498 4.90449 4.25374L5.28782 3.12624C5.38473 2.84123 5.53683 2.57811 5.73545 2.3519C5.93407 2.12569 6.17531 1.94083 6.44539 1.80788C6.71547 1.67493 7.0091 1.59649 7.3095 1.57705C7.6099 1.55761 7.91119 1.59754 8.19616 1.69457ZM12.8903 7.47374L8.37449 11.9904L6.72949 10.0154C6.67769 9.95012 6.61336 9.89585 6.54028 9.8558C6.46719 9.81574 6.38684 9.79071 6.30394 9.78217C6.22104 9.77363 6.13727 9.78175 6.05755 9.80607C5.97784 9.83038 5.9038 9.87039 5.83977 9.92374C5.77575 9.97709 5.72304 10.0427 5.68476 10.1167C5.64647 10.1908 5.62337 10.2717 5.61682 10.3548C5.61027 10.4378 5.62041 10.5214 5.64662 10.6005C5.67284 10.6796 5.71462 10.7527 5.76949 10.8154L7.85282 13.3154C7.90837 13.3821 7.9772 13.4365 8.05493 13.4751C8.13266 13.5138 8.21759 13.5358 8.30429 13.5398C8.391 13.5438 8.47759 13.5297 8.55854 13.4983C8.6395 13.467 8.71304 13.4192 8.77449 13.3579L13.7745 8.3579C13.8359 8.30068 13.8851 8.23168 13.9193 8.15502C13.9535 8.07835 13.9718 7.99559 13.9733 7.91167C13.9748 7.82775 13.9594 7.74439 13.9279 7.66657C13.8965 7.58875 13.8497 7.51805 13.7904 7.4587C13.731 7.39936 13.6603 7.35257 13.5825 7.32113C13.5047 7.2897 13.4213 7.27426 13.3374 7.27574C13.2535 7.27722 13.1707 7.29559 13.094 7.32975C13.0174 7.36391 12.9484 7.41316 12.8912 7.47457L12.8903 7.47374Z" fill="#0080FF"/>
</svg>
