<svg width="44" height="44" viewBox="0 0 44 44" fill="none" xmlns="http://www.w3.org/2000/svg">
<rect width="44" height="44" rx="22" fill="#384747"/>
<path d="M20.6628 13.9971C22.3636 13.9972 24.0221 14.5269 25.408 15.5128C26.7939 16.4987 27.8383 17.8917 28.3962 19.4984L28.4962 19.8091L28.5548 20.0011H31.6615C32.5951 20.001 33.4935 20.3573 34.1734 20.997C34.8533 21.6368 35.2634 22.5119 35.3202 23.4437L35.3268 23.6664V24.9997C35.3265 25.5851 35.1061 26.1489 34.7095 26.5794C34.3128 27.0099 33.7689 27.2756 33.1855 27.3237L32.9948 27.3304H30.8268L31.1482 28.1091C31.3703 28.6486 31.3822 29.2519 31.1816 29.7998C30.9809 30.3477 30.5822 30.8006 30.0642 31.0691L29.8815 31.1544C29.6703 31.2416 29.4475 31.2973 29.2202 31.3197L28.9922 31.3304H26.6095C26.2022 31.3302 25.8021 31.2234 25.4488 31.0206C25.0956 30.8178 24.8017 30.526 24.5962 30.1744L24.5002 29.9917L23.7815 28.4677L23.8535 28.4584C21.9868 28.7064 20.0975 28.7357 18.2255 28.5464L17.5628 28.4704L16.8495 29.9851C16.661 30.3856 16.3625 30.7243 15.9888 30.9616C15.615 31.1989 15.1815 31.3249 14.7388 31.3251H12.3335C11.9503 31.3252 11.573 31.231 11.2349 31.0506C10.8968 30.8703 10.6084 30.6094 10.3951 30.2911C10.1818 29.9727 10.0503 29.6067 10.0121 29.2255C9.97389 28.8442 10.0302 28.4594 10.1762 28.1051L10.7535 26.7051C10.1144 26.3204 9.58573 25.7768 9.21891 25.1273C8.85209 24.4778 8.6596 23.7444 8.66016 22.9984C8.66049 22.757 8.74815 22.5238 8.90695 22.342C9.06575 22.1602 9.28498 22.0419 9.52416 22.0091L9.66016 21.9997H12.1668L12.8295 19.8091C13.3384 18.1278 14.3748 16.655 15.7855 15.6083C17.1962 14.5617 18.9063 13.9967 20.6628 13.9971ZM29.6988 26.9211C28.6708 27.3344 27.6202 27.6744 26.5575 27.9411L25.8255 28.1131L26.3082 29.1397C26.3404 29.2089 26.3955 29.2649 26.4642 29.2984L26.5348 29.3224L26.6095 29.3317H28.9922C29.0393 29.3317 29.0859 29.3217 29.1288 29.3023C29.1718 29.2829 29.2102 29.2547 29.2414 29.2194C29.2727 29.1841 29.2961 29.1426 29.3101 29.0976C29.3241 29.0526 29.3285 29.0052 29.3228 28.9584L29.3002 28.8717L28.6628 27.3304H28.6055L29.1535 27.1331L29.6988 26.9211ZM11.6295 26.9211L12.1495 27.1237L12.6668 27.3117L12.0242 28.8664C12.0033 28.9171 11.9953 28.9722 12.0009 29.0267C12.0064 29.0813 12.0253 29.1336 12.0559 29.1791C12.0865 29.2246 12.1278 29.2618 12.1762 29.2875C12.2247 29.3132 12.2787 29.3266 12.3335 29.3264H14.7388L14.8148 29.3171C14.864 29.3058 14.9099 29.2834 14.9492 29.2518C14.9884 29.2201 15.02 29.18 15.0415 29.1344L15.5202 28.1171L15.5788 28.1304C14.2304 27.8409 12.9091 27.4368 11.6295 26.9224V26.9211ZM11.3602 24.6624L11.5615 23.9957L10.8855 23.9984L10.9188 24.0677C11.0335 24.2891 11.1828 24.4891 11.3588 24.6624H11.3602ZM29.1602 21.9997L30.1682 25.3304L32.9948 25.3317C33.0697 25.3317 33.1425 25.3064 33.2012 25.2599C33.26 25.2135 33.3014 25.1486 33.3188 25.0757L33.3282 24.9984V23.6664C33.328 23.254 33.175 22.8563 32.8987 22.5502C32.6224 22.2441 32.2424 22.0513 31.8322 22.0091L31.6615 22.0011H29.1602V21.9997Z" fill="#FACC9E"/>
</svg>
