<svg width="43" height="44" viewBox="0 0 43 44" fill="none" xmlns="http://www.w3.org/2000/svg">
<path d="M38.5966 12.2085C39.4154 15.4012 39.4154 22.0662 39.4154 22.0662C39.4154 22.0662 39.4154 28.7312 38.5966 31.924C38.1415 33.6888 36.8103 35.0773 35.1243 35.5467C32.0624 36.3996 21.4987 36.3996 21.4987 36.3996C21.4987 36.3996 10.9404 36.3996 7.87307 35.5467C6.17995 35.0702 4.85053 33.6834 4.40082 31.924C3.58203 28.7312 3.58203 22.0662 3.58203 22.0662C3.58203 22.0662 3.58203 15.4012 4.40082 12.2085C4.85591 10.4437 6.18711 9.05516 7.87307 8.58574C10.9404 7.73291 21.4987 7.73291 21.4987 7.73291C21.4987 7.73291 32.0624 7.73291 35.1243 8.58574C36.8174 9.06233 38.1469 10.4491 38.5966 12.2085V12.2085ZM17.9154 28.3371L28.6654 22.0662L17.9154 15.7954V28.3371Z" fill="white"/>
</svg>
